<svg width="16" height="16" viewBox="0 0 16 16" fill="none" xmlns="http://www.w3.org/2000/svg">
<path fill-rule="evenodd" clip-rule="evenodd" d="M13.0004 4.00011C13.2657 4.00011 13.52 3.89475 13.7076 3.70721C13.8951 3.51966 14.0005 3.2653 14.0005 3.00007C14.0005 2.73485 13.8951 2.48048 13.7076 2.29294C13.52 2.1054 13.2657 2.00004 13.0004 2.00004C12.7352 2.00004 12.4808 2.1054 12.2933 2.29294C12.1058 2.48048 12.0004 2.73485 12.0004 3.00007C12.0004 3.2653 12.1058 3.51966 12.2933 3.70721C12.4808 3.89475 12.7352 4.00011 13.0004 4.00011ZM13.0004 5.00015C13.3745 5.00005 13.741 4.89506 14.0584 4.6971C14.3758 4.49914 14.6313 4.21614 14.7959 3.88025C14.9605 3.54436 15.0277 3.16903 14.9897 2.79691C14.9517 2.42479 14.8101 2.07077 14.581 1.77508C14.3519 1.47939 14.0444 1.25387 13.6936 1.12414C13.3428 0.994411 12.9626 0.965665 12.5962 1.04117C12.2298 1.11668 11.892 1.29341 11.621 1.55129C11.3501 1.80917 11.1569 2.13787 11.0634 2.50005H11.0004C8.74594 2.50005 6.58386 3.39562 4.98974 4.98974C3.39562 6.58386 2.50006 8.74594 2.50006 11.0004V11.0634C2.02871 11.1851 1.61793 11.4745 1.34472 11.8774C1.0715 12.2803 0.954607 12.769 1.01595 13.2519C1.07729 13.7349 1.31265 14.1788 1.67791 14.5007C2.04318 14.8225 2.51327 15 3.00008 15C3.48688 15 3.95697 14.8225 4.32224 14.5007C4.68751 14.1788 4.92287 13.7349 4.98421 13.2519C5.04555 12.769 4.92865 12.2803 4.65544 11.8774C4.38222 11.4745 3.97144 11.1851 3.50009 11.0634V11.0004C3.50009 9.01117 4.2903 7.10344 5.69687 5.69687C7.10345 4.2903 9.01117 3.50009 11.0004 3.50009H11.0634C11.1742 3.9295 11.4247 4.30989 11.7753 4.58142C12.126 4.85296 12.5569 5.00026 13.0004 5.00015ZM3.00008 14.0005C3.2653 14.0005 3.51967 13.8951 3.70721 13.7076C3.89475 13.52 4.00011 13.2657 4.00011 13.0004C4.00011 12.7352 3.89475 12.4808 3.70721 12.2933C3.51967 12.1058 3.2653 12.0004 3.00008 12.0004C2.73485 12.0004 2.48049 12.1058 2.29294 12.2933C2.1054 12.4808 2.00004 12.7352 2.00004 13.0004C2.00004 13.2657 2.1054 13.52 2.29294 13.7076C2.48049 13.8951 2.73485 14.0005 3.00008 14.0005Z" fill="currentColor"/>
</svg>
