<svg width="16" height="16" viewBox="0 0 16 16" fill="none" xmlns="http://www.w3.org/2000/svg">
<path d="M3.99969 8.31445C3.67381 9.16382 3.49974 10.0727 3.49969 11V11.0635C3.97084 11.1851 4.38175 11.4743 4.65497 11.877C4.92818 12.2799 5.04541 12.7691 4.98407 13.252C4.92272 13.7349 4.68721 14.1791 4.32196 14.501C3.95673 14.8226 3.48637 15 2.99969 15C2.51302 14.9999 2.04261 14.8227 1.67743 14.501C1.31227 14.1791 1.07765 13.7349 1.0163 13.252C0.954953 12.7691 1.0712 12.2799 1.34442 11.877C1.61756 11.4742 2.02856 11.1852 2.49969 11.0635V11C2.49978 9.26724 3.03099 7.59027 3.99969 6.18262V8.31445ZM2.99969 12C2.73462 12.0001 2.48012 12.1056 2.29266 12.293C2.10522 12.4804 1.9998 12.7349 1.99969 13C1.99969 13.2653 2.10512 13.5204 2.29266 13.708C2.48012 13.8954 2.73463 14.0009 2.99969 14.001C3.26471 14.001 3.51923 13.8952 3.70673 13.708C3.89427 13.5204 3.99969 13.2653 3.99969 13C3.99959 12.7349 3.89417 12.4804 3.70673 12.293C3.51922 12.1057 3.26473 12 2.99969 12Z" fill="currentColor"/>
<path d="M12.5957 1.0409C12.962 0.965412 13.3426 0.994264 13.6934 1.12391C14.0442 1.25364 14.352 1.47958 14.5811 1.77527C14.81 2.07088 14.9512 2.42477 14.9893 2.79676C15.0272 3.16873 14.9604 3.54398 14.7959 3.87976C14.6313 4.21561 14.3759 4.49919 14.0586 4.69715C13.7412 4.89511 13.3741 4.99978 13 4.99988C12.5566 4.99991 12.126 4.8524 11.7754 4.58094C11.4249 4.30942 11.1743 3.92922 11.0635 3.49988H11C9.01094 3.49998 7.10375 4.29071 5.69727 5.69715C4.94654 6.44787 4.37313 7.34189 4 8.31433V6.18152C4.29132 5.75832 4.62089 5.35853 4.98926 4.99012C6.58329 3.39609 8.74568 2.49998 11 2.49988H11.0635C11.157 2.13783 11.3503 1.80946 11.6211 1.55164C11.892 1.29386 12.2295 1.11645 12.5957 1.0409ZM13 1.99988C12.7349 1.99998 12.4804 2.1054 12.293 2.29285C12.1056 2.48034 12 2.73478 12 2.99988C12 3.26497 12.1057 3.51939 12.293 3.70691C12.4804 3.89436 12.7349 3.99978 13 3.99988C13.2653 3.99988 13.5204 3.89445 13.708 3.70691C13.8953 3.5194 14 3.26494 14 2.99988C14 2.73481 13.8954 2.48033 13.708 2.29285C13.5204 2.10531 13.2653 1.99988 13 1.99988Z" fill="#3ECF8E"/>
<path opacity="0.8" d="M5.45092 8.2702C5.30274 8.66934 5.92047 8.86986 6.21203 8.5596C6.73621 8.00177 7.39697 7.48775 8.06039 7.2796L8.26845 8.05609C8.31413 8.22657 8.54215 8.25863 8.63306 8.10735L9.83807 6.10228C9.89751 6.00339 9.86117 5.87486 9.75875 5.82172L7.73517 4.77186C7.58083 4.69179 7.40488 4.83321 7.44988 5.00116L7.66246 5.79449C7.37074 5.96035 6.01432 6.75264 5.45092 8.2702Z" fill="#3ECF8E"/>
</svg>
