<svg width="16" height="16" viewBox="0 0 16 16" fill="none" xmlns="http://www.w3.org/2000/svg">
<path d="M5.10312 7.04865C4.64022 5.86892 5.75698 4.70218 6.93472 5.06409L7.0487 5.10409V5.10509L14.0492 7.85547L14.1692 7.90846C15.3249 8.47334 15.2609 10.167 14.0642 10.6419L13.9412 10.6848L11.4498 11.4497L10.6829 13.9421C10.278 15.2568 8.48939 15.3618 7.90651 14.1691L7.85452 14.0491L5.10512 7.04965L5.10312 7.04865ZM6.68278 6.03588C6.59224 6.00039 6.49332 5.99207 6.39813 6.01195C6.30293 6.03183 6.21561 6.07904 6.14685 6.14781C6.07808 6.21657 6.03087 6.30389 6.01099 6.39909C5.99111 6.49428 5.99942 6.5932 6.03492 6.68373L8.78532 13.6832C8.82054 13.7728 8.88092 13.8504 8.95918 13.9066C9.03745 13.9627 9.13028 13.9951 9.2265 13.9997C9.32272 14.0044 9.41823 13.9811 9.50155 13.9328C9.58487 13.8844 9.65243 13.813 9.69613 13.7272L9.72812 13.6482L10.6509 10.6509L13.6473 9.72906C13.7463 9.69865 13.8335 9.63822 13.8967 9.55612C13.9599 9.47402 13.996 9.37431 14.0001 9.27078C14.0041 9.16725 13.9759 9.06501 13.9194 8.97821C13.8628 8.89142 13.7806 8.82434 13.6843 8.78627L6.68278 6.03588ZM4.14532 8.14541C4.23906 8.05154 4.36624 7.99876 4.49889 7.99866C4.63155 7.99857 4.7588 8.05118 4.85267 8.14491C4.94654 8.23864 4.99932 8.36582 4.99942 8.49848C4.99951 8.63113 4.9469 8.75839 4.85317 8.85225L3.96336 9.73905C3.98664 9.82342 3.99874 9.91048 3.99935 9.998V10.9978C3.99935 11.2629 3.89402 11.5172 3.70652 11.7047C3.51903 11.8922 3.26473 11.9976 2.99957 11.9976H1.99978L1.89681 11.9926C1.65074 11.9671 1.42285 11.8513 1.25721 11.6675C1.09156 11.4838 0.999921 11.2452 1 10.9978V9.998C1 9.73284 1.10533 9.47854 1.29283 9.29105C1.48033 9.10355 1.73463 8.99822 1.99978 8.99822H2.99957C3.08666 8.99827 3.17338 9.00969 3.25751 9.03221L4.14532 8.14541ZM1.99978 10.9978H2.99957V9.998H1.99978V10.9978ZM10.9978 1C11.263 1 11.5173 1.10533 11.7048 1.29283C11.8923 1.48032 11.9976 1.73462 11.9976 1.99978V2.99955C11.9976 3.26471 11.8923 3.51901 11.7048 3.7065C11.5173 3.894 11.263 3.99933 10.9978 3.99933H9.99806L9.89609 3.99433C9.84305 3.98854 9.79056 3.97851 9.73912 3.96434L8.85231 4.85314C8.75844 4.94688 8.63119 4.99948 8.49853 4.99939C8.36588 4.99929 8.2387 4.94651 8.14496 4.85264C8.05123 4.75878 7.99862 4.63152 7.99872 4.49887C7.99881 4.36621 8.0516 4.23903 8.14546 4.1453L9.03227 3.2575C9.00975 3.17336 8.99833 3.08665 8.99828 2.99955V1.99978C8.99828 1.73462 9.10361 1.48032 9.29111 1.29283C9.47861 1.10533 9.7329 1 9.99806 1H10.9978ZM9.99806 2.99955H10.9978V1.99978H9.99806V2.99955Z" fill="currentColor"/>
</svg>
