<svg width="16" height="16" viewBox="0 0 16 16" fill="none" xmlns="http://www.w3.org/2000/svg">
<path d="M5.1031 7.04866C4.6402 5.86892 5.75696 4.70218 6.93471 5.0641L7.04869 5.10409V5.10509L14.0492 7.85548L14.1692 7.90847C15.3249 8.47334 15.2609 10.167 14.0642 10.6419L13.9412 10.6849L11.4497 11.4497L10.6829 13.9421C10.278 15.2568 8.48938 15.3618 7.9065 14.1691L7.85451 14.0491L5.1051 7.04966L5.1031 7.04866ZM6.68276 6.03588C6.59223 6.00039 6.4933 5.99208 6.39811 6.01196C6.30292 6.03184 6.2156 6.07905 6.14683 6.14781C6.07807 6.21658 6.03086 6.3039 6.01098 6.39909C5.9911 6.49428 5.99941 6.59321 6.0349 6.68374L8.78531 13.6832C8.82053 13.7728 8.8809 13.8504 8.95917 13.9066C9.03744 13.9627 9.13027 13.9951 9.22649 13.9997C9.32271 14.0044 9.41822 13.9811 9.50154 13.9328C9.58485 13.8844 9.65242 13.813 9.69612 13.7272L9.72811 13.6482L10.6509 10.6509L13.6473 9.72906C13.7463 9.69866 13.8335 9.63822 13.8967 9.55612C13.9599 9.47402 13.996 9.37432 14.0001 9.27079C14.0041 9.16726 13.9759 9.06502 13.9193 8.97822C13.8628 8.89142 13.7806 8.82435 13.6843 8.78627L6.68276 6.03588Z" fill="currentColor"/>
<circle cx="3.5" cy="3.5" r="1.5" fill="#3ECF8E"/>
</svg>
