<svg width="16" height="16" viewBox="0 0 16 16" fill="none" xmlns="http://www.w3.org/2000/svg">
<path d="M8 1C8.23775 1 8.47356 1.06064 8.68164 1.1748L13.8027 3.99316C14.2487 4.23857 14.5253 4.70544 14.5254 5.21191V10.7881C14.5249 11.2929 14.2482 11.7595 13.8027 12.0049L8.68164 14.8252C8.47478 14.9394 8.23898 15 8 15C7.76078 15 7.52546 14.9394 7.31836 14.8252L2.19727 12.0049C1.75184 11.7595 1.47516 11.293 1.47461 10.7881V5.21191C1.47438 4.70596 1.75091 4.23856 2.19727 3.99316L7.31836 1.1748C7.5263 1.06064 7.76183 1 8 1ZM7.99316 1.91797C7.91264 1.91797 7.8324 1.93872 7.76172 1.97754L2.64746 4.7959C2.49904 4.8815 2.40758 5.04088 2.40918 5.21191V10.7881C2.40753 10.9585 2.49858 11.1186 2.64746 11.2041L7.77637 14.0225C7.84619 14.0607 7.92553 14.082 8.00684 14.082C8.08746 14.082 8.1668 14.0613 8.2373 14.0225L13.3594 11.2041C13.5076 11.1191 13.5989 10.9592 13.5977 10.7881L13.5908 5.21191C13.5924 5.04078 13.5006 4.88146 13.3516 4.7959L8.22363 1.97754C8.15305 1.93879 8.07356 1.91802 7.99316 1.91797ZM11.9414 5.2793C12.1066 5.27942 12.2611 5.36698 12.3438 5.50879C12.4672 5.72192 12.4001 5.99263 12.1914 6.125L8.46387 8.26367V12.5303C8.46367 12.7834 8.25561 12.9892 8 12.9893C7.74432 12.9893 7.53633 12.7834 7.53613 12.5303V8.26367L3.80859 6.13184C3.59759 5.99855 3.53263 5.729 3.65625 5.51562C3.73937 5.37371 3.89371 5.28613 4.05859 5.28613C4.13331 5.28634 4.20699 5.30371 4.27344 5.33789L8 7.46973L11.7725 5.31152C11.8349 5.28788 11.8877 5.2793 11.9414 5.2793Z" fill="currentColor"/>
</svg>
