<svg width="16" height="16" viewBox="0 0 16 16" fill="none" xmlns="http://www.w3.org/2000/svg">
<path d="M10.6714 1.00296H3.57582C2.15313 1.00296 1 1.99214 1 3.2122V12.7937C1 14.0139 2.15332 15.003 3.57582 15.003H12.4242C13.8469 15.003 15 14.0138 15 12.7937V4.71551C15 4.21795 14.7696 3.74087 14.3594 3.38915L12.2179 1.55242C12.0148 1.3782 11.7737 1.24001 11.5084 1.14573C11.243 1.05145 10.9586 1.00294 10.6714 1.00296Z" fill="#8B72F7"/>
<path d="M14.3594 3.38898L12.2179 1.55225C11.9106 1.28885 11.5189 1.10987 11.0926 1.03812V3.09964C11.0926 3.75414 11.7112 4.28469 12.4743 4.28469H14.9413C14.8481 3.94556 14.6466 3.6354 14.3594 3.38898Z" fill="#7463EA"/>
<path d="M7.25635 8.63301L5.53246 7.69679C5.25142 7.56487 5.01971 7.68684 5.01722 7.96788L5.00002 10.0023C4.99772 10.2833 5.22561 10.6213 5.50665 10.7532L7.23054 11.6894C7.51158 11.8214 7.74329 11.6994 7.74578 11.4183L7.76298 9.38397C7.76528 9.10293 7.53739 8.76511 7.25635 8.63301ZM10.7571 7.12725C11.0746 6.9137 11.0926 6.59118 10.7969 6.4107L8.57971 5.33358C8.26732 5.17203 7.9945 5.15922 7.61749 5.35519L5.39003 6.42389C5.07248 6.63744 5.0545 6.95997 5.35026 7.14045L7.49093 8.29404C7.78669 8.47471 8.22258 8.46993 8.6061 8.27244L10.7571 7.12725ZM10.617 7.65855L8.75923 8.65212C8.4782 8.78404 8.25031 9.12205 8.2526 9.40309L8.26981 11.4757C8.2721 11.7567 8.504 11.8787 8.78504 11.7468L10.6428 10.7532C10.9238 10.6213 11.1517 10.2833 11.1494 10.0023L11.1322 7.92965C11.1299 7.64861 10.898 7.52663 10.617 7.65855Z" fill="#7463EA"/>
<path d="M7.25635 8.42271L5.53246 7.48649C5.25142 7.35457 5.01971 7.47655 5.01722 7.75759L5.00002 9.79196C4.99772 10.073 5.22561 10.411 5.50665 10.5429L7.23054 11.4791C7.51158 11.6111 7.74329 11.4891 7.74578 11.208L7.76298 9.17367C7.76528 8.89263 7.53739 8.55482 7.25635 8.42271ZM10.7571 6.91696C11.0746 6.70341 11.0926 6.38088 10.7969 6.20041L8.57971 5.12329C8.26732 4.96174 7.9945 4.94893 7.61749 5.14489L5.39003 6.2136C5.07248 6.42715 5.0545 6.74967 5.35026 6.93015L7.49093 8.08374C7.78669 8.26441 8.22259 8.25963 8.6061 8.06214L10.7571 6.91696ZM11.1322 7.71935C11.1299 7.43831 10.898 7.31634 10.617 7.44825L8.75923 8.44183C8.4782 8.57374 8.25031 8.91175 8.2526 9.19279L8.26981 11.2654C8.2721 11.5464 8.50401 11.6684 8.78504 11.5365L10.6428 10.5429C10.9238 10.411 11.1517 10.073 11.1494 9.79196L11.1322 7.71935Z" fill="white"/>
</svg>
