<svg width="16" height="16" viewBox="0 0 16 16" fill="none" xmlns="http://www.w3.org/2000/svg">
<path d="M11 1C12.1045 1 13 1.89542 13 3V10.0869C13.5823 10.293 14 10.8471 14 11.5V13.5C14 14.3284 13.3284 15 12.5 15H3.5C2.67158 15 2 14.3284 2 13.5V11.5C2 10.8471 2.41767 10.293 3 10.0869V3C3 1.89543 3.89543 1 5 1H11ZM3.5 11C3.22386 11 3 11.2238 3 11.5V13.5C3 13.7762 3.22386 14 3.5 14H12.5C12.7762 14 13 13.7762 13 13.5V11.5C13 11.2238 12.7762 11 12.5 11H3.5ZM4.5 12C4.77614 12 5 12.2239 5 12.5C5 12.7761 4.77614 13 4.5 13C4.22386 13 4 12.7761 4 12.5C4 12.2239 4.22386 12 4.5 12ZM11.5 12C11.7761 12 12 12.2239 12 12.5C12 12.7761 11.7761 13 11.5 13H9.5C9.22386 13 9 12.7761 9 12.5C9 12.2239 9.22386 12 9.5 12H11.5ZM5 2C4.44771 2 4 2.44771 4 3V10H12V3C12 2.44772 11.5523 2 11 2H5ZM6.93945 4.35352C7.52524 3.76775 8.47476 3.76774 9.06055 4.35352L10.3965 5.68945C10.9821 6.27524 10.9822 7.2248 10.3965 7.81055L9.06055 9.14648C8.47478 9.73216 7.52523 9.73214 6.93945 9.14648L5.60352 7.81055C5.01776 7.22479 5.01781 6.27524 5.60352 5.68945L6.93945 4.35352ZM8.35352 5.06055C8.15825 4.86529 7.84175 4.8653 7.64648 5.06055L6.31055 6.39648C6.11536 6.59175 6.11531 6.90828 6.31055 7.10352L7.64648 8.43945C7.84173 8.63459 8.15828 8.63461 8.35352 8.43945L9.68945 7.10352C9.88463 6.90829 9.88457 6.59174 9.68945 6.39648L8.35352 5.06055Z" fill="currentColor"/>
</svg>
