<svg width="16" height="16" viewBox="0 0 16 16" fill="none" xmlns="http://www.w3.org/2000/svg">
<g filter="url(#filter0_d_0_1)">
<path d="M1 3C0.920491 3.92308 1.25597 4.92692 1.98293 6.01154C2.70988 7.09615 3.75488 7.75384 5.11793 7.98461L3.34597 9.49038C3.67538 10.0673 4.37394 10.5692 5.44165 10.9962C6.00018 11.2195 6.63059 11.3176 7.33287 11.2904C8.08255 11.2904 8.82655 11.0712 9.56487 10.6327L9.19003 12.9692C9.30266 12.9692 9.43991 12.9755 9.59069 12.9823C9.94166 12.9983 10.3659 13.0177 10.7234 12.9692C11.2346 12.9 11.3709 12.8308 11.848 12.675C12.4085 12.4487 12.8742 12.166 13.2451 11.8269C14.2674 10.8923 15 9.57693 15 7.98461C15 6.39231 14.3185 5.37116 13.8414 4.8C13.4867 4.37537 12.7898 3.78841 12.1887 3.48461C11.5341 3.15375 10.8683 3 10.4849 3C9.97378 3 6.8043 3.03462 1 3Z" fill="#3ECF8E"/>
</g>
<circle cx="11" cy="6" r="2" fill="white" fill-opacity="0.61"/>
<path d="M13 7C13 7.55228 12.5523 8 12 8C11.4477 8 11 7.55228 11 7C11 6.44772 11.4477 6 12 6C12.5523 6 13 6.44772 13 7Z" fill="white"/>
<defs>
<filter id="filter0_d_0_1" x="-1.01144" y="3" width="16.0114" height="12" filterUnits="userSpaceOnUse" color-interpolation-filters="sRGB">
<feFlood flood-opacity="0" result="BackgroundImageFix"/>
<feColorMatrix in="SourceAlpha" type="matrix" values="0 0 0 0 0 0 0 0 0 0 0 0 0 0 0 0 0 0 127 0" result="hardAlpha"/>
<feOffset dx="-1" dy="1"/>
<feGaussianBlur stdDeviation="0.5"/>
<feComposite in2="hardAlpha" operator="out"/>
<feColorMatrix type="matrix" values="0 0 0 0 0 0 0 0 0 0 0 0 0 0 0 0 0 0 0.25 0"/>
<feBlend mode="normal" in2="BackgroundImageFix" result="effect1_dropShadow_0_1"/>
<feBlend mode="normal" in="SourceGraphic" in2="effect1_dropShadow_0_1" result="shape"/>
</filter>
</defs>
</svg>
