<svg width="16" height="16" viewBox="0 0 16 16" fill="none" xmlns="http://www.w3.org/2000/svg">
<path d="M11.5668 8.06045C11.3048 8.06045 11.0428 8.10075 10.801 8.1612L9.04786 4.63476C9.30982 4.43324 9.49118 4.15113 9.57179 3.82871L12.1108 4.21158C12.2317 4.71536 12.6952 5.11838 13.2393 5.11838C13.8841 5.11838 14.4081 4.6146 14.4081 3.96977C14.4081 3.32493 13.8841 2.82115 13.2594 2.82115C12.796 2.82115 12.3929 3.10327 12.2116 3.48614L9.61209 3.10327C9.45088 2.41813 8.84635 1.91435 8.10076 1.91435C7.25441 1.91435 6.54912 2.59949 6.54912 3.44584C6.54912 4.29219 7.23426 4.97732 8.10076 4.97732C8.20151 4.97732 8.30227 4.95717 8.40302 4.93702L10.1159 8.42317C9.12846 8.92695 8.44333 9.95465 8.44333 11.1436C8.44333 11.2242 8.44333 11.2846 8.46348 11.3451L5.09824 11.6272C4.87657 10.7405 4.07053 10.0756 3.10327 10.0756C1.93451 10.0756 1.00756 11.0025 1.00756 12.1108C1.00756 13.2191 1.93451 14.1461 3.08312 14.1461C4.15113 14.1461 5.01763 13.3602 5.13854 12.3526L8.60453 12.0504C9.00756 13.2997 10.1763 14.2065 11.5869 14.2065C13.2997 14.2065 14.7103 12.8363 14.7103 11.1234C14.67 9.43073 13.2796 8.06045 11.5668 8.06045Z" fill="currentColor"/>
</svg>
