<svg width="16" height="16" viewBox="0 0 16 16" fill="none" xmlns="http://www.w3.org/2000/svg">
<path d="M5.6088 3.1C7.5408 3.1 9.1956 4.3642 9.8809 6.1569L13.2871 6.1576L15 8.0056L13.2871 9.855L12.1811 9.1018L11.0331 9.855L10.0713 9.2313C9.5575 11.3418 7.7543 12.9 5.6088 12.9C3.0636 12.9 1 10.7062 1 8C1 5.2938 3.0636 3.1 5.6088 3.1ZM5.6088 6.1156C4.6302 6.1156 3.8364 6.9591 3.8364 8C3.8364 9.0409 4.6302 9.8844 5.6088 9.8844C6.5881 9.8844 7.3812 9.0409 7.3812 8C7.3812 6.9591 6.5881 6.1156 5.6088 6.1156Z" fill="currentColor"/>
</svg>
