<svg width="16" height="16" viewBox="0 0 16 16" fill="none" xmlns="http://www.w3.org/2000/svg">
<path d="M11.7431 7.51389C10.9103 7.51389 9.07064 7.51188 9.07064 7.51188L8.4887 7.51123L8.48812 6.92929C8.48812 6.92929 8.48611 4.90117 8.48611 4.25694C8.48611 2.46106 9.94713 1 11.7431 1C13.5389 1 15 2.46106 15 4.25694C15 6.05287 13.5389 7.51389 11.7431 7.51389ZM11.7431 2.16631C10.5903 2.16631 9.65239 3.10418 9.65239 4.25694C9.65239 4.67915 9.6533 5.6959 9.65385 6.34619C10.2652 6.34677 11.2103 6.34761 11.7431 6.34761C12.8958 6.34761 13.8337 5.40974 13.8337 4.25694C13.8337 3.10418 12.8958 2.16631 11.7431 2.16631ZM4.25694 15C2.46106 15 1 13.5389 1 11.7431C1 9.94713 2.46106 8.48611 4.25694 8.48611C5.08972 8.48611 6.92936 8.48812 6.92936 8.48812L7.5113 8.48877L7.51188 9.07071C7.51188 9.07071 7.51389 11.0988 7.51389 11.7431C7.51389 13.5389 6.05287 15 4.25694 15ZM6.34615 9.65382C5.64975 9.65307 4.95335 9.6526 4.25694 9.65239C3.10418 9.65239 2.16631 10.5903 2.16631 11.7431C2.16631 12.8958 3.10418 13.8337 4.25694 13.8337C5.40974 13.8337 6.34761 12.8958 6.34761 11.7431C6.34761 11.3209 6.3467 10.3041 6.34615 9.65382ZM7.5113 7.51123L6.92936 7.51188C6.92936 7.51188 5.08972 7.51389 4.25694 7.51389C2.46106 7.51389 1 6.05287 1 4.25694C1 2.46106 2.46106 1 4.25694 1C6.05287 1 7.51389 2.46106 7.51389 4.25694C7.51389 4.90117 7.51188 6.92929 7.51188 6.92929L7.5113 7.51123ZM4.25694 2.16631C3.10418 2.16631 2.16631 3.10418 2.16631 4.25694C2.16631 5.40974 3.10418 6.34761 4.25694 6.34761C4.78972 6.34761 5.73482 6.34677 6.34615 6.34619C6.3467 5.6959 6.34761 4.67915 6.34761 4.25694C6.34761 3.10418 5.40974 2.16631 4.25694 2.16631ZM8.4887 8.48877L9.07064 8.48812C9.07064 8.48812 10.9103 8.48611 11.7431 8.48611C13.5389 8.48611 15 9.94713 15 11.7431C15 13.5389 13.5389 15 11.7431 15C9.94713 15 8.48611 13.5389 8.48611 11.7431C8.48611 11.0988 8.48812 9.07071 8.48812 9.07071L8.4887 8.48877ZM11.7431 13.8337C12.8958 13.8337 13.8337 12.8958 13.8337 11.7431C13.8337 10.5903 12.8958 9.65239 11.7431 9.65239C11.2103 9.65239 10.2652 9.65323 9.65385 9.65382C9.6533 10.3041 9.65239 11.3209 9.65239 11.7431C9.65239 12.8958 10.5903 13.8337 11.7431 13.8337Z" fill="currentColor"/>
</svg>
