<svg width="16" height="16" viewBox="0 0 16 16" fill="none" xmlns="http://www.w3.org/2000/svg">
<path d="M9.77814 4.77468L11.2268 6.22331C11.3429 6.33944 11.4082 6.4962 11.4082 6.66023C11.4082 6.82425 11.3429 6.98102 11.2268 7.09714L4.00246 14.3186C3.88633 14.4347 3.72957 14.5 3.56554 14.5C3.40152 14.5 3.24475 14.4347 3.12863 14.3186L1.68144 12.8699C1.56532 12.7538 1.5 12.597 1.5 12.433C1.5 12.269 1.56532 12.1122 1.68144 11.9961L8.90431 4.77323C9.02043 4.6571 9.1772 4.59178 9.34122 4.59178C9.50525 4.59323 9.66201 4.65855 9.77814 4.77468ZM9.14091 8.17273L10.6505 6.66313L9.33832 5.35094L7.82872 6.86199L9.14091 8.17273ZM14.5 1.5L13.6334 3.04734L14.5 4.59469L12.9527 3.72812L11.4053 4.59469L12.2719 3.04734L11.4053 1.5L12.9527 2.36657L14.5 1.5ZM12.9527 9.7941L14.5 8.92754L13.6334 10.4749L14.5 12.0222L12.9527 11.1557L11.4053 12.0222L12.2719 10.4749L11.4053 8.92754L12.9527 9.7941ZM5.52657 3.72812L3.97923 4.59469L4.8458 3.04734L3.97923 1.5L5.52657 2.36657L7.07392 1.5L6.20735 3.04734L7.07392 4.59469L5.52657 3.72812Z" fill="currentColor"/>
</svg>
