<svg width="16" height="16" viewBox="0 0 16 16" fill="none" xmlns="http://www.w3.org/2000/svg">
<path d="M5.91165 3.16664C5.94923 3.09576 6.05077 3.09577 6.08835 3.16664L7.89127 6.56722C7.90064 6.5849 7.9151 6.59936 7.93278 6.60873L11.3334 8.41165C11.4042 8.44923 11.4042 8.55077 11.3334 8.58835L7.93278 10.3913C7.9151 10.4006 7.90064 10.4151 7.89127 10.4328L6.08835 13.8334C6.05077 13.9042 5.94923 13.9042 5.91165 13.8334L4.10873 10.4328C4.09936 10.4151 4.0849 10.4006 4.06722 10.3913L0.666643 8.58835C0.595765 8.55077 0.595765 8.44923 0.666643 8.41165L4.06722 6.60873C4.0849 6.59936 4.09936 6.5849 4.10873 6.56722L5.91165 3.16664Z" stroke="currentColor"></path><path d="M15.5 3L13.5 0.5L11.5 3L13.5 5.5L15.5 3Z" stroke="currentColor" stroke-linecap="round" stroke-linejoin="round"></path><path d="M13.5 10.5V14.5M11.5 12.5H15.5" stroke="currentColor" stroke-linecap="round" stroke-linejoin="round"></path>
</svg>