<svg width="16" height="16" viewBox="0 0 16 16" fill="none" xmlns="http://www.w3.org/2000/svg">
<path d="M15 10.5278L10.4967 9.01349C10.4967 9.01349 10.8428 8.49543 11.2122 7.47975C11.5817 6.46399 11.6346 5.90623 11.6346 5.90623L8.71947 5.8822V4.88653L12.2498 4.86164V4.15774H8.71877V2.55549H6.98969V4.15781H3.69576V4.86171L6.98969 4.83831V5.90623H4.34757V6.46392H9.78585C9.78585 6.46392 9.72597 6.91653 9.51749 7.47968C9.30907 8.04277 9.09436 8.53592 9.09436 8.53592C9.09436 8.53592 6.54088 7.64222 5.19533 7.64222C3.84977 7.64222 2.21331 8.18275 2.05464 9.75157C1.89673 11.3196 2.81694 12.169 4.11336 12.4816C5.40994 12.7959 6.60694 12.4785 7.64911 11.9683C8.69144 11.4588 9.71416 10.3007 9.71416 10.3007L14.9626 12.8495C14.7485 14.093 13.6694 15.0013 12.4076 15H3.59235C2.16193 15.0014 1.00133 13.8429 1 12.4125V3.59242C0.998673 2.1619 2.15728 1.00128 3.58766 1H12.4076C13.8381 0.998691 14.9987 2.15723 15 3.58763L15 10.5278ZM8.43669 9.65046C8.43669 9.65046 6.79833 11.7188 4.86794 11.7188C2.93671 11.7188 2.53126 10.736 2.53126 10.0292C2.53126 9.32328 2.93273 8.55519 4.57589 8.44413C6.21814 8.33324 8.43751 9.65046 8.43751 9.65046H8.43667H8.43669Z" fill="#02A9F1"/>
</svg>
