<svg width="16" height="16" viewBox="0 0 16 16" fill="none" xmlns="http://www.w3.org/2000/svg">
<path d="M10.6838 13.7713C10.6058 13.7713 10.5343 13.7517 10.4693 13.7127L7.52468 12.1007L4.52806 13.6152C4.37205 13.6932 4.19005 13.6737 4.04704 13.5697C3.90403 13.4657 3.83903 13.2902 3.87153 13.1212L4.49556 9.82559L2.12946 7.43349C2.01246 7.30998 1.96695 7.12798 2.02546 6.95897C2.08396 6.79646 2.22696 6.67946 2.40247 6.65346L5.73061 6.22444L7.26467 3.24732C7.34918 3.09131 7.51168 2.99381 7.68719 3.00031C7.8627 3.00031 8.0187 3.10431 8.09021 3.26032L9.52026 6.29594L12.8289 6.83546C13.0824 6.87447 13.2514 7.11498 13.2124 7.36849C13.1929 7.47249 13.1474 7.56349 13.0694 7.635L10.6318 9.93609L11.1388 13.2512C11.1713 13.4202 11.0933 13.5957 10.9503 13.6932C10.8723 13.7387 10.7813 13.7713 10.6838 13.7713Z" fill="currentColor"/>
<path d="M9.89078 3.29932H14.5385C14.792 3.29932 15 3.50733 15 3.76084C15 4.01435 14.792 4.22235 14.5385 4.22235H9.89078C9.63727 4.22235 9.42926 4.01435 9.42926 3.76084C9.42926 3.50733 9.63727 3.29932 9.89078 3.29932ZM11.1258 5.15839H14.532C14.7855 5.15839 14.9935 5.3664 14.9935 5.61991C14.9935 5.87342 14.7855 6.08143 14.532 6.08143H11.1258C10.8723 6.08143 10.6643 5.87342 10.6643 5.61991C10.6643 5.3664 10.8723 5.15839 11.1258 5.15839ZM12.9849 12.5882H14.5385C14.792 12.5882 15 12.7962 15 13.0497C15 13.3032 14.792 13.5112 14.5385 13.5112H12.9914C12.7379 13.5112 12.5299 13.3032 12.5299 13.0497C12.5234 12.7962 12.7314 12.5882 12.9849 12.5882ZM12.3739 10.7291H14.5385C14.792 10.7291 15 10.9371 15 11.1906C15 11.4442 14.792 11.6522 14.5385 11.6522H12.3739C12.1204 11.6522 11.9124 11.4442 11.9124 11.1906C11.9059 10.9371 12.1139 10.7291 12.3739 10.7291ZM12.9849 8.87005H14.5385C14.792 8.87005 15 9.07806 15 9.33157C15 9.58508 14.792 9.79308 14.5385 9.79308H12.9914C12.7379 9.79308 12.5299 9.58508 12.5299 9.33157C12.5234 9.07806 12.7314 8.87005 12.9849 8.87005Z" fill="currentColor"/>
</svg>
