<svg width="16" height="16" viewBox="0 0 16 16" fill="none" xmlns="http://www.w3.org/2000/svg">
<path d="M14.1192 1.5381C14.0672 1.5104 14.0087 1.49738 13.9499 1.50044C13.8911 1.5035 13.8343 1.52252 13.7855 1.55546L12.0651 2.72326C11.6231 2.43731 11.142 2.2293 10.6328 2.10149C9.80082 1.83709 8.85827 1.69628 7.90494 1.69628C6.97326 1.69628 6.05017 1.83064 5.23332 2.08412C4.69818 2.20984 4.19111 2.42427 3.72748 2.72326L2.0071 1.55546C1.95831 1.52252 1.90146 1.5035 1.84267 1.50044C1.78388 1.49738 1.72536 1.5104 1.67341 1.5381C1.62105 1.56585 1.57723 1.60734 1.54668 1.65812C1.51613 1.7089 1.49999 1.76705 1.5 1.82631V8.54967C1.5 8.67538 1.50432 8.80539 1.51524 8.93319C1.51973 8.98948 1.52535 9.0455 1.53177 9.10135C1.85278 12.1326 4.57769 14.5 7.8919 14.5C11.0179 14.5 13.6193 12.3938 14.1741 9.61095C14.2248 9.38634 14.2593 9.15838 14.2773 8.92884C14.2881 8.80103 14.2925 8.67103 14.2925 8.54532V1.82628C14.2925 1.76704 14.2764 1.7089 14.2459 1.65813C14.2153 1.60735 14.1715 1.56586 14.1192 1.5381ZM3.49475 8.57066C2.90006 7.9759 2.90006 7.01406 3.49475 6.41903L5.64632 8.57066C5.05665 9.16539 4.08971 9.16539 3.49475 8.57066ZM12.2262 8.57066C11.6315 9.16536 10.6696 9.16536 10.0749 8.57066L12.2262 6.41903C12.821 7.01409 12.821 7.9759 12.2262 8.57066Z" fill="white"/>
</svg>
