<svg width="16" height="16" viewBox="0 0 16 16" fill="none" xmlns="http://www.w3.org/2000/svg">
<path d="M2.6587e-10 8.00007C-8.56446e-06 9.05065 0.206911 10.0909 0.608945 11.0616C1.01098 12.0322 1.60025 12.9141 2.34312 13.657C3.08599 14.3998 3.96791 14.9891 4.93852 15.3912C5.90913 15.7932 6.94942 16.0001 8 16.0001C9.05058 16.0001 10.0909 15.7932 11.0615 15.3912C12.0321 14.9891 12.914 14.3998 13.6569 13.657C14.3997 12.9141 14.989 12.0322 15.3911 11.0616C15.7931 10.0909 16 9.05065 16 8.00007C16 6.94949 15.7931 5.90919 15.3911 4.93858C14.989 3.96797 14.3997 3.08604 13.6569 2.34317C12.914 1.60029 12.0321 1.01101 11.0615 0.60897C10.0909 0.206928 9.05058 0 8 0C6.94942 0 5.90913 0.206928 4.93852 0.60897C3.96791 1.01101 3.08599 1.60029 2.34312 2.34317C1.60025 3.08604 1.01098 3.96797 0.608945 4.93858C0.206911 5.90919 -8.56446e-06 6.94949 2.6587e-10 8.00007Z" fill="#D8D8D8"/>
<path d="M12.2684 3.61297L12.5099 4.78974C12.5609 5.0384 12.5374 5.29657 12.4423 5.53193L12.3442 5.77658C12.97 6.51951 13.3894 7.41394 13.5602 8.37013L14.3272 12.6349L14.3618 12.8517C13.6158 13.8313 12.6535 14.6253 11.5499 15.1714C10.4463 15.7176 9.23134 16.0012 8 16.0001C6.8819 16.0014 5.77601 15.7676 4.75403 15.3141C3.73205 14.8605 2.81679 14.1973 2.06761 13.3673L2.06452 13.5263C2.06452 13.2166 2.08773 12.9069 2.13316 12.5998L2.76181 8.3923C2.90485 7.42693 3.30809 6.51874 3.92825 5.76522L3.83484 5.53194C3.73969 5.29642 3.71616 5.03805 3.76722 4.78922L4.00878 3.61297L5.16077 4.18019C5.29728 4.24744 5.42081 4.3383 5.52567 4.44858C6.31379 4.02111 7.19632 3.79755 8.09291 3.79827C9.04309 3.79827 9.94528 4.03877 10.7355 4.46664C10.843 4.3479 10.9721 4.25069 11.1159 4.18019L12.2684 3.61297ZM6.27613 8.2736C5.61961 8.1931 5.008 8.43155 4.64516 8.85425C4.89547 9.35077 5.43122 9.73013 6.08773 9.81064C6.74425 9.89116 7.35586 9.65271 7.7187 9.23C7.46788 8.73349 6.93264 8.35413 6.27613 8.2736ZM11.8482 8.85425C11.4849 8.43155 10.8738 8.1931 10.2173 8.27361C9.56025 8.35413 9.02503 8.73349 8.7747 9.23C9.13755 9.65271 9.74864 9.89116 10.4057 9.81063C11.0622 9.73013 11.5979 9.35077 11.8482 8.85425Z" fill="white"/>
</svg>
