<svg width="16" height="16" viewBox="0 0 16 16" fill="none" xmlns="http://www.w3.org/2000/svg">
<path fill-rule="evenodd" clip-rule="evenodd" d="M3.96622 4.59777C3.85681 4.42886 3.79842 4.23027 3.79842 4.02713C3.79842 3.75472 3.90332 3.49346 4.09004 3.30084C4.27676 3.10821 4.53001 3 4.79407 3C4.99099 3 5.18349 3.06024 5.34722 3.1731C5.51095 3.28596 5.63857 3.44638 5.71393 3.63406C5.78928 3.82174 5.809 4.02827 5.77058 4.22751C5.73217 4.42675 5.63734 4.60977 5.4981 4.75341C5.35885 4.89706 5.18145 4.99488 4.98831 5.03452C4.79517 5.07415 4.59498 5.05381 4.41305 4.97607C4.23112 4.89833 4.07562 4.76668 3.96622 4.59777ZM9.15487 4.72962L6.62015 8.78257L5.46303 6.92775C5.39052 6.8125 5.29116 6.71785 5.17404 6.65246C5.05691 6.58707 4.92576 6.55302 4.79258 6.55343C4.6594 6.55384 4.52845 6.58869 4.4117 6.65481C4.29495 6.72092 4.19614 6.81618 4.12431 6.93187H4.12491L1.12618 11.7346C1.04901 11.8586 1.0056 12.0018 1.00051 12.1491C0.995412 12.2964 1.02882 12.4424 1.09722 12.5718C1.16563 12.7012 1.26651 12.8092 1.3893 12.8846C1.51209 12.9599 1.65227 12.9998 1.79514 13H7.7928L7.80934 12.9998H14.2046C14.3475 12.9996 14.4877 12.9598 14.6105 12.8844C14.7334 12.8091 14.8343 12.7011 14.9027 12.5717C14.9711 12.4423 15.0046 12.2963 14.9995 12.149C14.9944 12.0016 14.951 11.8585 14.8738 11.7344L10.493 4.72962C10.4208 4.61415 10.3217 4.5192 10.2048 4.45345C10.0879 4.38769 9.95681 4.35324 9.82363 4.35324C9.69045 4.35324 9.5594 4.38769 9.44246 4.45345C9.32553 4.5192 9.22644 4.61415 9.15427 4.72962H9.15487Z" fill="currentColor"/>
</svg>
