<svg width="16" height="16" viewBox="0 0 16 16" fill="none" xmlns="http://www.w3.org/2000/svg">
<path d="M6.49985 2.99985C6.87031 2.99985 7.19338 3.20123 7.36569 3.49954H11.1995C11.3322 3.49954 11.4594 3.55224 11.5533 3.64605C11.6471 3.73986 11.6998 3.8671 11.6998 3.99977C11.6998 4.13244 11.6471 4.25967 11.5533 4.35349C11.4594 4.4473 11.3322 4.5 11.1995 4.5L7.36569 4.50108C7.27825 4.65344 7.15214 4.78004 7.00012 4.86807C6.84809 4.95611 6.67552 5.00247 6.49985 5.00247C6.32417 5.00247 6.1516 4.95611 5.99958 4.86807C5.84755 4.78004 5.72144 4.65344 5.634 4.50108L5.2 4.5C5.06733 4.5 4.94009 4.4473 4.84628 4.35349C4.75247 4.25967 4.69977 4.13244 4.69977 3.99977C4.69977 3.8671 4.75247 3.73986 4.84628 3.64605C4.94009 3.55224 5.06733 3.49954 5.2 3.49954H5.634C5.72166 3.34749 5.84786 3.22123 5.99987 3.13351C6.15188 3.04578 6.32434 2.99967 6.49985 2.99985ZM9.50015 6.00015C9.87061 6.00015 10.1937 6.20154 10.366 6.49985H11.0003C11.066 6.49985 11.131 6.51278 11.1917 6.53792C11.2524 6.56306 11.3076 6.59991 11.354 6.64636C11.4005 6.69281 11.4373 6.74796 11.4625 6.80865C11.4876 6.86934 11.5005 6.93439 11.5005 7.00008C11.5005 7.06577 11.4876 7.13082 11.4625 7.19151C11.4373 7.2522 11.4005 7.30734 11.354 7.35379C11.3076 7.40024 11.2524 7.43709 11.1917 7.46223C11.131 7.48737 11.066 7.50031 11.0003 7.50031L10.3649 7.50138C10.2774 7.6535 10.1513 7.77985 9.99942 7.86771C9.8475 7.95557 9.67511 8.00184 9.49961 8.00184C9.32412 8.00184 9.15173 7.95557 8.99981 7.86771C8.8479 7.77985 8.72183 7.6535 8.63431 7.50138L4.99969 7.50031C4.934 7.50031 4.86895 7.48737 4.80826 7.46223C4.74757 7.43709 4.69243 7.40024 4.64598 7.35379C4.59952 7.30734 4.56268 7.2522 4.53754 7.19151C4.5124 7.13082 4.49946 7.06577 4.49946 7.00008C4.49946 6.93439 4.5124 6.86934 4.53754 6.80865C4.56268 6.74796 4.59952 6.69281 4.64598 6.64636C4.69243 6.59991 4.74757 6.56306 4.80826 6.53792C4.86895 6.51278 4.934 6.49985 4.99969 6.49985H8.63538C8.72304 6.34779 8.84924 6.22154 9.00125 6.13381C9.15327 6.04608 9.32572 5.99998 9.50123 6.00015H9.50015ZM12.3077 2.25462H3.69231V8.83246H5.71908C5.93769 8.83246 6.13908 8.94015 6.26077 9.11246L6.30708 9.19215C6.77338 10.1237 7.92246 10.506 8.87015 10.0483C9.246 9.86631 9.55077 9.57015 9.73815 9.20292C9.79557 9.09148 9.88269 8.99809 9.98989 8.93309C10.0971 8.86809 10.2202 8.834 10.3455 8.83461H12.3077V2.25462ZM5.53169 10.0785H2.23846V13.754H13.7615V10.0795H10.5157L10.5006 10.1065C10.2481 10.5111 9.89723 10.8453 9.48077 11.0778L9.29662 11.1726C7.97415 11.7951 6.39646 11.36 5.61138 10.2077L5.53169 10.0795V10.0785ZM13.0002 1C13.2769 1 13.4998 1.22292 13.4998 1.49969V8.798H14.5003C14.7771 8.798 15 9.02092 15 9.29769V14.4992C15.0001 14.5649 14.9873 14.63 14.9623 14.6908C14.9372 14.7515 14.9004 14.8067 14.854 14.8533C14.8076 14.8998 14.7525 14.9367 14.6918 14.9619C14.6311 14.987 14.566 15 14.5003 15H1.49969C1.36717 15 1.24007 14.9474 1.14636 14.8536C1.05265 14.7599 1 14.6328 1 14.5003V9.29769C1 9.02092 1.22292 8.798 1.49969 8.798H2.50015V1.49969C2.50015 1.22292 2.72308 1 2.99985 1H13.0002Z" fill="currentColor"/>
</svg>
