<svg width="16" height="16" viewBox="0 0 16 16" fill="none" xmlns="http://www.w3.org/2000/svg">
<path d="M8.57143 7.42857L4.73829 7.42857C4.60693 7.72934 4.37604 7.97572 4.08443 8.1263C3.79281 8.27688 3.45825 8.32248 3.13697 8.25543C2.81569 8.18839 2.52729 8.01279 2.32023 7.75814C2.11318 7.5035 2.0001 7.18534 2 6.85714C1.99979 6.52877 2.1127 6.21036 2.31974 5.95548C2.52678 5.70061 2.8153 5.52484 3.13674 5.45776C3.45818 5.39068 3.79292 5.43639 4.08462 5.58719C4.37631 5.73798 4.60715 5.98467 4.73829 6.28571L8.90629 6.28571L12.0491 3.14286H9.71429L10.8571 2H14L14 5.14286L12.8571 6.28571V3.95086L9.71429 7.09371V11.2617C10.0151 11.3931 10.2614 11.624 10.412 11.9156C10.5626 12.2072 10.6082 12.5418 10.5411 12.863C10.4741 13.1843 10.2985 13.4727 10.0439 13.6798C9.78922 13.8868 9.47106 13.9999 9.14286 14C8.81449 14.0002 8.49607 13.8873 8.2412 13.6803C7.98632 13.4732 7.81056 13.1847 7.74348 12.8633C7.6764 12.5418 7.7221 12.2071 7.8729 11.9154C8.0237 11.6237 8.27038 11.3928 8.57143 11.2617V7.42857Z" fill="currentColor"/>
</svg>
