<svg width="16" height="16" viewBox="0 0 16 16" fill="none" xmlns="http://www.w3.org/2000/svg">
<path d="M7.30209 8.57151H11.9418L10.372 6.8572H11.9069L14 9.14295L11.9069 11.4287H10.372L11.9418 9.71438H6.97501L4.69437 12.0496C4.81148 12.3551 4.82225 12.6926 4.72489 13.0053C4.62752 13.318 4.42795 13.5868 4.15973 13.7666C3.89151 13.9464 3.57101 14.0261 3.25212 13.9924C2.93323 13.9587 2.63539 13.8137 2.4087 13.5816C2.18202 13.3495 2.0403 13.0446 2.00738 12.7181C1.97446 12.3916 2.05235 12.0635 2.22795 11.7889C2.40355 11.5143 2.66616 11.31 2.9716 11.2103C3.27704 11.1106 3.6067 11.1217 3.90513 11.2415L6.18577 8.90609V4.73832C5.89199 4.60697 5.65133 4.37607 5.50424 4.08445C5.35716 3.79283 5.31262 3.45827 5.37811 3.13698C5.4436 2.8157 5.61512 2.5273 5.86385 2.32024C6.11258 2.11318 6.42335 2.0001 6.74393 2C7.06467 1.99979 7.3757 2.1127 7.62465 2.31974C7.87361 2.52678 8.04529 2.81531 8.11081 3.13676C8.17633 3.4582 8.13169 3.79295 7.9844 4.08465C7.8371 4.37634 7.59615 4.60719 7.30209 4.73832V8.57151Z" fill="currentColor"/>
</svg>
