<svg width="16" height="16" viewBox="0 0 16 16" fill="none" xmlns="http://www.w3.org/2000/svg">
<path d="M7.1823 7.6445L9.36669 13.3185C9.39457 13.3913 9.40553 13.4694 9.39876 13.547C9.39199 13.6246 9.36765 13.6996 9.32759 13.7665C9.28792 13.8322 9.2333 13.8877 9.16816 13.9285C9.10384 13.9687 9.03073 13.9927 8.95508 13.9985L8.91898 14H3.8503C3.72785 13.9997 3.61029 13.952 3.52242 13.867C3.4327 13.7804 3.37824 13.6637 3.3695 13.5395L3.3685 13.502V9.374C3.72595 9.61173 4.15445 9.71975 4.58224 9.67998C5.01003 9.6402 5.41112 9.45504 5.71834 9.1555L5.76898 9.105L7.18179 7.645V7.6445H7.1823ZM8.19002 3.8205C8.46125 4.1005 8.61366 4.4805 8.61366 4.8765C8.61366 5.2725 8.46125 5.6525 8.19052 5.9325L5.46616 8.7485C5.19543 9.0285 4.82744 9.1855 4.44441 9.1855C4.25342 9.18485 4.06453 9.14577 3.88905 9.0706C3.71357 8.99542 3.5551 8.8857 3.42315 8.748C3.15054 8.46378 2.99889 8.08531 3.00001 7.692C3.00001 7.296 3.15192 6.9165 3.42315 6.6365L6.1465 3.82C6.27851 3.68224 6.43706 3.57248 6.61263 3.49731C6.7882 3.42213 6.97719 3.38308 7.16826 3.3825C7.55129 3.3825 7.91878 3.54 8.19002 3.82V3.8205ZM3.87938 7.1515C3.81107 7.22124 3.75709 7.30362 3.72045 7.394C3.66489 7.53077 3.6499 7.68058 3.67728 7.8256C3.70465 7.97062 3.77324 8.10474 3.87487 8.212C3.94255 8.2815 4.02277 8.337 4.1105 8.374C4.1984 8.41157 4.29308 8.43077 4.38871 8.43043C4.48434 8.43008 4.57888 8.4102 4.6665 8.372C4.75478 8.33331 4.83439 8.27738 4.90064 8.2075C5.0345 8.0675 5.1092 7.8775 5.1082 7.681C5.108 7.48538 5.03223 7.29735 4.89663 7.156C4.83098 7.08745 4.7522 7.03274 4.66496 6.99512C4.57772 6.9575 4.4838 6.93774 4.38875 6.937C4.29378 6.93693 4.19975 6.95587 4.11225 6.99272C4.02475 7.02957 3.94556 7.08356 3.87938 7.1515ZM12.5187 3C12.6465 3 12.7689 3.0525 12.8596 3.146C12.9499 3.239 13 3.366 13 3.498C13 3.63 12.9499 3.7565 12.8596 3.85C12.8155 3.89589 12.7626 3.93243 12.704 3.95744C12.6455 3.98244 12.5824 3.99538 12.5187 3.9955H11.7847C11.4042 3.9955 11.0738 4.3745 11.0738 4.8665C11.0738 5.3585 11.4042 5.738 11.7847 5.738H12.5187C12.6465 5.738 12.7689 5.79 12.8596 5.8835C12.9499 5.977 13 6.1035 13 6.2355C13 6.3675 12.9499 6.494 12.8596 6.5875C12.8156 6.63348 12.7627 6.67012 12.7041 6.69521C12.6455 6.7203 12.5825 6.73332 12.5187 6.7335H11.7847C11.1345 6.7335 10.5805 6.325 10.3022 5.7345C10.2786 5.73693 10.2548 5.7381 10.231 5.738H8.71644C8.89564 5.49023 9.01646 5.20532 9.06989 4.9045C9.12403 4.60219 9.10982 4.29163 9.02828 3.9955H10.2315C10.2551 3.9955 10.2787 3.9965 10.3022 3.9985C10.5805 3.4085 11.135 3 11.7847 3H12.5187ZM7.15522 4.366C7.09149 4.36584 7.0284 4.37871 6.96985 4.40382C6.91129 4.42894 6.85853 4.46575 6.8148 4.512C6.72335 4.60635 6.67275 4.73278 6.67392 4.864C6.67426 4.99494 6.72464 5.12082 6.8148 5.216C6.85912 5.26157 6.91209 5.29791 6.97062 5.32289C7.02914 5.34787 7.09207 5.36099 7.15572 5.3615C7.21928 5.36125 7.28213 5.34824 7.34053 5.32324C7.39893 5.29824 7.45168 5.26177 7.49564 5.216C7.58589 5.1225 7.63702 4.996 7.63702 4.864C7.63702 4.732 7.58639 4.6055 7.49564 4.512C7.45167 4.46608 7.39885 4.42948 7.34036 4.40439C7.28186 4.3793 7.21889 4.36625 7.15522 4.366Z" fill="currentColor"/>
</svg>
