<svg width="16" height="16" viewBox="0 0 16 16" fill="none" xmlns="http://www.w3.org/2000/svg">
<path d="M8 11C10.7614 11 13 9.65685 13 8C13 6.34315 10.7614 5 8 5C5.23858 5 3 6.34315 3 8C3 9.65685 5.23858 11 8 11Z" fill="currentColor" fill-opacity="0.4"/>
<path d="M13 6C13 3.23858 10.7614 1 8 1C5.23858 1 3 3.23858 3 6C3 8.76142 5.23858 11 8 11C10.7614 11 13 8.76142 13 6Z" stroke="currentColor"/>
<path d="M13 10C13 7.23858 10.7614 5 8 5C5.23858 5 3 7.23858 3 10C3 12.7614 5.23858 15 8 15C10.7614 15 13 12.7614 13 10Z" stroke="currentColor"/>
</svg>
