<svg width="16" height="16" viewBox="0 0 16 16" fill="none" xmlns="http://www.w3.org/2000/svg">
<path d="M8.05678 1C8.10621 1 8.15442 1.01156 8.19911 1.03453L13.8148 4.37967C13.9399 4.47356 14 4.5851 14 4.70509L13.9858 11.356C13.9858 11.4099 13.9821 11.4493 13.9708 11.4832V11.5147L13.9417 11.5511V11.6753L13.8107 11.6856C13.8053 11.6881 8.17783 14.9478 8.17783 14.9478C8.14799 14.9636 8.06994 15 7.99265 15C7.91522 15 7.83732 14.9636 7.81513 14.9522L2.18457 11.5628C2.02969 11.4447 2 11.3216 2 11.2374L2.04346 4.64525C2.04346 4.50777 2.12197 4.37435 2.23875 4.31561L7.86578 1.05405C7.93832 1.0164 7.99847 1 8.05678 1ZM13.2694 5.35577L8.37954 8.18896L8.39316 13.9566L13.2558 11.1373L13.2694 5.35577ZM12.6551 10.3432C12.8474 10.4607 12.9105 10.7145 12.7949 10.9109C12.68 11.1073 12.4299 11.1715 12.237 11.0539C12.044 10.9364 11.9815 10.6825 12.0965 10.4861C12.212 10.2899 12.4615 10.2257 12.6551 10.3432ZM11.6285 9.71889C11.8215 9.83591 11.8839 10.0902 11.769 10.2866C11.6534 10.483 11.404 10.5466 11.211 10.4296C11.018 10.3121 10.9549 10.0582 11.0705 9.86121C11.1859 9.66562 11.4355 9.60141 11.6285 9.71889ZM10.6022 9.09429C10.7952 9.21131 10.8576 9.46565 10.7427 9.66202C10.6271 9.8584 10.3777 9.92261 10.1841 9.80497C9.99168 9.68749 9.92863 9.43362 10.0442 9.23724C10.1591 9.04102 10.4092 8.97681 10.6022 9.09429ZM9.57587 8.46985C9.76886 8.58734 9.83191 8.84121 9.71636 9.03758C9.60082 9.23396 9.35136 9.29817 9.15837 9.18053C8.96539 9.06289 8.90233 8.80918 9.01788 8.6128C9.13281 8.41658 9.38288 8.35237 9.57587 8.46985ZM8.04974 1.81488L3.1599 4.64806L8.02296 7.5364L12.9123 4.70321L8.04974 1.81488ZM8 6.1366C8.22436 6.1366 8.40724 6.32204 8.40724 6.55107C8.40724 6.77947 8.22436 6.96492 8 6.96492C7.77549 6.96492 7.59276 6.77947 7.59276 6.55107C7.59276 6.32204 7.77549 6.1366 8 6.1366ZM8 4.92006C8.22436 4.92006 8.40724 5.1055 8.40724 5.3339C8.40724 5.56293 8.22436 5.74837 8 5.74837C7.77549 5.74837 7.59276 5.56293 7.59276 5.3339C7.59276 5.1055 7.77549 4.92006 8 4.92006ZM7.99969 3.70351C8.22482 3.70351 8.40694 3.88896 8.40694 4.11736C8.40694 4.34576 8.22482 4.53183 7.99969 4.53183C7.77534 4.53183 7.59291 4.34576 7.59291 4.11736C7.59291 3.88896 7.77534 3.70351 7.99969 3.70351ZM7.99969 2.48635C8.22482 2.48635 8.40694 2.67241 8.40694 2.90082C8.40694 3.12922 8.22482 3.31466 7.99969 3.31466C7.77534 3.31466 7.59291 3.12922 7.59291 2.90082C7.59306 2.67241 7.77534 2.48635 7.99969 2.48635Z" fill="currentColor"/>
</svg>
