<svg width="16" height="16" viewBox="0 0 16 16" fill="none" xmlns="http://www.w3.org/2000/svg">
<path d="M14.9829 8.61152L13.1732 2.76068C13.0366 2.34749 12.6439 2.04999 12.2 2.04999H3.81707C3.37317 2.04999 2.96341 2.33096 2.8439 2.76068L1.01707 8.61152C1 8.64457 1 8.67763 1 8.71068V12.9583C1 13.5037 1.46098 13.95 2.02439 13.95H13.9756C14.539 13.95 15 13.5037 15 12.9583V8.71068C15 8.67763 15 8.64457 14.9829 8.61152ZM13.6171 8.64457C13.5829 8.6611 13.5488 8.6611 13.5146 8.6611H10.9537C10.7317 8.6611 10.5268 8.80985 10.4585 9.02471L9.98049 10.6279C9.91219 10.8428 9.72439 10.9915 9.48537 10.9915H6.51463C6.29268 10.9915 6.0878 10.8428 6.01951 10.6279L5.54146 9.02471C5.47317 8.80985 5.26829 8.6611 5.04634 8.6611H2.48537C2.29756 8.6611 2.1439 8.51235 2.1439 8.33054C2.1439 8.29749 2.1439 8.26443 2.16098 8.23138L3.62927 3.38874C3.69756 3.17388 3.88537 3.02513 4.12439 3.02513H11.8927C12.1146 3.02513 12.3195 3.17388 12.3878 3.38874L13.8561 8.23138C13.9073 8.41318 13.8049 8.59499 13.6171 8.64457Z" fill="currentColor"/>
</svg>
