<svg width="16" height="16" viewBox="0 0 16 16" fill="none" xmlns="http://www.w3.org/2000/svg">
<path d="M14.5234 6.52478L11.677 2.25513C11.5221 2.02286 11.3123 1.83241 11.0662 1.70068C10.8201 1.56895 10.5453 1.50002 10.2662 1.5H2.69565C2.24594 1.5 1.81464 1.67865 1.49665 1.99665C1.17865 2.31464 1 2.74594 1 3.19565V6.58696C1 7.03667 1.17865 7.46797 1.49665 7.78596C1.81464 8.10396 2.24594 8.28261 2.69565 8.28261H5.77043V12.81C5.77043 13.7437 6.52783 14.5 7.46043 14.5H7.47174C8.40548 14.5 9.16174 13.7426 9.16174 12.81V8.28261H13.5817C13.7864 8.28264 13.9872 8.22711 14.1628 8.12195C14.3384 8.01678 14.4821 7.86592 14.5786 7.68547C14.6752 7.50502 14.7209 7.30174 14.711 7.09733C14.7011 6.89291 14.6358 6.69503 14.5223 6.52478H14.5234Z" fill="currentColor"/>
</svg>
