<svg width="16" height="16" viewBox="0 0 16 16" fill="none" xmlns="http://www.w3.org/2000/svg">
<path d="M1 5.35938C1 5.20998 1.15797 5.11279 1.29102 5.18066L3.22559 6.16895C3.29246 6.20314 3.33398 6.27255 3.33398 6.34766V9.57031C3.33482 9.61638 3.34932 9.66151 3.375 9.70117C3.40064 9.74074 3.43679 9.77403 3.48047 9.79688L5.23047 10.7012C5.27427 10.7247 5.32419 10.7368 5.375 10.7373C5.42602 10.7377 5.47706 10.7261 5.52148 10.7031C5.56576 10.6802 5.60304 10.6465 5.62891 10.6064C5.6546 10.5665 5.66843 10.521 5.66895 10.4746V7.75C5.66895 7.60041 5.8269 7.50403 5.95996 7.57227L7.14258 8.17969C7.6768 8.45023 8.32814 8.45013 8.86133 8.17969L14.709 5.19531C14.842 5.12743 15 5.22464 15 5.37402V10.9512C15 11.1403 14.9447 11.3262 14.8398 11.4893C14.7347 11.6525 14.5836 11.7878 14.4023 11.8799L8.56836 14.8662C8.21524 15.045 7.78572 15.045 7.43262 14.8662L1.59766 11.8799C1.22835 11.693 1.00017 11.3377 1 10.9521V5.35938ZM8.01758 1C8.21638 1 8.4121 1.04666 8.58594 1.13477L14.0684 3.94238C14.2132 4.01679 14.2132 4.22352 14.0684 4.29785L8.29492 7.25098H8.29395V7.25C8.12059 7.33441 7.91147 7.33455 7.73926 7.25L1.96191 4.29688C1.8173 4.22248 1.81731 4.01583 1.96191 3.94141L7.44922 1.13477C7.62301 1.04666 7.81881 1.00003 8.01758 1Z" fill="currentColor"/>
</svg>
