<svg width="16" height="16" viewBox="0 0 16 16" fill="none" xmlns="http://www.w3.org/2000/svg">
<path d="M9.99998 1.6C8.2882 1.6 6.91664 2.82809 6.55466 4.43281C6.04734 3.73465 5.32749 3.2 4.39998 3.2C2.85831 3.2 1.59998 4.4584 1.59998 6C1.59998 7.54168 2.85833 8.8 4.39998 8.8H9.99998C11.9835 8.8 13.6 7.18344 13.6 5.2C13.6 3.21656 11.9835 1.6 9.99998 1.6ZM9.99998 4C10.658 4 11.2 4.542 11.2 5.2C11.2 5.858 10.658 6.4 9.99998 6.4C9.34197 6.4 8.79998 5.858 8.79998 5.2C8.79998 4.542 9.34197 4 9.99998 4ZM4.39998 4.8C5.05798 4.8 5.59998 5.342 5.59998 6C5.59998 6.658 5.05798 7.2 4.39998 7.2C3.74197 7.2 3.19998 6.658 3.19998 6C3.19998 5.342 3.74197 4.8 4.39998 4.8ZM9.99998 4.8C9.77431 4.8 9.59998 4.97432 9.59998 5.2C9.59998 5.42568 9.77431 5.6 9.99998 5.6C10.2256 5.6 10.4 5.42568 10.4 5.2C10.4 4.97432 10.2256 4.8 9.99998 4.8ZM6.8406 5.59844C6.84066 5.599 6.84054 5.59844 6.8406 5.59844H6.79998C6.81351 5.59912 6.82706 5.59912 6.8406 5.59844ZM4.39998 5.59844C4.17431 5.59844 3.99998 5.77276 3.99998 5.99844C3.99998 6.22412 4.17431 6.39844 4.39998 6.39844C4.62564 6.39844 4.79998 6.22412 4.79998 5.99844C4.79998 5.77276 4.62564 5.59844 4.39998 5.59844Z" fill="currentColor"/>
<path d="M3.59372 9.5937C3.54119 9.59452 3.48935 9.60565 3.44113 9.62651C3.39292 9.64737 3.34928 9.67756 3.31271 9.71528C3.27615 9.753 3.24737 9.79759 3.22802 9.84643C3.20868 9.89528 3.19915 9.94742 3.19997 9.99995V10.7999V11.5999C3.20146 11.7051 3.24426 11.8053 3.31911 11.8791C3.39396 11.953 3.49485 11.9943 3.59997 11.9943C3.70509 11.9943 3.80598 11.953 3.88083 11.8791C3.95568 11.8053 3.99848 11.7051 3.99997 11.5999V11.1999H4.79997V12.3999C4.79999 12.506 4.84213 12.6077 4.91716 12.6828L5.71716 13.4828C5.79212 13.558 5.89389 13.5999 5.99997 13.5999H9.99997C10.2209 13.5999 10.3999 13.4208 10.4 13.1999V9.99995C10.3999 9.77907 10.2209 9.59995 9.99997 9.59995H5.19997C4.97907 9.59995 4.79999 9.77907 4.79997 9.99995V10.3999H3.99997V9.99995C4.00081 9.94637 3.99087 9.89317 3.97075 9.8435C3.95063 9.79384 3.92075 9.74868 3.88286 9.71079C3.84496 9.6729 3.79983 9.64302 3.75016 9.6229C3.7005 9.60278 3.6473 9.59286 3.59372 9.5937ZM13.1875 9.60171C13.1009 9.60171 13.0176 9.63529 12.95 9.68921L10.95 11.2892C10.7496 11.4494 10.7496 11.754 10.95 11.9142L12.95 13.5142C13.2119 13.7239 13.6001 13.5374 13.6 13.2017V10.0017C13.6001 9.77587 13.4132 9.59467 13.1875 9.60171Z" fill="currentColor"/>
<rect x="14.1011" y="1.7402" width="1" height="17.5026" rx="0.5" transform="rotate(48.1607 14.1011 1.7402)" fill="currentColor"/>
</svg>
