<svg width="16" height="16" viewBox="0 0 16 16" fill="none" xmlns="http://www.w3.org/2000/svg"><g><path d="M2.5 4C2.5 3.72386 2.72386 3.5 3 3.5H6C6.27614 3.5 6.5 3.72386 6.5 4V7C6.5 7.27614 6.27614 7.5 6 7.5H3C2.72386 7.5 2.5 7.27614 2.5 7V4Z" stroke="currentColor"></path><path d="M2.5 10C2.5 9.72386 2.72386 9.5 3 9.5H6C6.27614 9.5 6.5 9.72386 6.5 10V13C6.5 13.2761 6.27614 13.5 6 13.5H3C2.72386 13.5 2.5 13.2761 2.5 13V10Z" stroke="currentColor"></path><path d="M8.5 4C8.5 3.72386 8.72386 3.5 9 3.5H12C12.2761 3.5 12.5 3.72386 12.5 4V7C12.5 7.27614 12.2761 7.5 12 7.5H9C8.72386 7.5 8.5 7.27614 8.5 7V4Z" stroke="currentColor"></path><path d="M8.5 10C8.5 9.72386 8.72386 9.5 9 9.5H12C12.2761 9.5 12.5 9.72386 12.5 10V13C12.5 13.2761 12.2761 13.5 12 13.5H9C8.72386 13.5 8.5 13.2761 8.5 13V10Z" stroke="currentColor"></path></g></svg>