<svg width="16" height="16" viewBox="0 0 16 16" fill="none" xmlns="http://www.w3.org/2000/svg">
<path fill-rule="evenodd" clip-rule="evenodd" d="M2.4 1C1.6268 1 1 1.6268 1 2.4C1 3.1732 1.6268 3.8 2.4 3.8C3.1732 3.8 3.8 3.1732 3.8 2.4C3.8 1.6268 3.1732 1 2.4 1ZM6.6 2.4C6.6 1.6268 7.2268 1 8 1C8.7732 1 9.4 1.6268 9.4 2.4C9.4 3.1732 8.7732 3.8 8 3.8C7.2268 3.8 6.6 3.1732 6.6 2.4ZM12.2 2.4C12.2 1.6268 12.8268 1 13.6 1C14.3732 1 15 1.6268 15 2.4C15 3.1732 14.3732 3.8 13.6 3.8C12.8268 3.8 12.2 3.1732 12.2 2.4ZM8 6.59998C7.2268 6.59998 6.6 7.22678 6.6 7.99998C6.6 8.77317 7.2268 9.39998 8 9.39998C8.7732 9.39998 9.4 8.77317 9.4 7.99998C9.4 7.22678 8.7732 6.59998 8 6.59998ZM12.2 7.99998C12.2 7.22678 12.8268 6.59998 13.6 6.59998C14.3732 6.59998 15 7.22678 15 7.99998C15 8.77317 14.3732 9.39998 13.6 9.39998C12.8268 9.39998 12.2 8.77317 12.2 7.99998ZM8 12.2C7.2268 12.2 6.6 12.8268 6.6 13.6C6.6 14.3732 7.2268 15 8 15C8.7732 15 9.4 14.3732 9.4 13.6C9.4 12.8268 8.7732 12.2 8 12.2ZM12.2 13.6C12.2 12.8268 12.8268 12.2 13.6 12.2C14.3732 12.2 15 12.8268 15 13.6C15 14.3732 14.3732 15 13.6 15C12.8268 15 12.2 14.3732 12.2 13.6ZM1 7.99998C1 7.22678 1.6268 6.59998 2.4 6.59998C3.1732 6.59998 3.8 7.22678 3.8 7.99998C3.8 8.77317 3.1732 9.39998 2.4 9.39998C1.6268 9.39998 1 8.77317 1 7.99998ZM2.4 12.2C1.6268 12.2 1 12.8268 1 13.6C1 14.3732 1.6268 15 2.4 15C3.1732 15 3.8 14.3732 3.8 13.6C3.8 12.8268 3.1732 12.2 2.4 12.2Z" fill="currentColor"/>
</svg>
