<svg width="16" height="16" viewBox="0 0 16 16" fill="none" xmlns="http://www.w3.org/2000/svg">
<path fill-rule="evenodd" clip-rule="evenodd" d="M2.69563 6.93579C2.19073 6.70867 1.71536 6.442 1.26978 6.1356C1.13373 6.04203 1.04042 5.89823 1.01039 5.73586C0.980354 5.57349 1.01605 5.40583 1.10963 5.26978C1.20321 5.13373 1.347 5.04042 1.50937 5.01039C1.67174 4.98035 1.8394 5.01605 1.97545 5.10963C3.48577 6.14836 5.4241 6.67287 7.80569 6.67287C10.5266 6.67287 12.2725 6.30961 14.0338 5.10838C14.1702 5.01806 14.3367 4.98507 14.4972 5.01655C14.6578 5.04804 14.7995 5.14147 14.8917 5.27663C14.9839 5.41179 15.0192 5.57782 14.99 5.7388C14.9607 5.89978 14.8692 6.04278 14.7354 6.13685C14.3176 6.42178 13.9014 6.66521 13.4779 6.87208L14.7055 8.07921C14.7652 8.13618 14.813 8.20447 14.8461 8.28009C14.8792 8.35572 14.897 8.43717 14.8983 8.51971C14.8996 8.60225 14.8845 8.68422 14.8539 8.76087C14.8232 8.83752 14.7776 8.90731 14.7197 8.96617C14.6619 9.02504 14.5929 9.07181 14.5167 9.10375C14.4406 9.1357 14.3589 9.15219 14.2764 9.15227C14.1938 9.15234 14.1121 9.136 14.0359 9.10419C13.9597 9.07238 13.8906 9.02573 13.8327 8.96697L12.2146 7.37587C11.6361 7.5579 11.0303 7.68665 10.3773 7.77286L10.7386 9.53755V9.53786C10.7565 9.61852 10.7582 9.70194 10.7436 9.78327C10.7289 9.86459 10.6983 9.94219 10.6533 10.0115C10.6084 10.0809 10.5501 10.1406 10.4819 10.1872C10.4136 10.2338 10.3368 10.2663 10.2558 10.2829C10.1749 10.2995 10.0915 10.2998 10.0104 10.2838C9.92932 10.2678 9.85224 10.2359 9.78365 10.1898C9.71507 10.1437 9.65634 10.0844 9.61089 10.0154C9.56545 9.9464 9.5342 9.86903 9.51896 9.78782L9.12931 7.88534C8.70968 7.90782 8.26979 7.91798 7.80569 7.91798C7.54696 7.91798 7.29247 7.91222 7.04226 7.90068L6.68228 9.77972C6.6512 9.9419 6.55697 10.0851 6.42031 10.1778C6.28365 10.2705 6.11576 10.3051 5.95358 10.274C5.7914 10.243 5.64821 10.1487 5.55551 10.0121C5.46281 9.8754 5.42819 9.70751 5.45927 9.54533L5.79571 7.79075C5.16165 7.70646 4.5587 7.58023 3.98713 7.41186L2.40563 8.96697C2.34765 9.02573 2.27856 9.07238 2.20239 9.10419C2.12621 9.136 2.04447 9.15234 1.96192 9.15227C1.87937 9.15219 1.79766 9.1357 1.72155 9.10375C1.64543 9.07181 1.57643 9.02504 1.51855 8.96617C1.46068 8.90731 1.41509 8.83752 1.38444 8.76087C1.35379 8.68422 1.33868 8.60225 1.34001 8.51971C1.34134 8.43717 1.35906 8.35572 1.39216 8.28009C1.42526 8.20447 1.47307 8.13618 1.53281 8.07921L2.69563 6.93579Z" fill="#BDBDBD"/>
</svg>
