<svg xmlns="http://www.w3.org/2000/svg" xmlns:xlink="http://www.w3.org/1999/xlink" fill="none" version="1.1" width="16" height="16" viewBox="0 0 16 16"><g><g><path d="M0.666748046875,8.000078046875C0.666748046875,3.949998046875,3.949998046875,0.666748046875,8.000078046875,0.666748046875C12.050148046875,0.666748046875,15.333448046875,3.949998046875,15.333448046875,8.000078046875C15.333448046875,12.050148046875,12.050148046875,15.333448046875,8.000078046875,15.333448046875C3.949998046875,15.333448046875,0.666748046875,12.050148046875,0.666748046875,8.000078046875C0.666748046875,8.000078046875,0.666748046875,8.000078046875,0.666748046875,8.000078046875ZM6.024408046875,5.317258046875C5.829148046875,5.121998046875,5.512568046875,5.121998046875,5.317298046875,5.317258046875C5.122038046875,5.512528046875,5.122038046875,5.829108046875,5.317298046875,6.024368046875C5.317298046875,6.024368046875,7.292918046875,8.000018046874999,7.292918046875,8.000018046874999C7.292918046875,8.000018046874999,5.317298046875,9.975618046875,5.317298046875,9.975618046875C5.122038046875,10.170878046875,5.122038046875,10.487418046875,5.317298046875,10.682648046875C5.512568046875,10.877948046875,5.829148046875,10.877948046875,6.024408046875,10.682648046875C6.024408046875,10.682648046875,8.000018046874999,8.707078046875,8.000018046874999,8.707078046875C8.000018046874999,8.707078046875,9.975618046875,10.682648046875,9.975618046875,10.682648046875C10.170878046875,10.877948046875,10.487478046875,10.877948046875,10.682748046875,10.682648046875C10.878048046875,10.487418046875,10.878048046875,10.170878046875,10.682748046875,9.975618046875C10.682748046875,9.975618046875,8.707148046875,8.000018046874999,8.707148046875,8.000018046874999C8.707148046875,8.000018046874999,10.682748046875,6.024368046875,10.682748046875,6.024368046875C10.878048046875,5.829108046875,10.878048046875,5.512528046875,10.682748046875,5.317258046875C10.487478046875,5.121998046875,10.170878046875,5.121998046875,9.975618046875,5.317258046875C9.975618046875,5.317258046875,8.000018046874999,7.292878046875,8.000018046874999,7.292878046875C8.000018046874999,7.292878046875,6.024408046875,5.317258046875,6.024408046875,5.317258046875C6.024408046875,5.317258046875,6.024408046875,5.317258046875,6.024408046875,5.317258046875Z" fill-rule="evenodd" fill="currentColor" fill-opacity="1"/></g></g></svg>