<svg width="16" height="16" viewBox="0 0 16 16" fill="none" xmlns="http://www.w3.org/2000/svg">
<path d="M6.14006 6.44995C6.11006 6.43995 6.07006 6.44995 6.04006 6.46995C6.01006 6.47995 5.99006 6.50995 5.98006 6.54995L5.62006 7.99995C5.61006 8.03995 5.62006 8.07995 5.64006 8.10995C5.66006 8.14995 5.70006 8.16995 5.74006 8.16995H7.20006C7.24006 8.16995 7.27006 8.15995 7.29006 8.12995C7.32006 8.09995 7.33006 8.06995 7.33006 8.02995V7.62995C7.33006 7.58995 7.32006 7.55995 7.29006 7.53995C7.27006 7.50995 7.24006 7.49995 7.20006 7.49995H6.90006C7.22006 7.27995 7.61006 7.16995 8.00006 7.16995C8.89006 7.16995 9.51006 7.58995 9.86006 8.42995L10.4801 8.17995C9.94006 7.05995 9.11006 6.49995 8.00006 6.49995C7.48006 6.49995 6.99007 6.64995 6.57007 6.90995L6.62006 6.70995V6.66995C6.62006 6.60995 6.58006 6.55995 6.52006 6.53995L6.14006 6.44995ZM6.23006 9.22995L5.61006 9.47995C6.15007 10.6 6.98006 11.16 8.09007 11.16C8.61006 11.16 9.10007 11.01 9.52007 10.75L9.47007 10.95V10.99C9.47007 11.05 9.51006 11.1 9.57006 11.12L9.96006 11.22C10.0301 11.24 10.1001 11.19 10.1201 11.12L10.4801 9.66995C10.4901 9.62995 10.4801 9.58995 10.4601 9.55995C10.4301 9.52995 10.4001 9.50995 10.3601 9.50995H8.89007C8.82007 9.50995 8.76007 9.56995 8.76007 9.63995V10.04C8.76007 10.11 8.82007 10.17 8.89007 10.17H9.20006C8.88006 10.38 8.50006 10.5 8.09007 10.5C7.20007 10.49 6.58006 10.07 6.23006 9.22995ZM6.67006 2.16995C8.00006 2.16995 9.25006 2.82995 10.0001 3.94995C10.7501 3.67995 11.5801 3.87995 12.1201 4.45995C12.6701 5.02995 12.8201 5.86995 12.5201 6.60995C13.3806 6.81597 14.1376 7.32622 14.6515 8.04657C15.1654 8.76693 15.4015 9.64881 15.3162 10.5296C15.231 11.4103 14.8301 12.2305 14.1875 12.8389C13.545 13.4473 12.7042 13.8028 11.8201 13.84H4.00006C3.21742 13.8394 2.45996 13.5633 1.86055 13.06C1.26115 12.5568 0.858092 11.8586 0.722079 11.0878C0.586067 10.3171 0.725788 9.52308 1.11673 8.84507C1.50768 8.16705 2.12488 7.64835 2.86006 7.37995C2.47006 6.14995 2.69006 4.82995 3.44006 3.79995C3.81161 3.29263 4.29797 2.88046 4.85936 2.59716C5.42076 2.31385 6.04124 2.16746 6.67006 2.16995Z" fill="currentColor"/>
</svg>
