<svg width="16" height="16" viewBox="0 0 16 16" fill="none" xmlns="http://www.w3.org/2000/svg">
<path d="M11.8044 14.7956L8.00023 11L4.19559 14.7947C4.13138 14.8596 4.05447 14.9112 3.96944 14.9464C3.88441 14.9817 3.793 14.9998 3.70064 14.9998C3.60828 14.9998 3.51686 14.9817 3.43183 14.9464C3.3468 14.9112 3.26989 14.8596 3.20569 14.7947C3.07398 14.6625 3.00028 14.4853 3.00028 14.3008C3.00028 14.1163 3.07398 13.9391 3.20569 13.807L7.50482 9.51786C7.5691 9.45303 7.64606 9.40148 7.73112 9.36627C7.81619 9.33107 7.90762 9.31293 8 9.31293C8.09238 9.31293 8.18381 9.33107 8.26888 9.36627C8.35394 9.40148 8.4309 9.45303 8.49518 9.51786L12.7952 13.807C12.9266 13.9395 13 14.1168 13 14.3013C13 14.4858 12.9266 14.6631 12.7952 14.7956C12.7308 14.8603 12.6538 14.9117 12.5687 14.9468C12.4836 14.9819 12.3922 15 12.2998 15C12.2075 15 12.116 14.9819 12.0309 14.9468C11.9459 14.9117 11.8688 14.8603 11.8044 14.7956ZM7.50482 6.48214L3.20478 2.19305C3.07344 2.0605 3 1.88322 3 1.69872C3 1.51421 3.07344 1.33694 3.20478 1.20439C3.26919 1.13971 3.34622 1.08829 3.43131 1.05319C3.5164 1.01809 3.60782 1 3.70018 1C3.79254 1 3.88397 1.01809 3.96906 1.05319C4.05415 1.08829 4.13117 1.13971 4.19559 1.20439L8.00023 5.00003L11.8035 1.20439C11.8679 1.13971 11.9449 1.08829 12.03 1.05319C12.1151 1.01809 12.2065 1 12.2989 1C12.3913 1 12.4827 1.01809 12.5678 1.05319C12.6529 1.08829 12.7299 1.13971 12.7943 1.20439C12.9257 1.33694 12.9991 1.51421 12.9991 1.69872C12.9991 1.88322 12.9257 2.0605 12.7943 2.19305L8.49427 6.48214C8.42991 6.54667 8.35298 6.59796 8.26801 6.63298C8.18304 6.66799 8.09176 6.68603 7.99955 6.68603C7.90733 6.68603 7.81605 6.66799 7.73108 6.63298C7.64612 6.59796 7.56918 6.54667 7.50482 6.48214Z" fill="currentColor"/>
</svg>
