<svg width="16" height="16" viewBox="0 0 16 16" fill="none" xmlns="http://www.w3.org/2000/svg">
<path d="M3.2 7.2V13.2C3.2 13.4209 3.37912 13.6 3.6 13.6H12.4C12.6209 13.6 12.8 13.4209 12.8 13.2V7.2H3.2ZM7.2 8H8.8C8.90601 7.9985 9.01129 8.01808 9.10967 8.05761C9.20804 8.09714 9.29755 8.15583 9.37305 8.23027C9.44854 8.30471 9.5085 8.3934 9.54942 8.49121C9.59033 8.58901 9.61143 8.69398 9.61143 8.8C9.61143 8.90602 9.59033 9.01098 9.54942 9.10879C9.5085 9.20659 9.44854 9.29529 9.37305 9.36972C9.29755 9.44416 9.20804 9.50285 9.10967 9.54238C9.01129 9.58191 8.90601 9.6015 8.8 9.6H7.2C7.09399 9.6015 6.98871 9.58191 6.89033 9.54238C6.79196 9.50285 6.70245 9.44416 6.62695 9.36972C6.55146 9.29529 6.49151 9.20659 6.45059 9.10879C6.40967 9.01098 6.38858 8.90602 6.38858 8.8C6.38858 8.69398 6.40967 8.58901 6.45059 8.49121C6.49151 8.3934 6.55146 8.30471 6.62695 8.23027C6.70245 8.15583 6.79196 8.09714 6.89033 8.05761C6.98871 8.01808 7.09399 7.9985 7.2 8ZM2.8 3.2C2.57912 3.20002 2.4 3.37909 2.4 3.6V6C2.4 6.2209 2.57912 6.39997 2.8 6.4H13.2C13.4209 6.39997 13.6 6.2209 13.6 6V3.6C13.6 3.37909 13.4209 3.20002 13.2 3.2H2.8Z" fill="currentColor"/>
</svg>
