<svg xmlns="http://www.w3.org/2000/svg" xmlns:xlink="http://www.w3.org/1999/xlink" fill="none" version="1.1" width="16" height="16" viewBox="0 0 16 16"><defs><clipPath id="master_svg0_0_1657"><rect x="0" y="0" width="16" height="16" rx="0"/></clipPath></defs><g clip-path="url(#master_svg0_0_1657)"><g><g></g><g><path d="M7.99998298828125,1.333251953125C11.68131298828125,1.333251953125,14.66661298828125,3.985251953125,14.66661298828125,7.259251953125C14.66611298828125,8.241381953125,14.27571298828125,9.183121953125,13.58111298828125,9.877581953125C12.88661298828125,10.571981953125,11.94481298828125,10.962251953125,10.96264298828125,10.962581953125C10.96264298828125,10.962581953125,9.65198298828125,10.962581953125,9.65198298828125,10.962581953125C9.03731298828125,10.962581953125,8.540642988281249,11.459251953125,8.540642988281249,12.073951953125C8.540642988281249,12.355251953125,8.651982988281251,12.614551953125,8.821982988281249,12.807251953125C8.99998298828125,13.007251953125,9.111312988281249,13.266551953125,9.111312988281249,13.555251953125C9.111312988281249,14.170551953125,8.599982988281251,14.666551953125,7.99998298828125,14.666551953125C4.318642988281249,14.666551953125,1.33331298828125,11.681251953125,1.33331298828125,7.999921953125C1.33331298828125,4.318581953124999,4.318642988281249,1.333251953125,7.99998298828125,1.333251953125C7.99998298828125,1.333251953125,7.99998298828125,1.333251953125,7.99998298828125,1.333251953125ZM4.99998298828125,7.999921953125C5.26519298828125,7.999921953125,5.51955298828125,7.894561953125,5.70708298828125,7.707021953125C5.89462298828125,7.519491953125,5.99998298828125,7.265131953125,5.99998298828125,6.999921953125C5.99998298828125,6.734701953125,5.89462298828125,6.480341953125,5.70708298828125,6.292811953125C5.51955298828125,6.105281953125,5.26519298828125,5.999921953125,4.99998298828125,5.999921953125C4.7347629882812505,5.999921953125,4.48040298828125,6.105281953125,4.29287298828125,6.292811953125C4.10534298828125,6.480341953125,3.99998298828125,6.734701953125,3.99998298828125,6.999921953125C3.99998298828125,7.265131953125,4.10534298828125,7.519491953125,4.29287298828125,7.707021953125C4.48040298828125,7.894561953125,4.7347629882812505,7.999921953125,4.99998298828125,7.999921953125C4.99998298828125,7.999921953125,4.99998298828125,7.999921953125,4.99998298828125,7.999921953125C4.99998298828125,7.999921953125,4.99998298828125,7.999921953125,4.99998298828125,7.999921953125ZM10.99998298828125,7.999921953125C11.26518298828125,7.999921953125,11.51961298828125,7.894561953125,11.70711298828125,7.707021953125C11.89461298828125,7.519491953125,12.00001298828125,7.265131953125,12.00001298828125,6.999921953125C12.00001298828125,6.734701953125,11.89461298828125,6.480341953125,11.70711298828125,6.292811953125C11.51961298828125,6.105281953125,11.26518298828125,5.999921953125,10.99998298828125,5.999921953125C10.73478298828125,5.999921953125,10.48038298828125,6.105281953125,10.29284298828125,6.292811953125C10.10531298828125,6.480341953125,9.99998298828125,6.734701953125,9.99998298828125,6.999921953125C9.99998298828125,7.265131953125,10.10531298828125,7.519491953125,10.29284298828125,7.707021953125C10.48038298828125,7.894561953125,10.73478298828125,7.999921953125,10.99998298828125,7.999921953125C10.99998298828125,7.999921953125,10.99998298828125,7.999921953125,10.99998298828125,7.999921953125ZM7.99998298828125,5.999921953125C8.26518298828125,5.999921953125,8.51958298828125,5.894561953125,8.70711298828125,5.707021953125C8.89464298828125,5.519491953125,8.99998298828125,5.265131953125,8.99998298828125,4.999921953125C8.99998298828125,4.7347019531250005,8.89464298828125,4.480341953125,8.70711298828125,4.292811953125C8.51958298828125,4.105281953125,8.26518298828125,3.999921953125,7.99998298828125,3.999921953125C7.73476298828125,3.999921953125,7.48040298828125,4.105281953125,7.29287298828125,4.292811953125C7.10534298828125,4.480341953125,6.99998298828125,4.7347019531250005,6.99998298828125,4.999921953125C6.99998298828125,5.265131953125,7.10534298828125,5.519491953125,7.29287298828125,5.707021953125C7.48040298828125,5.894561953125,7.73476298828125,5.999921953125,7.99998298828125,5.999921953125C7.99998298828125,5.999921953125,7.99998298828125,5.999921953125,7.99998298828125,5.999921953125Z" fill="currentColor" fill-opacity="1"/></g></g></g></svg>