<svg width="16" height="16" viewBox="0 0 16 16" fill="none" xmlns="http://www.w3.org/2000/svg">
<path d="M11.418 12.1084C11.5055 12.0501 11.5856 11.9918 11.6585 11.9189L14.5955 8.98193C15.1348 8.44262 15.1348 7.56079 14.5955 7.02149L11.6585 4.08448C11.1192 3.54517 10.2374 3.54517 9.69807 4.08448L8.67048 5.11207L9.90942 6.351C10.8204 7.26199 10.8204 8.73414 9.90942 9.64512C9.72723 9.82732 9.42842 9.82732 9.23894 9.64512C9.05674 9.46293 9.05674 9.16412 9.23894 8.97464C9.77824 8.43534 9.77824 7.5535 9.23894 7.0142L8 5.77526L6.30193 4.08448C6.27277 4.05533 6.25091 4.03346 6.22176 4.0116C5.67517 3.54517 4.85164 3.57433 4.34149 4.08448L1.40448 7.02149C0.865174 7.56079 0.865174 8.44262 1.40448 8.98193L4.34149 11.9189C4.88079 12.4582 5.76262 12.4582 6.30193 11.9189L7.32952 10.8841L6.09058 9.64512C5.17959 8.73414 5.17959 7.26199 6.09058 6.351C6.27277 6.16881 6.57158 6.16881 6.76106 6.351C6.94326 6.5332 6.94326 6.832 6.76106 7.02149C6.22176 7.56079 6.22176 8.44262 6.76106 8.98193L9.69807 11.9189C10.1572 12.3708 10.8641 12.451 11.418 12.1084Z" fill="currentColor"/>
</svg>
