<svg t="1753846077325" class="icon" viewBox="0 0 1319 1024" version="1.1" xmlns="http://www.w3.org/2000/svg" p-id="17334" width="200" height="200">
<path d="M802.954847 650.691254c0.260339-28.724068 14.943458-51.720678 32.906848-51.529762s32.438237 23.552 32.438237 52.276067-14.492203 52.067797-32.438237 52.276068-32.646508-22.805695-32.906848-51.529763v-1.49261zM442.194441 650.691254c0.260339-28.724068 14.943458-51.720678 32.906847-51.529762 17.946034 0.208271 32.438237 23.552 32.438237 52.276067s-14.492203 52.067797-32.438237 52.276068c-17.946034 0.208271-32.646508-22.805695-32.906847-51.529763v-1.49261z" fill="currentColor" p-id="17335"></path><path d="M264.053153 801.271322l0.052067-0.034712c4.026576 6.456407 11.663186 10.500339 19.907255 10.500339 12.097085 0 21.59078-9.892881 21.590779-22.111457 0-4.304271-1.180203-8.313492-3.245559-11.715255l0.052068-0.034712a390.334915 390.334915 0 0 1-43.632814-179.790101c0-216.497898 176.145356-392.66061 392.66061-392.66061 110.262237 0 210.041492 45.680814 281.443797 119.096406 68.798915 70.760136 111.234169 167.293831 111.234169 273.546848 0 60.034169-13.537627 116.978983-37.731796 167.918644-1.839729 3.124068-2.898441 6.716746-2.898441 10.535051 0 12.235932 11.021017 22.146169 23.048678 22.146169 7.810169 0 14.752542-3.974508 18.657627-10.101152l0.08678 0.052067 0.503322-1.041355c0.451254-0.798373 0.850441-1.631458 1.197559-2.499255a434.974373 434.974373 0 0 0 42.001356-186.975457c0-10.274712-0.364475-20.462644-1.058712-30.563797v-497.594576l91.552543 79.576949a21.885831 21.885831 0 0 0 28.724067-33.045695l-126.108203-109.620068a21.677559 21.677559 0 0 0-12.20122-5.241491 21.903186 21.903186 0 0 0-25.738848 21.556067v382.073492c-71.402305-144.800542-220.593898-244.64922-392.66061-244.64922-241.247458 0-437.508339 196.260881-437.508339 437.508339a434.366915 434.366915 0 0 0 50.071865 203.168542zM1311.535729 871.181017c-28.967051-30.962983-70.013831-7.983729-102.000814 4.200136-16.956746 6.456407-26.797559 4.616678-42.209627-4.859661-16.956746-10.413559-32.316746-21.868475-52.762034-24.037967-21.261017-2.273627-40.456678 6.317559-58.090305 17.303865-22.961898 14.318644-47.312271 19.681627-73.346169 8.643254-19.820475-8.400271-36.430102-22.840407-57.951458-27.17939-23.604068-4.772881-45.351051 5.866305-64.078102 19.126238-18.935322 13.416136-32.108475 14.613695-53.07444 3.939796-22.198237-11.298712-45.61139-22.007322-71.194034-16.193085-23.239593 5.293559-42.955932 19.716339-65.935187 25.738848-25.200814 6.61261-48.978441-12.478915-70.239457-22.597424-19.855186-9.441627-42.348475-11.992949-63.054102-3.783593-20.323797 8.070508-36.343322 26.866983-58.888678 28.75878-26.971119 2.256271-49.325559-15.169085-73.380881-23.673492-24.836339-8.782102-48.180068-3.453831-71.003119 8.487051-12.721898 6.647322-25.322305 17.841898-40.664949 15.74183-15.169085-2.065356-25.825627-15.134373-39.432678-21.052745-37.853288-16.47078-64.199593 11.038373-97.540339 22.753627-22.927186 8.053153-51.720678-19.421288-72.131254-27.09261-30.043119-11.298712-58.107661-1.943864-77.962848 22.788339-18.241085 22.718915 13.850034 43.841085 32.29939 20.879186 11.281356-14.040949 19.091525-17.737763 35.614373-9.962305 17.460068 8.226712 33.184542 18.952678 51.547119 25.357017 19.941966 6.959729 39.727729 2.533966 58.385356-5.658034 18.275797-8.035797 37.176407-28.238102 57.396067-15.307932 18.796475 12.027661 34.225898 20.965966 57.361356 21.764339 23.499932 0.815729 43.546034-14.509559 63.279729-24.836339 22.632136-11.836746 44.014644 6.265492 64.720271 14.301288 25.912407 10.066441 55.191864 13.797966 81.53817 3.471186 17.598915-6.890305 31.605153-21.660203 49.568542-27.023186 20.497356-6.126644 48.804881 18.744407 67.288949 25.68678 21.868475 8.226712 45.871729 7.758102 67.844339 0.590101 24.246237-7.914305 45.507254-27.665356 72.131254-20.271729 21.59078 6.005153 38.235119 22.111458 61.682984 23.482577 23.499932 1.388475 41.984-7.688678 60.658983-20.896543 7.931661-5.623322 16.158373-11.021017 26.155389-11.472271 8.903593-0.399186 18.640271 7.289492 25.860339 11.541695 23.274305 13.728542 47.104 22.285017 74.300746 22.736271 16.800542 0.277695 31.969627-3.714169 47.225492-10.292068 12.583051-5.432407 22.909831-15.169085 35.787932-20.046101 21.399864-8.087864 40.942644 13.728542 58.489491 22.788339 23.482576 12.131797 46.16678 10.535051 70.170034 1.388474 11.420203-4.338983 22.493288-9.476339 34.052339-13.468203 4.391051-1.509966 9.042441-2.915797 13.676475-3.280271 5.744814-0.433898 2.60339-0.867797 5.640678 2.395118 20.132881 21.556068 52.362847 0.607458 32.264678-20.879186zM1135.980475 984.116068c-14.283932 5.328271-22.562712 3.800949-35.527594-4.009221-14.266576-8.608542-27.196746-18.067525-44.396474-19.855186-17.893966-1.874441-34.034983 5.224136-48.891661 14.301288-19.334508 11.81939-39.814508 16.262508-61.717695 7.150644-16.679051-6.942373-30.650576-18.865898-48.77017-22.458576-19.855186-3.939797-38.165695 4.842305-53.924881 15.793898-15.932746 11.073085-27.023186 12.079729-44.674169 3.24556-18.692339-9.337492-38.373966-18.189017-59.912678-13.381424-19.560136 4.373695-36.152407 16.279864-55.486916 21.261017-21.208949 5.467119-41.202983-10.309424-59.096949-18.674983-16.713763-7.810169-35.631729-9.910237-53.057085-3.124068-17.112949 6.664678-30.581153 22.180881-49.551186 23.760271-22.701559 1.874441-41.498034-12.530983-61.752407-19.560135-20.896542-7.25478-40.543458-2.846373-59.739118 7.011796-10.691254 5.501831-21.295729 14.735186-34.225899 12.999593-12.75661-1.700881-21.746983-12.513627-33.184542-17.390644-31.848136-13.607051-54.011661 9.111864-82.076204 18.796475-19.282441 6.647322-43.528678-16.036881-60.693694-22.371797-25.287593-9.337492-48.909017-1.596746-65.605424 18.813831-15.36 18.779119 11.645831 38.044203 27.17939 19.056813 9.493695-11.593763 16.071593-14.648407 29.973695-8.226712 14.683119 6.786169 27.925695 15.655051 43.372474 20.948611 16.783186 5.744814 33.427525 2.100068 49.134644-4.686102 15.377356-6.629966 31.27539-23.326373 48.30156-12.652475 15.811254 9.927593 28.810847 17.32122 48.266847 17.980746 19.768407 0.676881 36.638373-11.975593 53.248-20.514712 19.039458-9.788746 37.037559 5.172068 54.462915 11.81939 21.816407 8.313492 46.444475 11.402847 68.608 2.863729 14.80461-5.692746 26.606644-17.893966 41.706305-22.337085 17.251797-5.050576 41.081492 15.481492 56.615051 21.226305 18.414644 6.786169 38.599593 6.404339 57.083661 0.485966 20.410576-6.525831 38.304542-22.857763 60.693695-16.748474 18.171661 4.963797 32.177898 18.258441 51.911593 19.403932 19.785763 1.145492 35.336678-6.352271 51.043797-17.269153 6.682034-4.65139 13.607051-9.111864 22.007322-9.476339 7.497763-0.329763 15.689763 6.022508 21.764339 9.545763 19.594847 11.35078 39.640949 18.414644 62.533424 18.779119 14.127729 0.225627 26.901695-3.054644 39.727728-8.504407 10.587119-4.495186 19.282441-12.530983 30.112543-16.557559 17.998102-6.682034 34.451525 11.333424 49.221424 18.831186 19.751051 10.031729 38.842576 8.695322 59.044881 1.162848 9.615186-3.592678 18.935322-7.827525 28.654644-11.125153 3.696814-1.249627 7.619254-2.412475 11.506983-2.707525 4.824949-0.364475 2.186847-0.711593 4.755525 1.978576 16.974102 17.789831 44.084068-1.319051 27.17939-19.056814-24.367729-25.565288-58.906034-6.595254-85.825084 3.471187zM96.134508 231.875254c2.256271-0.676881 21.920542-6.109288 29.296814 10.621831 0.277695 2.169492 0.728949 4.425763 1.405831 6.751457a8.677966 8.677966 0 0 0 16.626983-4.807593c-5.380339-18.206373 14.023593-26.103322 16.29722-26.953763a8.539119 8.539119 0 0 0 5.102644-10.986305 8.677966 8.677966 0 0 0-11.125153-5.067932c-7.393627 2.690169-17.87661 9.181288-23.881762 19.386576-12.652475-9.458983-29.557153-8.261424-38.946712-5.276203a8.521763 8.521763 0 0 0-5.605966 10.70861 8.677966 8.677966 0 0 0 10.830101 5.623322zM225.297356 143.255864c2.967864-0.919864 28.897627-8.139932 38.616949 14.162441 0.347119 2.898441 0.954576 5.901017 1.857085 9.007729a11.420203 11.420203 0 1 0 21.920542-6.404339c-7.098576-24.263593 18.484068-34.798644 21.469288-35.944136a11.437559 11.437559 0 0 0-7.949017-21.41722c-9.754034 3.592678-23.569356 12.235932-31.483661 25.860339-16.679051-12.617763-38.964068-11.003661-51.338847-7.046509a11.402847 11.402847 0 0 0-7.393627 14.283933 11.454915 11.454915 0 0 0 14.301288 7.497762z" fill="currentColor" p-id="17336"></path>
</svg>