<svg width="16" height="16" viewBox="0 0 16 16" fill="none" xmlns="http://www.w3.org/2000/svg">
    <path d="M5.03259 3C6.68945 3 8.03259 4.34315 8.03259 6C8.03259 6.98821 7.55291 7.86161 6.8158 8.4082C8.17538 9.06072 9.18806 10.4367 9.46033 12.0996C9.48914 12.2763 9.40375 12.4503 9.25232 12.5459C8.94017 12.743 8.52409 12.5172 8.45642 12.1543C8.10935 10.2887 6.63733 9.00021 5.03357 9C3.4296 9 1.95678 10.2885 1.60974 12.1543C1.54219 12.5173 1.12604 12.7429 0.813843 12.5459C0.662514 12.4502 0.576965 12.2763 0.605835 12.0996C0.877979 10.437 1.89022 9.06094 3.24939 8.4082C2.51254 7.86157 2.03259 6.98787 2.03259 6C2.03259 4.34328 3.37593 3.00022 5.03259 3ZM10.8304 3C12.4872 3.00013 13.8304 4.34323 13.8304 6C13.8304 6.98725 13.3536 7.86346 12.6176 8.41016C13.9749 9.06358 14.9852 10.4385 15.2572 12.0996C15.286 12.2764 15.2006 12.4503 15.0492 12.5459C14.7371 12.7429 14.3209 12.5171 14.2533 12.1543C13.9061 10.2887 12.4343 9.00008 10.8304 9C10.7028 9 10.5759 9.00846 10.4506 9.02441C10.1178 9.06674 9.78078 8.79463 9.81482 8.46094C9.84747 8.14178 10.2067 7.92778 10.5238 7.97656C10.6237 7.99193 10.7262 8 10.8304 8C11.9349 7.99992 12.8304 7.10452 12.8304 6C12.8304 4.89551 11.9349 4.00013 10.8304 4C10.5233 4 10.2321 4.06959 9.97205 4.19336C9.6801 4.3323 9.27324 4.23523 9.1449 3.93848C9.06374 3.75068 9.11507 3.5301 9.29041 3.4248C9.74047 3.1552 10.2676 3 10.8304 3ZM5.03259 4C3.92821 4.00022 3.03259 4.89556 3.03259 6C3.03259 7.10457 3.929 8 5.03357 8C6.138 7.99984 7.03259 7.10447 7.03259 6C7.03259 4.89543 6.13716 4 5.03259 4Z" fill="currentColor"/>
</svg>
    