<svg width="16" height="16" viewBox="0 0 16 16" fill="none" xmlns="http://www.w3.org/2000/svg">
<path fill-rule="evenodd" clip-rule="evenodd" d="M6.56516 11.2423C7.4567 13.9406 8.63226 14.5086 9.46067 14.5086C10.2891 14.5086 11.4646 13.9406 12.3562 11.2423L14.226 5.64854C14.7073 4.18107 14.5495 2.95817 13.7921 2.20076C13.0268 1.44335 11.8118 1.29345 10.3522 1.78261L4.76632 3.64457C2.06806 4.55188 1.5 5.71955 1.5 6.54796C1.50789 7.37638 2.06806 8.55194 4.76632 9.44347L6.11545 9.90107L6.56516 11.2423ZM2.81757 6.55585C2.81757 6.15348 3.44086 5.48286 5.18447 4.89902L10.7704 3.03706C11.7092 2.72148 12.4745 2.75304 12.8611 3.13963C13.2477 3.51833 13.2872 4.29152 12.9716 5.23828L11.1096 10.8321C10.5337 12.5757 9.85515 13.1989 9.46067 13.1989C9.06619 13.1989 8.39557 12.5757 7.81173 10.8321L7.34811 9.4412L9.57903 7.2028C9.83939 6.94244 9.83939 6.52429 9.57903 6.27182C9.31867 6.01146 8.90052 6.01935 8.64805 6.27182L6.33824 8.58938L5.18447 8.20479C3.44086 7.62096 2.81757 6.95034 2.81757 6.55585Z" fill="currentColor"/>
</svg>
