<svg width="16" height="16" viewBox="0 0 16 16" fill="none" xmlns="http://www.w3.org/2000/svg">
<path d="M3.28244 10.2556C2.54962 10.4578 2 11.1267 2 11.9511C2 12.76 2.54962 13.4444 3.28244 13.6467V15H4.1374V13.6311C4.87023 13.4289 5.41985 12.76 5.41985 11.9356C5.41985 11.1267 4.87023 10.4422 4.1374 10.24V1H3.28244V10.2556ZM4.56489 11.9356C4.56489 12.4178 4.18321 12.8067 3.70992 12.8067C3.23664 12.8067 2.85496 12.4178 2.85496 11.9356C2.85496 11.4533 3.23664 11.0644 3.70992 11.0644C4.18321 11.0644 4.56489 11.4533 4.56489 11.9356ZM6.29008 4.06444C6.29008 4.87333 6.83969 5.55778 7.57252 5.76V15H8.42748V5.74444C9.16031 5.54222 9.70992 4.87333 9.70992 4.04889C9.70992 3.22444 9.16031 2.55556 8.42748 2.35333V1H7.57252V2.36889C6.82443 2.57111 6.29008 3.25556 6.29008 4.06444ZM8.85496 4.06444C8.85496 4.54667 8.47328 4.93556 8 4.93556C7.52672 4.93556 7.14504 4.54667 7.14504 4.06444C7.14504 3.58222 7.52672 3.19333 8 3.19333C8.47328 3.19333 8.85496 3.58222 8.85496 4.06444ZM10.5802 9.30667C10.5802 10.1156 11.1298 10.8 11.8626 11.0022V15H12.7176V11.0022C13.4504 10.8 14 10.1311 14 9.30667C14 8.48222 13.4504 7.81333 12.7176 7.61111V1H11.8626V7.62667C11.1298 7.81333 10.5802 8.49778 10.5802 9.30667ZM13.1603 9.30667C13.1603 9.78889 12.7786 10.1778 12.3053 10.1778C11.8321 10.1778 11.4504 9.78889 11.4504 9.30667C11.4504 8.82444 11.8321 8.43556 12.3053 8.43556C12.7634 8.43556 13.1603 8.82444 13.1603 9.30667Z" fill="currentColor"/>
</svg>
