<svg width="16" height="16" viewBox="0 0 16 16" fill="none" xmlns="http://www.w3.org/2000/svg">
<path d="M11.1891 2.40279C10.8145 2.40323 10.4382 2.48919 10.0923 2.66216L4.62194 5.37779C4.61455 5.38122 4.60725 5.38487 4.60009 5.38875C2.99943 6.31285 2.14632 8.14347 2.46728 9.96375C2.78824 11.784 4.21575 13.2115 6.03603 13.5325C6.4911 13.6127 6.94713 13.6206 7.38915 13.5606C8.71519 13.3809 9.91707 12.6 10.611 11.3981C10.6154 11.3905 10.6196 11.3827 10.6235 11.3747L13.3313 5.90127C13.7926 4.97874 13.6322 3.83809 12.8938 3.09971C12.4323 2.63822 11.8134 2.40206 11.1891 2.40279ZM11.4391 3.2231C11.7709 3.27294 12.0857 3.42283 12.3282 3.66529C12.8131 4.1502 12.926 4.92599 12.6173 5.54341C12.6167 5.54394 12.6162 5.54446 12.6156 5.545L9.91564 11.0013C9.1562 12.3127 7.66528 13.0078 6.17501 12.745C4.68323 12.482 3.51774 11.3165 3.2547 9.82471C2.99166 8.33293 3.68827 6.83983 5.00001 6.08252L10.4485 3.37784C10.449 3.37784 10.4495 3.37784 10.4501 3.37784C10.7588 3.22348 11.1074 3.17325 11.4391 3.2231ZM11.2001 3.99966C10.763 3.99966 10.4001 4.36257 10.4001 4.79966C10.4001 5.23675 10.763 5.59966 11.2001 5.59966C11.6372 5.59966 12.0001 5.23675 12.0001 4.79966C12.0001 4.36257 11.6372 3.99966 11.2001 3.99966ZM6.80006 6.39966C5.25841 6.39966 4.00006 7.65801 4.00006 9.19966C4.00006 10.7413 5.25841 11.9997 6.80006 11.9997C8.34172 11.9997 9.60006 10.7413 9.60006 9.19966C9.60006 7.65801 8.34172 6.39966 6.80006 6.39966ZM6.80006 7.97935C6.95639 7.97926 7.11121 8.01022 7.25565 8.07049C7.4001 8.13075 7.53136 8.21913 7.64193 8.33057C7.7525 8.44201 7.8402 8.57434 7.90004 8.71997C7.95988 8.86561 7.99069 9.0217 7.99069 9.17935C7.99069 9.33699 7.95988 9.49309 7.90004 9.63872C7.8402 9.78436 7.7525 9.91669 7.64193 10.0281C7.53136 10.1396 7.4001 10.2279 7.25565 10.2882C7.11121 10.3485 6.95639 10.3794 6.80006 10.3793C6.64374 10.3794 6.48892 10.3485 6.34447 10.2882C6.20002 10.2279 6.06879 10.1396 5.95822 10.0281C5.84765 9.91669 5.75993 9.78436 5.70009 9.63872C5.64024 9.49309 5.60944 9.33699 5.60944 9.17935C5.60944 9.0217 5.64024 8.86561 5.70009 8.71997C5.75993 8.57434 5.84765 8.44201 5.95822 8.33057C6.06879 8.21913 6.20002 8.13075 6.34447 8.07049C6.48892 8.01022 6.64374 7.97926 6.80006 7.97935Z" fill="currentColor"/>
</svg>
