<svg width="16" height="16" viewBox="0 0 16 16" fill="none" xmlns="http://www.w3.org/2000/svg">
<path fill-rule="evenodd" clip-rule="evenodd" d="M5.06991 9.59481C5.06991 8.87233 5.06991 8.2093 5.14274 7.67016L5.1419 7.66932C5.22143 7.07493 5.4098 6.44538 5.92717 5.92801C6.44454 5.41063 7.07409 5.22227 7.66848 5.14274C8.2093 5.06991 8.8715 5.06991 9.59398 5.06991H10.8414C11.0071 5.06991 11.0892 5.06991 11.1394 5.01633C11.1888 4.96275 11.1829 4.88238 11.1712 4.72164C11.1612 4.58184 11.1478 4.44956 11.131 4.32566C11.0582 3.78987 10.9142 3.3445 10.6061 2.96944C10.4964 2.8355 10.3734 2.7116 10.2394 2.60276C9.84345 2.2771 9.36962 2.13395 8.79448 2.06697C8.23357 2 7.52533 2 6.63123 2H6.57681C5.68355 2 4.97531 2 4.4144 2.06614C3.83926 2.13478 3.36543 2.2771 2.96944 2.60193C2.8355 2.71243 2.7116 2.8355 2.60276 2.96944C2.2771 3.36543 2.13395 3.83843 2.06697 4.4144C2 4.97447 2 5.68355 2 6.57765V6.63207C2 7.52616 2 8.23441 2.06614 8.79532C2.13478 9.37045 2.2771 9.84429 2.60193 10.2403C2.71215 10.3742 2.83524 10.497 2.96944 10.607C3.3445 10.915 3.78903 11.0599 4.32482 11.1319C4.45666 11.1492 4.58899 11.1626 4.72164 11.172H4.72165C4.88238 11.1838 4.96275 11.1896 5.01633 11.1402C5.06991 11.09 5.06991 11.008 5.06991 10.8422V9.59481ZM9.64337 5.90708H10.2629C11.0264 5.90708 11.6417 5.90708 12.1256 5.97238C12.6279 6.03935 13.0515 6.18418 13.3864 6.51989C13.7229 6.85643 13.8677 7.2792 13.9347 7.7815C14 8.26539 14 8.88071 14 9.64337V10.2629C14 11.0264 14 11.6417 13.9347 12.1256C13.8669 12.6279 13.7229 13.0515 13.3864 13.3864C13.0507 13.7229 12.6279 13.8677 12.1256 13.9347C11.6417 14 11.0264 14 10.2629 14H9.64337C8.88071 14 8.26539 14 7.7815 13.9347C7.2792 13.8669 6.85643 13.7229 6.51989 13.3864C6.18418 13.0507 6.03935 12.6279 5.97238 12.1256C5.90708 11.6417 5.90708 11.0264 5.90708 10.2629V9.64337C5.90708 8.88071 5.90708 8.26539 5.97238 7.7815C6.03935 7.2792 6.18418 6.85643 6.51989 6.51989C6.85643 6.18418 7.2792 6.03935 7.7815 5.97238C8.26539 5.90708 8.88071 5.90708 9.64337 5.90708Z" fill="currentColor"/>
</svg>
