<svg width="16" height="16" viewBox="0 0 16 16" fill="none" xmlns="http://www.w3.org/2000/svg">
<path d="M2.4 3C1.63187 3 1 3.61545 1 4.36364V11.6364C1 12.3845 1.63187 13 2.4 13H13.6C14.3681 13 15 12.3845 15 11.6364V4.36364C15 3.61545 14.3681 3 13.6 3L2.4 3ZM2.4 3.90909H13.6C13.8623 3.90909 14.0667 4.10818 14.0667 4.36364V11.6364C14.0667 11.8918 13.8623 12.0909 13.6 12.0909H2.4C2.33847 12.0918 2.27739 12.0806 2.22038 12.0581C2.16336 12.0355 2.11157 12.0021 2.06806 11.9597C2.02455 11.9173 1.9902 11.8669 1.96706 11.8113C1.94392 11.7558 1.93245 11.6963 1.93333 11.6364V4.36364C1.93333 4.10818 2.13773 3.90909 2.4 3.90909ZM4.26667 5.72727C3.49853 5.72727 2.86667 6.34273 2.86667 7.09091V8.90909C2.86667 9.65727 3.49853 10.2727 4.26667 10.2727C5.0348 10.2727 5.66667 9.65727 5.66667 8.90909H4.73333C4.73333 9.16455 4.52893 9.36364 4.26667 9.36364C4.20514 9.36449 4.14406 9.35332 4.08705 9.33078C4.03003 9.30824 3.97823 9.27479 3.93472 9.23241C3.89121 9.19003 3.85687 9.13958 3.83373 9.08405C3.81059 9.02851 3.79912 8.96902 3.8 8.90909V7.09091C3.8 6.83545 4.0044 6.63636 4.26667 6.63636C4.52893 6.63636 4.73333 6.83545 4.73333 7.09091H5.66667C5.66667 6.34273 5.0348 5.72727 4.26667 5.72727ZM6.6 5.72727V8.90909C6.6 9.65727 7.23187 10.2727 8 10.2727H8.46667V9.36364H8C7.93847 9.36449 7.87739 9.35332 7.82038 9.33078C7.76336 9.30824 7.71157 9.27479 7.66806 9.23241C7.62455 9.19003 7.5902 9.13958 7.56706 9.08405C7.54392 9.02851 7.53245 8.96902 7.53333 8.90909V8.45455H8.46667V7.54545H7.53333V5.72727H6.6ZM12.2 5.72727V10.2727H13.1333V5.72727H12.2ZM9.86667 7.54545C9.7429 7.54545 9.6242 7.59334 9.53668 7.67859C9.44917 7.76383 9.4 7.87945 9.4 8V10.2727H10.3333V8.45455H11.2667V7.54545H9.86667Z" fill="currentColor"/>
</svg>
