<svg width="16" height="16" viewBox="0 0 16 16" fill="none" xmlns="http://www.w3.org/2000/svg">
<path d="M6.80002 2.40002C6.64101 2.39777 6.48313 2.42715 6.33557 2.48645C6.18801 2.54574 6.05371 2.63378 5.94046 2.74543C5.82722 2.85709 5.7373 2.99013 5.67592 3.13684C5.61454 3.28355 5.58293 3.44099 5.58293 3.60002C5.58293 3.75905 5.61454 3.9165 5.67592 4.06321C5.7373 4.20991 5.82722 4.34296 5.94046 4.45461C6.05371 4.56627 6.18801 4.6543 6.33557 4.7136C6.48313 4.77289 6.64101 4.80227 6.80002 4.80002H8.00002C8.9996 4.80482 9.86618 5.10139 10.411 5.55315C10.9566 6.00566 11.2584 6.56353 11.2016 7.52971C11.1293 8.7586 10.4237 9.56427 9.20315 10.2125C7.98257 10.8608 6.29718 11.1964 4.84534 11.2H3.60002C3.44101 11.1978 3.28313 11.2272 3.13557 11.2864C2.98801 11.3457 2.85371 11.4338 2.74046 11.5454C2.62722 11.6571 2.5373 11.7901 2.47592 11.9368C2.41454 12.0835 2.38293 12.241 2.38293 12.4C2.38293 12.5591 2.41454 12.7165 2.47592 12.8632C2.5373 13.0099 2.62722 13.143 2.74046 13.2546C2.85371 13.3663 2.98801 13.4543 3.13557 13.5136C3.28313 13.5729 3.44101 13.6023 3.60002 13.6H4.85002H4.85162C6.6442 13.5952 8.63409 13.231 10.3282 12.3313C12.0223 11.4315 13.4708 9.84145 13.5985 7.67034C13.6946 6.03651 13.023 4.59961 11.9438 3.70471C10.8647 2.80981 9.45663 2.40615 8.00475 2.40002H8.00315H6.80002Z" fill="currentColor"/>
</svg>
