<svg width="16" height="16" viewBox="0 0 16 16" fill="none" xmlns="http://www.w3.org/2000/svg">
<path d="M2.5 12C2.5 11.1669 2.6214 9.77663 3.01465 8.57715C3.21091 7.97863 3.48632 7.39126 3.87793 6.94531C4.27931 6.4884 4.81782 6.16701 5.5 6.16699C6.24848 6.16699 6.80556 6.41187 7.24414 6.78613C7.66032 7.1413 7.95845 7.60631 8.21094 7.99414C8.47911 8.40607 8.70154 8.74157 8.98828 8.98633C9.25275 9.21202 9.58166 9.36615 10.083 9.36621C10.5906 9.36621 10.9678 9.20784 11.2646 8.94824C11.5715 8.67978 11.8191 8.27924 12.0098 7.76074C12.3943 6.71474 12.5 5.32275 12.5 4C12.5 3.72386 12.7239 3.5 13 3.5C13.2761 3.5 13.5 3.72386 13.5 4C13.5 5.34381 13.3969 6.88485 12.9482 8.10547C12.7223 8.72014 12.3971 9.28631 11.9229 9.70117C11.4384 10.1249 10.8255 10.3662 10.083 10.3662C9.33482 10.3661 8.77833 10.1212 8.33984 9.74707C7.92364 9.3919 7.62554 8.92691 7.37305 8.53906C7.10476 8.12696 6.88161 7.79168 6.59473 7.54688C6.33021 7.32118 6.00148 7.16699 5.5 7.16699C5.16843 7.16701 4.88732 7.31242 4.62988 7.60547C4.36305 7.90929 4.14003 8.35445 3.96484 8.88867C3.61497 9.95585 3.5 11.2331 3.5 12C3.5 12.2761 3.27614 12.5 3 12.5C2.72386 12.5 2.5 12.2761 2.5 12Z" fill="currentColor"/>
</svg>
