<svg width="16" height="16" viewBox="0 0 16 16" fill="none" xmlns="http://www.w3.org/2000/svg">
<path d="M11.6462 5.13616C11.9947 5.1786 12.3176 5.34296 12.559 5.60076C12.8003 5.85856 12.9449 6.19358 12.9677 6.54781C13.1085 8.95421 12.7892 11.3661 12.0077 13.7818C11.9167 14.0614 11.7486 14.3089 11.5232 14.4952C11.2978 14.6814 11.0245 14.7988 10.7354 14.8333C8.91739 15.0558 7.07947 15.0556 5.26154 14.8326C4.97354 14.7978 4.70127 14.6809 4.47652 14.4956C4.25177 14.3102 4.08383 14.064 3.99231 13.7857C3.20462 11.3793 2.89 8.96666 3.03385 6.54781C3.07692 5.81671 3.64154 5.22327 4.35539 5.13616C6.77648 4.83875 9.22428 4.83875 11.6454 5.13616H11.6462ZM8 1C9.06154 1 9.94461 1.55377 10.1008 2.27476C10.91 2.3284 11.717 2.41271 12.52 2.52753C12.6539 2.54805 12.776 2.61651 12.8641 2.72044C12.9522 2.82438 13.0004 2.95686 13 3.09375V3.61174C13.0004 3.76219 12.9417 3.90665 12.8369 4.01339C12.732 4.12014 12.5896 4.18045 12.4408 4.18106C9.5032 3.65399 6.4968 3.65399 3.55923 4.18106C3.41044 4.18045 3.26797 4.12014 3.16311 4.01339C3.05826 3.90665 2.99959 3.76219 3 3.61174V3.09452C3 2.81142 3.20539 2.56642 3.48154 2.52753C4.28404 2.41283 5.0905 2.32851 5.89923 2.27476C6.05539 1.55377 6.93846 1 8 1ZM8 1.67043C7.48846 1.67043 7.05154 1.90221 6.88923 2.22498C7.62899 2.19834 8.36945 2.19808 9.10923 2.2242C8.94769 1.90221 8.51154 1.67043 8 1.67043Z" fill="currentColor"/>
</svg>
