<svg width="16" height="16" viewBox="0 0 16 16" fill="none" xmlns="http://www.w3.org/2000/svg">
<path fill-rule="evenodd" clip-rule="evenodd" d="M9.08022 1.74686C9.00068 1.66481 8.95599 1.55353 8.95599 1.4375C8.95599 1.32147 9.00068 1.21019 9.08022 1.12814C9.15976 1.04609 9.26764 1 9.38013 1C9.49262 1 9.6005 1.04609 9.68004 1.12814C9.75958 1.21019 9.80427 1.32147 9.80427 1.4375C9.80427 1.55353 9.75958 1.66481 9.68004 1.74686C9.6005 1.82891 9.49262 1.875 9.38013 1.875C9.26764 1.875 9.15976 1.82891 9.08022 1.74686ZM5.3817 2.18436C5.30216 2.10231 5.25748 1.99103 5.25748 1.875C5.25748 1.75897 5.30216 1.64769 5.3817 1.56564C5.46125 1.48359 5.56913 1.4375 5.68162 1.4375C5.7941 1.4375 5.90199 1.48359 5.98153 1.56564C6.06107 1.64769 6.10575 1.75897 6.10575 1.875C6.10575 1.99103 6.06107 2.10231 5.98153 2.18436C5.90199 2.26641 5.7941 2.3125 5.68162 2.3125C5.56913 2.3125 5.46125 2.26641 5.3817 2.18436ZM12.8072 3.56372H13.7318C13.783 3.56087 13.8339 3.57407 13.8778 3.60159C13.9216 3.62911 13.9564 3.66966 13.9775 3.71793C13.9986 3.76619 14.0051 3.81991 13.996 3.87203C13.987 3.92415 13.9629 3.97224 13.9269 4.00997L9.26136 8.81373C9.2549 8.8336 9.2549 8.8551 9.26136 8.87498V14.5625C9.26136 14.6785 9.21668 14.7898 9.13714 14.8718C9.05759 14.9539 8.94971 15 8.83722 15H7.14067C7.02818 15 6.9203 14.9539 6.84076 14.8718C6.76121 14.7898 6.71653 14.6785 6.71653 14.5625V8.87498C6.71825 8.86072 6.71686 8.84625 6.71246 8.83263C6.70805 8.819 6.70075 8.80656 6.69108 8.79623L2.051 4.00997C2.02304 3.97157 2.00582 3.92599 2.00124 3.87819C1.99665 3.83039 2.00487 3.78222 2.02499 3.7389C2.04511 3.69559 2.07636 3.6588 2.11535 3.63254C2.15434 3.60628 2.19957 3.59156 2.2461 3.58997H3.91721C3.86211 3.47264 3.83313 3.34409 3.83238 3.21372C3.83238 2.98166 3.92176 2.7591 4.08084 2.59501C4.23992 2.43091 4.45568 2.33872 4.68066 2.33872C4.90564 2.33872 5.1214 2.43091 5.28048 2.59501C5.43957 2.7591 5.52894 2.98166 5.52894 3.21372C5.52819 3.34409 5.49921 3.47264 5.44411 3.58997H5.86825C5.86864 3.4209 5.9165 3.25557 6.00605 3.11397C6.09561 2.97236 6.22302 2.86055 6.37287 2.79206C6.52272 2.72356 6.68861 2.70132 6.85046 2.72801C7.01231 2.75471 7.1632 2.8292 7.28487 2.94247C7.31975 2.59438 7.48725 2.27483 7.75053 2.05412C8.01381 1.83341 8.35131 1.72963 8.68877 1.7656C8.85587 1.78341 9.01793 1.83499 9.1657 1.91741C9.31347 1.99982 9.44405 2.11145 9.55 2.24592C9.65594 2.38039 9.73517 2.53507 9.78317 2.70113C9.83116 2.86718 9.84697 3.04136 9.82971 3.21372C10.037 3.06686 10.2823 2.98761 10.5338 2.98622C10.7713 2.98515 11.0041 3.05505 11.2039 3.18747C11.2039 2.95541 11.2933 2.73285 11.4524 2.56876C11.6115 2.40466 11.8272 2.31247 12.0522 2.31247C12.2772 2.31247 12.4929 2.40466 12.652 2.56876C12.8111 2.73285 12.9005 2.95541 12.9005 3.18747C12.8996 3.31887 12.8676 3.44804 12.8072 3.56372ZM5.44411 6.24998L9.6346 7.18623L12.2982 4.43872H11.7214C11.686 4.74732 11.5422 5.03181 11.317 5.23825C11.0919 5.44469 10.8011 5.55872 10.4998 5.55872C10.1986 5.55872 9.90783 5.44469 9.68268 5.23825C9.45752 5.03181 9.31365 4.74732 9.27833 4.43872H8.8966C8.65694 4.52018 8.39826 4.52018 8.1586 4.43872H3.67969L5.44411 6.24998ZM10.1775 2.46997C10.1775 2.586 10.2222 2.69728 10.3017 2.77933C10.3813 2.86138 10.4891 2.90747 10.6016 2.90747C10.7141 2.90747 10.822 2.86138 10.9015 2.77933C10.9811 2.69728 11.0258 2.586 11.0258 2.46997C11.0258 2.35394 10.9811 2.24266 10.9015 2.16061C10.822 2.07856 10.7141 2.03247 10.6016 2.03247C10.4891 2.03247 10.3813 2.07856 10.3017 2.16061C10.2222 2.24266 10.1775 2.35394 10.1775 2.46997Z" fill="currentColor"/>
</svg>
