<svg width="16" height="16" viewBox="0 0 16 16" fill="none" xmlns="http://www.w3.org/2000/svg">
<path d="M12.8698 2.92903C12.8659 2.92125 12.8595 2.91516 12.8516 2.91184C11.9439 2.48236 10.9861 2.17611 10.002 2.00075C9.99302 1.99904 9.98378 2.00027 9.97556 2.00429C9.96734 2.0083 9.96055 2.01488 9.95617 2.02309C9.82574 2.26723 9.70733 2.518 9.60141 2.77444C8.54061 2.60838 7.46158 2.60838 6.40078 2.77444C6.29415 2.51734 6.17385 2.26652 6.04042 2.02309C6.03584 2.01506 6.02903 2.00863 6.02085 2.00464C6.01268 2.00066 6.00354 1.9993 5.99461 2.00075C5.01041 2.17574 4.05247 2.48202 3.14489 2.91186C3.13712 2.91526 3.13056 2.92106 3.12612 2.92846C1.31114 5.7236 0.813948 8.45001 1.05785 11.1427C1.05854 11.1493 1.06051 11.1556 1.06364 11.1614C1.06676 11.1672 1.07099 11.1723 1.07607 11.1764C2.13292 11.9834 3.31501 12.5994 4.57191 12.998C4.58077 13.0008 4.59022 13.0006 4.599 12.9977C4.60778 12.9947 4.61547 12.989 4.62103 12.9814C4.89099 12.6026 5.13019 12.2015 5.3362 11.7822C5.33903 11.7764 5.34065 11.7701 5.34094 11.7637C5.34124 11.7572 5.34021 11.7508 5.33791 11.7448C5.33562 11.7388 5.33212 11.7334 5.32765 11.7288C5.32317 11.7243 5.31782 11.7209 5.31194 11.7186C4.93474 11.5698 4.56956 11.3904 4.21984 11.1821C4.21349 11.1782 4.20815 11.1728 4.20431 11.1663C4.20046 11.1598 4.19822 11.1525 4.19778 11.1449C4.19735 11.1373 4.19873 11.1297 4.20181 11.1228C4.20489 11.1159 4.20957 11.1099 4.21544 11.1053C4.28903 11.0486 4.36134 10.9902 4.43232 10.9301C4.43854 10.9248 4.44608 10.9214 4.45407 10.9203C4.46206 10.9192 4.4702 10.9204 4.47756 10.9238C6.76873 12.0021 9.24924 12.0021 11.5133 10.9238C11.5207 10.9202 11.5289 10.9188 11.537 10.9198C11.5451 10.9208 11.5528 10.9242 11.5591 10.9295C11.6302 10.99 11.7027 11.0486 11.7765 11.1053C11.7824 11.1099 11.7872 11.1158 11.7903 11.1227C11.7934 11.1296 11.7948 11.1372 11.7945 11.1448C11.7941 11.1523 11.7919 11.1597 11.7881 11.1662C11.7843 11.1727 11.779 11.1782 11.7727 11.1821C11.4238 11.3921 11.0582 11.5714 10.6801 11.7181C10.6742 11.7204 10.6688 11.7239 10.6644 11.7285C10.66 11.7331 10.6565 11.7386 10.6542 11.7446C10.652 11.7507 10.651 11.7572 10.6514 11.7636C10.6517 11.7701 10.6534 11.7764 10.6562 11.7822C10.8657 12.1992 11.1046 12.5998 11.3709 12.9808C11.3763 12.9886 11.3839 12.9945 11.3927 12.9975C11.4016 13.0006 11.4111 13.0008 11.42 12.998C12.6791 12.6006 13.8633 11.9846 14.9215 11.1764C14.9266 11.1725 14.9309 11.1676 14.9341 11.1619C14.9372 11.1561 14.9391 11.1498 14.9397 11.1432C15.2317 8.03024 14.4508 5.32617 12.8698 2.92903ZM5.67837 9.50312C4.98856 9.50312 4.42018 8.85031 4.42018 8.04858C4.42018 7.24686 4.97753 6.594 5.67837 6.594C6.38468 6.594 6.94757 7.25253 6.93654 8.04853C6.93654 8.85031 6.37916 9.50312 5.67837 9.50312ZM10.3303 9.50312C9.6405 9.50312 9.07212 8.85031 9.07212 8.04858C9.07212 7.24686 9.62948 6.594 10.3303 6.594C11.0367 6.594 11.5995 7.25253 11.5885 8.04853C11.5885 8.85031 11.0367 9.50312 10.3303 9.50312Z" fill="currentColor"/>
</svg>
