<svg width="16" height="16" viewBox="0 0 16 16" fill="none" xmlns="http://www.w3.org/2000/svg">
<path d="M11.0132 1.315C11.213 1.315 11.4046 1.39436 11.5459 1.53563C11.6871 1.67689 11.7665 1.86849 11.7665 2.06827V5.83461H14.6236C14.7029 5.83464 14.7801 5.85968 14.8443 5.90617L14.8895 5.94458C14.9519 6.0069 14.9905 6.08914 14.9985 6.17696C15.0064 6.26478 14.9834 6.35262 14.9332 6.42517L14.8895 6.4779L8.53271 12.8347C8.403 12.9644 8.23043 13.0423 8.04737 13.0538C7.8643 13.0653 7.68333 13.0097 7.5384 12.8972L7.46759 12.8347L1.11002 6.47714C1.06152 6.42854 1.02723 6.3676 1.01086 6.30091C0.994491 6.23423 0.996661 6.16434 1.01714 6.0988C1.03761 6.03327 1.07562 5.97457 1.12704 5.92907C1.17845 5.88356 1.24134 5.85298 1.30888 5.84063L1.37667 5.83461H4.23381V2.06827C4.23381 1.86849 4.31318 1.67689 4.45444 1.53563C4.59571 1.39436 4.7873 1.315 4.98708 1.315H11.0132ZM11.7665 13.5556C11.9096 13.5556 12.0474 13.61 12.152 13.7077C12.2566 13.8055 12.3202 13.9392 12.33 14.082C12.3397 14.2248 12.2949 14.366 12.2046 14.4771C12.1142 14.5881 11.9851 14.6607 11.8433 14.6802L11.7665 14.6855H4.23381C4.09068 14.6854 3.95289 14.6311 3.8483 14.5334C3.74371 14.4356 3.68011 14.3019 3.67035 14.1591C3.66059 14.0162 3.70541 13.8751 3.79574 13.764C3.88607 13.653 4.01518 13.5804 4.15698 13.5609L4.23381 13.5556H11.7665Z" fill="currentColor"/>
</svg>
