<svg width="16" height="16" viewBox="0 0 16 16" fill="none" xmlns="http://www.w3.org/2000/svg">
<path d="M8.79695 11.5902L11.3472 12.274C11.7456 12.3595 12.0644 12.8724 11.905 13.2998C11.8253 13.7272 11.3472 14.0691 10.9487 13.8981L8 13.1288L4.9716 13.9836C4.57313 14.0691 4.09496 13.8127 4.01527 13.3853C3.93558 12.9579 4.17466 12.445 4.57313 12.3595L7.20305 11.5902V8.4274H5.21069C4.9716 8.4274 4.81222 8.25644 4.81222 8C4.81222 7.74356 4.9716 7.5726 5.21069 7.5726H7.20305V4.40983L4.65283 3.72598C4.17466 3.55502 3.93558 3.12762 4.01527 2.70022C4.17466 2.18734 4.57313 1.9309 4.9716 2.01638L8 2.87118L11.0284 2.01638C11.4269 1.9309 11.905 2.18734 11.9847 2.61474C12.0644 3.04214 11.8253 3.55502 11.4269 3.6405L8.79695 4.40983V7.5726H10.7893C11.0284 7.5726 11.1878 7.74356 11.1878 8C11.1878 8.25644 11.0284 8.4274 10.7893 8.4274H8.79695V11.5902Z" fill="currentColor"/>
</svg>
