<svg xmlns="http://www.w3.org/2000/svg" xmlns:xlink="http://www.w3.org/1999/xlink" fill="none" version="1.1" width="16.00456428527832" height="16.00591278076172" viewBox="0 0 16.00456428527832 16.00591278076172"><g><path d="M15.6168,4.16591L11.8435,0.392584C11.3207,-0.130681,10.4727,-0.130888,9.94967,0.392122C9.42666,0.915131,9.42687,1.76316,9.95013,2.28591L13.7235,6.05924C14.2435,6.5762,15.0834,6.5762,15.6035,6.05924C16.133,5.54138,16.139,4.69117,15.6168,4.16591ZM9.1768,3.07258C8.65675,2.55562,7.81685,2.55562,7.2968,3.07258L0.390146,9.9659C0.191483,10.156,0.0564287,10.4028,0.00348,10.6726C-0.00116,10.7347,-0.00116,10.7971,0.00348,10.8592L0.00348,14.6726C0.00347988,15.4089,0.600433,16.0059,1.33681,16.0059L5.0968,16.0059C5.45121,16.0079,5.79185,15.8688,6.04347,15.6192L12.9368,8.7259C13.4538,8.20585,13.4538,7.36596,12.9368,6.84591L9.1768,3.07258Z" fill="currentColor" fill-opacity="1"/></g></svg>