<svg width="16" height="16" viewBox="0 0 16 16" fill="none" xmlns="http://www.w3.org/2000/svg">
<path d="M9.90181 1.99898C8.63417 1.96701 7.36594 1.96701 6.09831 1.99898H6.06119C5.06782 2.02437 4.26884 2.04489 3.62906 2.15624C2.95803 2.27345 2.41299 2.49713 1.95294 2.95913C1.49386 3.41919 1.27214 3.95543 1.15786 4.61572C1.04846 5.24377 1.03088 6.02225 1.01134 6.98924L1.01037 7.02733C0.996544 7.67452 0.996544 8.32194 1.01037 8.96913V9.0082C1.03186 9.97324 1.04846 10.7527 1.15688 11.3817C1.27214 12.0401 1.49484 12.5773 1.95294 13.0373C2.41299 13.4993 2.959 13.723 3.62906 13.8402C4.26884 13.9516 5.06782 13.9721 6.06119 13.9965L6.09831 13.9975C7.36594 14.0294 8.63417 14.0294 9.90181 13.9975H9.9399C10.9323 13.9721 11.7313 13.9516 12.372 13.8402C13.0421 13.723 13.5871 13.4993 14.0472 13.0373C14.5062 12.5783 14.728 12.041 14.8423 11.3807C14.9517 10.7527 14.9692 9.97421 14.9888 9.00722L14.9897 8.96913C15.0034 8.32056 15.0034 7.6759 14.9897 7.02733V6.98826C14.9683 6.02322 14.9516 5.24377 14.8432 4.61572C14.728 3.9564 14.5053 3.41919 14.0472 2.95913C13.5871 2.49713 13.0411 2.27345 12.372 2.15624C11.7313 2.04489 10.9323 2.02437 9.9399 1.99995L9.90083 1.99898H9.90181ZM4.99164 5.29847L6.90804 6.43151C7.45795 6.75677 7.75001 6.85835 7.99908 6.85835C8.24815 6.85835 8.54118 6.75677 9.0911 6.43151L11.0065 5.29847C11.0617 5.26583 11.1229 5.24438 11.1864 5.23535C11.2499 5.22632 11.3145 5.22989 11.3767 5.24585C11.4388 5.26182 11.4972 5.28986 11.5485 5.32839C11.5998 5.36691 11.643 5.41516 11.6756 5.47038C11.7082 5.5256 11.7297 5.58671 11.7387 5.65022C11.7477 5.71373 11.7442 5.77839 11.7282 5.84052C11.7123 5.90265 11.6842 5.96103 11.6457 6.01232C11.6072 6.06361 11.5589 6.10681 11.5037 6.13946L9.58827 7.2725C9.02077 7.60753 8.53141 7.83511 7.99908 7.83511C7.46674 7.83511 6.97739 7.60753 6.41087 7.2725L4.49447 6.13946C4.38547 6.07224 4.30723 5.9649 4.27661 5.84055C4.24598 5.7162 4.26543 5.58481 4.33075 5.47466C4.39607 5.36451 4.50204 5.28442 4.62584 5.25165C4.74963 5.21888 4.88135 5.23604 4.99261 5.29945L4.99164 5.29847Z" fill="currentColor"/>
</svg>
