<svg width="16" height="16" viewBox="0 0 16 16" fill="none" xmlns="http://www.w3.org/2000/svg">
<path d="M14.1627 13.9987H1.8373C1.62847 14.0106 1.42328 13.9414 1.26645 13.8064C1.10961 13.6713 1.01384 13.4812 1 13.2775V7.61181C1.01275 7.42199 1.09697 7.24347 1.23647 7.11061C4.53644 2.1327 4.54796 2.12428 4.61548 2.07464C4.68331 2.02578 4.7655 1.99961 4.84981 2H11.1382C11.4172 2 11.4208 2 14.7369 7.08583C14.892 7.22061 14.9865 7.40955 15 7.61178V13.2775C14.9867 13.4732 14.8977 13.6568 14.7509 13.7909C14.6042 13.9251 14.4107 13.9998 14.2096 14C14.1941 14 14.1784 13.9996 14.1627 13.9987ZM14.1627 13.2843C14.2008 13.2858 14.2384 13.2748 14.2694 13.2531V7.65069C14.2604 7.64103 14.252 7.63091 14.2442 7.62037C14.2189 7.6084 14.1909 7.60272 14.1628 7.60385V7.60442H10.4077C10.2358 8.09035 9.90987 8.51029 9.47715 8.80346C9.04443 9.09663 8.52734 9.24782 8.00072 9.23516C7.47406 9.24783 6.95693 9.09665 6.52417 8.80347C6.0914 8.5103 5.76546 8.09036 5.5935 7.60441H1.8373C1.80015 7.60292 1.76353 7.61331 1.73298 7.63399L1.73058 7.63677V13.2531C1.76158 13.2748 1.79913 13.2858 1.83726 13.2843L14.1627 13.2843ZM6.24391 6.89117C6.24073 6.9275 6.23113 6.96208 6.23113 6.99899C6.23113 7.84132 7.02336 8.52221 8.00049 8.52221C8.97762 8.52221 9.76957 7.84018 9.76957 6.99899C9.76957 6.9621 9.75996 6.9275 9.75677 6.89117H13.767C12.6893 5.24402 11.3198 3.16562 10.9473 2.64264H5.05544C4.68214 3.19459 3.34026 5.21439 2.22822 6.89117H6.24391Z" fill="currentColor"/>
</svg>
