<svg width="16" height="16" viewBox="0 0 16 16" fill="none" xmlns="http://www.w3.org/2000/svg">
<g clip-path="url(#clip0_1_8)">
<path fill-rule="evenodd" clip-rule="evenodd" d="M8 0C12.4179 0 16 3.58214 16 8C16 12.4179 12.4179 16 8 16C3.58214 16 0 12.4179 0 8C0 3.58214 3.58214 0 8 0ZM10.2854 4.9075H10.2846L10.2832 4.90857L8 7.19196L5.71679 4.90857C5.71607 4.90768 5.71571 4.9075 5.71536 4.9075C5.71495 4.90738 5.71451 4.90738 5.71411 4.9075C5.71357 4.9075 5.71321 4.90768 5.7125 4.90839L4.90857 5.71232C4.90814 5.71277 4.90783 5.71332 4.90768 5.71393C4.90755 5.71434 4.90755 5.71477 4.90768 5.71518V5.71554C4.90798 5.71595 4.90834 5.71631 4.90875 5.71661L7.19196 8L4.90857 10.2832C4.90768 10.2839 4.9075 10.2843 4.9075 10.2846C4.90738 10.2851 4.90738 10.2855 4.9075 10.2859C4.9075 10.2864 4.90768 10.2868 4.90839 10.2875L5.71232 11.0914C5.71277 11.0919 5.71332 11.0922 5.71393 11.0923C5.71434 11.0924 5.71477 11.0924 5.71518 11.0923C5.71554 11.0923 5.71589 11.0921 5.71661 11.0914L8 8.80804L10.2832 11.0914C10.2839 11.0921 10.2843 11.0923 10.2846 11.0923C10.2851 11.0924 10.2855 11.0924 10.2859 11.0923C10.2864 11.0923 10.2868 11.0921 10.2875 11.0914L11.0914 10.2875C11.0919 10.2871 11.0922 10.2865 11.0923 10.2859C11.0924 10.2855 11.0924 10.2851 11.0923 10.2846V10.2843C11.0921 10.2839 11.0918 10.2835 11.0914 10.2832L8.80804 8L11.0914 5.71679C11.0921 5.71607 11.0923 5.71571 11.0923 5.71536C11.0924 5.71495 11.0924 5.71451 11.0923 5.71411C11.0923 5.71357 11.0921 5.71321 11.0914 5.7125L10.2875 4.90857C10.2871 4.90814 10.2865 4.90783 10.2859 4.90768C10.2855 4.90755 10.2851 4.90755 10.2846 4.90768L10.2854 4.9075Z" fill="#FF1010"/>
</g>
<defs>
<clipPath id="clip0_1_8">
<rect width="16" height="16" fill="white"/>
</clipPath>
</defs>
</svg>
