<svg width="16" height="16" viewBox="0 0 16 16" fill="none" xmlns="http://www.w3.org/2000/svg">
<path d="M7.50929 13.5676C7.50929 13.8196 7.75475 14 7.99979 14C8.24525 14 8.44944 13.82 8.53155 13.6036V10.2523H9.88008L13.3144 13.2793C13.4777 13.4233 13.8049 13.4233 13.9682 13.2793C14.1724 13.1353 14.1724 12.8829 13.9682 12.7025L11.1886 10.2523H12.9056C13.764 10.2523 14.5 9.6395 14.5 8.84675V4.55863C14.5 3.80187 13.8049 3.15312 12.9056 3.15312H8.49028V2.43237C8.49028 2.18 8.24525 2 8.00021 2C7.71434 2 7.50972 2.21637 7.50972 2.43237V3.15312H3.09442C2.23595 3.15312 1.5 3.76625 1.5 4.55863V8.81113C1.5 9.5675 2.19511 10.2163 3.09442 10.2163H4.89304L2.27679 12.5225C2.19511 12.5945 2.15428 12.7025 2.15428 12.8109C2.15428 12.9189 2.19511 13.0269 2.27679 13.0993C2.44015 13.2433 2.76729 13.2433 2.93064 13.0993L6.20117 10.2163H7.50929V13.5676ZM12.2513 4.88263C12.2513 4.70263 12.4151 4.55863 12.6193 4.55863C12.7826 4.55863 12.9464 4.70263 12.9873 4.883V8.37838C12.9873 8.55838 12.8239 8.70275 12.6193 8.70275C12.5709 8.70295 12.5229 8.69469 12.4782 8.67846C12.4334 8.66223 12.3928 8.63835 12.3586 8.60819C12.3244 8.57803 12.2973 8.54219 12.2789 8.50274C12.2604 8.4633 12.2511 8.42103 12.2513 8.37838V4.883V4.88263Z" fill="currentColor"/>
</svg>
