<svg width="16" height="16" viewBox="0 0 16 16" fill="none" xmlns="http://www.w3.org/2000/svg">
<path d="M8 2C8.27614 2 8.5 2.22386 8.5 2.5C8.5 2.77614 8.27614 3 8 3H4.5C3.67157 3 3 3.67157 3 4.5V11.5C3 12.3285 3.67157 13 4.5 13H8C8.27614 13 8.5 13.2239 8.5 13.5C8.5 13.7761 8.27614 14 8 14H4.5C3.11929 14 2 12.8807 2 11.5V4.5C2 3.11929 3.11929 2 4.5 2H8ZM11.0254 5.52539C11.1963 5.35458 11.4602 5.33269 11.6543 5.46094L11.7324 5.52539L13.8535 7.64648C14.0486 7.84172 14.0486 8.15828 13.8535 8.35352L11.7324 10.4746C11.5372 10.6697 11.2206 10.6697 11.0254 10.4746C10.8303 10.2794 10.8303 9.96281 11.0254 9.76758L12.293 8.5H6.5C6.22393 8.5 6.00011 8.27605 6 8C6.00012 7.72396 6.22393 7.5 6.5 7.5H12.293L11.0254 6.23242L10.9609 6.1543C10.8327 5.96025 10.8546 5.69628 11.0254 5.52539Z" fill="currentColor"/>
</svg>
