<svg width="16" height="16" viewBox="0 0 16 16" fill="none" xmlns="http://www.w3.org/2000/svg">
<path d="M8.00002 15C5.24292 15 3 12.7303 3 9.94036C3 9.01669 3.24875 8.11246 3.71912 7.32576L7.65084 1.19297C7.72793 1.07261 7.85749 1 7.99624 1C8.13454 1 8.26418 1.07219 8.34168 1.19297L12.2712 7.31053C12.7504 8.11025 13 9.01585 13 9.94074C13 12.7303 10.757 15 8.00002 15ZM8.39999 6.51517C8.39999 6.398 8.31046 6.30305 8.19999 6.30305H7.79999C7.68953 6.30305 7.59999 6.398 7.59999 6.51517V8.84851C7.59999 8.96564 7.68952 9.06063 7.79999 9.06063H8.19999C8.31044 9.06063 8.39999 8.96564 8.39999 8.84851V6.51517ZM9.00002 7.13796V7.36358V8.74246C9.00002 9.26966 8.59705 9.69702 8.10002 9.69702H7.90001C7.40296 9.69702 7.00001 9.26966 7.00001 8.74246V7.36357H6.99998V7.13794C5.94819 7.56515 5.2 8.64313 5.2 9.90912C5.2 11.5492 6.45359 12.8788 8.00001 12.8788C9.5464 12.8788 10.8 11.5492 10.8 9.90912C10.8 8.64314 10.0518 7.56517 9.00002 7.13796Z" fill="currentColor"/>
</svg>
