<svg width="16" height="16" viewBox="0 0 16 16" fill="none" xmlns="http://www.w3.org/2000/svg">
<path d="M5.63943 2.30292H5.2568C5.07485 2.30292 4.90035 2.23428 4.77169 2.11211C4.64303 1.98994 4.57074 1.82424 4.57074 1.65146C4.57074 1.47868 4.64303 1.31298 4.77169 1.19081C4.90035 1.06864 5.07485 1 5.2568 1H10.7432C10.9252 1 11.0997 1.06864 11.2283 1.19081C11.357 1.31298 11.4293 1.47868 11.4293 1.65146C11.4293 1.82424 11.357 1.98994 11.2283 2.11211C11.0997 2.23428 10.9252 2.30292 10.7432 2.30292H10.3606V3.21906C10.3606 4.3618 10.3647 4.82475 10.4819 5.26329C10.5992 5.7028 10.8286 6.11302 11.4035 7.12097L12.1894 8.49909C12.8785 9.70629 13.4319 10.6771 13.7322 11.4624C14.0387 12.2652 14.1488 13.0446 13.6993 13.7557L13.6983 13.7586L13.688 13.7723V13.7752C13.2344 14.4794 12.4589 14.7539 11.565 14.8779C10.6887 15 9.51817 15 8.05966 15H7.94034C6.4808 15 5.31132 15 4.43497 14.8779C3.54115 14.7539 2.7656 14.4794 2.31303 13.7742L2.31097 13.7723L2.30069 13.7557C1.8512 13.0446 1.96126 12.2652 2.26777 11.4624C2.56812 10.6771 3.12149 9.70727 3.81063 8.50007L4.59543 7.12097C5.1704 6.11399 5.39977 5.7028 5.51703 5.26329C5.63429 4.82475 5.6384 4.3618 5.6384 3.21906V2.30292H5.63943ZM6.97349 2.30292V3.30501C6.97349 4.33543 6.97349 4.9654 6.80891 5.57779C6.66491 6.12181 6.39749 6.62285 5.97577 7.36515C6.55383 7.4423 7.24194 7.79685 8 8.20706C9.188 8.8507 10.0469 8.70518 10.5755 8.33208L10.1888 7.65327C9.67143 6.74592 9.3536 6.19018 9.19108 5.57779C9.02651 4.96637 9.02651 4.33543 9.02651 3.30501V2.30292H6.97349ZM5.76286 9.97684C5.59292 10.0262 5.44978 10.1362 5.36356 10.2838C5.27735 10.4313 5.2548 10.6049 5.30065 10.7679C5.34651 10.9309 5.45719 11.0707 5.6094 11.1578C5.76161 11.2449 5.94347 11.2725 6.11669 11.2348L6.12286 11.2338C6.2928 11.1845 6.43594 11.0745 6.52215 10.9269C6.60836 10.7794 6.63092 10.6058 6.58506 10.4428C6.53921 10.2797 6.42852 10.14 6.27632 10.0529C6.12411 9.96579 5.94225 9.93818 5.76903 9.97586L5.76286 9.97684ZM9.39474 12.0767C9.41767 12.1592 9.45752 12.2365 9.512 12.3043C9.56649 12.3721 9.63453 12.429 9.71222 12.4717C9.78992 12.5144 9.87574 12.5422 9.96476 12.5534C10.0538 12.5645 10.1442 12.5589 10.231 12.5368L10.2361 12.5348C10.4027 12.483 10.5422 12.3726 10.6258 12.2263C10.7094 12.08 10.7308 11.9088 10.6856 11.7479C10.6405 11.587 10.5322 11.4487 10.383 11.3613C10.2338 11.2738 10.055 11.244 9.88331 11.2778L9.87714 11.2788C9.70187 11.324 9.55265 11.4335 9.46222 11.5831C9.37179 11.7327 9.34752 11.9102 9.39474 12.0767Z" fill="currentColor"/>
</svg>
