<svg width="16" height="16" viewBox="0 0 16 16" fill="none" xmlns="http://www.w3.org/2000/svg">
<path d="M4.12725 7.04813C4.57175 7.04813 4.98212 7.25563 5.08887 7.56375C5.24997 8.0285 5.6243 8.44134 6.15216 8.73642C6.68002 9.03149 7.33102 9.19182 8.00131 9.19182C8.67161 9.19182 9.3226 9.03149 9.85047 8.73642C10.3783 8.44134 10.7527 8.0285 10.9137 7.56375C11.0205 7.25563 11.4283 7.04813 11.8745 7.04813H13.0969C14.2545 7.04813 15 7.58063 15 8.23813V11.81C15 11.9663 14.9569 12.121 14.8732 12.2654C14.7895 12.4098 14.6667 12.541 14.512 12.6515C14.3573 12.762 14.1737 12.8496 13.9716 12.9094C13.7694 12.9692 13.5528 13 13.334 13H2.666C2.22415 13 1.8004 12.8746 1.48796 12.6515C1.17552 12.4283 1 12.1256 1 11.81V8.2375C1 7.58 1.7455 7.0475 2.666 7.0475H4.12725V7.04813ZM8.66675 3C9.03425 3 9.33262 3.21375 9.33262 3.47625V5.26562H10.4964C11.0914 5.26562 11.388 5.78 10.9671 6.08063L8.46987 7.86125C8.34497 7.94987 8.17606 7.99961 8 7.99961C7.82394 7.99961 7.65503 7.94987 7.53012 7.86125L5.03288 6.08C4.61288 5.78 4.9095 5.26562 5.50275 5.26562H6.6665V3.47625C6.6665 3.21375 6.96575 3 7.33325 3H8.66675Z" fill="currentColor"/>
</svg>
