<svg width="16" height="16" viewBox="0 0 16 16" fill="none" xmlns="http://www.w3.org/2000/svg">
<path d="M13.5 13C13.7761 13 14 13.2239 14 13.5C14 13.7761 13.7761 14 13.5 14H2.5C2.22386 14 2 13.7761 2 13.5C2 13.2239 2.22386 13 2.5 13H13.5ZM8 2C8.27593 2.00022 8.49997 2.22402 8.5 2.5V8.79297L10.4756 6.81836C10.6709 6.62342 10.9875 6.62321 11.1826 6.81836C11.3773 7.01355 11.3774 7.33026 11.1826 7.52539L8.35352 10.3535C8.1583 10.5486 7.84172 10.5486 7.64648 10.3535L4.81836 7.52539L4.75391 7.44629C4.62615 7.2523 4.64775 6.98907 4.81836 6.81836C4.98926 6.64768 5.25327 6.62573 5.44727 6.75391L5.52539 6.81836L7.5 8.79297V2.5C7.50003 2.22399 7.72403 2.00018 8 2Z" fill="currentColor"/>
</svg>
