<svg width="16" height="16" viewBox="0 0 16 16" fill="none" xmlns="http://www.w3.org/2000/svg">
<path d="M9.855 6.28431L9.91917 6.47468C9.95427 6.59027 9.97197 6.71062 9.97167 6.83162C9.97398 7.05803 9.91026 7.28002 9.78861 7.46942C9.66696 7.65882 9.49286 7.80707 9.28842 7.89535C9.08398 7.98363 8.85843 8.00795 8.6404 7.96523C8.42238 7.92251 8.22173 7.81468 8.06393 7.65542C7.90612 7.49616 7.79829 7.29266 7.75412 7.07077C7.70995 6.84888 7.73144 6.61861 7.81585 6.4092C7.90027 6.1998 8.04381 6.0207 8.22823 5.89465C8.41266 5.76861 8.62966 5.70131 8.85167 5.7013H9.05583L8.875 5.63288C8.591 5.5266 8.29085 5.47223 7.98833 5.47226C7.49578 5.47906 7.01619 5.63424 6.60989 5.91829C6.20359 6.20233 5.88871 6.60255 5.70485 7.06862C5.52098 7.53469 5.47636 8.0458 5.57657 8.53766C5.67678 9.02953 5.91736 9.4802 6.26806 9.833C6.61876 10.1858 7.06391 10.425 7.54753 10.5204C8.03116 10.6159 8.53166 10.5634 8.9861 10.3695C9.44054 10.1756 9.82863 9.84905 10.1016 9.43083C10.3745 9.01262 10.5201 8.52144 10.52 8.01906C10.5221 7.44616 10.3305 6.89002 9.9775 6.44434L9.855 6.28431ZM14.9708 7.9792L14.9825 7.94351H14.9533C14.4263 6.49272 13.4764 5.24129 12.2312 4.35752C10.986 3.47374 9.50537 3 7.98833 3C6.4713 3 4.99063 3.47374 3.74547 4.35752C2.5003 5.24129 1.55034 6.49272 1.02333 7.94351H1L1.01167 7.98099L1 8.01906H1.02333C1.54196 9.47843 2.48876 10.7395 3.73496 11.6307C4.98116 12.5219 6.46628 13 7.98833 13C9.51039 13 10.9955 12.5219 12.2417 11.6307C13.4879 10.7395 14.4347 9.47843 14.9533 8.01906L15 8.02323L14.9708 7.9792ZM7.98833 11.9324C6.74099 11.9136 5.52488 11.5318 4.48316 10.8318C3.44145 10.1319 2.6175 9.14302 2.10833 7.98158C2.60882 6.81689 3.43119 5.82613 4.47492 5.13044C5.51866 4.43475 6.73853 4.06425 7.98542 4.06425C9.2323 4.06425 10.4522 4.43475 11.4959 5.13044C12.5396 5.82613 13.362 6.81689 13.8625 7.98158C13.3551 9.14312 12.5324 10.1323 11.4915 10.8324C10.4506 11.5325 9.23505 11.9141 7.98833 11.9324Z" fill="currentColor"/>
</svg>
