<svg t="1706522338475" class="icon" viewBox="0 0 1024 1024" version="1.1" xmlns="http://www.w3.org/2000/svg" p-id="28886" width="200" height="200"><path d="M460.3 799.3a43.2 43.2 0 1 0 21.6-37.41 43.2 43.2 0 0 0-21.6 37.41zM661.8 246.9c-39.2-41.2-94.5-64.7-151.9-64.7a203.66 203.66 0 0 0-203.2 203.6 36 36 0 0 0 72 0c0-72.4 58.9-131.5 131.3-131.6h0.3a137.15 137.15 0 0 1 99.2 42.3c22.6 23.8 34.1 54 32.4 85.3-1.4 26.6-2.7 51.7-79.7 128.7-46.3 46.3-88.2 92.4-93.8 148.8a36.09 36.09 0 0 0 32.3 39.4c1.2 0.1 2.4 0.2 3.6 0.2a36 36 0 0 0 35.8-32.5c2.9-29.5 30.1-62 73-104.9 89.4-89.4 98.3-130.8 100.7-175.7 2.9-51.4-15.6-100.7-52-138.9z" p-id="28887" fill="currentColor"></path></svg>