<svg width="120" height="60" viewBox="0 0 120 60" fill="none" xmlns="http://www.w3.org/2000/svg">
<path d="M87.5 53C91.64 53 95 49.64 95 45.5V38H87.5C83.36 38 80 41.36 80 45.5C80 49.64 83.36 53 87.5 53Z" fill="#0ACF83"/>
<path d="M80 30.5C80 26.36 83.36 23 87.5 23H95V38H87.5C83.36 38 80 34.64 80 30.5Z" fill="#A259FF"/>
<path d="M80 15.5C80 11.36 83.36 8 87.5 8H95V23H87.5C83.36 23 80 19.64 80 15.5Z" fill="#F24E1E"/>
<path d="M95 8H102.5C106.64 8 110 11.36 110 15.5C110 19.64 106.64 23 102.5 23H95V8Z" fill="#FF7262"/>
<path d="M110 30.5C110 34.64 106.64 38 102.5 38C98.36 38 95 34.64 95 30.5C95 26.36 98.36 23 102.5 23C106.64 23 110 26.36 110 30.5Z" fill="#1ABCFE"/>
<g filter="url(#filter0_d_93_15)">
<path d="M10.0392 13C9.76683 16.1623 10.9161 19.6012 13.4065 23.3168C15.8969 27.0325 19.4768 29.2856 24.1463 30.0761L18.076 35.2346C19.2044 37.2109 21.5976 38.9303 25.2553 40.3931C27.1687 41.1581 29.3283 41.4942 31.7342 41.401C34.3024 41.401 36.8512 40.6501 39.3805 39.1479L38.0964 47.1522C38.4822 47.1522 38.9524 47.1738 39.4689 47.1971C40.6713 47.2519 42.1246 47.3183 43.3493 47.1522C45.1006 46.9151 45.5675 46.6781 47.202 46.1443C49.1221 45.3691 50.7175 44.4006 51.9881 43.2389C55.4903 40.0372 58 35.5311 58 30.0761C58 24.6213 55.6653 21.1231 54.0309 19.1664C52.8158 17.7117 50.4284 15.7009 48.3691 14.6602C46.1266 13.5267 43.8457 13 42.5323 13C40.7813 13 29.9234 13.1186 10.0392 13Z" fill="#3ECF8E"/>
</g>
<path d="M44.2969 30.1288C48.0809 30.1288 51.1485 27.0613 51.1485 23.2773C51.1485 19.4933 48.0809 16.4258 44.2969 16.4258C40.5129 16.4258 37.4454 19.4933 37.4454 23.2773C37.4454 27.0613 40.5129 30.1288 44.2969 30.1288Z" fill="white" fill-opacity="0.61"/>
<path d="M51.1485 26.7031C51.1485 28.5951 49.6147 30.1289 47.7227 30.1289C45.8306 30.1289 44.2969 28.5951 44.2969 26.7031C44.2969 24.8111 45.8306 23.2773 47.7227 23.2773C49.6147 23.2773 51.1485 24.8111 51.1485 26.7031Z" fill="white"/>
<defs>
<filter id="filter0_d_93_15" x="8" y="13" width="50" height="36.2577" filterUnits="userSpaceOnUse" color-interpolation-filters="sRGB">
<feFlood flood-opacity="0" result="BackgroundImageFix"/>
<feColorMatrix in="SourceAlpha" type="matrix" values="0 0 0 0 0 0 0 0 0 0 0 0 0 0 0 0 0 0 127 0" result="hardAlpha"/>
<feOffset dx="-1" dy="1"/>
<feGaussianBlur stdDeviation="0.5"/>
<feComposite in2="hardAlpha" operator="out"/>
<feColorMatrix type="matrix" values="0 0 0 0 0 0 0 0 0 0 0 0 0 0 0 0 0 0 0.25 0"/>
<feBlend mode="normal" in2="BackgroundImageFix" result="effect1_dropShadow_93_15"/>
<feBlend mode="normal" in="SourceGraphic" in2="effect1_dropShadow_93_15" result="shape"/>
</filter>
</defs>
</svg>
