<svg width="16" height="16" viewBox="0 0 16 16" fill="none" xmlns="http://www.w3.org/2000/svg">
<path d="M7.98438 8C7.98438 6.70938 9.03438 5.65938 10.325 5.65938C11.6156 5.65938 12.6656 6.70938 12.6656 8C12.6656 9.29063 11.6156 10.3406 10.325 10.3406C9.03438 10.3406 7.98438 9.29063 7.98438 8Z" fill="#1ABCFE"/>
<path d="M3.325 12.6594C3.325 11.3687 4.375 10.3187 5.66563 10.3187H7.98438V12.6594C7.98438 13.95 6.93438 15 5.64375 15C4.35313 15 3.325 13.95 3.325 12.6594Z" fill="#0ACF83"/>
<path d="M7.98438 1V5.65937H10.325C11.6156 5.65937 12.6656 4.60938 12.6656 3.31875C12.6656 2.02813 11.6156 1 10.325 1H7.98438Z" fill="#FF7262"/>
<path d="M3.325 3.34063C3.325 4.63125 4.375 5.68125 5.66563 5.68125H7.98438V1H5.64375C4.35313 1 3.325 2.05 3.325 3.34063Z" fill="#F24E1E"/>
<path d="M3.325 8C3.325 9.29063 4.375 10.3406 5.66563 10.3406H7.98438V5.65938H5.64375C4.35313 5.65938 3.325 6.70938 3.325 8Z" fill="#A259FF"/>
</svg>
