<svg width="16" height="16" viewBox="0 0 16 16" fill="none" xmlns="http://www.w3.org/2000/svg">
<path d="M6.5784 3.2002L8.0168 4.9258H12.9056C13.2232 4.9258 13.4816 5.18339 13.4816 5.50179V12.9786C13.4817 13.0543 13.4669 13.1292 13.438 13.1991C13.4091 13.2691 13.3666 13.3326 13.3131 13.3861C13.2596 13.4396 13.1961 13.4821 13.1262 13.511C13.0562 13.5399 12.9813 13.5547 12.9056 13.5546H3.128C3.05233 13.5547 2.97738 13.5399 2.90745 13.511C2.83752 13.4821 2.77398 13.4396 2.72047 13.3861C2.66697 13.3326 2.62454 13.2691 2.59563 13.1991C2.56672 13.1292 2.5519 13.0543 2.552 12.9786V3.7762C2.552 3.4586 2.8104 3.201 3.128 3.201H6.5792L6.5784 3.2002Z" fill="currentColor"/>
</svg>
