<svg width="16" height="16" viewBox="0 0 16 16" fill="none" xmlns="http://www.w3.org/2000/svg">
<path d="M3.92966 8C3.92966 7.54538 4.00725 7.10926 4.14454 6.70059L1.73421 4.89883C1.24993 5.86085 0.99845 6.92308 1.00001 8C1.00001 9.11446 1.26384 10.1657 1.73302 11.0988L4.14216 9.29404C4.00168 8.87704 3.92991 8.44 3.92966 8Z" fill="#FBBC05"/>
<path d="M8.16296 3.86372C9.17174 3.86372 10.0832 4.21333 10.7995 4.78607L12.8833 2.74985C11.6137 1.6682 9.98593 1 8.16296 1C5.3324 1 2.89938 2.58399 1.73421 4.89883L4.14574 6.70059C4.70087 5.05037 6.28388 3.86372 8.16296 3.86372Z" fill="#EA4335"/>
<path d="M8.16296 12.1363C6.28328 12.1363 4.70027 10.9496 4.14454 9.29941L1.73421 11.1012C2.89879 13.416 5.3318 15 8.16296 15C9.90953 15 11.5773 14.3933 12.8296 13.2555L10.5411 11.5242C9.8958 11.9221 9.0828 12.1363 8.16237 12.1363" fill="#34A853"/>
<path d="M15 8C15 7.58655 14.9343 7.14088 14.837 6.72743H8.16237V9.43186H12.0041C11.8125 10.3542 11.2896 11.063 10.5417 11.5242L12.8296 13.2555C14.1446 12.0611 15 10.282 15 8Z" fill="#4285F4"/>
</svg>
