<svg width="16" height="16" viewBox="0 0 16 16" fill="none" xmlns="http://www.w3.org/2000/svg">
<path d="M9.79487 3C10.0073 3 10.1795 3.1722 10.1795 3.38462V5.69231C10.1795 5.90472 10.0073 6.07692 9.79487 6.07692H8.38462V7.61538H10.8205C11.0308 7.61538 11.2017 7.78416 11.2051 7.99363L11.2051 9.92308H12.6154C12.8257 9.92308 12.9966 10.0919 13 10.3013L13 10.3077V12.6154C13 12.8278 12.8278 13 12.6154 13H9.02564C8.81322 13 8.64102 12.8278 8.64102 12.6154V10.3077C8.64102 10.0953 8.81322 9.92308 9.02564 9.92308H10.4359V8.38462H5.5641V9.92308H6.97436C7.18465 9.92308 7.35553 10.0919 7.35892 10.3013L7.35898 10.3077V12.6154C7.35898 12.8278 7.18678 13 6.97436 13H3.38462C3.1722 13 3 12.8278 3 12.6154V10.3077C3 10.0953 3.1722 9.92308 3.38462 9.92308H4.79487V8C4.79487 7.78971 4.96364 7.61883 5.17312 7.61543L5.1795 7.61538H7.61538V6.07692H6.20513C5.99483 6.07692 5.82397 5.90815 5.82056 5.69868L5.82052 5.69231V3.38462C5.82052 3.1722 5.99272 3 6.20513 3H9.79487Z" fill="currentColor"/>
</svg>
