<svg width="16" height="16" viewBox="0 0 16 16" fill="none" xmlns="http://www.w3.org/2000/svg" class="_typeIcon_12syx_29" color="white"><path d="M12.5 13.5H2.5V3.5" stroke="currentcolor" stroke-linecap="round" stroke-linejoin="round"></path><path fill-rule="evenodd" clip-rule="evenodd" d="M11.5 7.5C13.1569 7.5 14.5 6.15685 14.5 4.5C14.5 2.84315 13.1569 1.5 11.5 1.5C9.84315 1.5 8.5 2.84315 8.5 4.5C8.5 6.15685 9.84315 7.5 11.5 7.5Z" stroke="currentcolor"></path><path fill-rule="evenodd" clip-rule="evenodd" d="M2.5 4C3.32843 4 4 3.32843 4 2.5C4 1.67157 3.32843 1 2.5 1C1.67157 1 1 1.67157 1 2.5C1 3.32843 1.67157 4 2.5 4Z" fill="currentcolor"></path><path fill-rule="evenodd" clip-rule="evenodd" d="M13.5 15C14.3284 15 15 14.3284 15 13.5C15 12.6716 14.3284 12 13.5 12C12.6716 12 12 12.6716 12 13.5C12 14.3284 12.6716 15 13.5 15Z" fill="currentcolor"></path></svg>