<svg width="16" height="16" viewBox="0 0 16 16" fill="none" xmlns="http://www.w3.org/2000/svg">
<path d="M3.85827 10.8991C3.31698 10.3622 2.88734 9.72347 2.59415 9.01972C2.30095 8.31597 2.15 7.56113 2.15 6.79875C2.15 6.03636 2.30095 5.28152 2.59415 4.57777C2.88734 3.87402 3.31698 3.23528 3.85827 2.69841C6.13507 0.433863 9.82881 0.433863 12.1068 2.69841C12.6482 3.2353 13.078 3.87411 13.3713 4.57797C13.6646 5.28183 13.8156 6.03681 13.8156 6.79933C13.8156 7.56185 13.6646 8.31683 13.3713 9.02069C13.078 9.72455 12.6482 10.3634 12.1068 10.9002L7.98253 15L3.85827 10.8991Z" fill="#3ECF8E"/>
<path d="M7.98252 6.44807C7.88051 6.44838 7.78276 6.48904 7.71062 6.56118C7.63848 6.63332 7.59782 6.73106 7.59751 6.83308C7.59751 6.90923 7.62009 6.98367 7.6624 7.04698C7.7047 7.11029 7.76483 7.15964 7.83518 7.18878C7.90554 7.21792 7.98295 7.22555 8.05763 7.21069C8.13232 7.19584 8.20092 7.15917 8.25476 7.10532C8.30861 7.05148 8.34527 6.98288 8.36013 6.90819C8.37499 6.83351 8.36736 6.7561 8.33822 6.68574C8.30908 6.61539 8.25973 6.55526 8.19642 6.51296C8.13311 6.47065 8.05867 6.44807 7.98252 6.44807ZM7.98252 3.33301C7.52287 3.33298 7.0677 3.42349 6.64303 3.59937C6.21835 3.77525 5.83248 4.03306 5.50745 4.35807C5.18241 4.68309 4.92458 5.06894 4.74867 5.49361C4.57276 5.91827 4.48222 6.37343 4.48222 6.83308C4.48222 7.29274 4.57276 7.74789 4.74867 8.17255C4.92458 8.59722 5.18241 8.98307 5.50745 9.30809C5.83248 9.6331 6.21835 9.89091 6.64303 10.0668C7.0677 10.2427 7.52287 10.3332 7.98252 10.3332C8.91076 10.3331 9.80096 9.96431 10.4573 9.30792C11.1136 8.65154 11.4824 7.76132 11.4824 6.83308C11.4824 5.90484 11.1136 5.01462 10.4573 4.35824C9.80096 3.70185 8.91076 3.33307 7.98252 3.33301ZM8.74904 7.5996L5.88248 8.93312L7.216 6.06656L10.0826 4.73304L8.74904 7.5996Z" fill="white"/>
</svg>
