<svg width="16" height="16" viewBox="0 0 16 16" fill="none" xmlns="http://www.w3.org/2000/svg"><path d="M14.5 8C14.5 11.5899 11.5899 14.5 8 14.5C4.41015 14.5 1.5 11.5899 1.5 8C1.5 4.41015 4.41015 1.5 8 1.5C11.5899 1.5 14.5 4.41015 14.5 8Z" stroke="currentColor"></path><path d="M8 12.1C8.33137 12.1 8.6 11.8314 8.6 11.5C8.6 11.1686 8.33137 10.9 8 10.9C7.66863 10.9 7.4 11.1686 7.4 11.5C7.4 11.8314 7.66863 12.1 8 12.1Z" fill="currentColor" stroke="currentColor" stroke-width="0.2"></path><path d="M6 6.5C6 5.39543 6.89543 4.5 8 4.5C9.10457 4.5 10 5.39543 10 6.5C10 7.60457 9.10457 8.5 8 8.5V9.5" stroke="currentColor" stroke-linecap="round" stroke-linejoin="round"></path></svg>