<svg width="16" height="16" viewBox="0 0 16 16" fill="none" xmlns="http://www.w3.org/2000/svg">
<path d="M12.6386 15H3.36145C2.05725 15 1 13.9427 1 12.6386V3.36145C1 2.05725 2.05725 1 3.36145 1H12.6386C13.9427 1 15 2.05725 15 3.36145V12.6386C15 13.9427 13.9427 15 12.6386 15Z" fill="#FFC757"/>
<path d="M12.3358 10.2213L11.1962 8.24762C10.9365 7.7976 10.2869 7.7976 10.0271 8.24762L8.94745 10.1179L6.94006 6.64083C6.6803 6.19097 6.03107 6.19097 5.77131 6.64083L3.70403 10.2216C3.44427 10.6715 3.76897 11.2338 4.28849 11.2338H11.7513C12.2709 11.2337 12.5956 10.6713 12.3358 10.2213Z" fill="#EF9F2B"/>
<path d="M9.38254 5.89122C9.48471 6.11638 9.67213 6.29173 9.90359 6.37869C10.135 6.46566 10.3916 6.45712 10.6167 6.35495C10.8419 6.25278 11.0172 6.06535 11.1042 5.8339C11.1912 5.60245 11.1826 5.34593 11.0804 5.12077C10.9783 4.89561 10.7908 4.72027 10.5594 4.6333C10.3279 4.54633 10.0714 4.55488 9.84626 4.65704C9.62111 4.75921 9.44576 4.94664 9.35879 5.17809C9.27183 5.40955 9.28037 5.66607 9.38254 5.89122Z" fill="#EF9F2B"/>
<path d="M12.3358 10.0189L11.1962 8.0452C10.9365 7.59518 10.2869 7.59518 10.0271 8.0452L8.94745 9.91546L6.94006 6.4384C6.6803 5.98855 6.03107 5.98855 5.77131 6.4384L3.70403 10.0192C3.44427 10.4691 3.76897 11.0314 4.28849 11.0314H11.7513C12.2709 11.0312 12.5956 10.4689 12.3358 10.0189Z" fill="white"/>
<path d="M9.38254 5.68879C9.43313 5.80028 9.50518 5.90072 9.59458 5.98436C9.68398 6.06801 9.78898 6.13323 9.90359 6.17629C10.0182 6.21936 10.1402 6.23943 10.2625 6.23536C10.3849 6.23128 10.5053 6.20315 10.6167 6.15256C10.7282 6.10197 10.8287 6.02991 10.9123 5.94051C10.996 5.8511 11.0612 5.74609 11.1042 5.63148C11.1473 5.51688 11.1673 5.39491 11.1633 5.27254C11.1592 5.15018 11.131 5.02982 11.0804 4.91833C11.0299 4.80684 10.9578 4.7064 10.8684 4.62276C10.779 4.53911 10.674 4.47389 10.5594 4.43083C10.4448 4.38776 10.3228 4.36769 10.2005 4.37176C10.0781 4.37583 9.95774 4.40397 9.84625 4.45456C9.73476 4.50515 9.63432 4.57721 9.55068 4.66661C9.46704 4.75602 9.40183 4.86102 9.35877 4.97563C9.31571 5.09024 9.29565 5.21221 9.29973 5.33457C9.30381 5.45694 9.33195 5.5773 9.38254 5.68879Z" fill="white"/>
</svg>
