<svg width="16" height="16" viewBox="0 0 16 16" fill="none" xmlns="http://www.w3.org/2000/svg"><g clip-path="url(#clip0_5342_36226)"><path d="M11.5 5.5C11.5 6.05228 11.0523 6.5 10.5 6.5C9.94772 6.5 9.5 6.05228 9.5 5.5C9.5 4.94772 9.94772 4.5 10.5 4.5C11.0523 4.5 11.5 4.94772 11.5 5.5Z" stroke="currentColor"></path><path d="M1.14645 10.6464C0.951184 10.8417 0.951184 11.1583 1.14645 11.3536C1.34171 11.5488 1.65829 11.5488 1.85355 11.3536L1.14645 10.6464ZM8.12037 10.8254C8.30008 11.0351 8.61573 11.0593 8.8254 10.8796C9.03506 10.6999 9.05934 10.3843 8.87963 10.1746L8.12037 10.8254ZM6.20278 7.8199L5.82315 8.1453L6.20278 7.8199ZM1.85355 11.3536L5.08997 8.11714L4.38286 7.41003L1.14645 10.6464L1.85355 11.3536ZM5.82315 8.1453L8.12037 10.8254L8.87963 10.1746L6.5824 7.49451L5.82315 8.1453ZM5.08997 8.11714C5.29591 7.91119 5.6336 7.92416 5.82315 8.1453L6.5824 7.49451C6.01376 6.8311 5.0007 6.79219 4.38286 7.41003L5.08997 8.11714Z" fill="currentColor"></path><rect x="1.5" y="1.5" width="13" height="13" rx="1.5" stroke="currentColor"></rect><path d="M7.14645 11.6464C6.95118 11.8417 6.95118 12.1583 7.14645 12.3536C7.34171 12.5488 7.65829 12.5488 7.85355 12.3536L7.14645 11.6464ZM14.1464 13.3536C14.3417 13.5488 14.6583 13.5488 14.8536 13.3536C15.0488 13.1583 15.0488 12.8417 14.8536 12.6464L14.1464 13.3536ZM9.79289 9.70711L9.43934 9.35355L9.79289 9.70711ZM11.2071 9.70711L10.8536 10.0607L11.2071 9.70711ZM7.85355 12.3536L10.1464 10.0607L9.43934 9.35355L7.14645 11.6464L7.85355 12.3536ZM10.8536 10.0607L14.1464 13.3536L14.8536 12.6464L11.5607 9.35355L10.8536 10.0607ZM10.1464 10.0607C10.3417 9.8654 10.6583 9.8654 10.8536 10.0607L11.5607 9.35355C10.9749 8.76777 10.0251 8.76777 9.43934 9.35355L10.1464 10.0607Z" fill="currentColor"></path></g><defs><clipPath id="clip0_5342_36226"><rect width="14" height="14" fill="currentColor" transform="translate(1 1)"></rect></clipPath></defs></svg>