<svg width="16" height="16" viewBox="0 0 16 16" fill="none" xmlns="http://www.w3.org/2000/svg">
<path d="M13.1905 13.67C13.1905 13.845 13.1223 14.013 12.9995 14.139C12.8767 14.265 12.713 14.335 12.5425 14.335H3.45069C3.28017 14.335 3.10966 14.265 2.99371 14.139C2.87094 14.013 2.80273 13.845 2.80273 13.67V1.665C2.80273 1.49 2.87094 1.315 2.99371 1.196C3.10966 1.07 3.28017 1 3.45069 1H9.02991C9.20043 1 9.37094 1.07 9.49371 1.196L13.0063 4.801C13.1291 4.927 13.1973 5.095 13.1973 5.277V13.67H13.1905Z" fill="#EBECF0"/>
<path d="M13.1905 13.67V14.335C13.1905 14.51 13.1223 14.685 12.9995 14.804C12.8767 14.93 12.713 15 12.5425 15H3.45069C3.0892 15 2.80273 14.699 2.80273 14.335V13.67C2.80273 13.845 2.87094 14.013 2.99371 14.139C3.11648 14.265 3.28017 14.335 3.45069 14.335H12.5425C12.904 14.335 13.1905 14.034 13.1905 13.67Z" fill="#C1C7D0"/>
<path d="M1.5 8.336H14.4932V11.668C14.4932 12.039 14.1999 12.333 13.8452 12.333H2.15477C1.98426 12.333 1.81375 12.263 1.6978 12.137C1.57503 12.011 1.50682 11.843 1.50682 11.661V8.336H1.5Z" fill="#10D6E5"/>
<path d="M2.80273 8.33599V6.99899L1.5 8.33599H2.80273ZM13.1905 8.33599L13.2041 6.99899L14.5 8.33599H13.1905Z" fill="#00B3C6"/>
<path d="M13.1905 5.277V5.368H9.67792C9.31643 5.368 9.02997 5.067 9.02997 4.703V1C9.20048 1 9.371 1.07 9.49377 1.196L13.0132 4.801C13.1291 4.927 13.1973 5.095 13.1905 5.277Z" fill="#C1C7D0"/>
<path d="M3.79856 11.416H3.13696V9.379H3.79856V11.416ZM4.76026 11.416H4.16687V9.379H4.95805L5.31272 10.653L5.66057 9.379H6.45176V11.416H5.87201V10.793L5.88565 10.471L5.91975 10.107H5.90611L5.55144 11.416H5.10129L4.73298 10.107L4.75344 10.408L4.7739 10.73V11.416H4.76026ZM7.27705 11.416H6.63591L7.34525 9.379H8.00685L8.71619 11.416H8.06823L8.00003 11.15H7.35207L7.27705 11.416ZM7.8909 10.716L7.67264 9.988L7.46802 10.716H7.8909ZM10.8715 10.296V11.416H10.4486L10.4281 11.22C10.2986 11.374 10.0939 11.451 9.82112 11.451C9.20045 11.423 8.87988 11.08 8.85942 10.422C8.89352 9.722 9.24137 9.358 9.89614 9.323C10.4281 9.337 10.7487 9.589 10.8442 10.079H10.2167C10.1758 9.911 10.0598 9.827 9.8825 9.827C9.63696 9.834 9.51419 10.037 9.50737 10.422C9.51419 10.793 9.65743 10.975 9.93025 10.975C10.1008 10.954 10.2167 10.877 10.2645 10.744H9.97117V10.303H10.8715V10.296ZM12.9177 11.416H11.2534V9.379H12.8836V9.855H11.915V10.142H12.7335V10.618H11.915V10.94H12.9177V11.416Z" fill="white"/>
</svg>
