<svg width="16" height="16" viewBox="0 0 16 16" fill="none" xmlns="http://www.w3.org/2000/svg">
<path d="M7.77637 12.1044C7.9162 12.0279 8.08682 12.0298 8.22559 12.1083C8.37229 12.1914 8.46378 12.3483 8.46387 12.5175V13.9785C8.51648 13.9577 8.56829 13.9333 8.61816 13.9052L9.48535 13.4169C9.79476 13.2429 10.1767 13.4677 10.1768 13.8242C10.1768 13.9929 10.0858 14.1487 9.93945 14.2314L9.07227 14.7197C8.40877 15.0935 7.59123 15.0935 6.92773 14.7197L6.16113 14.288C6.01463 14.2055 5.92387 14.0496 5.92383 13.8808C5.92385 13.5242 6.30576 13.2992 6.61523 13.4736L7.38184 13.9052C7.43171 13.9333 7.48353 13.9577 7.53613 13.9785V12.5126C7.53614 12.3428 7.62805 12.1858 7.77637 12.1044ZM1.5 9.54291C1.50002 9.1837 1.88678 8.95903 2.19629 9.13861C2.33993 9.22196 2.4287 9.3762 2.42871 9.54291V10.454C2.42883 10.8544 2.6478 11.2388 3.02637 11.4521L3.8291 11.9042C3.97564 11.9868 4.0664 12.1426 4.06641 12.3115C4.06625 12.668 3.68442 12.893 3.375 12.7187L2.57227 12.2656C1.90894 11.8918 1.50012 11.2015 1.5 10.454V9.54291ZM13.8076 9.20502C14.117 9.0295 14.4999 9.2541 14.5 9.61127V10.454C14.4999 11.2015 14.0911 11.8918 13.4277 12.2656L12.7246 12.662C12.4152 12.8361 12.0332 12.6113 12.0332 12.2548C12.0332 12.0861 12.124 11.9301 12.2705 11.8476L12.9736 11.4521C13.3522 11.2388 13.5712 10.8544 13.5713 10.454V9.61127C13.5713 9.44315 13.6621 9.28781 13.8076 9.20502ZM6.60938 5.46576C6.4383 5.16131 6.6757 4.86 6.95898 5.07025C7.53313 5.49644 8.22962 6.23488 8.7373 7.48822C8.7931 7.62598 8.92836 7.71967 9.08008 7.71967H9.63965C9.96118 7.71967 10.1215 8.10082 9.89258 8.32123L8.25195 9.89935C8.1121 10.0335 7.88791 10.0335 7.74805 9.89935L6.10742 8.32123C5.87847 8.10082 6.03882 7.71967 6.36035 7.71967H6.82422C7.01857 7.71956 7.17943 7.56839 7.16992 7.37885C7.1359 6.7014 6.93965 6.05234 6.60938 5.46576ZM11.9365 3.16693C12.0798 3.07913 12.259 3.07576 12.4053 3.15814L13.4277 3.73431C14.091 4.10803 14.4998 4.79845 14.5 5.54584V6.50775C14.5 6.67851 14.407 6.83613 14.2578 6.91791C13.9485 7.0874 13.5713 6.86193 13.5713 6.50775V5.54584C13.5713 5.50228 13.5686 5.45892 13.5635 5.41595L12.21 6.20209C12.0976 6.26728 11.9631 6.28259 11.8389 6.24506L11.8271 6.24115C11.5893 6.16928 11.4521 5.92036 11.5176 5.67963C11.5493 5.56287 11.6252 5.46289 11.7295 5.40228L13.083 4.61713C13.0484 4.59252 13.0115 4.57011 12.9736 4.54877L11.9512 3.9726C11.6415 3.79809 11.6335 3.35279 11.9365 3.16693ZM3.64648 3.12885C3.79283 3.0464 3.97299 3.04982 4.11621 3.13763C4.41886 3.32365 4.41014 3.76889 4.10059 3.9433L3.02637 4.54877C3.00758 4.55936 2.9887 4.56958 2.9707 4.58099L4.30566 5.35638C4.45113 5.44088 4.541 5.59668 4.54102 5.76556V5.77338C4.54102 5.94827 4.44206 6.10791 4.28613 6.18549C4.14898 6.25365 3.98699 6.2487 3.85449 6.17181L2.44531 5.35443C2.4342 5.41736 2.42874 5.48141 2.42871 5.54584V6.30951C2.42866 6.66859 2.04187 6.89309 1.73242 6.71381C1.5888 6.63045 1.50002 6.4762 1.5 6.30951V5.54584C1.50018 4.79846 1.90894 4.10802 2.57227 3.73431L3.64648 3.12885ZM6.92773 1.28021C7.5912 0.906448 8.40879 0.906478 9.07227 1.28021L9.69141 1.62885C10.0037 1.80491 10.0086 2.25562 9.7002 2.43842C9.5579 2.52267 9.38139 2.5244 9.2373 2.4433L8.61816 2.09467C8.23672 1.87979 7.76328 1.87978 7.38184 2.09467L6.81445 2.414C6.67034 2.49519 6.4939 2.4934 6.35156 2.40912C6.04311 2.22629 6.04792 1.77555 6.36035 1.59955L6.92773 1.28021Z" fill="currentColor"/>
</svg>
