<svg width="16" height="16" viewBox="0 0 16 16" fill="none" xmlns="http://www.w3.org/2000/svg">
<path d="M4.93164 2C4.93205 1.99998 4.98627 1.99667 5.0918 2.07812C6.45736 3.13226 8.14251 4.97915 9.37793 8.15137C9.58718 8.68864 10.1005 9.07116 10.6992 9.07129H12.0996C12.4421 9.07148 12.646 9.512 12.377 9.78125L8.27734 13.8838C8.12272 14.0386 7.87728 14.0386 7.72266 13.8838L3.62305 9.78125C3.35403 9.51197 3.55795 9.07146 3.90039 9.07129H5.05957C5.81265 9.07129 6.46225 8.45767 6.42383 7.66113C6.33504 5.82194 5.82389 4.06213 4.96387 2.47363C4.8237 2.21459 4.89315 2.04556 4.92285 2.00879L4.93164 2Z" stroke="currentColor"/>
</svg>
