<svg width="16" height="16" viewBox="0 0 16 16" fill="none" xmlns="http://www.w3.org/2000/svg">
<g clip-path="url(#clip0_1_4)">
<path d="M8 0C3.58214 0 0 3.58214 0 8C0 12.4179 3.58214 16 8 16C12.4179 16 16 12.4179 16 8C16 3.58214 12.4179 0 8 0ZM7.42857 4.14286C7.42857 4.06429 7.49286 4 7.57143 4H8.42857C8.50714 4 8.57143 4.06429 8.57143 4.14286V9C8.57143 9.07857 8.50714 9.14286 8.42857 9.14286H7.57143C7.49286 9.14286 7.42857 9.07857 7.42857 9V4.14286ZM8 12C7.7757 11.9954 7.56213 11.9031 7.40512 11.7429C7.24812 11.5826 7.16018 11.3672 7.16018 11.1429C7.16018 10.9185 7.24812 10.7031 7.40512 10.5429C7.56213 10.3826 7.7757 10.2903 8 10.2857C8.2243 10.2903 8.43787 10.3826 8.59488 10.5429C8.75189 10.7031 8.83982 10.9185 8.83982 11.1429C8.83982 11.3672 8.75189 11.5826 8.59488 11.7429C8.43787 11.9031 8.2243 11.9954 8 12Z" fill="currentColor"/>
</g>
<defs>
<clipPath id="clip0_1_4">
<rect width="16" height="16" fill="white"/>
</clipPath>
</defs>
</svg>
