<svg width="16" height="16" viewBox="0 0 16 16" fill="none" xmlns="http://www.w3.org/2000/svg">
<path d="M2.01983 12.5908V11.611C2.0196 11.2865 2.14825 10.9752 2.37749 10.7455C2.60673 10.5158 2.9178 10.3866 3.2423 10.3862H11.555C11.8796 10.3866 12.1906 10.5158 12.4199 10.7455C12.6491 10.9752 12.7778 11.2865 12.7775 11.611V12.5908C12.7778 12.9153 12.6491 13.2267 12.4199 13.4563C12.1906 13.686 11.8796 13.8152 11.555 13.8156H3.2423C2.9178 13.8152 2.60673 13.686 2.37749 13.4563C2.14825 13.2267 2.0196 12.9153 2.01983 12.5908ZM11.555 12.5908V11.611H3.2423V12.5908H11.555ZM2.17905 8.57838C2.06439 8.46345 2 8.30775 2 8.14541C2 7.98307 2.06439 7.82736 2.17905 7.71244L3.73455 6.15326C3.84984 6.04088 4.00478 5.97847 4.16578 5.97957C4.32678 5.98067 4.48086 6.04519 4.5946 6.15914C4.70834 6.27309 4.77258 6.42729 4.77339 6.58829C4.77419 6.74929 4.71149 6.90412 4.59889 7.0192L3.47514 8.14602L4.42608 9.09892C4.53258 9.2152 4.59012 9.36807 4.58673 9.52572C4.58334 9.68336 4.51928 9.83362 4.40787 9.94521C4.29647 10.0568 4.14632 10.1211 3.98868 10.1248C3.83104 10.1284 3.67807 10.0712 3.56161 9.96485L2.17905 8.57838ZM5.07559 8.4265V7.69162C5.07533 7.36712 5.20395 7.05581 5.43317 6.82613C5.66239 6.59645 5.97345 6.4672 6.29794 6.46681H12.7772C13.1017 6.46711 13.4129 6.5963 13.6422 6.82599C13.8715 7.05568 14.0002 7.36705 14 7.69162V8.4265C14.0002 8.751 13.8716 9.06232 13.6423 9.292C13.4131 9.52167 13.102 9.65091 12.7775 9.6513H6.29831C5.97375 9.65101 5.6626 9.52181 5.4333 9.29212C5.204 9.06243 5.07533 8.75106 5.07559 8.4265ZM2.01983 4.38465V3.4048C2.0196 3.0803 2.14825 2.76899 2.37749 2.53931C2.60673 2.30963 2.9178 2.18039 3.2423 2.18H11.555C11.8796 2.18039 12.1906 2.30963 12.4199 2.53931C12.6491 2.76899 12.7778 3.0803 12.7775 3.4048V4.38465C12.7778 4.70915 12.6491 5.02047 12.4199 5.25014C12.1906 5.47982 11.8796 5.60906 11.555 5.60945H3.2423C2.9178 5.60906 2.60673 5.47982 2.37749 5.25014C2.14825 5.02047 2.0196 4.70915 2.01983 4.38465ZM11.555 4.38465V3.4048H3.2423V4.38465H11.555Z" fill="currentColor"/>
</svg>
