<svg xmlns="http://www.w3.org/2000/svg" xmlns:xlink="http://www.w3.org/1999/xlink" fill="currentColor" version="1.1" viewBox="0 0 15.893400192260742 14.130000114440918"><g><path d="M4.53546,0C5.26699,0,5.85221,0.392714,6.16022,1.05494C6.16022,1.05494,11.1577,12.0894,11.1577,12.0894C11.2655,12.3204,11.4426,12.4282,11.7198,12.4282C11.7198,12.4282,15.0078,12.4282,15.0078,12.4282C15.5006,12.4282,15.8934,12.8056,15.8934,13.2753C15.8934,13.7527,15.5006,14.13,15.0078,14.13C15.0078,14.13,11.3117,14.13,11.3117,14.13C10.534,14.13,10.0335,13.8066,9.71004,13.0905C9.71004,13.0905,4.68947,2.04057,4.68947,2.04057C4.58166,1.81726,4.39686,1.70176,4.15045,1.70176C4.15045,1.70176,0.885531,1.70176,0.885531,1.70176C0.385014,1.70176,0,1.33215,0,0.85473C0,0.369613,0.385014,0,0.885531,0C0.885531,0,4.53546,0,4.53546,0C4.53546,0,4.53546,0,4.53546,0ZM15.0078,0C15.5083,0,15.8857,0.361913,15.8857,0.84703C15.8857,1.32445,15.5083,1.69406,15.0078,1.69406C15.0078,1.69406,10.1567,1.69406,10.1567,1.69406C9.65614,1.69406,9.27883,1.32445,9.27883,0.84703C9.27883,0.361913,9.66384,0,10.1567,0C10.1567,0,15.0078,0,15.0078,0C15.0078,0,15.0078,0,15.0078,0Z" fill="currentColor" fill-opacity="1"/></g></svg>