<svg xmlns="http://www.w3.org/2000/svg" xmlns:xlink="http://www.w3.org/1999/xlink" fill="none" version="1.1" viewBox="0 0 13.847999572753906 7.96999979019165"><g><path d="M0.265406,6.39317C0.265406,6.39317,6.20583,0.320049,6.20583,0.320049C6.41659,0.101479,6.65077,0,6.92399,0C7.1972,0,7.44699,0.109285,7.64995,0.320049C7.64995,0.320049,13.5826,6.39317,13.5826,6.39317C13.7543,6.57271,13.848,6.78348,13.848,7.04108C13.848,7.56408,13.4421,7.97,12.9269,7.97C12.6771,7.97,12.4351,7.86852,12.2555,7.68898C12.2555,7.68898,6.93179,2.21692,6.93179,2.21692C6.93179,2.21692,1.59244,7.68898,1.59244,7.68898C1.4129,7.86852,1.17872,7.97,0.921117,7.97C0.405916,7.97,0,7.56408,0,7.04108C0,6.79128,0.0936729,6.57271,0.265406,6.39317C0.265406,6.39317,0.265406,6.39317,0.265406,6.39317Z" fill="currentColor" fill-opacity="1"/></g></svg>