<svg width="16" height="15" viewBox="0 0 16 15" fill="none" xmlns="http://www.w3.org/2000/svg">
<path d="M10.6773 12.2961C10.8435 12.2964 11.0032 12.3602 11.1239 12.4743C11.2446 12.5884 11.3172 12.7443 11.3269 12.9102C11.3366 13.076 11.2825 13.2393 11.1759 13.3667C11.0692 13.4941 10.918 13.5759 10.753 13.5955L10.6773 13.6001H5.46119C5.29501 13.5999 5.13516 13.5363 5.01432 13.4222C4.89348 13.3081 4.82076 13.1522 4.81102 12.9863C4.80128 12.8204 4.85526 12.657 4.96192 12.5296C5.06858 12.4022 5.21989 12.3203 5.38491 12.3006L5.46119 12.2961H10.6773ZM7.42116 0.801611C7.64078 0.650255 7.90648 0.580618 8.17211 0.604798C8.43773 0.628978 8.68649 0.745447 8.87517 0.933971L8.94559 1.01091L14.0737 7.16467C14.2074 7.32512 14.2944 7.51918 14.3254 7.7257C14.3564 7.93221 14.3301 8.14327 14.2494 8.33587C14.1687 8.52847 14.0367 8.69523 13.8677 8.81799C13.6988 8.94074 13.4994 9.01479 13.2913 9.03205L13.1974 9.03596H11.3287V10.503C11.3288 10.7727 11.2334 11.0337 11.0593 11.2397C10.8853 11.4457 10.644 11.5834 10.3781 11.6284L10.2816 11.6401L10.1883 11.644H5.95021C5.66375 11.644 5.38777 11.5362 5.1771 11.3421C4.96644 11.148 4.8365 10.8818 4.81309 10.5962L4.80918 10.503L4.80852 9.03596H2.94114C2.75175 9.03605 2.56532 8.98899 2.39866 8.89904L2.30151 8.84036L2.21023 8.77124C1.99173 8.589 1.8492 8.33169 1.8106 8.04979C1.772 7.7679 1.84011 7.48175 2.00158 7.24747L2.06417 7.16467L7.19231 1.01091L7.26207 0.934623L7.33836 0.864857L7.42116 0.801611Z" fill="currentColor"/>
</svg>
