<svg xmlns="http://www.w3.org/2000/svg" xmlns:xlink="http://www.w3.org/1999/xlink" fill="none" version="1.1" viewBox="0 0 14.760000228881836 14.760000228881836"><g><path d="M4.31887,5.74301C4.31887,5.74301,4.31887,9.02473,4.31887,9.02473C4.31887,9.02473,2.87925,9.02473,2.87925,9.02473C1.29256,9.02473,0,10.2786,0,11.873C0,13.4674,1.28482,14.76,2.87925,14.76C4.45819,14.76,5.75075,13.4674,5.75075,11.873C5.75075,11.873,5.75075,10.4489,5.75075,10.4489C5.75075,10.4489,9.00925,10.4489,9.00925,10.4489C9.00925,10.4489,9.00925,11.873,9.00925,11.873C9.00925,13.4674,10.3018,14.76,11.8808,14.76C13.4752,14.76,14.76,13.4674,14.76,11.873C14.76,10.2786,13.4674,9.02473,11.8808,9.02473C11.8808,9.02473,10.4411,9.02473,10.4411,9.02473C10.4411,9.02473,10.4411,5.74301,10.4411,5.74301C10.4411,5.74301,11.8808,5.74301,11.8808,5.74301C13.4674,5.73527,14.76,4.48141,14.76,2.88698C14.76,1.3003,13.4752,0,11.8808,0C10.3018,0,9.00925,1.3003,9.00925,2.88698C9.00925,2.88698,9.00925,4.31887,9.00925,4.31887C9.00925,4.31887,5.75075,4.31887,5.75075,4.31887C5.75075,4.31887,5.75075,2.88698,5.75075,2.88698C5.75075,1.3003,4.45819,0,2.87925,0C1.28482,0,0,1.3003,0,2.88698C0,4.48141,1.29256,5.73527,2.87925,5.74301C2.87925,5.74301,4.31887,5.74301,4.31887,5.74301C4.31887,5.74301,4.31887,5.74301,4.31887,5.74301ZM2.90246,4.33435C2.09751,4.33435,1.44736,3.6842,1.44736,2.88698C1.44736,2.09751,2.09751,1.44736,2.87925,1.44736C3.66098,1.44736,4.31113,2.09751,4.31113,2.9102C4.31113,2.9102,4.31113,4.33435,4.31113,4.33435C4.31113,4.33435,2.90246,4.33435,2.90246,4.33435C2.90246,4.33435,2.90246,4.33435,2.90246,4.33435ZM11.8653,4.33435C11.8653,4.33435,10.4489,4.33435,10.4489,4.33435C10.4489,4.33435,10.4489,2.9102,10.4489,2.9102C10.4489,2.09751,11.099,1.44736,11.8808,1.44736C12.6702,1.44736,13.3126,2.09751,13.3126,2.88698C13.3126,3.6842,12.6625,4.33435,11.8653,4.33435C11.8653,4.33435,11.8653,4.33435,11.8653,4.33435ZM5.75849,9.03247C5.75849,9.03247,5.75849,5.72753,5.75849,5.72753C5.75849,5.72753,9.00925,5.72753,9.00925,5.72753C9.00925,5.72753,9.00925,9.03247,9.00925,9.03247C9.00925,9.03247,5.75849,9.03247,5.75849,9.03247C5.75849,9.03247,5.75849,9.03247,5.75849,9.03247ZM2.90246,10.4257C2.90246,10.4257,4.31113,10.4257,4.31113,10.4257C4.31113,10.4257,4.31113,11.8498,4.31113,11.8498C4.31113,12.6547,3.66098,13.3049,2.87925,13.3049C2.09751,13.3049,1.44736,12.6625,1.44736,11.8653C1.44736,11.0758,2.09751,10.4257,2.90246,10.4257C2.90246,10.4257,2.90246,10.4257,2.90246,10.4257ZM11.8653,10.4257C12.6625,10.4257,13.3126,11.0758,13.3126,11.8653C13.3126,12.6625,12.6702,13.3049,11.8808,13.3049C11.099,13.3049,10.4489,12.6547,10.4489,11.8498C10.4489,11.8498,10.4489,10.4257,10.4489,10.4257C10.4489,10.4257,11.8653,10.4257,11.8653,10.4257C11.8653,10.4257,11.8653,10.4257,11.8653,10.4257Z" fill="currentColor" fill-opacity="1"/></g></svg>