<svg width="16" height="16" viewBox="0 0 16 16" fill="none" xmlns="http://www.w3.org/2000/svg">
<path d="M11.8313 7.39334C11.9147 7.39334 11.9947 7.426 12.054 7.48267C12.083 7.51039 12.1061 7.5437 12.122 7.58059C12.1378 7.61748 12.1459 7.6572 12.146 7.69734V8.606H14.352C14.5253 8.606 14.6667 8.742 14.6667 8.90934V12.5453C14.6651 12.6273 14.6311 12.7052 14.5721 12.7621C14.5131 12.819 14.4339 12.8501 14.352 12.8487H12.146V14.364C12.1452 14.4045 12.1365 14.4445 12.1202 14.4817C12.104 14.5188 12.0806 14.5524 12.0514 14.5805C12.0221 14.6086 11.9877 14.6307 11.9499 14.6455C11.9122 14.6603 11.8719 14.6675 11.8313 14.6667H11.2C11.1171 14.6669 11.0373 14.6352 10.9773 14.578C10.9484 14.5504 10.9253 14.5172 10.9095 14.4804C10.8937 14.4436 10.8855 14.404 10.8853 14.364V12.8487H8.68C8.59712 12.8489 8.51734 12.8172 8.45733 12.76C8.42818 12.7323 8.40494 12.6991 8.38901 12.6622C8.37309 12.6253 8.3648 12.5855 8.36467 12.5453V8.90934C8.36467 8.82934 8.398 8.75134 8.45733 8.69467C8.51734 8.6375 8.59712 8.60574 8.68 8.606H10.8853V7.69734C10.8853 7.61667 10.9187 7.53934 10.9773 7.48267C11.0373 7.4255 11.1171 7.39374 11.2 7.394H11.8307L11.8313 7.39334ZM3.00933 9.81867C3.35733 9.81867 3.63933 10.09 3.63933 10.4253V11.0307C3.63933 11.6653 4.14733 12.1927 4.80533 12.24L4.9 12.2433H6.16C6.50267 12.2507 6.776 12.52 6.776 12.8493C6.776 13.1787 6.50267 13.448 6.16 13.4553H4.9C3.508 13.4553 2.38 12.37 2.38 11.0307V10.4253C2.38 10.09 2.66133 9.81867 3.00933 9.81867ZM10.886 9.81867H9.626V11.6373H10.886V9.81867ZM13.406 9.81867H12.146V11.6373H13.406V9.81867ZM5.00267 1.33334C5.13133 1.33334 5.24733 1.408 5.296 1.524H5.29333L7.814 7.584C7.85333 7.67734 7.84067 7.784 7.78267 7.86667C7.75297 7.9082 7.71374 7.94199 7.66826 7.9652C7.62278 7.9884 7.57239 8.00034 7.52133 8H6.84133C6.7793 8.00046 6.71852 7.98262 6.66658 7.94871C6.61464 7.91479 6.57386 7.86631 6.54933 7.80934L5.87267 6.182H3.29533L2.61933 7.80934C2.59477 7.86642 2.55388 7.91497 2.50181 7.94889C2.44974 7.98282 2.38881 8.0006 2.32667 8H1.64867C1.59761 8.00034 1.54722 7.9884 1.50174 7.9652C1.45626 7.94199 1.41703 7.9082 1.38733 7.86667C1.35857 7.82608 1.3406 7.77883 1.33512 7.72939C1.32964 7.67994 1.33682 7.62991 1.356 7.584L3.876 1.524C3.90065 1.46671 3.94175 1.41801 3.99408 1.38407C4.04641 1.35013 4.10763 1.33248 4.17 1.33334H5.00267ZM11.2 2.54534C11.8687 2.54534 12.51 2.80067 12.9827 3.25534C13.2149 3.47661 13.4001 3.74258 13.5269 4.03725C13.6537 4.33192 13.7196 4.6492 13.7207 4.97V5.57534C13.7133 5.90467 13.4333 6.168 13.0907 6.168C12.748 6.168 12.4687 5.90467 12.4607 5.57534V4.97C12.4607 4.648 12.328 4.34 12.0913 4.11267C11.8512 3.88366 11.5318 3.75635 11.2 3.75734H9.94C9.598 3.75 9.324 3.48067 9.324 3.15134C9.324 2.822 9.59733 2.55267 9.94 2.54534H11.2ZM4.584 3.08134L3.8 4.96934H5.37L4.58467 3.08134H4.584Z" fill="currentColor"/>
</svg>
