<svg width="16" height="16" viewBox="0 0 16 16" fill="none" xmlns="http://www.w3.org/2000/svg"><path id="Rectangle 200" d="M1.5 6.5C1.5 7.05228 1.94772 7.5 2.5 7.5L6.5 7.5C7.05228 7.5 7.5 7.05228 7.5 6.5L7.5 2.5C7.5 1.94772 7.05228 1.5 6.5 1.5L2.5 1.5C1.94772 1.5 1.5 1.94772 1.5 2.5L1.5 6.5Z" stroke="currentColor"></path><path id="Rectangle 199" d="M9.5 5H10C10.5523 5 11 5.44772 11 6V10C11 10.5523 10.5523 11 10 11H6C5.44772 11 5 10.5523 5 10V9.5" stroke="currentColor" stroke-linecap="round"></path><path id="Rectangle 201" d="M13 8.5H13.5C14.0523 8.5 14.5 8.94772 14.5 9.5V13.5C14.5 14.0523 14.0523 14.5 13.5 14.5H9.5C8.94772 14.5 8.5 14.0523 8.5 13.5V13" stroke="currentColor" stroke-linecap="round"></path></svg>