<svg width="16" height="16" viewBox="0 0 16 16" fill="none" xmlns="http://www.w3.org/2000/svg">
<path d="M9.99625 5.27254H7.87094C7.76777 5.27256 7.66883 5.31581 7.59589 5.39277C7.52294 5.46973 7.48196 5.5741 7.48196 5.68293C7.48196 5.79176 7.52294 5.89614 7.59589 5.9731C7.66883 6.05006 7.76777 6.0933 7.87094 6.09332H9.99625C10.0473 6.09333 10.0979 6.08272 10.1452 6.0621C10.1924 6.04149 10.2353 6.01126 10.2714 5.97315C10.3075 5.93504 10.3362 5.8898 10.3557 5.84C10.3753 5.7902 10.3854 5.73683 10.3854 5.68293C10.3854 5.62903 10.3753 5.57566 10.3557 5.52587C10.3362 5.47607 10.3075 5.43083 10.2714 5.39272C10.2353 5.35461 10.1924 5.32438 10.1452 5.30376C10.0979 5.28314 10.0473 5.27253 9.99625 5.27254ZM6.55011 5.08563H5.77394C5.72309 5.08601 5.67445 5.10758 5.63862 5.14564C5.60279 5.1837 5.58269 5.23516 5.58269 5.2888V6.09332C5.58249 6.11994 5.58728 6.14634 5.59681 6.17099C5.60633 6.19565 5.62039 6.21807 5.63817 6.23696C5.65595 6.25585 5.6771 6.27083 5.70041 6.28105C5.72371 6.29127 5.7487 6.29651 5.77394 6.29649H6.55011C6.57534 6.29649 6.60032 6.29122 6.62361 6.28099C6.6469 6.27077 6.66804 6.25578 6.68582 6.2369C6.7036 6.21801 6.71765 6.1956 6.72719 6.17096C6.73672 6.14632 6.74153 6.11994 6.74136 6.09332V5.2888C6.74136 5.23516 6.72125 5.1837 6.68542 5.14564C6.64959 5.10758 6.60095 5.08601 6.55011 5.08563ZM6.55011 7.09695H5.77394C5.72342 7.09732 5.67507 7.11861 5.6393 7.15623C5.60352 7.19385 5.58319 7.2448 5.58269 7.29808V8.11683C5.58269 8.17046 5.60279 8.22193 5.63862 8.25999C5.67445 8.29805 5.72309 8.31962 5.77394 8.31999H6.55011C6.60095 8.31962 6.64959 8.29805 6.68542 8.25999C6.72125 8.22193 6.74136 8.17046 6.74136 8.11683V7.29808C6.74085 7.2448 6.72052 7.19385 6.68475 7.15623C6.64897 7.11861 6.60062 7.09732 6.55011 7.09695ZM6.55011 9.13468H5.77394C5.72309 9.13505 5.67445 9.15662 5.63862 9.19468C5.60279 9.23274 5.58269 9.2842 5.58269 9.33784V10.1546C5.58269 10.2082 5.60279 10.2597 5.63862 10.2977C5.67445 10.3358 5.72309 10.3573 5.77394 10.3577H6.55011C6.60095 10.3573 6.64959 10.3358 6.68542 10.2977C6.72125 10.2597 6.74136 10.2082 6.74136 10.1546V9.33784C6.74136 9.2842 6.72125 9.23274 6.68542 9.19468C6.64959 9.15662 6.60095 9.13505 6.55011 9.13468ZM11.5363 15C11.3865 15.0002 11.2425 14.939 11.1347 14.8293L9.75531 13.6226L8.37612 14.8293C8.26805 14.9388 8.12401 15 7.97417 15C7.82433 15 7.6803 14.9388 7.57222 14.8293L6.19265 13.6226L4.867 14.7745C4.75944 14.8852 4.61512 14.9471 4.46485 14.9471C4.31459 14.9471 4.17027 14.8852 4.06271 14.7745L2.67986 13.3686C2.62388 13.3117 2.57932 13.2436 2.54881 13.1682C2.5183 13.0928 2.50248 13.0117 2.50229 12.9298V2.10929C2.49306 1.96672 2.51183 1.82367 2.55742 1.68909C2.603 1.55452 2.67443 1.43132 2.76722 1.3272C2.86002 1.22308 2.97218 1.14028 3.0967 1.08398C3.22122 1.02769 3.35542 0.999103 3.49089 1.00002H10.8889C10.9645 0.999846 11.0393 1.01537 11.1091 1.04569C11.1789 1.07602 11.2424 1.12056 11.2959 1.17677L13.3276 3.22669C13.3827 3.28314 13.4263 3.35076 13.4559 3.42548C13.4856 3.5002 13.5006 3.58047 13.5 3.66146V13.0415C13.4999 13.1234 13.4842 13.2043 13.4539 13.2797C13.4237 13.3551 13.3794 13.4233 13.3238 13.4803L11.9659 14.8293C11.8473 14.9397 11.6945 15.0004 11.5363 15ZM6.19265 12.1618C6.34254 12.1615 6.48667 12.2227 6.5946 12.3325L7.97417 13.7363L9.35317 12.3325C9.46128 12.223 9.60534 12.1618 9.75522 12.1618C9.90509 12.1618 10.0492 12.223 10.1573 12.3325L11.5363 13.5413L12.3423 12.7815L12.319 4.47005H10.6076C10.5025 4.46967 10.4018 4.42545 10.3275 4.34703C10.2533 4.26861 10.2114 4.16238 10.2112 4.05153V2.22103H3.66076V12.6697L4.46485 13.4864L5.7905 12.3325C5.89855 12.2228 6.04271 12.1616 6.19265 12.1618ZM9.99625 7.29199H7.87094C7.76801 7.29199 7.6693 7.33512 7.59652 7.41189C7.52374 7.48866 7.48286 7.59279 7.48286 7.70136C7.48286 7.80993 7.52374 7.91406 7.59652 7.99083C7.6693 8.0676 7.76801 8.11073 7.87094 8.11073H9.99625C10.0992 8.11073 10.1979 8.0676 10.2707 7.99083C10.3434 7.91406 10.3843 7.80993 10.3843 7.70136C10.3843 7.59279 10.3434 7.48866 10.2707 7.41189C10.1979 7.33512 10.0992 7.29199 9.99625 7.29199ZM9.99625 9.32768H7.87094C7.76776 9.32768 7.6688 9.37092 7.59584 9.44788C7.52288 9.52484 7.48189 9.62923 7.48189 9.73807C7.48189 9.84691 7.52288 9.9513 7.59584 10.0283C7.6688 10.1052 7.76776 10.1485 7.87094 10.1485H9.99625C10.0994 10.1485 10.1984 10.1052 10.2714 10.0283C10.3443 9.9513 10.3853 9.84691 10.3853 9.73807C10.3853 9.62923 10.3443 9.52484 10.2714 9.44788C10.1984 9.37092 10.0994 9.32768 9.99625 9.32768Z" fill="currentColor"/>
</svg>
