<svg width="16" height="16" viewBox="0 0 16 16" fill="none" xmlns="http://www.w3.org/2000/svg">
<path d="M7.99998 2.4C5.37334 2.4 3.19998 4.35312 3.19998 6.8C3.19998 8.16448 3.9237 9.31678 4.92186 10.2875L5.71717 11.0828C5.7817 11.1493 5.86732 11.1912 5.95936 11.2016C5.85645 11.211 5.76114 11.2598 5.69344 11.3379C5.62574 11.416 5.5909 11.5172 5.59617 11.6204C5.60145 11.7236 5.64646 11.8207 5.72176 11.8915C5.79706 11.9623 5.89685 12.0012 6.00018 12H10.0002C10.103 11.9998 10.2018 11.9601 10.2762 11.889C10.3505 11.8178 10.3946 11.7207 10.3992 11.618C10.4038 11.5152 10.3687 11.4147 10.3011 11.3371C10.2335 11.2596 10.1386 11.211 10.0361 11.2016C10.1298 11.1923 10.2172 11.1502 10.283 11.0828L11.0815 10.2844C12.0513 9.32558 12.7987 8.16292 12.7987 6.80156C12.7987 4.35468 10.6254 2.40156 7.99871 2.40156L7.99998 2.4ZM7.99998 3.2C10.2335 3.2 12 4.82864 12 6.8C12 7.86736 11.4058 8.83907 10.5187 9.71563L9.71873 10.5156C9.66511 10.5678 9.62714 10.634 9.60926 10.7066C9.59138 10.7793 9.59429 10.8555 9.61756 10.9267C9.64083 10.9978 9.68362 11.061 9.741 11.109C9.79838 11.157 9.86806 11.188 9.94217 11.1984H6.05467C6.12929 11.189 6.19969 11.1587 6.25789 11.111C6.31609 11.0634 6.35969 11.0004 6.38367 10.9291C6.40765 10.8578 6.41101 10.7811 6.39344 10.708C6.37586 10.6349 6.33801 10.5682 6.28426 10.5156L5.48426 9.71563C5.48163 9.71292 5.47905 9.71025 5.47635 9.70762C4.56459 8.82106 3.99813 7.87848 3.99813 6.79512C3.99813 4.82376 5.76461 3.19512 7.99813 3.19512L7.99998 3.2ZM5.99998 12.8C5.94698 12.7993 5.89438 12.809 5.8452 12.8288C5.79601 12.8486 5.75121 12.8779 5.71346 12.9151C5.67571 12.9524 5.64573 12.9967 5.62527 13.0456C5.60482 13.0945 5.59432 13.147 5.59432 13.2C5.59432 13.253 5.60482 13.3055 5.62527 13.3544C5.64573 13.4033 5.67571 13.4476 5.71346 13.4849C5.75121 13.5221 5.79601 13.5514 5.8452 13.5712C5.89438 13.591 5.94698 13.6008 5.99998 13.6H7.19998V14C7.19999 14.1061 7.24216 14.2078 7.31717 14.2828C7.39218 14.3578 7.4939 14.4 7.59998 14.4H8.39998C8.50606 14.4 8.60778 14.3578 8.68279 14.2828C8.75781 14.2078 8.79997 14.1061 8.79998 14V13.6H9.99998C10.053 13.6008 10.1056 13.591 10.1548 13.5712C10.204 13.5514 10.2488 13.5221 10.2865 13.4849C10.3243 13.4476 10.3542 13.4033 10.3747 13.3544C10.3951 13.3055 10.4056 13.253 10.4056 13.2C10.4056 13.147 10.3951 13.0945 10.3747 13.0456C10.3542 12.9967 10.3243 12.9524 10.2865 12.9151C10.2488 12.8779 10.204 12.8486 10.1548 12.8288C10.1056 12.809 10.053 12.7993 9.99998 12.8H5.99998Z" fill="currentColor"/>
<path opacity="0.6" d="M5.99219 6.40469C5.91472 6.4071 5.83958 6.43197 5.77598 6.47627C5.71238 6.52056 5.66301 6.58237 5.63389 6.6542C5.60476 6.72602 5.59713 6.80478 5.61192 6.88086C5.6267 6.95694 5.66328 7.02712 5.71719 7.08281L6.4 7.76562V9C6.39925 9.053 6.40904 9.1056 6.42881 9.15478C6.44858 9.20397 6.47792 9.24877 6.51514 9.28652C6.55236 9.32427 6.5967 9.35425 6.64561 9.37471C6.69451 9.39516 6.74699 9.40566 6.8 9.40566C6.85301 9.40566 6.90549 9.39516 6.9544 9.37471C7.0033 9.35425 7.04765 9.32427 7.08486 9.28652C7.12208 9.24877 7.15143 9.20397 7.17119 9.15478C7.19096 9.1056 7.20075 9.053 7.2 9V8H8.8V9C8.79925 9.053 8.80904 9.1056 8.82881 9.15478C8.84858 9.20397 8.87792 9.24877 8.91514 9.28652C8.95236 9.32427 8.9967 9.35425 9.04561 9.37471C9.09451 9.39516 9.14699 9.40566 9.2 9.40566C9.25301 9.40566 9.30549 9.39516 9.3544 9.37471C9.4033 9.35425 9.44765 9.32427 9.48486 9.28652C9.52208 9.24877 9.55143 9.20397 9.57119 9.15478C9.59096 9.1056 9.60075 9.053 9.6 9V7.76562L10.2828 7.08281C10.3551 7.00725 10.3948 6.90639 10.3937 6.80185C10.3925 6.69732 10.3505 6.59736 10.2766 6.52344C10.2026 6.44951 10.1027 6.40752 9.99815 6.40635C9.89361 6.40517 9.79275 6.44494 9.71719 6.51719L9.03438 7.2H6.96563L6.28281 6.51719C6.24436 6.47994 6.19885 6.45076 6.14893 6.43144C6.099 6.41212 6.0457 6.40303 5.99219 6.40469Z" fill="currentColor"/>
</svg>
