<svg width="14" height="14" viewBox="0 0 14 14" fill="none" xmlns="http://www.w3.org/2000/svg">
<path d="M4.76438 11.9437C4.76264 12.1557 4.80289 12.3659 4.88281 12.5622C4.96272 12.7585 5.08072 12.9371 5.22999 13.0876C5.37925 13.2381 5.55684 13.3575 5.75251 13.439C5.94817 13.5205 6.15804 13.5625 6.37 13.5625H7.53375C7.7446 13.5625 7.95339 13.521 8.1482 13.4403C8.343 13.3596 8.52 13.2413 8.6691 13.0922C8.81819 12.9431 8.93646 12.7661 9.01715 12.5713C9.09784 12.3765 9.13937 12.1677 9.13937 11.9569V11.375H4.76438V11.9437ZM6.95188 0.4375C5.91181 0.439575 4.898 0.764204 4.05018 1.36664C3.20235 1.96908 2.56227 2.81967 2.21815 3.80115C1.87403 4.78264 1.84282 5.8467 2.12882 6.84667C2.41482 7.84664 3.00395 8.73328 3.815 9.38438C4.17984 9.67513 4.45696 10.0613 4.61563 10.5H9.28813C9.44658 10.0612 9.72375 9.67497 10.0888 9.38438C10.8998 8.73328 11.4889 7.84664 11.7749 6.84667C12.0609 5.8467 12.0297 4.78264 11.6856 3.80115C11.3415 2.81967 10.7014 1.96908 9.85357 1.36664C9.00575 0.764204 7.99194 0.439575 6.95188 0.4375ZM10.0144 5.57812L8.70187 7.32812C8.65094 7.39604 8.58488 7.45117 8.50894 7.48914C8.43301 7.52711 8.34927 7.54688 8.26437 7.54688C8.17948 7.54688 8.09574 7.52711 8.0198 7.48914C7.94387 7.45117 7.87781 7.39604 7.82687 7.32812L6.95188 6.16L6.07688 7.32812C6.02395 7.39307 5.95723 7.44542 5.88156 7.48137C5.80588 7.51732 5.72315 7.53597 5.63938 7.53597C5.5556 7.53597 5.47287 7.51732 5.39719 7.48137C5.32152 7.44542 5.2548 7.39307 5.20188 7.32812L3.88938 5.57812C3.80235 5.46209 3.76498 5.31624 3.7855 5.17266C3.80601 5.02908 3.88272 4.89952 3.99875 4.8125C4.11478 4.72548 4.26063 4.68811 4.40421 4.70862C4.5478 4.72913 4.67735 4.80584 4.76438 4.92188L5.63938 6.09L6.51438 4.92188C6.5673 4.85693 6.63402 4.80458 6.70969 4.76863C6.78537 4.73268 6.8681 4.71403 6.95188 4.71403C7.03565 4.71403 7.11838 4.73268 7.19406 4.76863C7.26973 4.80458 7.33645 4.85693 7.38937 4.92188L8.26437 6.09L9.13937 4.92188C9.2264 4.80584 9.35595 4.72913 9.49954 4.70862C9.64312 4.68811 9.78897 4.72548 9.905 4.8125C10.021 4.89952 10.0977 5.02908 10.1183 5.17266C10.1388 5.31624 10.1014 5.46209 10.0144 5.57812Z" fill="currentColor"/>
</svg>
