<svg width="16" height="16" viewBox="0 0 16 16" fill="none" xmlns="http://www.w3.org/2000/svg">
<path d="M11.9665 5.98326H11.2546V4.55947C11.2546 2.59345 9.66117 1 7.69515 1C5.72914 1 4.13568 2.59345 4.13568 4.55947V5.98326H3.42379C2.63843 5.98501 2.00175 6.62169 2 7.40705V13.5762C2.00175 14.3616 2.63843 14.9983 3.42379 15H11.9665C12.7519 14.9983 13.3886 14.3616 13.3903 13.5762V7.40705C13.3886 6.62169 12.7519 5.98501 11.9665 5.98326ZM8.32834 11.2849V11.8673C8.32834 12.2171 8.04498 12.5005 7.69515 12.5005C7.34533 12.5005 7.06197 12.2171 7.06197 11.8673V11.2849C6.46902 10.991 6.15767 10.3281 6.3081 9.68441C6.45852 9.04073 7.03398 8.58596 7.6934 8.58596C8.35282 8.58596 8.92829 9.04073 9.07871 9.68441C9.23263 10.3298 8.91954 10.9928 8.32834 11.2849ZM9.90954 5.98326H5.48076V4.55947C5.48076 3.76887 5.9023 3.03773 6.58796 2.64068C7.27361 2.24363 8.11669 2.24538 8.80235 2.64068C9.48801 3.03598 9.90954 3.76712 9.90954 4.55947V5.98326Z" fill="currentColor"/>
</svg>
