<svg width="16" height="16" viewBox="0 0 16 16" fill="none" xmlns="http://www.w3.org/2000/svg">
<path d="M5.51181 12.57L5.12364 11.9209C5.06637 11.8254 4.96455 11.7618 4.85636 11.7491L3.73637 11.6155C3.6791 11.6091 3.62818 11.59 3.58364 11.5582C3.5391 11.5264 3.50091 11.4882 3.46909 11.4373L2.89636 10.47C2.87091 10.4191 2.82637 10.3809 2.78182 10.3491C2.73727 10.3173 2.68001 10.2982 2.62909 10.2918L1.87818 10.2091C1.79545 10.2027 1.73181 10.1645 1.67454 10.1136L1.60454 10.2218C1.49637 10.3873 1.83999 11.6473 2.06273 12.4045C2.15818 12.7418 2.23454 12.9773 2.23454 12.9773C2.27909 13.1045 2.36181 13.2064 2.46999 13.27C2.57818 13.34 2.70545 13.3718 2.83272 13.3654C2.83272 13.3654 3.08091 13.3336 3.4309 13.2891C4.21364 13.1809 5.50546 12.9836 5.60728 12.8182L5.67727 12.71C5.61363 12.6845 5.55 12.64 5.51182 12.57L5.51181 12.57Z" fill="#EDDCCA"/>
<path d="M2.06273 12.4045L2.15818 13.4355C2.1709 13.5945 2.29182 13.6709 2.44454 13.62L3.43092 13.2891L2.06273 12.4045Z" fill="#414A56"/>
<path d="M6.91818 4.38636C6.91818 4.55935 6.95225 4.73064 7.01845 4.89046C7.08465 5.05028 7.18168 5.19549 7.304 5.31781C7.42632 5.44013 7.57154 5.53716 7.73136 5.60336C7.89117 5.66956 8.06247 5.70363 8.23545 5.70363C8.40844 5.70363 8.57973 5.66956 8.73955 5.60336C8.89937 5.53716 9.04458 5.44013 9.1669 5.31781C9.28922 5.19549 9.38625 5.05028 9.45245 4.89046C9.51865 4.73064 9.55272 4.55935 9.55272 4.38636C9.55272 4.037 9.41394 3.70195 9.1669 3.45491C8.91987 3.20788 8.58481 3.06909 8.23545 3.06909C7.88609 3.06909 7.55104 3.20788 7.304 3.45491C7.05697 3.70195 6.91818 4.037 6.91818 4.38636Z" fill="white"/>
<path d="M14.37 11.1573L10.38 3.31726C9.78183 2.14001 8.33091 1.66272 7.16 2.25456C5.98909 2.85274 5.52454 4.30365 6.12273 5.48091L8.45181 10.05L9.95999 9.28001C9.97273 9.27365 9.99183 9.28001 9.99818 9.29274L10.1318 9.56002C10.1382 9.57274 10.1318 9.59183 10.1191 9.59819L8.61091 10.3682L9.08181 11.2909L9.90272 10.8709C9.91546 10.8646 9.93455 10.8709 9.94091 10.8836L10.0745 11.1509C10.0809 11.1636 10.0745 11.1827 10.0618 11.1891L9.24091 11.6091L9.71181 12.5318L10.5327 12.1118C10.5455 12.1055 10.5646 12.1118 10.5709 12.1246L10.7045 12.3918C10.7109 12.4046 10.7045 12.4236 10.6918 12.43L9.87091 12.85L10.1064 13.3146C10.2591 13.6137 10.6155 13.7282 10.9082 13.5818L12.5055 12.7673L14.1027 11.9527C14.4082 11.8191 14.5227 11.4564 14.37 11.1573ZM9.34274 5.10545C8.94819 5.71636 8.12728 5.88817 7.51636 5.49363C6.90545 5.09908 6.73364 4.27817 7.12818 3.66727C7.52273 3.05636 8.34364 2.88455 8.95454 3.27909C9.56546 3.68 9.74364 4.49455 9.34274 5.10545Z" fill="#4282F8"/>
<path d="M10.38 3.31727C9.95364 2.48363 9.10091 2 8.22274 2C8.22274 2 9.08183 2.87181 9.66092 3.24727C10.2718 3.64182 9.95365 4.81273 9.55911 5.42364C9.16456 6.03454 8.09547 6.42273 7.48456 6.02181C6.90546 5.65273 6.05273 5.34091 6.05273 5.34091C6.07183 5.39181 6.09728 5.44272 6.12274 5.48727L8.44547 10.05L8.79546 9.87818L9.84547 8.25545L11.5509 5.63364L10.38 3.31727Z" fill="#034BDB"/>
<path d="M9.54001 2.38818C8.4391 1.67545 6.95 1.98727 6.23728 3.08818L3.50091 7.30091L1.67455 10.1136C1.72545 10.1645 1.79545 10.1964 1.87819 10.2091L2.62909 10.2982C2.73727 10.3109 2.83909 10.3745 2.89637 10.47L3.46909 11.4373C3.52636 11.5327 3.62818 11.5964 3.73637 11.6091L4.85636 11.7427C4.96455 11.7555 5.06637 11.8191 5.12364 11.9145L5.51181 12.5636C5.54999 12.6336 5.61362 12.6845 5.67726 12.71L7.50362 9.89727L10.24 5.68455C10.9527 4.59001 10.6409 3.10091 9.54001 2.38818ZM9.34273 5.10545C8.94819 5.71637 8.12728 5.88818 7.51637 5.49364C6.90545 5.09909 6.73364 4.27818 7.12818 3.66728C7.52273 3.05636 8.34364 2.88455 8.95454 3.27909C9.56546 3.68001 9.74364 4.49455 9.34273 5.10545Z" fill="#689BF9"/>
<path d="M14.8536 13.9382H1.14636C1.06362 13.9382 1 13.8745 1 13.7918C1 13.7091 1.06362 13.6455 1.14636 13.6455H14.8536C14.9364 13.6455 15 13.7091 15 13.7918C14.9936 13.8746 14.93 13.9382 14.8536 13.9382Z" fill="#414A56"/>
</svg>
