<svg width="16" height="16" viewBox="0 0 16 16" fill="none" xmlns="http://www.w3.org/2000/svg">
<path d="M5.45455 1C5.10309 1 4.81818 1.27982 4.81818 1.625C4.81818 1.97017 5.10309 2.25 5.45455 2.25H12.0727C12.9865 2.25 13.7273 2.97754 13.7273 3.875V12.125C13.7273 13.0225 12.9865 13.75 12.0727 13.75H5.45455C5.10309 13.75 4.81818 14.0298 4.81818 14.375C4.81818 14.7202 5.10309 15 5.45455 15H12.0727C13.6894 15 15 13.7128 15 12.125V3.875C15 2.28719 13.6894 1 12.0727 1H5.45455ZM1.63636 7.24999H7.66863L5.29575 4.92489C5.04694 4.68111 5.04648 4.28537 5.29471 4.041C5.54294 3.79665 5.94585 3.7962 6.19466 4.03998L9.13598 6.9221C9.68425 7.45931 9.68425 8.33166 9.13598 8.86889L6.19466 11.751C5.94585 11.9948 5.54294 11.9943 5.29471 11.75C5.04648 11.5056 5.04694 11.1099 5.29575 10.8661L7.71045 8.5H1.63636C1.28491 8.5 1 8.22018 1 7.87501C1 7.52981 1.28491 7.24999 1.63636 7.24999Z" fill="currentColor"/>
</svg>
