<svg width="16" height="16" viewBox="0 0 16 16" fill="none" xmlns="http://www.w3.org/2000/svg">
<path fill-rule="evenodd" clip-rule="evenodd" d="M5.15442 12.9573C4.75562 12.9604 4.38336 12.7419 4.18427 12.3863C4.08603 12.2115 4.03463 12.0143 4.03508 11.8138C4.03552 11.6133 4.08778 11.4163 4.1868 11.2419C4.18807 11.2406 4.51229 10.6653 4.83905 10.0829H7.66923V12.9573H5.15442ZM6.45954 6.56632L4.02501 5.12316C4.02501 5.12316 5.18729 3.02126 5.49635 2.50716C5.67331 2.21032 5.98047 2 6.34452 2H9.83832C9.32765 2 8.87639 2.27221 8.62042 2.72632C8.28798 3.31368 6.45954 6.56632 6.45954 6.56632ZM9.99755 10.0514L9.99881 8.97516C9.99881 8.97516 8.58562 10.7619 8.58562 11.4876C8.58562 12.212 9.99881 14 9.99881 14L9.99755 12.9263H11.4076C11.5817 12.9269 11.7527 12.8807 11.9029 12.7928C12.0531 12.7048 12.1769 12.5782 12.2614 12.4261L14 9.33611C13.8773 9.55117 13.7003 9.73045 13.4865 9.85598C13.2679 9.98439 13.0188 10.0519 12.7652 10.0514H9.99755ZM10.7971 2.86779C10.701 2.69517 10.561 2.55105 10.3911 2.4501C10.2213 2.34915 10.0277 2.29496 9.83006 2.29305C9.43126 2.29305 9.06153 2.51726 8.86624 2.87347C8.86624 2.87347 8.54138 3.44758 8.21462 4.03116L8.87319 5.20147L7.95676 5.72821C7.95676 5.72821 10.1714 6.09074 10.785 5.72695C11.3968 5.36442 12.1995 3.21453 12.1995 3.21453L11.2926 3.7539C11.2926 3.7539 10.9386 3.11916 10.7971 2.86779ZM13.7758 9.17663C13.8739 9.0011 13.925 8.80318 13.924 8.6021C13.923 8.40102 13.87 8.20361 13.7701 8.02906L12.5136 5.79642L10.0867 7.2339L11.5018 9.74632H12.8037C13.002 9.74713 13.1968 9.69468 13.3678 9.59446C13.5388 9.49424 13.6797 9.34993 13.7758 9.17663ZM5.33453 8.59179L6.24211 9.13116C6.24211 9.13116 5.44071 6.98063 4.82765 6.61874C4.21586 6.25685 2 6.61874 2 6.61874L2.90948 7.15432L2.20351 8.40863C2.11557 8.56187 2.06882 8.73524 2.06783 8.91189C2.06683 9.08853 2.11161 9.26242 2.19782 9.41664L3.94472 12.5215C3.69002 12.0667 3.69192 11.5034 3.95041 11.0518L5.33453 8.59179Z" fill="currentColor"/>
</svg>
