<svg width="16" height="16" viewBox="0 0 16 16" fill="none" xmlns="http://www.w3.org/2000/svg">
<path d="M12.1973 9.80287C11.8254 9.80253 11.4626 9.91781 11.159 10.1328C10.8555 10.3477 10.6263 10.6518 10.5031 11.0028H6.72225C6.67037 10.7822 6.58358 10.5713 6.46517 10.378L10.3763 6.46963C10.7857 6.70995 11.2572 6.82341 11.7312 6.79563C12.2051 6.76785 12.6601 6.60008 13.0386 6.31356C13.4172 6.02704 13.7024 5.63463 13.8578 5.18601C14.0133 4.73739 14.0323 4.25271 13.9123 3.7933C13.7923 3.33389 13.5388 2.92041 13.1837 2.60518C12.8287 2.28995 12.3882 2.08714 11.9179 2.02241C11.4476 1.95768 10.9686 2.03394 10.5417 2.24153C10.1147 2.44914 9.75894 2.77874 9.51933 3.18866C9.30178 3.555 9.18697 3.97322 9.18697 4.39931C9.18697 4.8254 9.30178 5.24362 9.51933 5.60996L5.60908 9.51575C5.23709 9.29798 4.81464 9.18127 4.38364 9.17719V5.50625C4.60538 5.42782 4.80946 5.30638 4.98419 5.14892C5.15892 4.99145 5.30086 4.80105 5.40189 4.58862C5.50291 4.37618 5.56102 4.1459 5.57291 3.91096C5.58478 3.67603 5.55019 3.44106 5.47111 3.21952C5.3971 2.99656 5.27907 2.79075 5.12401 2.6143C4.96895 2.43786 4.78002 2.29437 4.56844 2.19236C4.35686 2.09035 4.12695 2.03191 3.89235 2.02048C3.65776 2.00905 3.42325 2.04489 3.20277 2.12586C2.97984 2.2035 2.7745 2.32453 2.59858 2.48196C2.42268 2.6394 2.27969 2.83012 2.17787 3.04312C2.07604 3.25612 2.01741 3.48719 2.00535 3.72297C1.99329 3.95875 2.02804 4.1946 2.10759 4.41688C2.19447 4.67074 2.33836 4.90131 2.52821 5.09089C2.71806 5.28048 2.94882 5.42403 3.20277 5.51053V9.52003C2.85989 9.71734 2.57111 9.99641 2.36213 10.3324C2.15315 10.6683 2.03046 11.0507 2.00499 11.4456C1.9795 11.8404 2.05201 12.2354 2.21608 12.5954C2.38014 12.9554 2.63065 13.2693 2.94532 13.5091C3.25999 13.7489 3.62905 13.9071 4.01965 13.9697C4.41026 14.0324 4.81028 13.9974 5.18412 13.8681C5.55796 13.7387 5.89401 13.5188 6.16237 13.2282C6.43073 12.9374 6.62306 12.5849 6.72225 12.2019H10.5023C10.6116 12.5136 10.8045 12.7893 11.06 12.9986C11.3156 13.2079 11.6237 13.3429 11.9508 13.3887C12.2779 13.4346 12.6113 13.3894 12.9145 13.2583C13.2177 13.1273 13.4789 12.9153 13.6696 12.6456C13.8604 12.3759 13.9732 12.0589 13.9958 11.7294C14.0184 11.3998 13.9498 11.0703 13.7977 10.7771C13.6456 10.4839 13.4157 10.2383 13.1333 10.067C12.8508 9.89578 12.5267 9.80553 12.1964 9.8063L12.1973 9.80287Z" fill="currentColor"/>
</svg>
