<svg width="16" height="16" viewBox="0 0 16 16" fill="none" xmlns="http://www.w3.org/2000/svg">
<path d="M10.664 2.19519L14.4353 5.96652C14.5603 6.09154 14.6305 6.26108 14.6305 6.43786C14.6305 6.61463 14.5603 6.78417 14.4353 6.90919L9.25 12.0945L7.83533 12.5659L6.89267 13.5092C6.76765 13.6342 6.59811 13.7044 6.42133 13.7044C6.24456 13.7044 6.07502 13.6342 5.95 13.5092L3.12133 10.6805C2.99635 10.5555 2.92614 10.386 2.92614 10.2092C2.92614 10.0324 2.99635 9.86288 3.12133 9.73786L4.064 8.79519L4.53533 7.38052L9.72133 2.19519C9.84635 2.07021 10.0159 2 10.1927 2C10.3694 2 10.539 2.07021 10.664 2.19519ZM11.1353 4.55252L6.89267 8.79519L7.83533 9.73786L12.078 5.49519L11.1353 4.55252ZM2.886 11.8592L4.77133 13.7445L3.82867 14.6872L1 13.7445L2.886 11.8592Z" fill="currentColor"/>
</svg>
