<svg width="16" height="16" viewBox="0 0 16 16" fill="none" xmlns="http://www.w3.org/2000/svg">
<path opacity="0.99" d="M13.1969 2.39229C13.093 2.39518 12.9944 2.43832 12.9219 2.5126L11.6656 3.76885C10.6827 2.91635 9.40493 2.39541 8.00467 2.39541C4.91661 2.39541 2.40466 4.90736 2.40466 7.99541C2.40466 9.39567 2.92405 10.675 3.77654 11.6579L2.52185 12.9126C2.48348 12.9495 2.45285 12.9936 2.43175 13.0424C2.41065 13.0913 2.39951 13.1439 2.39898 13.1971C2.39844 13.2503 2.40853 13.303 2.42865 13.3523C2.44876 13.4016 2.4785 13.4463 2.51612 13.4839C2.55375 13.5216 2.5985 13.5513 2.64776 13.5714C2.69702 13.5916 2.7498 13.6016 2.803 13.6011C2.85621 13.6005 2.90877 13.5894 2.95762 13.5683C3.00647 13.5472 3.05061 13.5166 3.08748 13.4782L4.34216 12.2235C5.32503 13.076 6.6044 13.5954 8.00467 13.5954C11.0927 13.5954 13.6047 11.0835 13.6047 7.99541C13.6047 6.59515 13.0837 5.31734 12.2312 4.33447L13.4875 3.07822C13.545 3.02199 13.5842 2.94972 13.6001 2.87085C13.6159 2.79198 13.6076 2.71015 13.5762 2.63609C13.5448 2.56202 13.4918 2.49916 13.4241 2.45567C13.3565 2.41217 13.2773 2.39008 13.1969 2.39229ZM8.00467 3.19541C10.6604 3.19541 12.8047 5.33971 12.8047 7.99541C12.8047 10.6511 10.6604 12.7954 8.00467 12.7954C5.34896 12.7954 3.20466 10.6511 3.20466 7.99541C3.20466 7.29068 3.35974 6.62417 3.63123 6.02197L4.00466 6.39541L4.80466 7.19541V8.79541H6.40467V9.59541L7.20467 10.3954V11.9954H7.80467H8.80466L9.60466 11.1954L10.4047 10.3954V9.59541L9.60466 8.79541H8.00467H7.20467L6.40467 7.99541H5.60467L6.40467 7.19541H7.20467L8.80466 5.59541L8.00467 4.79541H7.20467L6.40467 3.99541L7.12029 3.27979C7.40718 3.22651 7.70208 3.19541 8.00467 3.19541Z" fill="currentColor"/>
</svg>
