<svg data-v-2d4bd084="" width="1em" height="1em" viewBox="0 0 14 14" fill="none" xmlns="http://www.w3.org/2000/svg" class="" style="font-size: 14px; transform: rotate(0deg);"><path fill-rule="evenodd" clip-rule="evenodd" d="M1 2.7C1 2.58954 1.08954 2.5 1.2 2.5H12.8C12.9105 2.5 13 2.58954 13 2.7V3.3C13 3.41046 12.9105 3.5 12.8 3.5H1.2C1.08954 3.5 1 3.41046 1 3.3V2.7ZM1 6.7C1 6.58954 1.08954 6.5 1.2 6.5H12.8C12.9105 6.5 13 6.58954 13 6.7V7.3C13 7.41046 12.9105 7.5 12.8 7.5H1.2C1.08954 7.5 1 7.41046 1 7.3V6.7ZM13 10.7C13 10.5895 12.9105 10.5 12.8 10.5H1.2C1.08954 10.5 1 10.5895 1 10.7V11.3C1 11.4105 1.08954 11.5 1.2 11.5H12.8C12.9105 11.5 13 11.4105 13 11.3V10.7Z" fill="currentColor"></path></svg>