<svg width="16" height="16" viewBox="0 0 16 16" fill="none" xmlns="http://www.w3.org/2000/svg">
<path d="M11.5 5.59961L11.7803 5.33105C11.8877 5.19368 12.0246 5.08029 12.1816 4.99805C12.3389 4.91576 12.5128 4.86668 12.6914 4.85449C12.8699 4.84231 13.0491 4.86673 13.2168 4.92676C13.3846 4.98688 13.5374 5.08155 13.6641 5.20312C13.7905 5.32464 13.8886 5.4709 13.9512 5.63184C14.0137 5.79284 14.04 5.96531 14.0273 6.13672C14.0146 6.30807 13.9636 6.47515 13.8779 6.62598C13.7923 6.77674 13.6733 6.90766 13.5303 7.01074L13.25 7.28027L15 8.95996L13.25 10.6396L13.5 10.8799C13.6805 11.111 13.7684 11.3974 13.7471 11.6855C13.7256 11.9735 13.5964 12.2441 13.3838 12.4482C13.1711 12.6524 12.8889 12.7763 12.5889 12.7969C12.2887 12.8174 11.9907 12.7329 11.75 12.5596L11.5 12.3203L9.75 14L7.44727 11.7725L7.75 11.4844H9.25V9.06543C9.70233 8.96201 10.1053 8.71551 10.3936 8.36523C10.6818 8.01489 10.8389 7.58121 10.8389 7.13477C10.8389 6.68833 10.6818 6.25464 10.3936 5.9043C10.1053 5.55404 9.70232 5.30752 9.25 5.2041V4.42383L9.75 3.91992L11.5 5.59961ZM4.70508 2C5.03657 2.00002 5.35447 2.12654 5.58887 2.35156C5.82326 2.5766 5.95508 2.88195 5.95508 3.2002V3.57422H8.41992V5.93164H8.75C9.08139 5.93164 9.39939 6.05735 9.63379 6.28223C9.86813 6.50719 9.99991 6.81272 10 7.13086C10 7.44909 9.86817 7.75445 9.63379 7.97949C9.39937 8.20454 9.08152 8.33105 8.75 8.33105H8.41992V10.6953H5.96484V10.3164C5.96484 9.99816 5.83304 9.69282 5.59863 9.46777C5.36421 9.24273 5.04636 9.11621 4.71484 9.11621C4.38338 9.11625 4.06544 9.24277 3.83105 9.46777C3.59675 9.6928 3.46484 9.99823 3.46484 10.3164V10.6855H1V8.32129H1.34277C1.65786 8.31965 1.96088 8.20521 2.19238 8C2.40667 7.8311 2.54805 7.59153 2.58789 7.32812C2.60933 7.11806 2.57894 6.90599 2.5 6.70898C2.40887 6.48512 2.24935 6.29233 2.04297 6.15625C1.83675 6.02039 1.59288 5.94666 1.34277 5.94531H1V3.58203H3.45508V3.2002C3.45508 2.88194 3.58687 2.57661 3.82129 2.35156C4.05571 2.12655 4.37358 2 4.70508 2Z" fill="currentColor"/>
</svg>
