<svg width="16" height="16" viewBox="0 0 16 16" fill="none" xmlns="http://www.w3.org/2000/svg">
<path d="M13.6376 11.1681L11.3405 12.4964V9.85907L13.6376 8.53659V11.1681ZM11.0412 9.326L8.74283 7.9971L11.0342 6.67762L13.3326 8.00653L11.0412 9.326ZM10.728 12.8354L8.43084 14.1643V11.534L10.728 10.2115V12.8354ZM5.52228 10.2056L7.81943 11.5339V14.1641L5.52228 12.8358V10.2056ZM2.91711 4.65637L5.21603 3.32692L7.52015 4.65979L5.21603 5.98692L2.91711 4.65637ZM4.90978 9.14526L2.61264 7.8169V5.18657L4.90978 6.51548V9.14526ZM4.90978 12.4819L2.61264 11.153V8.52333L4.90978 9.85155V12.4819ZM10.728 3.51764V6.14852L8.43084 7.47155V4.84067L10.728 3.51764ZM8.12459 1.65854L10.423 2.988L8.13156 4.30747L5.82853 2.9746L8.12459 1.65854ZM5.52228 9.1469V6.51548L7.81943 5.19313V7.82401L5.52228 9.1469ZM8.12568 11.0048L5.8273 9.676L8.13088 8.34942L10.4293 9.67833L8.12568 11.0048ZM14.098 7.7428L11.341 6.14852V2.98868C11.3412 2.87971 11.2831 2.77909 11.1887 2.7244L8.27908 1.04194C8.2327 1.01469 8.17992 1.00022 8.12612 1C8.07232 0.999786 8.01943 1.01383 7.97283 1.04071L5.06318 2.70923L5.06209 2.70977L2.1523 4.3921C2.10597 4.41892 2.0675 4.45746 2.04077 4.50384C2.01404 4.55023 1.99998 4.60284 2 4.65637V11.3292C2 11.4383 2.0577 11.5385 2.1523 11.5933L7.97105 14.9592C8.01797 14.9861 8.07111 15.0001 8.12516 15C8.17921 14.9999 8.23228 14.9856 8.27908 14.9585L11.1818 13.2791L11.1882 13.2902L14.0973 11.6078C14.1438 11.5811 14.1824 11.5426 14.2092 11.4962C14.236 11.4498 14.2502 11.3972 14.2501 11.3436V8.00708C14.2503 7.89811 14.1922 7.79749 14.098 7.7428Z" fill="white"/>
</svg>
