<svg xmlns="http://www.w3.org/2000/svg" xmlns:xlink="http://www.w3.org/1999/xlink" fill="currentColor" version="1.1" width="16" height="16" viewBox="0 0 16 16"><g><path d="M7.10676,0.0533502C3.60965,0.441918,0.695377,3.16191,0.112525,6.65902C-0.1789,8.40758,0.112538,10.059,0.792532,11.4189C0.986817,11.7104,0.986787,12.0989,0.889649,12.3904C0.695365,13.0704,0.403928,14.3332,0.209644,15.2075C0.112502,15.596,0.403964,15.8875,0.792532,15.7903C0.792532,15.7903,3.60961,15.1103,3.60961,15.1103C3.99818,15.0132,4.2896,15.1103,4.58103,15.2075C5.94102,15.8875,7.59246,16.1789,9.34101,15.8875C12.8381,15.3046,15.5581,12.3904,15.9466,8.89328C16.5295,3.74475,12.2552,-0.529501,7.10676,0.0533502C7.10676,0.0533502,7.10676,0.0533502,7.10676,0.0533502Z" fill="currentColor" fill-opacity="1"/></g></svg>