<svg width="16" height="16" viewBox="0 0 16 16" fill="none" xmlns="http://www.w3.org/2000/svg">
<path d="M5.19999 2.39999C5.09391 2.40001 4.99219 2.44217 4.91718 2.51718L2.51718 4.91718C2.44217 4.99219 2.40001 5.09391 2.39999 5.19999V13.2C2.4 13.3061 2.44215 13.4078 2.51716 13.4828C2.59218 13.5578 2.69391 13.6 2.79999 13.6H10.8C10.9061 13.6 11.0078 13.5578 11.0828 13.4828L13.4828 11.0828C13.5578 11.0078 13.6 10.9061 13.6 10.8V2.79999C13.6 2.69391 13.5578 2.59219 13.4828 2.51718C13.4078 2.44217 13.3061 2.4 13.2 2.39999H5.19999ZM5.36562 3.19999H12.8V10.6344L10.6344 12.8H3.19999V5.36562L5.36562 3.19999ZM5.59999 5.59999V7.19999H7.19999V5.59999H5.59999ZM7.19999 7.19999V8.79999H8.79999V7.19999H7.19999ZM8.79999 7.19999H10.4V5.59999H8.79999V7.19999ZM8.79999 8.79999V10.4H10.4V8.79999H8.79999ZM8.79999 10.4H7.19999V12H8.79999V10.4ZM7.19999 10.4V8.79999H5.59999V10.4H7.19999ZM5.59999 10.4H3.99999V12H5.59999V10.4ZM5.59999 8.79999V7.19999H3.99999V8.79999H5.59999Z" fill="white"/>
</svg>
