<svg width="16" height="16" viewBox="0 0 16 16" fill="none" xmlns="http://www.w3.org/2000/svg">
<path d="M5.99997 2.39999C5.77907 2.40002 5.6 2.57909 5.59997 2.79999V3.59999C5.59999 3.70607 5.64214 3.8078 5.71716 3.88281L6.39997 4.56562V6.65781L2.8906 10.9469L2.88738 10.9501C2.41626 11.5389 2.32108 12.2062 2.528 12.7235C2.73491 13.2408 3.23321 13.6001 3.79988 13.6001H12.1999C12.7665 13.6001 13.2694 13.2454 13.4827 12.7266C13.6956 12.2087 13.5976 11.5349 13.1093 10.9469L9.59997 6.65781V4.56562L10.2828 3.88281C10.3578 3.80777 10.4 3.70607 10.4 3.59999V2.79999C10.3999 2.57909 10.2209 2.40002 9.99997 2.39999H5.99997ZM6.39997 3.19999H9.59997V3.43437L8.91716 4.11718C8.84212 4.19222 8.79999 4.29391 8.79997 4.39999V6.79999C8.80008 6.8923 8.83213 6.98173 8.8906 7.05312L12.4906 11.4531L12.4922 11.4563C12.835 11.8677 12.8373 12.1923 12.7422 12.4235C12.6471 12.6546 12.4333 12.8 12.2 12.8H3.79997C3.56664 12.8 3.36494 12.6593 3.27185 12.4266C3.17877 12.1939 3.18359 11.8611 3.51247 11.45L7.10935 7.05312C7.16783 6.98176 7.19987 6.8923 7.19997 6.79999V4.39999C7.19996 4.29391 7.15781 4.19219 7.08279 4.11718L6.39997 3.43437V3.19999ZM6.39997 9.59999C6.28455 9.59968 6.17461 9.64928 6.09841 9.73593L4.69841 11.3359C4.471 11.5948 4.65545 12.0009 4.99997 12H11C11.3445 12.0008 11.5289 11.5948 11.3015 11.3359L9.90154 9.73593C9.82534 9.64924 9.7154 9.59968 9.59997 9.59999H6.39997Z" fill="white"/>
</svg>
