<svg width="16" height="16" viewBox="0 0 16 16" fill="none" xmlns="http://www.w3.org/2000/svg">
<path d="M2.40314 5.59843V7.19843H3.20314V6.39843H4.00314V5.59843H2.40314ZM2.40314 8.79843V10.3984H3.20314V8.79843H2.40314ZM2.40314 11.9984V13.5984H4.00314V12.7984H3.20314V11.9984H2.40314ZM9.60314 11.9984V12.7984H8.80314V13.5984H10.4031V11.9984H9.60314ZM5.60314 12.7984V13.5984H7.20314V12.7984H5.60314Z" fill="white"/>
<path d="M5.9969 2.38907C5.77538 2.38909 5.59606 2.56912 5.5969 2.79063L5.60329 5.99532C5.60332 6.21622 5.78239 6.39529 6.00329 6.39532H9.60329V9.99688C9.60332 10.2178 9.78239 10.3969 10.0033 10.3969H13.2033C13.4242 10.3969 13.6033 10.2178 13.6033 9.99688V2.79688C13.6033 2.57598 13.4242 2.39691 13.2033 2.39688L5.9969 2.38907Z" fill="white"/>
</svg>
