<svg width="16" height="16" viewBox="0 0 16 16" fill="none" xmlns="http://www.w3.org/2000/svg">
<path d="M11.3109 2.42656C10.914 2.39048 10.48 2.55434 10.1172 2.91719L8.71718 4.31719C8.56102 4.4734 8.56102 4.72659 8.71718 4.88281L11.1172 7.28281C11.2734 7.43896 11.5266 7.43896 11.6828 7.28281L13.0828 5.88281C13.4456 5.51995 13.6095 5.08596 13.5734 4.68906C13.5373 4.29216 13.3299 3.96433 13.0828 3.71719L12.2828 2.91719C12.0357 2.67005 11.7078 2.46265 11.3109 2.42656ZM7.79374 5.4C7.68983 5.40165 7.59064 5.44368 7.51718 5.51719L7.31718 5.71719C7.24219 5.7922 7.20006 5.89393 7.20006 6C7.20006 6.10607 7.24219 6.20779 7.31718 6.28281L9.71718 8.68281C9.79219 8.7578 9.89392 8.79995 9.99999 8.79995C10.1061 8.79995 10.2078 8.7578 10.2828 8.68281L10.4828 8.48281C10.5578 8.40779 10.5999 8.30607 10.5999 8.2C10.5999 8.09393 10.5578 7.9922 10.4828 7.91719L8.0828 5.51719C8.04492 5.47929 7.99981 5.44938 7.95016 5.42925C7.9005 5.40912 7.84731 5.39918 7.79374 5.4ZM6.79218 7.19687C6.68837 7.19976 6.58975 7.24291 6.51718 7.31719L3.11718 10.7172C2.44647 11.3879 2.26214 12.123 2.47499 12.6906C2.68784 13.2582 3.23332 13.6 3.79999 13.6H7.19999C8.00032 13.6 8.79999 12.9617 8.79999 12V9.2C8.80074 9.14699 8.79095 9.09435 8.77118 9.04516C8.75141 8.99598 8.72207 8.95122 8.68485 8.91347C8.64763 8.87573 8.60329 8.84575 8.55438 8.82529C8.50548 8.80483 8.453 8.79429 8.39999 8.79429C8.34698 8.79429 8.2945 8.80483 8.24559 8.82529C8.19669 8.84575 8.15234 8.87573 8.11512 8.91347C8.07791 8.95122 8.04856 8.99598 8.0288 9.04516C8.00903 9.09435 7.99924 9.14699 7.99999 9.2V12C7.99999 12.532 7.59645 12.8 7.19999 12.8H3.79999C3.56665 12.8 3.31214 12.6418 3.22499 12.4094C3.13784 12.177 3.15355 11.8121 3.6828 11.2828L7.0828 7.88281C7.14032 7.82658 7.17955 7.75431 7.19537 7.67544C7.2112 7.59657 7.20288 7.51474 7.1715 7.44067C7.14011 7.3666 7.08713 7.30375 7.01946 7.26025C6.95179 7.21676 6.87259 7.19467 6.79218 7.19687Z" fill="white"/>
</svg>
