<svg width="16" height="16" viewBox="0 0 16 16" fill="none" xmlns="http://www.w3.org/2000/svg">
<path d="M13.2 2.39999C13.4209 2.40002 13.6 2.57909 13.6 2.79999V5.99999C13.6 6.2209 13.4209 6.39997 13.2 6.39999H10C9.7791 6.39997 9.60003 6.2209 9.60001 5.99999V2.79999C9.60003 2.57909 9.7791 2.40002 10 2.39999H13.2Z" fill="white"/>
<path opacity="0.6" d="M12.8 13.2C12.8 13.3061 12.7578 13.4078 12.6828 13.4828C12.6078 13.5578 12.5061 13.6 12.4 13.6H9.99999C9.8939 13.6 9.79216 13.5578 9.71715 13.4828C9.64214 13.4078 9.6 13.3061 9.59999 13.2V12.7938H5.59999V13.2C5.59998 13.3061 5.55784 13.4078 5.48283 13.4828C5.40781 13.5578 5.30607 13.6 5.19999 13.6H2.79999C2.69391 13.6 2.59216 13.5578 2.51715 13.4828C2.44214 13.4078 2.4 13.3061 2.39999 13.2V10.8C2.4 10.6939 2.44214 10.5922 2.51715 10.5172C2.59216 10.4422 2.69391 10.4 2.79999 10.4H3.19999V6.40001H2.79999C2.69391 6.4 2.59216 6.35783 2.51715 6.28282C2.44214 6.20781 2.4 6.10609 2.39999 6.00001V3.60001C2.4 3.49392 2.44214 3.39221 2.51715 3.31719C2.59216 3.24218 2.69391 3.20002 2.79999 3.20001H5.19999C5.30607 3.20002 5.40781 3.24218 5.48283 3.31719C5.55784 3.39221 5.59998 3.49392 5.59999 3.60001V3.99376H8.39999C8.45299 3.99301 8.50561 4.0028 8.5548 4.02257C8.60398 4.04233 8.64876 4.07168 8.68651 4.10889C8.72426 4.14611 8.75424 4.19046 8.7747 4.23936C8.79515 4.28826 8.80568 4.34075 8.80568 4.39376C8.80568 4.44677 8.79515 4.49925 8.7747 4.54815C8.75424 4.59705 8.72426 4.6414 8.68651 4.67862C8.64876 4.71584 8.60398 4.74518 8.5548 4.76495C8.50561 4.78471 8.45299 4.79451 8.39999 4.79376H5.59999V6.00001C5.59998 6.10609 5.55784 6.20781 5.48283 6.28282C5.40781 6.35783 5.30607 6.4 5.19999 6.40001H3.99999V10.4H5.19999C5.30607 10.4 5.40781 10.4422 5.48283 10.5172C5.55784 10.5922 5.59998 10.6939 5.59999 10.8V11.9938H9.59999V10.8C9.6 10.6939 9.64214 10.5922 9.71715 10.5172C9.79216 10.4422 9.8939 10.4 9.99999 10.4H11.2V7.60001C11.1992 7.547 11.209 7.49436 11.2288 7.44517C11.2486 7.39599 11.2779 7.35123 11.3151 7.31348C11.3523 7.27574 11.3967 7.24576 11.4456 7.2253C11.4945 7.20484 11.547 7.19429 11.6 7.19429C11.653 7.19429 11.7055 7.20484 11.7544 7.2253C11.8033 7.24576 11.8476 7.27574 11.8849 7.31348C11.9221 7.35123 11.9514 7.39599 11.9712 7.44517C11.9909 7.49436 12.0007 7.547 12 7.60001V10.4H12.4C12.5061 10.4 12.6078 10.4422 12.6828 10.5172C12.7578 10.5922 12.8 10.6939 12.8 10.8V13.2ZM12 12.8V11.2H10.4V12.3313C10.4069 12.3737 10.4069 12.4169 10.4 12.4594V12.8H12ZM4.79999 12.8V11.2H3.19999V12.8H4.79999ZM4.79999 5.60001V4.00001H3.19999V5.60001H4.79999Z" fill="white"/>
</svg>
