<svg width="16" height="16" viewBox="0 0 16 16" fill="none" xmlns="http://www.w3.org/2000/svg">
<path fill-rule="evenodd" clip-rule="evenodd" d="M7.99999 6.4C7.12107 6.4 6.39999 7.12108 6.39999 8C6.39999 8.87892 7.12107 9.6 7.99999 9.6C8.87891 9.6 9.59999 8.87892 9.59999 8C9.59999 7.12108 8.87891 6.4 7.99999 6.4Z" fill="white"/>
<path opacity="0.9" fill-rule="evenodd" clip-rule="evenodd" d="M8.06406 3.9875C5.84345 3.9875 4.04843 5.79809 4.04843 8C4.04843 10.2019 5.84265 12.0185 8.06562 12.0125L12.8016 12C12.9076 12.0013 13.0127 11.9815 13.111 11.9418C13.2093 11.902 13.2987 11.8431 13.3741 11.7686C13.4494 11.694 13.5092 11.6052 13.5499 11.5073C13.5906 11.4094 13.6114 11.3044 13.6112 11.1984C13.611 11.0924 13.5897 10.9875 13.5486 10.8897C13.5075 10.792 13.4474 10.7034 13.3718 10.6292C13.2961 10.5549 13.2065 10.4964 13.1081 10.457C13.0096 10.4177 12.9044 10.3983 12.7984 10.4L8.06242 10.4125C6.70014 10.4165 5.64836 9.34628 5.64836 8C5.64836 6.65427 6.69854 5.58833 8.06242 5.5875L12.7984 5.6C12.9044 5.6017 13.0097 5.58231 13.1081 5.54297C13.2066 5.50363 13.2962 5.44514 13.3719 5.37085C13.4475 5.29657 13.5076 5.20797 13.5487 5.11026C13.5898 5.01254 13.6111 4.90763 13.6113 4.80161C13.6115 4.6956 13.5907 4.59061 13.5499 4.49273C13.5092 4.39485 13.4495 4.30603 13.3741 4.23145C13.2988 4.15686 13.2094 4.09799 13.1111 4.05826C13.0128 4.01852 12.9076 3.99873 12.8016 4L8.06569 3.9875C8.06516 3.9875 8.06459 3.9875 8.06406 3.9875Z" fill="white"/>
<path opacity="0.6" d="M8.00001 2.39999C5.99996 2.39999 4.15003 3.46789 3.15001 5.19999C2.14999 6.93208 2.14999 9.06789 3.15001 10.8C4.15003 12.5321 5.99996 13.6 8.00001 13.6H13.2C13.253 13.6007 13.3056 13.5909 13.3548 13.5712C13.404 13.5514 13.4488 13.5221 13.4865 13.4849C13.5243 13.4476 13.5543 13.4033 13.5747 13.3544C13.5952 13.3055 13.6057 13.253 13.6057 13.2C13.6057 13.147 13.5952 13.0945 13.5747 13.0456C13.5543 12.9967 13.5243 12.9523 13.4865 12.9151C13.4488 12.8779 13.404 12.8486 13.3548 12.8288C13.3056 12.809 13.253 12.7992 13.2 12.8H8.00001C6.28449 12.8 4.70151 11.8857 3.84376 10.4C2.986 8.91431 2.986 7.08567 3.84376 5.59999C4.70151 4.11431 6.28449 3.19999 8.00001 3.19999H13.2C13.253 3.20074 13.3056 3.19095 13.3548 3.17118C13.404 3.15141 13.4488 3.12207 13.4865 3.08485C13.5243 3.04763 13.5543 3.00329 13.5747 2.95438C13.5952 2.90548 13.6057 2.853 13.6057 2.79999C13.6057 2.74698 13.5952 2.6945 13.5747 2.64559C13.5543 2.59669 13.5243 2.55234 13.4865 2.51512C13.4488 2.47791 13.404 2.44856 13.3548 2.4288C13.3056 2.40903 13.253 2.39924 13.2 2.39999H8.00001Z" fill="white"/>
</svg>
