<svg xmlns="http://www.w3.org/2000/svg" xmlns:xlink="http://www.w3.org/1999/xlink" fill="none" version="1.1" width="16" height="16" viewBox="0 0 16 16"><defs><clipPath id="master_svg0_0_1593"><rect x="0" y="0" width="16" height="16" rx="0"/></clipPath></defs><g clip-path="url(#master_svg0_0_1593)"><g><g><path d="" fill="currentColor" fill-opacity="1"/></g><g><path d="M10.304001752929688,6.451985234375C10.304001752929688,6.451985234375,10.209341752929687,6.357315234375,10.209341752929687,6.357315234375C9.763201752929687,5.927125234375,9.214871752929687,5.617625234375,8.616001752929687,5.457985234375C6.678001752929688,4.939315234375,4.816671752929688,6.037315234375,4.288001752929688,8.011315234375001C4.2593417529296875,8.117985234375,4.244001752929687,8.237985234375,4.218671752929687,8.538645234375C4.116001752929687,9.785315234375,3.8226717529296876,10.715315234375,3.0186717529296874,11.658615234375C4.5253417529296875,12.250615234375,6.310671752929688,12.668015234375,7.668001752929688,12.668015234375C8.474871752929687,12.667015234375,9.258871752929688,12.400115234375,9.898801752929687,11.908615234375C10.538741752929688,11.417245234375,10.998871752929688,10.728585234375,11.207971752929687,9.949315234375C11.372171752929688,9.337915234375,11.375271752929688,8.694445234375,11.216871752929688,8.081525234375C11.058371752929688,7.468615234375,10.743971752929687,6.907205234375,10.304001752929688,6.451985234375C10.304001752929688,6.451985234375,10.304001752929688,6.451985234375,10.304001752929688,6.451985234375C10.304001752929688,6.451985234375,10.304001752929688,6.451985234375,10.304001752929688,6.451985234375ZM8.860001752929687,4.143985234375C8.860001752929687,4.143985234375,12.152671752929688,1.583314234375,12.152671752929688,1.583314234375C12.280871752929688,1.483727734375,12.440971752929688,1.434334034375,12.602971752929687,1.444398644375C12.764971752929688,1.454463234375,12.917771752929687,1.523294534375,13.032671752929687,1.637980234375C13.032671752929687,1.637980234375,15.029371752929688,3.633985234375,15.029371752929688,3.633985234375C15.144171752929687,3.748895234375,15.213171752929687,3.901805234375,15.223171752929687,4.063975234375C15.233271752929687,4.226145234375,15.183771752929687,4.386405234375,15.083971752929687,4.514645234375C15.083971752929687,4.514645234375,12.523971752929688,7.806645234375,12.523971752929688,7.806645234375C12.704571752929688,8.542915234375,12.715371752929688,9.310585234375,12.555671752929687,10.051645234375C12.396071752929688,10.792715234375,12.070171752929687,11.487815234375,11.602471752929688,12.084415234375C11.134771752929687,12.681115234375,10.537741752929687,13.163715234375,9.856201752929687,13.495815234375C9.174741752929688,13.827815234375,8.426741752929686,14.000715234375,7.668671752929687,14.001315234375C5.333341752929687,14.001315234375,2.3333417529296874,13.000015234375,0.6666717529296875,12.000015234375C3.3200017529296875,9.999985234375,2.6980017529296876,8.793315234375001,3.0000017529296876,7.666645234375C3.7053417529296877,5.033315234374999,6.228001752929687,3.495315234375,8.859341752929687,4.143985234375C8.859341752929687,4.143985234375,8.860001752929687,4.143985234375,8.860001752929687,4.143985234375C8.860001752929687,4.143985234375,8.860001752929687,4.143985234375,8.860001752929687,4.143985234375ZM11.135371752929688,5.396645234375001C11.178671752929688,5.4386452343750005,11.221971752929688,5.481985234375,11.263971752929688,5.525985234375C11.263971752929688,5.525985234375,12.020671752929687,6.281985234375,12.020671752929687,6.281985234375C12.020671752929687,6.281985234375,13.670671752929687,4.160645234375,13.670671752929687,4.160645234375C13.670671752929687,4.160645234375,12.506671752929687,2.9966452343750003,12.506671752929687,2.9966452343750003C12.506671752929687,2.9966452343750003,10.385341752929687,4.646645234375001,10.385341752929687,4.646645234375001C10.385341752929687,4.646645234375001,11.135371752929688,5.396645234375001,11.135371752929688,5.396645234375001C11.135371752929688,5.396645234375001,11.135371752929688,5.396645234375001,11.135371752929688,5.396645234375001C11.135371752929688,5.396645234375001,11.135371752929688,5.396645234375001,11.135371752929688,5.396645234375001Z" fill="currentColor" fill-opacity="1"/></g></g></g></svg>