<svg width="16" height="16" viewBox="0 0 16 16" fill="none" xmlns="http://www.w3.org/2000/svg">
<path opacity="0.4" d="M3.55998 1.33331C2.10042 1.33331 1.33331 2.09953 1.33331 3.55287V4.82042C1.33331 6.27376 2.09953 7.03998 3.55287 7.03998H4.82042C6.27376 7.03998 7.03998 6.27376 7.03998 4.82042V3.55287C7.04709 2.09953 6.27998 1.33331 4.82665 1.33331H3.55998Z" fill="white"/>
<path d="M11.1796 1.33331C9.72624 1.33331 8.96002 2.09953 8.96002 3.55287V4.82042C8.96002 6.27376 9.72624 7.03998 11.1796 7.03998H12.4462C13.8996 7.03998 14.6667 6.27376 14.6667 4.82042V3.55287C14.6667 2.09953 13.8996 1.33331 12.4462 1.33331H11.1796Z" fill="#3ECF8E"/>
<path opacity="0.4" d="M11.1796 8.9538C9.72624 8.9538 8.96002 9.72002 8.96002 11.1734V12.44C8.96002 13.8934 9.72624 14.6605 11.1796 14.6605H12.4462C13.8996 14.6605 14.6667 13.8934 14.6667 12.44V11.1734C14.6667 9.72002 13.8996 8.9538 12.4462 8.9538H11.1796Z" fill="white"/>
<path d="M3.55998 8.9538C2.10042 8.9538 1.33331 9.72002 1.33331 11.1734V12.44C1.33331 13.9005 2.09953 14.6667 3.55287 14.6667H4.82042C6.27376 14.6667 7.03998 13.9005 7.03998 12.4471V11.1805C7.04709 9.72002 6.27998 8.9538 4.82665 8.9538H3.55998Z" fill="#3ECF8E"/>
</svg>
