<svg width="16" height="16" viewBox="0 0 16 16" fill="none" xmlns="http://www.w3.org/2000/svg">
<path d="M6 8C6 7.69358 6.05949 7.39017 6.17508 7.10707C6.29066 6.82398 6.46008 6.56675 6.67365 6.35008C6.88723 6.13341 7.14078 5.96154 7.41983 5.84428C7.69888 5.72702 7.99796 5.66667 8.3 5.66667C8.60204 5.66667 8.90112 5.72702 9.18017 5.84428C9.45922 5.96154 9.71277 6.13341 9.92635 6.35008C10.1399 6.56675 10.3093 6.82398 10.4249 7.10707C10.5405 7.39017 10.6 7.69358 10.6 8C10.6 8.61884 10.3577 9.21233 9.92635 9.64992C9.49501 10.0875 8.91 10.3333 8.3 10.3333C7.69 10.3333 7.10499 10.0875 6.67365 9.64992C6.24232 9.21233 6 8.61884 6 8ZM6.76667 13.4444C6.76667 13.0319 6.92821 12.6362 7.21577 12.3445C7.50333 12.0528 7.89333 11.8889 8.3 11.8889C8.70667 11.8889 9.09667 12.0528 9.38423 12.3445C9.67179 12.6362 9.83333 13.0319 9.83333 13.4444C9.83333 13.857 9.67179 14.2527 9.38423 14.5444C9.09667 14.8361 8.70667 15 8.3 15C7.89333 15 7.50333 14.8361 7.21577 14.5444C6.92821 14.2527 6.76667 13.857 6.76667 13.4444ZM6.76667 2.55556C6.76667 2.143 6.92821 1.74734 7.21577 1.45561C7.50333 1.16389 7.89333 1 8.3 1C8.70667 1 9.09667 1.16389 9.38423 1.45561C9.67179 1.74734 9.83333 2.143 9.83333 2.55556C9.83333 2.96811 9.67179 3.36378 9.38423 3.6555C9.09667 3.94722 8.70667 4.11111 8.3 4.11111C7.89333 4.11111 7.50333 3.94722 7.21577 3.6555C6.92821 3.36378 6.76667 2.96811 6.76667 2.55556Z" fill="currentColor"/>
</svg>
