<svg width="16" height="16" viewBox="0 0 16 16" fill="none" xmlns="http://www.w3.org/2000/svg">
<path d="M9.27887 4.35733C9.70007 4.35733 10.0087 4.43556 10.2048 4.592C10.4009 4.74844 10.4989 4.96178 10.4989 5.232C10.4989 5.39556 10.4735 5.552 10.4227 5.70133L9.42048 8.89067C9.39869 8.976 9.3878 9.05067 9.3878 9.11467C9.3878 9.20711 9.40595 9.28178 9.44227 9.33867C9.47858 9.38844 9.52941 9.43822 9.59477 9.488C9.64561 9.53778 9.68192 9.58044 9.7037 9.616C9.72549 9.64444 9.72912 9.68356 9.7146 9.73333C9.67829 9.82578 9.60566 9.89333 9.49673 9.936C9.3878 9.97867 9.22077 10 8.99564 10H6.51198C6.32317 10 6.18519 9.97156 6.09804 9.91467C6.01089 9.85067 5.98184 9.76889 6.01089 9.66933C6.03994 9.584 6.11619 9.50933 6.23965 9.44533C6.34858 9.38844 6.43936 9.32089 6.51198 9.24267C6.5846 9.16444 6.64633 9.04 6.69717 8.86933L7.64488 5.78667C7.66667 5.72267 7.67756 5.66933 7.67756 5.62667C7.67756 5.54844 7.6594 5.488 7.62309 5.44533C7.58678 5.39556 7.53232 5.34578 7.45969 5.296C7.38707 5.23911 7.33624 5.18933 7.30719 5.14667C7.27814 5.104 7.27451 5.04711 7.2963 4.976C7.33987 4.81244 7.56863 4.67022 7.98257 4.54933C8.39651 4.42133 8.82861 4.35733 9.27887 4.35733ZM10.0087 2C10.2919 2 10.528 2.09244 10.7168 2.27733C10.9056 2.45511 11 2.67556 11 2.93867C11 3.12356 10.9492 3.30489 10.8475 3.48267C10.7531 3.66044 10.6151 3.80622 10.4336 3.92C10.2593 4.02667 10.0632 4.08 9.84532 4.08C9.56935 4.08 9.33696 3.99111 9.14815 3.81333C8.96659 3.62844 8.87219 3.40089 8.86492 3.13067C8.86492 2.95289 8.91213 2.77867 9.00654 2.608C9.10094 2.43022 9.23529 2.28444 9.40959 2.17067C9.58388 2.05689 9.78359 2 10.0087 2Z" fill="currentColor"/>
<path d="M5 13H11" stroke="currentColor" stroke-width="2" stroke-linecap="round"/>
<path d="M2 11L14.5 2.5" stroke="currentColor" stroke-width="1.5" stroke-linecap="round"/>
</svg>
