<svg width="16" height="16" viewBox="0 0 16 16" fill="none" xmlns="http://www.w3.org/2000/svg">
<path d="M3.576 12.68C3.408 12.512 3.4 12.24 3.568 12.072L12.504 2.824C12.672 2.656 12.944 2.648 13.112 2.816C13.28 2.984 13.288 3.256 13.12 3.424L4.184 12.672C4.016 12.84 3.744 12.848 3.576 12.68ZM4.56232 4.36664L5.03184 3.89712L5.97648 4.84184L5.50696 5.31136L4.56232 4.36664ZM5.856 9.36L6.336 8.864C5.68 7.768 6.024 6.344 7.12 5.672C7.864 5.216 8.76 5.224 9.472 5.624L9.944 5.136C8.64 4.304 6.888 4.6 5.944 5.856C5.144 6.912 5.152 8.328 5.856 9.36ZM10.368 6.528C10.976 7.616 10.624 9 9.552 9.656L9.504 9.68C9.4 9.736 9.336 9.832 9.336 9.952V9.992H7.336V9.968C7.328 9.888 7.296 9.816 7.248 9.76L6.672 10.36V11.664C6.672 11.784 6.736 11.904 6.848 11.96L8.184 12.664C8.28 12.72 8.4 12.72 8.496 12.664L9.832 11.96C9.944 11.904 10.008 11.792 10.008 11.664V10.328C10.008 10.216 10.064 10.112 10.152 10.056C10.368 9.888 10.568 9.696 10.736 9.472C11.52 8.44 11.528 7.056 10.864 6.032L10.368 6.528ZM9.336 11.264C9.336 11.384 9.264 11.496 9.16 11.56L8.496 11.912C8.4 11.968 8.28 11.968 8.184 11.912L7.52 11.56C7.408 11.504 7.344 11.392 7.344 11.264V10.664H9.344V11.264H9.336ZM8 2.664H8.664V4H8V2.664ZM3.336 7.336H4.672V8H3.336V7.336ZM12 7.336H13.336V8H12V7.336Z" fill="currentColor"/>
</svg>
