<svg width="16" height="16" viewBox="0 0 16 16" fill="none" xmlns="http://www.w3.org/2000/svg">
<path fill-rule="evenodd" clip-rule="evenodd" d="M1 14.0266C1 14.5625 1.43716 15 1.97268 15V14.9891H14.0273C14.5628 14.9891 15 14.5516 15 14.0156V7.85781C15 7.77031 14.9454 7.67188 14.8798 7.60625L12.1475 5.09063C12.0929 5.04688 12.0164 5.01406 11.918 5.01406H4.0929C4.00546 5.01406 3.92896 5.04688 3.86339 5.10156L1.10929 7.61719C1.04372 7.68281 1 7.77031 1 7.86875V14.0266ZM1.98361 14.5625C1.6776 14.5625 1.42623 14.3219 1.42623 14.0266V7.96719H5.80874L5.8306 8.09844C5.9071 8.59063 6.13661 9.03906 6.49727 9.36719C6.91257 9.76094 7.45902 9.97969 8.02732 9.97969C8.59563 9.97969 9.13115 9.76094 9.55738 9.36719C9.91803 9.00625 10.1475 8.56875 10.224 8.09844L10.2459 7.96719H14.5738V14.0266C14.5738 14.3328 14.3333 14.5625 14.0383 14.5625H1.98361ZM6.14754 7.79219C6.14754 7.70469 6.07104 7.61719 5.98361 7.61719H1.74317L4.13661 5.42969H11.8962L14.2678 7.61719H10.071C9.98361 7.61719 9.9071 7.69375 9.9071 7.79219C9.9071 8.79844 9.04372 9.65156 8.02732 9.65156C7.01093 9.65156 6.14754 8.79844 6.14754 7.79219ZM2.80328 1.72188C2.80328 2.11563 3.13115 2.44375 3.52459 2.44375C3.91803 2.44375 4.2459 2.11563 4.2459 1.72188C4.2459 1.32812 3.91803 1 3.52459 1C3.13115 1 2.80328 1.32812 2.80328 1.72188ZM3.02186 1.72188C3.02186 1.44844 3.25137 1.21875 3.52459 1.21875C3.79781 1.21875 4.02732 1.44844 4.02732 1.72188C4.02732 1.99531 3.79781 2.225 3.52459 2.225C3.25137 2.225 3.02186 1.99531 3.02186 1.72188ZM10.6066 3.57031C10.6066 3.83281 10.8251 4.05156 11.0874 4.05156C11.3497 4.05156 11.5683 3.83281 11.5683 3.57031C11.5683 3.30781 11.3497 3.08906 11.0874 3.08906C10.8251 3.08906 10.6066 3.30781 10.6066 3.57031ZM10.8251 3.58125C10.8251 3.43906 10.9454 3.31875 11.0874 3.31875C11.2295 3.31875 11.3497 3.43906 11.3497 3.58125C11.3497 3.72344 11.2295 3.84375 11.0874 3.84375C10.9454 3.84375 10.8251 3.72344 10.8251 3.58125ZM5.86339 3.34063C5.86339 3.40625 5.9071 3.45 5.97268 3.45C6.02732 3.45 6.08197 3.40625 6.08197 3.34063V3.19832H6.21331C6.27888 3.19832 6.3226 3.15457 6.3226 3.08895C6.3226 3.02332 6.27888 2.97957 6.21331 2.97957H6.08197V2.84844C6.08197 2.78281 6.03825 2.73906 5.97268 2.73906C5.9071 2.73906 5.86339 2.78281 5.86339 2.84844V2.97957H5.72151C5.65593 2.97957 5.61222 3.02332 5.61222 3.08895C5.61222 3.15457 5.65593 3.19832 5.72151 3.19832H5.86339V3.34063ZM7.22945 12.8015C7.22945 12.364 7.57917 12.025 8.01633 12.025C8.44256 12.025 8.80322 12.3859 8.78136 12.8015V12.8125C8.78136 12.9 8.71579 12.9656 8.62835 12.9656C8.54092 12.9656 8.47535 12.9 8.47535 12.8125V12.8015C8.47535 12.55 8.2677 12.3312 8.0054 12.3312C7.74311 12.3312 7.53546 12.55 7.53546 12.8015V12.8125C7.53546 12.9 7.46988 12.9656 7.38245 12.9656C7.29502 12.9656 7.22945 12.9 7.22945 12.8125V12.8015ZM5.57917 10.9968C5.65568 10.7671 5.97262 10.7671 6.1912 10.8109C6.49721 10.8765 6.94529 11.2593 6.90158 11.5984C6.86879 11.7406 6.71579 11.8281 6.47535 11.7843C6.20283 11.7409 6.01806 11.7397 5.88523 11.7388C5.78369 11.7381 5.7125 11.7377 5.65568 11.7187C5.52453 11.664 5.48081 11.4671 5.69939 11.3906C5.82224 11.3476 5.95543 11.3598 6.05631 11.3691C6.13492 11.3763 6.19391 11.3817 6.21305 11.3578C6.22398 11.3359 6.13655 11.2484 5.97262 11.2046C5.93046 11.1935 5.88739 11.1842 5.8459 11.1753C5.68303 11.1401 5.54433 11.1102 5.57917 10.9968ZM9.53546 11.7953C9.27316 11.839 9.14201 11.7515 9.10923 11.6093C9.05458 11.2593 9.50267 10.8765 9.81961 10.8109C10.0491 10.7562 10.3661 10.7671 10.4316 10.9968C10.4696 11.1204 10.3013 11.1531 10.1202 11.1883L10.1201 11.1883C10.0929 11.1936 10.0653 11.1989 10.0382 11.2046C9.86333 11.2375 9.76497 11.325 9.79775 11.3687C9.82179 11.3928 9.88179 11.3872 9.96006 11.3799C10.0597 11.3707 10.189 11.3586 10.3114 11.4015C10.5191 11.4781 10.4863 11.6859 10.3551 11.7296C10.2983 11.7486 10.2271 11.7491 10.1256 11.7498C9.99275 11.7506 9.80798 11.7519 9.53546 11.7953ZM1.9838 5.12332C1.91823 5.12332 1.87451 5.07957 1.87451 5.01395V4.64185H1.50284C1.43727 4.64185 1.39355 4.59813 1.39355 4.53256C1.39355 4.46698 1.43727 4.42327 1.50284 4.42327H1.87451V4.05145C1.87451 3.98582 1.91823 3.94207 1.9838 3.94207C2.04938 3.94207 2.09309 3.98582 2.09309 4.05145V4.42327H2.46459C2.53017 4.42327 2.57388 4.46698 2.57388 4.53256C2.57388 4.59813 2.53017 4.64185 2.46459 4.64185H2.09309V5.01395C2.09309 5.07957 2.04938 5.12332 1.9838 5.12332ZM13.787 5.10086C13.787 5.16644 13.8307 5.21015 13.8963 5.21015C13.9619 5.21015 14.0056 5.16644 14.0056 5.10086V4.86103H14.2457C14.3112 4.86103 14.355 4.81728 14.355 4.75166C14.355 4.68603 14.3112 4.64228 14.2457 4.64228H14.0056V4.40141C14.0056 4.33584 13.9619 4.29212 13.8963 4.29212C13.8307 4.29212 13.787 4.33584 13.787 4.40141V4.64228H13.5462C13.4806 4.64228 13.4369 4.68603 13.4369 4.75166C13.4369 4.81728 13.4806 4.86103 13.5462 4.86103H13.787V5.10086ZM12.6938 3.31884C12.6282 3.31884 12.5845 3.27509 12.5845 3.20947V2.77179H12.1474C12.0818 2.77179 12.0381 2.72808 12.0381 2.6625C12.0381 2.59693 12.0818 2.55321 12.1474 2.55321H12.5845V2.10478C12.5845 2.03916 12.6282 1.99541 12.6938 1.99541C12.7593 1.99541 12.8031 2.03916 12.8031 2.10478V2.55321H13.2403C13.3058 2.55321 13.3496 2.59693 13.3496 2.6625C13.3496 2.72808 13.3058 2.77179 13.2403 2.77179H12.8031V3.20947C12.8031 3.27509 12.7593 3.31884 12.6938 3.31884Z" fill="currentColor"/>
</svg>
