<svg width="16" height="16" viewBox="0 0 16 16" fill="none" xmlns="http://www.w3.org/2000/svg">
<path d="M14.8139 3.17515C14.5676 2.92886 14.1915 2.95473 13.9217 3.17515C11.8325 4.88239 5.45611 9.73169 5.45611 9.73169C5.45611 9.73169 2.87771 8.62031 2.07693 8.26039C1.75914 8.11758 1.43118 8.01404 1.18472 8.26039C0.938426 8.50669 0.938426 8.90611 1.18472 9.15237C1.18472 9.15237 4.98147 12.9688 4.99968 12.987C5.12549 13.1128 5.29111 13.1724 5.45611 13.1697C5.62102 13.1724 5.78664 13.1128 5.91254 12.987C5.93064 12.9688 12.5872 6.29576 14.8139 4.06714C15.0601 3.8207 15.0603 3.42145 14.8139 3.17515Z" fill="currentColor"/>
</svg>
