<svg width="16" height="16" viewBox="0 0 16 16" fill="none" xmlns="http://www.w3.org/2000/svg">
<path d="M2.79999 2.39999C2.57909 2.40002 2.40002 2.57909 2.39999 2.79999V4.39999C2.40002 4.6209 2.57909 4.79997 2.79999 4.79999H5.99999C6.2209 4.79997 6.39997 4.6209 6.39999 4.39999V2.79999C6.39997 2.57909 6.2209 2.40002 5.99999 2.39999H2.79999ZM8.39999 7.19999C8.17909 7.20002 8.00002 7.37909 7.99999 7.59999V9.19999C8.00002 9.4209 8.17909 9.59997 8.39999 9.59999H13.2C13.4209 9.59997 13.6 9.4209 13.6 9.19999V7.59999C13.6 7.37909 13.4209 7.20002 13.2 7.19999H8.39999ZM8.39999 11.2C8.17909 11.2 8.00002 11.3791 7.99999 11.6V13.2C8.00002 13.4209 8.17909 13.6 8.39999 13.6H13.2C13.4209 13.6 13.6 13.4209 13.6 13.2V11.6C13.6 11.3791 13.4209 11.2 13.2 11.2H8.39999Z" fill="currentColor"/>
<path opacity="0.6" d="M3.99998 5.60001V12.4C4 12.5061 4.04214 12.6078 4.11715 12.6828C4.19217 12.7578 4.2939 12.8 4.39998 12.8H7.19998V12H4.79998V8.80001H7.19998V8.00001H4.79998V5.60001H3.99998Z" fill="currentColor"/>
</svg>
