<svg width="16" height="16" viewBox="0 0 16 16" fill="none" xmlns="http://www.w3.org/2000/svg">
<path d="M15 4.5V6.19531C15 6.22539 14.9754 6.25 14.9453 6.25H14.1797C14.1496 6.25 14.125 6.22539 14.125 6.19531V4.5H12.5938C12.4734 4.5 12.375 4.59844 12.375 4.71875V11.5C12.375 11.9826 11.9826 12.375 11.5 12.375H4.71875C4.59844 12.375 4.5 12.4734 4.5 12.5938V14.125H6.19531C6.22539 14.125 6.25 14.1496 6.25 14.1797V14.9453C6.25 14.9754 6.22539 15 6.19531 15H4.5C4.01738 15 3.625 14.6076 3.625 14.125V12.5938C3.625 12.4734 3.52656 12.375 3.40625 12.375H1.875C1.39238 12.375 1 11.9826 1 11.5V1.875C1 1.39102 1.39238 1 1.875 1H11.5C11.9826 1 12.375 1.39102 12.375 1.875V3.40625C12.375 3.52656 12.4734 3.625 12.5938 3.625H14.125C14.6076 3.625 15 4.01602 15 4.5ZM14.125 15H12.4297C12.3996 15 12.375 14.9754 12.375 14.9453V14.1797C12.375 14.1496 12.3996 14.125 12.4297 14.125H13.9062C14.0266 14.125 14.125 14.0266 14.125 13.9062V12.4297C14.125 12.3996 14.1496 12.375 14.1797 12.375H14.9453C14.9754 12.375 15 12.3996 15 12.4297V14.125C15 14.6076 14.6076 15 14.125 15Z" fill="currentColor"/>
<path d="M11.0078 15H7.61719C7.58711 15 7.5625 14.9754 7.5625 14.9453V14.1797C7.5625 14.1496 7.58711 14.125 7.61719 14.125H11.0078C11.0379 14.125 11.0625 14.1496 11.0625 14.1797V14.9453C11.0625 14.9754 11.0379 15 11.0078 15ZM14.9453 11.0625H14.1797C14.1496 11.0625 14.125 11.0379 14.125 11.0078V7.61719C14.125 7.58711 14.1496 7.5625 14.1797 7.5625H14.9453C14.9754 7.5625 15 7.58711 15 7.61719V11.0078C15 11.0379 14.9754 11.0625 14.9453 11.0625Z" fill="currentColor"/>
</svg>
