<svg width="16" height="16" viewBox="0 0 16 16" fill="none" xmlns="http://www.w3.org/2000/svg">
<path d="M5.45455 2H2.27273C1.93518 2 1.61146 2.13696 1.37277 2.38076C1.13409 2.62456 1 2.95522 1 3.3V13.7C1 14.0448 1.13409 14.3754 1.37277 14.6192C1.61146 14.863 1.93518 15 2.27273 15H5.45455C5.79209 15 6.11582 14.863 6.3545 14.6192C6.59318 14.3754 6.72727 14.0448 6.72727 13.7V3.3C6.72727 2.95522 6.59318 2.62456 6.3545 2.38076C6.11582 2.13696 5.79209 2 5.45455 2ZM13.7273 2H10.5455C10.2079 2 9.88418 2.13696 9.6455 2.38076C9.40682 2.62456 9.27273 2.95522 9.27273 3.3V13.7C9.27273 14.0448 9.40682 14.3754 9.6455 14.6192C9.88418 14.863 10.2079 15 10.5455 15H13.7273C14.0648 15 14.3885 14.863 14.6272 14.6192C14.8659 14.3754 15 14.0448 15 13.7V3.3C15 2.95522 14.8659 2.62456 14.6272 2.38076C14.3885 2.13696 14.0648 2 13.7273 2Z" fill="currentColor"/>
</svg>
