<svg width="16" height="16" viewBox="0 0 16 16" fill="none" xmlns="http://www.w3.org/2000/svg">
<path d="M13.4756 2C13.9115 2 14.2383 2.15599 14.5283 2.46582C14.8183 2.77566 14.9638 3.16393 14.9639 3.5918V5.99902H11.2637C10.8279 5.9991 10.5018 6.15517 10.2119 6.46484C9.92196 6.77468 9.77641 7.16296 9.77637 7.59082C9.77637 7.90282 9.85001 8.17323 9.95801 8.40723C10.032 8.60103 10.1757 8.79527 10.3936 8.95117C10.6115 9.10712 10.9018 9.18452 11.2637 9.18457H14.998V12.4082C14.998 12.6421 14.9616 12.8364 14.8896 13.0303C14.8176 13.224 14.7075 13.3783 14.5996 13.5342C14.4538 13.6899 14.3098 13.8059 14.1279 13.8838C13.946 13.9618 13.7658 14 13.5479 14H2.55762C2.33979 14 2.15943 13.9617 1.97754 13.8838C1.7957 13.8058 1.61562 13.69 1.46973 13.5342C1.32573 13.4182 1.2164 13.2613 1.1084 13.0674C1.0365 12.8736 1.00004 12.68 1 12.4463V3.5918C1.00004 3.12601 1.14559 2.77777 1.43555 2.46582C1.72554 2.15594 2.09029 2 2.48828 2H13.4756ZM11.2637 6.77734C11.4815 6.77734 11.6617 6.85304 11.8076 7.00879C11.9536 7.16264 12.0263 7.3569 12.0264 7.59082C12.0264 7.82271 11.9536 8.01685 11.8076 8.17285C11.6616 8.32873 11.4816 8.40723 11.2637 8.40723C11.0458 8.40716 10.8657 8.32878 10.7197 8.17285C10.5738 8.01898 10.502 7.82477 10.502 7.59082C10.502 7.35901 10.5738 7.16475 10.7197 7.00879C10.8656 6.85502 11.0458 6.77741 11.2637 6.77734Z" fill="currentColor"/>
</svg>
