<svg width="16" height="16" viewBox="0 0 16 16" fill="none" xmlns="http://www.w3.org/2000/svg">
<path d="M15 13.5471C15 13.7497 14.9666 13.9383 14.8998 14.114C14.8331 14.2892 14.7379 14.4436 14.6148 14.577C14.4912 14.7102 14.3474 14.814 14.183 14.8881C14.0185 14.9624 13.8386 14.9998 13.6432 15H2.44945C2.25409 15 2.0692 14.9628 1.89454 14.8881C1.71989 14.8136 1.56563 14.7097 1.43183 14.577C1.29799 14.4441 1.1926 14.2896 1.11561 14.114C1.03862 13.9381 1 13.7492 1 13.5471L1 5.57785C1 5.17298 1.13631 4.82953 1.40863 4.54745C1.681 4.26537 2.01267 4.12438 2.40309 4.12438H13.5969C13.9876 4.12438 14.3193 4.26537 14.5913 4.54745C14.8637 4.82953 15 5.17298 15 5.57785V7.74981H11.5001C11.1092 7.74981 10.7778 7.88822 10.5054 8.16515C10.2331 8.44213 10.0968 8.783 10.0968 9.18738C10.107 9.4644 10.1636 9.70935 10.2667 9.92229C10.349 10.1033 10.485 10.2682 10.6751 10.4175C10.8652 10.5667 11.1403 10.6413 11.5001 10.6413H15V13.5481V13.5471ZM12.9032 3.38995H5.90323C6.45868 3.09184 6.98266 2.80422 7.4763 2.52723C7.90809 2.29289 8.33471 2.05859 8.75601 1.82461C9.17737 1.59053 9.50599 1.40948 9.74275 1.28127C10.1025 1.07881 10.4237 0.985763 10.7063 1.00176C10.9888 1.01774 11.2278 1.06832 11.4232 1.15349C11.6494 1.27078 11.8448 1.42505 12.0092 1.61662L12.9032 3.38995ZM10.8062 9.18742C10.8062 8.98496 10.8732 8.81452 11.0065 8.67633C11.1403 8.53805 11.3045 8.46876 11.5001 8.46876C11.6955 8.46876 11.8599 8.53803 11.9932 8.67633C12.127 8.81452 12.1935 8.98496 12.1935 9.18742C12.1935 9.38973 12.127 9.56284 11.9932 9.70655C11.8599 9.85034 11.6955 9.92229 11.5001 9.92229C11.3045 9.92229 11.1403 9.85036 11.0065 9.70655C10.8732 9.56284 10.8062 9.38973 10.8062 9.18742Z" fill="currentColor"/>
</svg>
