<svg width="16" height="16" viewBox="0 0 16 16" fill="none" xmlns="http://www.w3.org/2000/svg"><path d="M9.49641 2.64768C9.65292 2.67176 9.79251 2.75949 9.88208 2.89007L14.2237 9.21965C14.4037 9.48202 14.5 9.79272 14.5 10.1109C14.5 10.5261 14.3361 10.9246 14.0439 11.2196L11.2541 14.0362C10.9602 14.333 10.5598 14.5 10.1421 14.5C9.82732 14.5 9.51985 14.4051 9.25985 14.2276L2.8938 9.88327C2.76081 9.79251 2.67142 9.65066 2.64694 9.49153L1.50615 2.07635C1.45478 1.74245 1.74246 1.45476 2.07636 1.50613L9.49641 2.64768Z" stroke="currentColor" stroke-linecap="round" stroke-linejoin="round"></path><path d="M2.00002 1.9999L6.50002 6.4999" stroke="currentColor" stroke-linecap="round"></path><path d="M12.8691 7.93213L7.8966 12.9093" stroke="currentColor"></path><circle cx="7" cy="7" r="1" transform="rotate(90 7 7)" fill="currentColor"></circle></svg>