<svg width="16" height="16" viewBox="0 0 16 16" fill="none" xmlns="http://www.w3.org/2000/svg">
<path d="M2.4682 6.8027C2.43821 6.8027 2.40822 6.7957 2.37823 6.7887C2.34824 6.7887 2.31824 6.7747 2.28825 6.7677C2.25826 6.7537 2.23577 6.7397 2.20578 6.72571C2.15637 6.6959 2.11317 6.65795 2.07831 6.61371C2.06332 6.58572 2.04832 6.56472 2.03332 6.53672L2.01083 6.45972C2.00333 6.43173 2.00333 6.40373 2.00333 6.37573C2.00333 6.34773 2.00333 6.31973 2.01083 6.29174C2.01833 6.26374 2.02583 6.23574 2.03332 6.21474C2.04832 6.18674 2.06332 6.15875 2.07831 6.13775C2.09331 6.11675 2.1158 6.09575 2.13829 6.07475C2.16079 6.05375 2.18328 6.03275 2.20578 6.01876C2.23577 6.00476 2.25826 5.99076 2.28825 5.98376C2.31824 5.96976 2.34824 5.96276 2.37823 5.95576C2.40822 5.94876 2.43821 5.94876 2.4682 5.94876H10.9109V4.42287C10.9109 4.38087 10.9184 4.33888 10.9259 4.30388C10.9408 4.26188 10.9633 4.21988 10.9858 4.18489C11.0145 4.15116 11.0472 4.12063 11.0833 4.09389C11.1133 4.06589 11.1583 4.0449 11.1958 4.0309C11.2408 4.0169 11.2858 4.0029 11.3307 4.0029C11.3757 3.9959 11.4207 4.0029 11.4657 4.0099C11.5107 4.0169 11.5557 4.0309 11.6007 4.0519C11.6382 4.07289 11.6756 4.09389 11.7056 4.12189L13.8575 6.07475C13.8725 6.08875 13.8875 6.10275 13.9025 6.12375C13.9175 6.13775 13.9325 6.15175 13.94 6.17275C13.953 6.18991 13.9631 6.20878 13.97 6.22874C13.9775 6.24974 13.985 6.27074 13.985 6.29174C13.9925 6.31274 13.9925 6.33373 13.9925 6.35473C14 6.37573 14 6.39673 13.9925 6.41773C13.9925 6.43873 13.985 6.45972 13.985 6.48072C13.9775 6.49472 13.97 6.51572 13.9625 6.53672C13.955 6.55772 13.94 6.57172 13.9325 6.59272C13.9175 6.61371 13.9025 6.62771 13.8875 6.64171C13.8725 6.66271 13.8575 6.67671 13.8425 6.69071C13.8275 6.70471 13.8051 6.71871 13.7901 6.72571C13.7676 6.7397 13.7451 6.7467 13.7301 6.7607L13.6626 6.7817C13.6401 6.7887 13.6176 6.7887 13.5951 6.7957C13.5726 6.7957 13.5501 6.8027 13.5276 6.8027H2.4682ZM13.5276 8.2026C13.5576 8.2026 13.5876 8.2026 13.6176 8.2096C13.6476 8.2096 13.6776 8.2236 13.7076 8.2306C13.7376 8.2446 13.7601 8.2586 13.7901 8.2726C13.8395 8.3024 13.8827 8.34035 13.9175 8.38459C13.9325 8.41259 13.9475 8.43358 13.9625 8.46158C13.97 8.48958 13.985 8.51058 13.985 8.53858C13.9925 8.56658 14 8.59457 14 8.62257C14 8.65057 13.9925 8.67857 13.985 8.70657C13.985 8.73456 13.97 8.76256 13.9625 8.78356C13.9475 8.81156 13.9325 8.83956 13.9175 8.86055C13.9025 8.88155 13.88 8.90255 13.8575 8.92355C13.835 8.94455 13.8126 8.96555 13.7901 8.97955C13.7601 8.99354 13.7376 9.00754 13.7076 9.01454C13.6776 9.02854 13.6476 9.03554 13.6176 9.04254C13.5876 9.04954 13.5576 9.04954 13.5276 9.04954H5.08498V10.5754C5.08498 10.6174 5.07748 10.6594 5.06998 10.6944C5.05498 10.7364 5.03249 10.7784 5.01 10.8134C4.98001 10.8484 4.95001 10.8764 4.92002 10.9044C4.84613 10.9569 4.75765 10.9885 4.66509 10.9954C4.62011 11.0024 4.57512 11.0024 4.53013 10.9884C4.44032 10.9733 4.35705 10.9344 4.2902 10.8764L2.13829 8.92355C2.1233 8.90955 2.1083 8.89555 2.09331 8.87455C2.07675 8.86129 2.06389 8.84448 2.05582 8.82556C2.04288 8.8084 2.03277 8.78952 2.02583 8.76956C2.01729 8.74944 2.01222 8.72817 2.01083 8.70657C2.00333 8.68557 2.00333 8.66457 2.00333 8.64357C1.99583 8.62257 2.00333 8.60157 2.00333 8.58057C2.00333 8.55958 2.01083 8.53858 2.01083 8.51758C2.01833 8.50358 2.02583 8.48258 2.03332 8.46158C2.04082 8.44058 2.05582 8.42659 2.06332 8.40559C2.07831 8.38459 2.09331 8.37059 2.1083 8.35659C2.1233 8.33559 2.13829 8.32159 2.15329 8.30759C2.16829 8.29359 2.19078 8.2796 2.20578 8.2726C2.22827 8.2586 2.25076 8.2516 2.26576 8.2376L2.33324 8.2166C2.35573 8.2096 2.37823 8.2096 2.40072 8.2026H13.5276Z" fill="currentColor"/>
</svg>
