<svg width="16" height="16" viewBox="0 0 16 16" fill="none" xmlns="http://www.w3.org/2000/svg">
<path d="M13.7045 6.60337C14.0985 7.49281 14.0985 8.50861 13.7045 9.39802C13.2524 10.418 11.9047 11.1993 9.21038 12.7617C6.51603 14.3243 5.16831 15.1053 4.06286 14.9886L3.70605 14.9323C2.88475 14.756 2.15205 14.2806 1.65347 13.5914L1.53853 13.4141C1.00013 12.4868 1 10.9305 1 8.00069H2.36839C2.36839 9.59024 2.37 10.6876 2.44456 11.5041C2.51973 12.3266 2.6549 12.6378 2.75994 12.7833L2.89758 12.9524C3.23502 13.328 3.6999 13.5687 4.20584 13.6222H4.37288C4.57734 13.6034 4.90636 13.5169 5.46733 13.2571C6.20855 12.9138 7.15564 12.3659 8.52618 11.5712C9.89661 10.7764 10.8423 10.2268 11.5089 9.75372C12.0123 9.39635 12.2508 9.15306 12.3695 8.98458L12.4536 8.83963C12.6606 8.37263 12.6863 7.8473 12.5311 7.36578L12.4536 7.16176C12.3808 6.99771 12.1804 6.72439 11.5089 6.24767C11.1754 6.01101 10.772 5.75445 10.2808 5.4584L8.52618 4.42887C7.15579 3.63414 6.20851 3.08763 5.46733 2.7443C4.71994 2.39812 4.38363 2.36041 4.20584 2.37919L3.99204 2.41275C3.49922 2.51847 3.05911 2.80451 2.75994 3.21811L2.67709 3.36308C2.59107 3.55045 2.50098 3.87984 2.44456 4.49731C2.37 5.31378 2.36839 6.41107 2.36839 8.00069H1L1.01069 5.93625C1.03875 4.28579 1.14374 3.26741 1.53853 2.58724L1.65347 2.41006C2.15205 1.72077 2.88478 1.24537 3.70605 1.06912L4.06286 1.0114C4.89195 0.923868 5.85764 1.34197 7.42505 2.21543L9.21038 3.23959C11.736 4.70425 13.0777 5.48226 13.6083 6.4141L13.7045 6.60337Z" fill="currentColor"/>
</svg>
