<svg width="16" height="16" viewBox="0 0 16 16" fill="none" xmlns="http://www.w3.org/2000/svg">
<path d="M12.2954 7.00239C12.5682 7.6377 12.5682 8.36327 12.2954 8.99856C11.9824 9.7271 11.0494 10.2852 9.18411 11.4012C7.31879 12.5173 6.38575 13.0752 5.62044 12.9918L5.37342 12.9516C4.80483 12.8257 4.29757 12.4861 3.9524 11.9938L3.87283 11.8672C3.50009 11.2048 3.5 10.0932 3.5 8.00047L4.44735 8.00047C4.44735 9.13586 4.44846 9.9197 4.50008 10.5029C4.55212 11.0904 4.6457 11.3127 4.71842 11.4166L4.81371 11.5374C5.04732 11.8057 5.36916 11.9776 5.71943 12.0158L5.83507 12.0158C5.97662 12.0024 6.2044 11.9406 6.59277 11.755C7.10592 11.5098 7.7616 11.1185 8.71043 10.5508C9.65919 9.98313 10.3139 9.59054 10.7754 9.25263C11.1239 8.99737 11.289 8.82359 11.3712 8.70325L11.4294 8.59971C11.5727 8.26614 11.5905 7.89091 11.4831 7.54697L11.4294 7.40124C11.379 7.28406 11.2403 7.08883 10.7754 6.74832C10.5445 6.57928 10.2652 6.39602 9.92515 6.18456L8.71043 5.44918C7.7617 4.88152 7.10589 4.49116 6.59277 4.24592C6.07534 3.99865 5.84251 3.97172 5.71943 3.98513L5.57141 4.0091C5.23023 4.08462 4.92554 4.28893 4.71842 4.58436L4.66106 4.68791C4.60151 4.82174 4.53914 5.05702 4.50008 5.49807C4.44846 6.08126 4.44735 6.86503 4.44735 8.00047L3.5 8.00047L3.5074 6.52588C3.52683 5.34698 3.59951 4.61957 3.87283 4.13374L3.9524 4.00718C4.29757 3.51483 4.80485 3.17526 5.37342 3.04937L5.62044 3.00814C6.19443 2.94562 6.86298 3.24426 7.94811 3.86816L9.18411 4.5997C10.9326 5.64588 11.8615 6.2016 12.2288 6.8672L12.2954 7.00239Z" fill="currentColor"/>
</svg>
