<svg width="16" height="16" viewBox="0 0 16 16" fill="none" xmlns="http://www.w3.org/2000/svg">
<path fill-rule="evenodd" clip-rule="evenodd" d="M2.34315 13.6569C0.842855 12.1566 0 10.1217 0 8C0 5.87827 0.842855 3.84344 2.34315 2.34315C3.84344 0.842855 5.87827 0 8 0C10.1217 0 12.1566 0.842855 13.6569 2.34315C15.1571 3.84344 16 5.87827 16 8C16 10.1217 15.1571 12.1566 13.6569 13.6569C12.1566 15.1571 10.1217 16 8 16C5.87827 16 3.84344 15.1571 2.34315 13.6569ZM7.49143 11.3874L11.1451 8.95086V8.952C11.3017 8.84763 11.43 8.70624 11.5188 8.54036C11.6075 8.37449 11.654 8.18927 11.654 8.00114C11.654 7.81301 11.6075 7.62779 11.5188 7.46192C11.43 7.29605 11.3017 7.15465 11.1451 7.05029L7.49143 4.61371C7.31923 4.49883 7.11907 4.43287 6.9123 4.42287C6.70554 4.41288 6.49995 4.45924 6.31748 4.55698C6.13501 4.65473 5.98251 4.80021 5.87627 4.97787C5.77004 5.15553 5.71405 5.35871 5.71429 5.56571V10.4343C5.71384 10.6414 5.76968 10.8447 5.87583 11.0225C5.98199 11.2004 6.13447 11.346 6.31697 11.4439C6.49948 11.5418 6.70516 11.5882 6.91202 11.5783C7.11888 11.5683 7.31915 11.5024 7.49143 11.3874Z" fill="#3ECF8E"/>
</svg>
