<svg width="16" height="16" viewBox="0 0 16 16" fill="none" xmlns="http://www.w3.org/2000/svg">
<path fill-rule="evenodd" clip-rule="evenodd" d="M10.821 14.5849C11.1011 14.7249 11.3812 14.795 11.6263 14.795C11.8364 14.795 12.0815 14.7249 12.2565 14.5499C12.6417 14.3048 12.7817 13.7796 12.6767 13.1844L12.3266 11.1537C12.1865 10.4884 12.5366 9.47305 13.0268 8.98287L14.4974 7.54736C14.9175 7.1272 15.0926 6.63703 14.9525 6.18186C14.8125 5.7267 14.3573 5.4466 13.7621 5.34156L11.7314 5.06146C11.0311 4.99144 10.1908 4.36121 9.87569 3.73098L8.96537 1.87531C8.68526 1.31511 8.26511 1 7.80995 1C7.35479 1 6.93463 1.31511 6.65453 1.87531L5.74421 3.73098C5.42909 4.3262 4.55378 4.95642 3.88854 5.06146L1.85781 5.34156C1.57771 5.41159 1.40264 5.65668 1.43766 5.93678C1.50768 6.21688 1.75277 6.39194 2.03287 6.35693L4.0636 6.07683C5.07897 5.93678 6.23438 5.09647 6.68955 4.18615L7.59987 2.33048C7.73992 2.1204 7.84496 2.05038 7.84496 2.05038C7.87997 2.05038 7.98501 2.1204 8.09005 2.33048L9.00038 4.18615C9.45554 5.09647 10.611 5.93678 11.6263 6.07683L13.6571 6.35693C13.9021 6.39194 14.0072 6.49698 14.0072 6.49698C14.0072 6.53199 13.9722 6.63703 13.7971 6.81209L12.3266 8.24761C11.5913 8.94786 11.1361 10.3133 11.3112 11.3287L11.6613 13.3594C11.7314 13.6045 11.6613 13.7446 11.6613 13.7446C11.6613 13.7446 11.5213 13.7446 11.3112 13.6395L9.49055 12.6942C8.58023 12.204 7.14471 12.204 6.23438 12.6942L4.41373 13.6395C4.20365 13.7446 4.0636 13.7446 4.0636 13.7446C4.02859 13.7096 3.99358 13.6045 4.02859 13.3594L4.37872 11.3287C4.55378 10.3133 4.09861 8.94786 3.36335 8.24761L1.89282 6.81209C1.68275 6.60202 1.36763 6.60202 1.15756 6.81209C0.947481 7.02217 0.947481 7.33728 1.15756 7.54736L2.6631 9.01788C3.15327 9.50806 3.46839 10.5234 3.36335 11.1887L3.01322 13.2194C2.90819 13.8146 3.04824 14.3048 3.43338 14.5849C3.81851 14.83 4.3437 14.83 4.86889 14.5499L6.72456 13.6395C7.31977 13.3244 8.40516 13.3244 9.00038 13.6395L10.821 14.5849ZM10.1558 6.91713L11.2762 7.09219C11.7664 7.16222 11.8714 7.51234 11.5913 7.82746L10.786 8.63275C10.4709 8.94786 10.2608 9.6131 10.3309 10.0683L10.5059 11.1887C10.5759 11.6788 10.2958 11.8539 9.87569 11.6438L8.86033 11.1186C8.61524 10.9786 8.33514 10.9436 8.05504 10.9436C7.73992 10.9436 7.45982 11.0136 7.24975 11.1186L6.23438 11.6438C5.81423 11.8539 5.53413 11.6438 5.60416 11.1887L5.77922 10.0683C5.88426 9.6131 5.67418 8.94786 5.32406 8.63275L4.51877 7.82746C4.16864 7.51234 4.27368 7.16222 4.76385 7.09219L5.88426 6.91713C6.33942 6.8471 6.89962 6.42695 7.1097 6.0068L7.59987 4.99144C7.70491 4.74635 7.87997 4.64131 8.02002 4.67632C8.16008 4.67632 8.33514 4.74635 8.44018 4.99144L8.93035 6.0068C9.14043 6.46196 9.70063 6.8471 10.1558 6.91713Z" fill="#FBB03B"/>
</svg>
