<svg width="16" height="16" viewBox="0 0 16 16" fill="none" xmlns="http://www.w3.org/2000/svg">
<path opacity="0.6" d="M2.79999 2.39999C2.69391 2.4 2.59218 2.44214 2.51716 2.51716C2.44215 2.59217 2.4 2.69391 2.39999 2.79999V5.59999H3.19999V3.19999H5.59999V2.39999H2.79999ZM10.4 2.39999V3.19999H12.8V5.59999H13.6V2.79999C13.6 2.69391 13.5578 2.59217 13.4828 2.51716C13.4078 2.44214 13.3061 2.4 13.2 2.39999H10.4ZM2.39999 10.4V13.2C2.4 13.3061 2.44215 13.4078 2.51716 13.4828C2.59218 13.5578 2.69391 13.6 2.79999 13.6H5.59999V12.8H3.19999V10.4H2.39999ZM12.8 10.4V12.8H10.4V13.6H13.2C13.3061 13.6 13.4078 13.5578 13.4828 13.4828C13.5578 13.4078 13.6 13.3061 13.6 13.2V10.4H12.8Z" fill="currentColor"/>
<path d="M5.19999 4.8C4.97908 4.80003 4.80001 4.9791 4.79999 5.2V10.8C4.80001 11.0209 4.97908 11.2 5.19999 11.2H10.8C11.0209 11.2 11.2 11.0209 11.2 10.8V5.2C11.2 4.9791 11.0209 4.80003 10.8 4.8H5.19999Z" fill="currentColor"/>
</svg>
