<svg width="16" height="16" viewBox="0 0 16 16" fill="none" xmlns="http://www.w3.org/2000/svg">
<path d="M13 11.9004V13H3V11.9004H13ZM13.9004 11V5C13.9004 4.50294 13.4971 4.09961 13 4.09961H3C2.50294 4.09961 2.09961 4.50294 2.09961 5V11C2.09961 11.4971 2.50294 11.9004 3 11.9004V13L2.7959 12.9893C1.85435 12.8938 1.1062 12.1457 1.01074 11.2041L1 11V5C1 3.96435 1.78722 3.113 2.7959 3.01074L3 3H13L13.2041 3.01074C14.2128 3.113 15 3.96435 15 5V11L14.9893 11.2041C14.8938 12.1457 14.1457 12.8938 13.2041 12.9893L13 13V11.9004C13.4971 11.9004 13.9004 11.4971 13.9004 11Z" fill="currentColor"/>
<path d="M6 2C6 1.44772 6.44772 1 7 1C7.55228 1 8 1.44772 8 2V14C8 14.5523 7.55228 15 7 15C6.44772 15 6 14.5523 6 14L6 2Z" fill="#3ECF8E"/>
</svg>
