<svg width="16" height="16" viewBox="0 0 16 16" fill="none" xmlns="http://www.w3.org/2000/svg">
<path d="M7.5 15C4.67314 15 2 12.4845 2 9.8241C2 9.22004 2.08967 8.70562 2.28183 8.20362C2.59213 7.38993 2.62487 7.33476 4.32725 4.45927C4.79413 3.6704 5.57984 2.63605 6.66304 1.38655L6.78403 1.26657C7.24948 0.874892 7.96118 0.919024 8.36827 1.37138C9.15683 2.24575 9.74896 3.01117 10.1304 3.6442C10.3866 4.06621 11.0343 5.10884 11.3802 5.66325L11.6022 6.02183C12.1289 6.88241 12.4306 7.4382 12.6427 7.93607C12.8861 8.50841 13 9.10695 13 9.8241C13 12.4858 10.3269 15 7.5 15ZM7.52277 2.08715C6.48085 3.28838 5.73357 4.26757 5.30085 5.00127C3.61271 7.8547 3.61271 7.8547 3.33372 8.58288C3.18996 8.96076 3.12306 9.3552 3.12306 9.82548C3.12306 11.8873 5.29089 13.9119 7.5 13.9119C9.70911 13.9119 11.8755 11.8873 11.8755 9.82548C11.8755 9.249 11.7915 8.79527 11.6036 8.35395C11.4115 7.90573 11.1311 7.39131 10.6343 6.57762L10.4165 6.22732C10.0692 5.66877 9.41589 4.62062 9.15968 4.19447C8.81379 3.61937 8.26294 2.9105 7.52277 2.08715Z" fill="currentColor"/>
<path opacity="0.5" d="M7.77899 1.08496C7.43026 1.13599 7.18117 0.996696 6.90076 1.38285C6.83244 1.53318 6.11789 2.36342 5.65244 3.37295C5.06031 4.83207 4.5607 6.78907 5.47167 8.59711C6.94062 11.514 9.57532 12.2449 11.8342 11.1775C12.0392 11.0809 12.1403 11.0065 12.3182 10.8768C12.4919 9.94039 12.4164 9.12119 12.0947 8.42058C11.4172 6.95318 9.97956 4.50798 7.77899 1.08496Z" fill="currentColor" fill-opacity="0.403"/>
</svg>
