<svg width="16" height="16" viewBox="0 0 16 16" fill="none" xmlns="http://www.w3.org/2000/svg">
<path d="M14.1455 3.20391L8.45937 1.08203C8.31172 1.02734 8.15586 1 8.00137 1C7.84551 1 7.68965 1.02734 7.54063 1.0834L1.85176 3.21621C1.33906 3.40898 1 3.89844 1 4.44531V10.3666C1 10.8506 1.26523 11.2949 1.6918 11.5232L7.40117 14.5898C7.59531 14.6938 7.80859 14.7457 8.02187 14.7457C8.22285 14.7457 8.42383 14.6992 8.6084 14.6076L14.274 11.7748C14.7184 11.552 15 11.098 15 10.6004V4.43438C15 3.88613 14.6596 3.39531 14.1455 3.20391ZM7.84687 1.90234C7.89609 1.88457 7.94805 1.875 8 1.875C8.05195 1.875 8.10391 1.88457 8.15313 1.90234L13.1516 3.76719C13.2951 3.82051 13.2937 4.02422 13.1488 4.0748L8.43887 5.75645C8.15339 5.85898 7.84114 5.85898 7.55566 5.75645L2.86348 4.08027C2.71992 4.02832 2.71855 3.82598 2.86074 3.77266L7.84687 1.90234ZM14.125 10.6004C14.125 10.7672 14.032 10.9176 13.883 10.9914L8.91191 13.477C8.69316 13.5863 8.4375 13.4277 8.4375 13.183V7.15098C8.4375 6.87344 8.6125 6.62598 8.87363 6.53301L13.6875 4.81445C13.9008 4.73789 14.1264 4.89648 14.1264 5.12344V10.6004H14.125Z" fill="currentColor"/>
<path d="M7.30252 6.92819L2.40252 5.14637C2.20687 5.07522 2 5.22012 2 5.42831V10.8068C2 10.9245 2.06876 11.0313 2.17586 11.0799L7.07586 13.3072C7.27449 13.3975 7.5 13.2523 7.5 13.0341V7.21013C7.5 7.08398 7.42108 6.9713 7.30252 6.92819Z" fill="#3ECF8E"/>
</svg>
