<svg width="16" height="16" viewBox="0 0 16 16" fill="none" xmlns="http://www.w3.org/2000/svg">
<path d="M7.74286 1C10.2071 1 12.3854 2.37951 13.5616 4.45937L14.5837 4.20259C14.6387 4.18876 14.6962 4.1893 14.7509 4.20417C14.8057 4.21904 14.8558 4.24774 14.8967 4.28762C14.9375 4.32749 14.9678 4.37723 14.9847 4.43222C15.0016 4.48721 15.0046 4.54565 14.9933 4.6021L14.3347 7.90507C14.3101 8.02785 14.2516 8.14093 14.166 8.23106C14.0804 8.32118 13.9714 8.3846 13.8516 8.41385C13.7297 8.44373 13.6022 8.44051 13.4819 8.40449C13.3616 8.36847 13.2527 8.30093 13.1661 8.20863L10.7979 5.6801C10.7574 5.63677 10.7288 5.58339 10.7149 5.52529C10.7011 5.46719 10.7025 5.40641 10.7189 5.34902C10.7354 5.29163 10.7664 5.23966 10.8089 5.19828C10.8513 5.15691 10.9037 5.12759 10.9607 5.11327L12.1913 4.80356C11.2118 3.32332 9.57401 2.36585 7.74286 2.36585C4.76401 2.36585 2.34273 4.88483 2.34273 8C2.34273 11.1152 4.76401 13.6341 7.74286 13.6341C8.9393 13.6348 10.1006 13.2226 11.0369 12.465C11.1059 12.408 11.1854 12.3656 11.2707 12.3401C11.356 12.3146 11.4454 12.3067 11.5337 12.3166C11.622 12.3266 11.7076 12.3542 11.7853 12.3981C11.863 12.4419 11.9314 12.501 11.9865 12.5719C12.0417 12.6429 12.0824 12.7242 12.1063 12.8113C12.1303 12.8983 12.137 12.9894 12.1261 13.0791C12.1152 13.1688 12.0869 13.2555 12.0429 13.334C11.9988 13.4125 11.9398 13.4813 11.8694 13.5365C10.6961 14.4847 9.24168 15.0006 7.74319 15C4.01544 15 1 11.8626 1 8C1 4.13737 4.01544 1 7.74286 1Z" fill="currentColor"/>
</svg>
