<svg width="16" height="16" viewBox="0 0 16 16" fill="none" xmlns="http://www.w3.org/2000/svg">
<path d="M7.99993 2C4.68631 2 2 4.68559 2 7.99935C2 11.3131 4.68631 13.9999 7.99993 13.9999C11.3135 13.9999 14 11.3131 14 7.99935C14 4.68559 11.3137 2 7.99993 2ZM10.5941 8.44548H5.40579C5.30184 8.44548 5.20215 8.40418 5.12865 8.33068C5.05515 8.25718 5.01386 8.15749 5.01386 8.05354C5.01386 7.94959 5.05515 7.8499 5.12865 7.7764C5.20215 7.7029 5.30184 7.66161 5.40579 7.66161H10.5941C10.698 7.66161 10.7977 7.7029 10.8712 7.7764C10.9447 7.8499 10.986 7.94959 10.986 8.05354C10.986 8.15749 10.9447 8.25718 10.8712 8.33068C10.7977 8.40418 10.698 8.44548 10.5941 8.44548Z" fill="currentColor"/>
</svg>
