<svg width="16" height="16" viewBox="0 0 16 16" fill="none" xmlns="http://www.w3.org/2000/svg">
<path d="M8.82069 3.96996C8.82069 3.43056 8.60281 2.91403 8.2165 2.53758L7.76499 2.09761C7.50801 1.84719 7.1884 1.67052 6.83965 1.58611L4.68125 1.06373C4.51698 1.02397 4.34375 1.06988 4.22073 1.18576V1.18576C4.01276 1.38166 4.01091 1.71168 4.21666 1.9099L5.15386 2.81278C5.39928 3.04922 5.53793 3.37533 5.53793 3.71611V3.71611C5.53793 4.40885 4.97635 4.97043 4.28361 4.97043H4.23687C3.89506 4.97043 3.56698 4.83592 3.32355 4.59598L2.38453 3.67042C2.18492 3.47367 1.86377 3.47548 1.66639 3.67445V3.67445C1.5405 3.80136 1.49047 3.98505 1.53462 4.15827L2.0582 6.21254C2.14913 6.56929 2.33676 6.89402 2.60044 7.15096L3.06303 7.60174C3.4365 7.96568 3.93736 8.16935 4.45883 8.16935H5.70944C6.23092 8.16935 6.73177 8.37303 7.10525 8.73697L11.409 12.9308C12.0318 13.5377 13.0248 13.5377 13.6475 12.9308V12.9308C14.2935 12.3014 14.2935 11.2632 13.6475 10.6337L9.42488 6.51887C9.03857 6.14242 8.82069 5.62589 8.82069 5.08649V3.96996ZM11.9561 2.32904C12.5109 1.78847 13.3953 1.78847 13.9501 2.32904V2.32904C14.5255 2.88976 14.5255 3.81454 13.9501 4.37526L12.8383 5.45861C12.6658 5.62673 12.3907 5.62673 12.2182 5.45861V5.45861C12.0466 5.29134 11.7732 5.29038 11.6004 5.45642L10.9276 6.10277C10.7111 6.31075 10.3687 6.30954 10.1537 6.10003V6.10003C9.93065 5.88269 9.92938 5.52462 10.1509 5.3057L10.7936 4.67046C10.9615 4.5045 10.9605 4.23304 10.7914 4.06827V4.06827C10.6215 3.90268 10.6215 3.62958 10.7914 3.46399L11.9561 2.32904ZM4.82345 9.48656C4.53334 9.20386 4.0708 9.20386 3.78069 9.48656L2.46992 10.7639C1.66433 11.5489 1.67024 12.8494 2.47583 13.6344V13.6344C3.25248 14.3912 4.49639 14.3967 5.27305 13.6398L6.65793 12.2903C6.94367 12.0119 6.94367 11.5526 6.65793 11.2742L6.60966 11.2272C6.35037 10.9745 6.35037 10.5578 6.60966 10.3051L6.67666 10.2398C6.89922 10.0229 6.89922 9.66524 6.67666 9.44836V9.44836C6.46209 9.23927 6.11998 9.23927 5.90541 9.44836L5.81793 9.5336C5.55469 9.79012 5.13497 9.79012 4.87172 9.5336L4.82345 9.48656ZM4.92283 11.1452C5.2811 11.4944 5.2811 12.0702 4.92283 12.4193L4.498 12.8333C4.1526 13.1698 3.60188 13.1698 3.25648 12.8333V12.8333C2.89821 12.4841 2.89821 11.9083 3.25648 11.5592L3.68131 11.1452C4.02671 10.8086 4.57743 10.8086 4.92283 11.1452V11.1452Z" fill="currentColor"/>
</svg>
