<svg width="16" height="16" viewBox="0 0 16 16" fill="none" xmlns="http://www.w3.org/2000/svg">
<path d="M11.5526 7.9999C11.5526 6.86454 11.5515 6.08052 11.4998 5.4973C11.4477 4.90897 11.3542 4.68634 11.2815 4.58256C11.0742 4.28695 10.7696 4.08362 10.4284 4.00821L10.2804 3.98423C10.1571 3.97088 9.92439 3.99783 9.40699 4.24504C8.89375 4.49027 8.23799 4.88068 7.28916 5.4484L5.86803 6.2989V6.30465L5.44335 6.59614C4.8871 6.97708 4.6825 7.20005 4.59955 7.34405L4.57087 7.40062C4.40705 7.78193 4.40705 8.21787 4.57087 8.59918L4.59955 8.65575C4.68238 8.79925 4.88688 9.02158 5.44335 9.4027L5.86803 9.69419V9.71145L8.51138 11.2734L8.88702 11.4853C9.2362 11.6772 9.5111 11.8114 9.73914 11.8995C10.0376 12.0149 10.1928 12.0251 10.2804 12.0156L10.4284 11.9916C10.7208 11.927 10.9866 11.7682 11.1871 11.5381L11.2815 11.4163C11.3542 11.3124 11.4478 11.09 11.4998 10.5025C11.5515 9.91914 11.5526 9.13514 11.5526 7.9999ZM12.4935 9.47461C12.4723 10.7608 12.3868 11.5105 12.0476 11.9945L11.8903 12.1958C11.5008 12.643 10.9633 12.929 10.3794 12.9926L10.2711 12.9993C9.79409 13.0137 9.24141 12.7916 8.44014 12.3512L8.05154 12.1325L6.81545 11.4019V11.9283C6.81495 12.4701 6.39097 12.9102 5.86803 12.9102L5.7718 12.9044C5.32591 12.8575 4.97159 12.4901 4.92615 12.028L4.9206 11.9283V10.2225C4.35264 9.83353 3.98609 9.50888 3.78258 9.1534L3.70486 8.99902C3.46597 8.44295 3.43595 7.8168 3.61512 7.24337L3.70486 7.00174C3.88492 6.58286 4.27133 6.22196 4.9206 5.77728V4.07341C4.9206 3.53129 5.34498 3.09179 5.86803 3.09154L5.96517 3.09634C6.44292 3.14662 6.81545 3.56503 6.81545 4.07341V4.59886C8.68071 3.4828 9.61407 2.9249 10.3794 3.00812C11.0468 3.08086 11.653 3.4437 12.0476 4.00629C12.4998 4.65152 12.5 5.76802 12.5 7.9999L12.4935 9.47461Z" fill="currentColor"/>
</svg>
