<svg width="16" height="16" viewBox="0 0 16 16" fill="none" xmlns="http://www.w3.org/2000/svg">
<path fill-rule="evenodd" clip-rule="evenodd" d="M6.65127 13.6275H7.20174H8.11918C8.30267 13.902 8.48616 14.1765 8.66964 14.3595C8.66964 14.5425 8.5779 14.634 8.39441 14.634H6.37604C6.00906 14.634 5.73383 14.3595 5.73383 14.085L5.55034 12.5294C5.18337 12.3464 4.90814 12.1634 4.63291 11.9804L4.6329 11.9804L3.16499 12.5294H2.88976C2.61452 12.5294 2.43103 12.4379 2.33929 12.2549L1.05487 10.0588C0.963126 9.78431 0.963126 9.5098 1.23836 9.23529L2.43103 8.32026V7.31373L1.23836 6.30719C0.963126 6.12418 0.963126 5.75817 1.05487 5.48366L2.33929 3.28758C2.43103 3.10458 2.70627 3.01307 2.9815 3.01307H3.16499L4.6329 3.56209C4.90813 3.37908 5.18336 3.19608 5.4586 3.10458L5.73383 1.54902C5.73383 1.27451 6.00906 1 6.28429 1H8.85313C9.22011 1 9.49534 1.27451 9.49534 1.54902L9.67883 3.19608C10.0458 3.28758 10.321 3.47059 10.5963 3.65359L12.0642 3.10458H12.3394C12.6146 3.10458 12.7981 3.19608 12.8899 3.37908L14.1743 5.57516C14.3578 5.84967 14.266 6.12418 14.0826 6.21569L12.7981 7.22222V7.67974C12.4312 7.49673 12.1559 7.40523 11.7889 7.40523V6.94771C11.8807 6.76471 11.9724 6.5817 12.1559 6.39869L13.1651 5.66667L12.1559 4.01961L10.9633 4.47712C10.8715 4.56863 10.688 4.56863 10.5963 4.56863C10.4128 4.56863 10.2293 4.47712 10.0458 4.38562C9.90819 4.33987 9.79351 4.27124 9.67883 4.20261C9.56415 4.13399 9.44947 4.06536 9.31185 4.01961C9.03662 3.8366 8.85313 3.56209 8.76139 3.19608L8.5779 2.00654H6.65127L6.46778 3.28758C6.46778 3.56209 6.19255 3.8366 5.91732 4.01961C5.64208 4.11111 5.36685 4.29412 5.18336 4.47712C4.99987 4.56863 4.81639 4.66013 4.6329 4.66013C4.54115 4.66013 4.35766 4.66013 4.26592 4.56863L3.07324 4.11111L2.06406 5.75817L3.07324 6.5817C3.34848 6.85621 3.44022 7.13072 3.44022 7.49673V7.86275V8.22876C3.53197 8.50327 3.34848 8.86928 3.07324 9.3268L2.06406 10.0588L3.07324 11.7059L4.26592 11.2484C4.35766 11.1569 4.54115 11.1569 4.6329 11.1569C4.81639 11.1569 4.99987 11.2484 5.18336 11.3399C5.32098 11.3856 5.43566 11.4542 5.55034 11.5229C5.66502 11.5915 5.7797 11.6601 5.91732 11.7059C6.19255 11.7974 6.37604 12.0719 6.46778 12.4379L6.65127 13.6275ZM7.93567 11.5228C7.93567 13.4444 9.49532 15 11.5137 15C11.7889 15 12.0642 14.817 12.0642 14.3594C12.0642 14.0849 11.7889 13.8104 11.5137 13.8104C10.2293 13.8104 9.12834 12.7124 9.12834 11.4313C9.12834 10.1503 10.2293 9.05226 11.5137 9.05226C12.5229 9.05226 13.1651 9.69278 13.4403 10.2418H12.7064C12.6146 10.2418 12.4311 10.3333 12.3394 10.4248C12.2476 10.5163 12.1559 10.6078 12.1559 10.7908C12.1559 11.0653 12.4311 11.3398 12.7064 11.3398H14.4495C14.7247 11.3398 15 11.0653 15 10.7908V9.05226C15 8.77775 14.7247 8.50324 14.4495 8.50324C14.1743 8.50324 13.9908 8.68624 13.899 8.96075C13.2568 8.32023 12.4311 7.95422 11.5137 7.95422C9.49532 7.95422 7.93567 9.60128 7.93567 11.5228Z" fill="currentColor"/>
</svg>
