<svg width="16" height="16" viewBox="0 0 16 16" fill="none" xmlns="http://www.w3.org/2000/svg">
<path d="M8.13114 15.1216C9.06916 15.1216 9.99798 14.9369 10.8646 14.5779C11.7312 14.219 12.5187 13.6928 13.1819 13.0295C13.8452 12.3663 14.3714 11.5788 14.7303 10.7122C15.0893 9.84564 15.274 8.91681 15.274 7.97879C15.274 7.04078 15.0893 6.11195 14.7303 5.24534C14.3714 4.37873 13.8452 3.59131 13.1819 2.92803C12.5187 2.26476 11.7312 1.73862 10.8646 1.37965C9.99798 1.02069 9.06916 0.835938 8.13114 0.835938C6.23674 0.835938 4.41993 1.58849 3.08038 2.92803C1.74083 4.26758 0.988281 6.08439 0.988281 7.97879C0.988281 9.8732 1.74083 11.69 3.08038 13.0295C4.41993 14.3691 6.23674 15.1216 8.13114 15.1216ZM8.53799 8.60965C6.29799 9.90337 3.75514 9.69079 2.85686 8.13536C1.95857 6.57994 3.04657 4.27022 5.28657 2.97765C7.52657 1.68394 10.0695 1.89651 10.9666 3.45194C11.866 5.00737 10.778 7.31708 8.53799 8.60965Z" fill="currentColor"/>
<path d="M5.28613 2.97949C7.52613 1.68578 10.0697 1.89867 10.9668 3.4541C11.8659 5.00949 10.7778 7.31882 8.53809 8.61133C6.29815 9.90501 3.7548 9.693 2.85645 8.1377C1.95819 6.58234 3.04633 4.27209 5.28613 2.97949Z" fill="#3ECF8E" />
</svg>
