<svg width="16" height="16" viewBox="0 0 16 16" fill="none" xmlns="http://www.w3.org/2000/svg">
<path fill-rule="evenodd" clip-rule="evenodd" d="M5.5 5C6.05228 5 6.5 4.55228 6.5 4C6.5 3.44772 6.05228 3 5.5 3C4.94772 3 4.5 3.44772 4.5 4C4.5 4.55228 4.94772 5 5.5 5ZM5.5 9C6.05228 9 6.5 8.55229 6.5 8C6.5 7.44772 6.05228 7 5.5 7C4.94772 7 4.5 7.44772 4.5 8C4.5 8.55229 4.94772 9 5.5 9ZM6.5 12C6.5 12.5523 6.05228 13 5.5 13C4.94772 13 4.5 12.5523 4.5 12C4.5 11.4477 4.94772 11 5.5 11C6.05228 11 6.5 11.4477 6.5 12ZM10.5 5C11.0523 5 11.5 4.55228 11.5 4C11.5 3.44772 11.0523 3 10.5 3C9.94771 3 9.5 3.44772 9.5 4C9.5 4.55228 9.94771 5 10.5 5ZM11.5 8C11.5 8.55229 11.0523 9 10.5 9C9.94771 9 9.5 8.55229 9.5 8C9.5 7.44772 9.94771 7 10.5 7C11.0523 7 11.5 7.44772 11.5 8ZM10.5 13C11.0523 13 11.5 12.5523 11.5 12C11.5 11.4477 11.0523 11 10.5 11C9.94771 11 9.5 11.4477 9.5 12C9.5 12.5523 9.94771 13 10.5 13Z" fill="currentColor"/>
</svg>
