<svg width="16" height="16" viewBox="0 0 16 16" fill="none" xmlns="http://www.w3.org/2000/svg">
<path d="M5.98593 2.39999C5.83425 2.40559 5.69869 2.49618 5.63593 2.63437L2.61718 9.23437C2.61611 9.23677 2.61507 9.23998 2.61405 9.24238C2.527 9.44507 2.39999 9.68095 2.39999 9.99999C2.39999 10.6705 2.82093 11.2278 3.43749 11.5375C4.05406 11.8472 4.86959 11.9822 5.85624 11.9953C6.09254 11.9977 6.27967 11.7964 6.25937 11.5609C6.26013 11.5696 6.2505 11.2581 6.24687 10.9937C6.24327 10.7294 6.24063 10.4579 6.24063 10.4C6.24063 8.90585 7.05313 7.58468 8.25625 6.84999C8.43894 6.73857 8.5016 6.50311 8.39844 6.31562L6.34999 2.60624C6.27713 2.47445 6.13643 2.39474 5.98593 2.39999ZM12 2.39999C11.1211 2.39999 10.4 3.12108 10.4 3.99999C10.4 4.87891 11.1211 5.59999 12 5.59999C12.8789 5.59999 13.6 4.87891 13.6 3.99999C13.6 3.12108 12.8789 2.39999 12 2.39999ZM10.4 7.19999C8.63742 7.19999 7.19999 8.63742 7.19999 10.4C7.19999 12.1626 8.63742 13.6 10.4 13.6C12.1626 13.6 13.6 12.1626 13.6 10.4C13.6 8.63742 12.1626 7.19999 10.4 7.19999ZM10.4 7.99999C11.7302 7.99999 12.8 9.06977 12.8 10.4C12.8 11.7302 11.7302 12.8 10.4 12.8C9.06977 12.8 7.99999 11.7302 7.99999 10.4C7.99999 9.06977 9.06977 7.99999 10.4 7.99999ZM9.96718 8.82656C9.32698 8.82656 8.79999 9.35511 8.79999 9.99531C8.79924 10.0483 8.80904 10.1009 8.8288 10.1501C8.84857 10.1993 8.87791 10.2441 8.91513 10.2818C8.95235 10.3196 8.9967 10.3496 9.0456 10.37C9.0945 10.3905 9.14698 10.401 9.19999 10.401C9.253 10.401 9.30549 10.3905 9.35439 10.37C9.40329 10.3496 9.44764 10.3196 9.48486 10.2818C9.52208 10.2441 9.55142 10.1993 9.57119 10.1501C9.59095 10.1009 9.60074 10.0483 9.59999 9.99531C9.59999 9.78746 9.75933 9.62656 9.96718 9.62656C10.0202 9.62731 10.0728 9.61751 10.122 9.59775C10.1712 9.57798 10.216 9.54864 10.2537 9.51142C10.2914 9.4742 10.3214 9.42985 10.3419 9.38095C10.3623 9.33205 10.3729 9.27957 10.3729 9.22656C10.3729 9.17355 10.3623 9.12107 10.3419 9.07216C10.3214 9.02326 10.2914 8.97891 10.2537 8.94169C10.216 8.90448 10.1712 8.87513 10.122 8.85537C10.0728 8.8356 10.0202 8.82581 9.96718 8.82656Z" fill="currentColor"/>
</svg>
