<svg width="16" height="16" viewBox="0 0 16 16" fill="none" xmlns="http://www.w3.org/2000/svg">
<path d="M7.86622 1.65196L12.4968 4.31464C12.8437 4.51703 13.075 4.89288 13.075 5.32749V10.6808C13.075 11.0856 12.8437 11.4624 12.4968 11.6937L7.86622 14.3554C7.68705 14.4472 7.48924 14.4966 7.28798 14.5C7.08466 14.5 6.88228 14.4422 6.70974 14.3554L2.07825 11.6657C1.90135 11.5624 1.75477 11.4143 1.65327 11.2363C1.55176 11.0584 1.49891 10.8568 1.50002 10.6519V5.32656C1.50002 4.92179 1.73131 4.54594 2.07825 4.31464L6.70881 1.65196C6.88542 1.55234 7.08475 1.5 7.28751 1.5C7.49028 1.5 7.68961 1.55234 7.86622 1.65196ZM7.28798 5.38531C6.94553 5.38371 6.60616 5.44996 6.28946 5.58024C5.97276 5.71052 5.68501 5.90225 5.44282 6.14435C5.20062 6.38646 5.00879 6.67414 4.8784 6.9908C4.74801 7.30745 4.68163 7.6468 4.68312 7.98924C4.68151 8.33177 4.74779 8.67122 4.87813 8.98798C5.00847 9.30474 5.20028 9.59253 5.44248 9.83474C5.68469 10.0769 5.97248 10.2688 6.28925 10.3991C6.60601 10.5294 6.94545 10.5957 7.28798 10.5941C7.63043 10.5956 7.96977 10.5292 8.28643 10.3988C8.60308 10.2684 8.89077 10.0766 9.13287 9.83441C9.37498 9.59221 9.5667 9.30446 9.69698 8.98776C9.82726 8.67106 9.89351 8.33169 9.89191 7.98924C9.89339 7.64688 9.82705 7.3076 9.69671 6.99101C9.56638 6.67442 9.37463 6.38678 9.13254 6.14468C8.89044 5.90259 8.6028 5.71084 8.28621 5.58051C7.96962 5.45017 7.63035 5.38383 7.28798 5.38531Z" fill="currentColor" />
</svg>
