<svg width="16" height="16" viewBox="0 0 16 16" fill="none" xmlns="http://www.w3.org/2000/svg">
<path d="M1 11.6928H3.15385M15 11.6928H7.46154M1 4.1543H8.53846M15 4.1543H12.8462" stroke="currentColor" stroke-linecap="round"/>
<path d="M7.46199 11.6929C7.46199 10.5034 6.49768 9.53906 5.30814 9.53906C4.11861 9.53906 3.1543 10.5034 3.1543 11.6929C3.1543 12.8824 4.11861 13.8468 5.30814 13.8468C6.49768 13.8468 7.46199 12.8824 7.46199 11.6929Z" stroke="currentColor"/>
<path d="M12.8468 4.15385C12.8468 2.96431 11.8824 2 10.6929 2C9.50337 2 8.53906 2.96431 8.53906 4.15385C8.53906 5.34338 9.50337 6.30769 10.6929 6.30769C11.8824 6.30769 12.8468 5.34338 12.8468 4.15385Z" stroke="currentColor"/>
</svg>
