<svg xmlns="http://www.w3.org/2000/svg" xmlns:xlink="http://www.w3.org/1999/xlink" fill="currentColor" version="1.1" width="16" height="16" viewBox="0 0 16 16"><g><path d="M15.3679,9.17069C14.9715,8.97557,14.7734,8.58536,14.7734,8.09755C14.7734,8.09755,14.7734,7.90242,14.7734,7.90242C14.7734,7.51218,14.9715,7.12193,15.3679,6.92681C15.9625,6.63413,16.1608,5.85362,15.7644,5.26825C15.7644,5.26825,14.2779,2.63416,14.2779,2.63416C14.0797,2.24391,13.6834,2.04876,13.287,2.04876C13.0888,2.04876,12.8905,2.04877,12.6923,2.24389C12.2959,2.43901,11.8995,2.43901,11.5032,2.24389C11.4041,2.24389,11.4042,2.14635,11.3051,2.14635C10.9087,1.95123,10.7104,1.56099,10.7104,1.17074C10.7104,0.487817,10.2149,0,9.52125,0C9.52125,0,6.44931,0,6.44931,0C5.75564,0,5.26008,0.487817,5.26008,1.17074C5.26008,1.56099,5.06192,1.95123,4.66553,2.14635C4.56644,2.14635,4.56649,2.24389,4.46739,2.24389C4.2692,2.34145,4.07103,2.43902,3.87284,2.43902C3.67464,2.43902,3.47635,2.34145,3.27816,2.24389C2.68359,1.95121,1.98994,2.14635,1.69266,2.63416C1.69266,2.63416,0.206215,5.26825,0.206215,5.26825C-0.0910728,5.85362,0.107143,6.53657,0.602623,6.92681C0.999005,7.12193,1.19718,7.51218,1.19718,7.90242C1.19718,7.90242,1.19718,8.09755,1.19718,8.09755C1.19718,8.48779,0.999005,8.87801,0.602623,9.17069C0.0080474,9.46338,-0.190168,10.2439,0.206215,10.7317C0.206215,10.7317,1.69266,13.3659,1.69266,13.3659C1.89085,13.7561,2.28723,13.9512,2.68362,13.9512C2.88181,13.9512,3.07997,13.9512,3.27816,13.7561C3.67455,13.561,4.07101,13.561,4.46739,13.7561C4.56649,13.7561,4.56644,13.8537,4.66553,13.8537C5.06192,14.0488,5.26008,14.439,5.26008,14.8293C5.26008,15.5122,5.75564,16,6.44931,16C6.44931,16,9.52125,16,9.52125,16C10.2149,16,10.7104,15.5122,10.7104,14.8293C10.7104,14.439,10.9087,14.0488,11.3051,13.8537C11.4042,13.8537,11.4041,13.7561,11.5032,13.7561C11.7013,13.6585,11.8995,13.561,12.0977,13.561C12.2959,13.561,12.4941,13.561,12.6923,13.7561C13.2869,14.0488,13.9805,13.8537,14.3769,13.3659C14.3769,13.3659,15.8634,10.7317,15.8634,10.7317C16.1607,10.2439,15.9625,9.56094,15.3679,9.17069C15.3679,9.17069,15.3679,9.17069,15.3679,9.17069ZM7.93575,10.439C6.6475,10.439,5.55742,9.36584,5.55742,8.09755C5.55742,6.82926,6.6475,5.75606,7.93575,5.75606C9.224,5.75606,10.3141,6.82926,10.3141,8.09755C10.3141,9.36584,9.32308,10.439,7.93575,10.439C7.93575,10.439,7.93575,10.439,7.93575,10.439Z" fill="currentColor" fill-opacity="1"/></g></svg>