<svg width="16" height="16" viewBox="0 0 16 16" fill="none" xmlns="http://www.w3.org/2000/svg">
<path d="M13.5996 1C14.3724 1 15 1.62761 15 2.40039V5.59961C15 5.75872 14.9367 5.9119 14.8242 6.02441C14.7117 6.13693 14.5585 6.2002 14.3994 6.2002C14.2405 6.20014 14.088 6.13673 13.9756 6.02441C13.8631 5.9119 13.7998 5.75873 13.7998 5.59961V3.04785L3.04785 13.7998H5.59961C5.75873 13.7998 5.9119 13.8631 6.02441 13.9756C6.13673 14.088 6.20014 14.2405 6.2002 14.3994C6.2002 14.5585 6.13693 14.7117 6.02441 14.8242C5.9119 14.9367 5.75872 15 5.59961 15H2.40039C2.02919 15 1.67268 14.8523 1.41016 14.5898C1.14761 14.3273 1 13.9709 1 13.5996V10.3994C1.00009 10.2404 1.06335 10.088 1.17578 9.97559C1.28821 9.86316 1.44062 9.7999 1.59961 9.7998C1.75873 9.7998 1.9119 9.86307 2.02441 9.97559C2.13677 10.088 2.20011 10.2405 2.2002 10.3994V12.9521L12.9521 2.2002H10.3994C10.2405 2.20011 10.088 2.13677 9.97559 2.02441C9.86307 1.9119 9.7998 1.75873 9.7998 1.59961C9.7999 1.44062 9.86316 1.28821 9.97559 1.17578C10.088 1.06335 10.2404 1.00009 10.3994 1H13.5996ZM14.3994 9.7998C14.5585 9.7998 14.7117 9.86307 14.8242 9.97559C14.9365 10.088 14.9999 10.2405 15 10.3994V13.5996C15 13.9709 14.8524 14.3273 14.5898 14.5898C14.3273 14.8524 13.9709 15 13.5996 15H10.3994C10.2405 14.9999 10.088 14.9365 9.97559 14.8242C9.86307 14.7117 9.7998 14.5585 9.7998 14.3994C9.79986 14.2404 9.86315 14.088 9.97559 13.9756C10.088 13.8631 10.2404 13.7999 10.3994 13.7998H13.5996C13.6527 13.7998 13.7037 13.7787 13.7412 13.7412C13.7787 13.7037 13.7998 13.6527 13.7998 13.5996V10.3994C13.7999 10.2404 13.8631 10.088 13.9756 9.97559C14.088 9.86315 14.2404 9.79986 14.3994 9.7998ZM5.59961 1C5.75873 1 5.9119 1.06326 6.02441 1.17578C6.13674 1.2882 6.2001 1.4407 6.2002 1.59961C6.2002 1.75871 6.1369 1.9119 6.02441 2.02441C5.9119 2.13693 5.75873 2.2002 5.59961 2.2002H2.40039C2.34735 2.2002 2.2963 2.22128 2.25879 2.25879C2.22128 2.2963 2.2002 2.34735 2.2002 2.40039V5.59961C2.2002 5.75873 2.13693 5.9119 2.02441 6.02441C1.9119 6.1369 1.75871 6.2002 1.59961 6.2002C1.4407 6.2001 1.2882 6.13674 1.17578 6.02441C1.06326 5.9119 1 5.75873 1 5.59961V2.40039C1 1.62761 1.62761 1 2.40039 1H5.59961Z" fill="currentColor"/>
</svg>
