<svg width="16" height="16" viewBox="0 0 16 16" fill="none" xmlns="http://www.w3.org/2000/svg">
<path fill-rule="evenodd" clip-rule="evenodd" d="M4.83344 9.04314C4.72053 8.70675 4.66272 8.35405 4.66272 7.9985C4.66272 7.72218 4.69759 7.44941 4.76491 7.186H3.35714C3.11805 7.19669 2.8923 7.2992 2.7269 7.47217C2.56149 7.64514 2.46918 7.87524 2.46918 8.11457C2.46918 8.3539 2.56149 8.584 2.7269 8.75697C2.8923 8.92994 3.11805 9.03245 3.35714 9.04314H4.83344ZM5.32122 9.97171C5.41817 10.1011 5.52473 10.2235 5.64019 10.338C5.95008 10.6452 6.31798 10.8889 6.72288 11.0552C7.12778 11.2214 7.56175 11.307 8.00001 11.307C8.43826 11.307 8.87223 11.2214 9.27713 11.0552C9.68203 10.8889 10.0499 10.6452 10.3598 10.338C10.4753 10.2235 10.5818 10.1011 10.6788 9.97171H12.6429C13.1354 9.97171 13.6078 9.77605 13.9561 9.42777C14.3043 9.07949 14.5 8.60712 14.5 8.11457C14.5 7.62203 14.3043 7.14965 13.9561 6.80137C13.6078 6.45309 13.1354 6.25743 12.6429 6.25743H10.8378C10.7034 6.04206 10.5434 5.84104 10.3598 5.65904C9.73396 5.03858 8.88511 4.69 8.00001 4.69C7.1149 4.69 6.26605 5.03858 5.64019 5.65904C5.4566 5.84104 5.29662 6.04206 5.16218 6.25743H3.35714C2.8646 6.25743 2.39223 6.45309 2.04394 6.80137C1.69566 7.14965 1.5 7.62203 1.5 8.11457C1.5 8.60712 1.69566 9.07949 2.04394 9.42777C2.39223 9.77605 2.8646 9.97171 3.35714 9.97171H5.32122ZM11.2351 7.186H12.6429C12.8819 7.19669 13.1077 7.2992 13.2731 7.47217C13.4385 7.64514 13.5308 7.87524 13.5308 8.11457C13.5308 8.3539 13.4385 8.584 13.2731 8.75697C13.1077 8.92994 12.8819 9.03245 12.6429 9.04314H11.1666C11.2795 8.70675 11.3373 8.35405 11.3373 7.9985C11.3373 7.72218 11.3024 7.44941 11.2351 7.186Z" fill="currentColor"/>
</svg>
