<svg width="16" height="16" viewBox="0 0 16 16" fill="none" xmlns="http://www.w3.org/2000/svg">
<path d="M0.9375 13C1.45519 13 1.875 12.5803 1.875 12.0625L1.875 2.6875C1.875 2.16969 1.45519 1.75 0.9375 1.75H0L0 13H0.9375ZM14.0625 2.6875V12.0625C14.0625 12.5803 14.4822 13 15 13H16V1.75H15C14.4822 1.75 14.0625 2.16969 14.0625 2.6875ZM2.8125 2.6875V5.03125L4.21875 12.0625H6.09375L6.55322 9.76512L5.61572 5.0775L5.15625 7.375L4.21875 2.6875H2.8125ZM9.84375 12.0625L10.3032 9.76512L9.36572 5.0775L8.90625 7.375L7.96875 2.6875H6.09375L7.96875 12.0625H9.84375ZM13.125 12.0625V9.71875L11.7188 2.6875H9.84375L11.7188 12.0625H13.125Z" fill="currentColor"/>
</svg>
