<svg width="16" height="16" viewBox="0 0 16 16" fill="none" xmlns="http://www.w3.org/2000/svg">
<path d="M8.5 8.31439V6.33262H6.51823C6.27269 5.63762 6.2707 4.87979 6.51258 4.18351C6.75446 3.48723 7.22585 2.89385 7.84938 2.50075C8.47291 2.10765 9.21155 1.93819 9.94407 2.02017C10.6766 2.10215 11.3595 2.4307 11.8807 2.95191C12.4019 3.47312 12.7305 4.15602 12.8124 4.88854C12.8944 5.62107 12.725 6.35971 12.3319 6.98324C11.9388 7.60677 11.3454 8.07815 10.6491 8.32004C9.95283 8.56192 9.195 8.55993 8.5 8.31439Z" fill="#00DB84"/>
<path d="M15 14.2771H8.5L11.75 8.49928L15 14.2771Z" fill="#979797"/>
<path d="M2 7.05484H7.77777V12.8326H2V7.05484Z" fill="#007AFF"/>
</svg>
