<svg width="16" height="16" viewBox="0 0 16 16" fill="none" xmlns="http://www.w3.org/2000/svg">
<path d="M14.613 6.0992C14.8246 6.0992 14.9982 5.92234 14.9982 5.70266V3.59335C14.9982 3.37553 14.8264 3.19681 14.613 3.19681H12.5621C12.3505 3.19681 12.1769 3.37367 12.1769 3.59335V3.98617L3.82134 2.27899V1.39654C3.82134 1.17872 3.64953 1 3.43612 1H1.38522C1.17362 1 1 1.17686 1 1.39654V3.50771C1 3.72553 1.17181 3.90426 1.38522 3.90426H2.38173L4.32774 12.0957H4.02571C3.81411 12.0957 3.64049 12.2726 3.64049 12.4923V14.6035C3.64049 14.8213 3.8123 15 4.02571 15H6.0766C6.28821 15 6.46183 14.8231 6.46183 14.6035V13.7452L12.1787 12.9223V13.3375C12.1787 13.5553 12.3505 13.734 12.5639 13.734H14.6148C14.8264 13.734 15 13.5572 15 13.3375V11.2263C15 11.0085 14.8282 10.8298 14.6148 10.8298H13.9746V6.0992H14.613ZM14.2296 3.98803V5.30798H12.978L12.9473 5.27633V3.98803H14.2296ZM4.31869 8.71862L8.80209 4.10346L10.3086 4.41064L4.67317 10.2117L4.31869 8.71862ZM3.749 6.32447L6.38587 3.61011L7.89239 3.91729L4.10347 7.81941L3.749 6.32447ZM1.77044 1.79122H3.05271V3.11117H1.77044V1.79122ZM3.43612 3.90239C3.64772 3.90239 3.82134 3.72553 3.82134 3.50585V3.08511L5.47978 3.42394L3.53559 5.42527L3.17388 3.90239H3.43612ZM4.88115 11.0904L4.89381 11.1035L11.2147 4.59681L12.1769 4.79415V5.46622L5.7366 12.0957H5.11988L4.88115 11.0904ZM5.69319 14.2069H4.41093V12.887H5.69319V14.2069ZM14.2296 12.941H12.9473V11.621H14.2296V12.941ZM12.5621 10.8298C12.3505 10.8298 12.1769 11.0066 12.1769 11.2263V12.1237L9.49658 12.509L13.2023 8.69441V10.8298H12.5621ZM13.2041 7.57367L8.23421 12.6896L6.46183 12.9447V12.4904C6.46183 12.483 6.46183 12.4755 6.46002 12.4699L12.6489 6.0992H13.2023V7.57367H13.2041Z" fill="currentColor"/>
</svg>
