<svg width="16" height="16" viewBox="0 0 16 16" fill="none" xmlns="http://www.w3.org/2000/svg">
<path d="M11.6091 1H4.04316C3.76676 1.00085 3.50192 1.11103 3.30648 1.30647C3.11103 1.5019 3.00085 1.76673 3 2.04312V13.9569C3.00085 14.2333 3.11103 14.4981 3.30648 14.6935C3.50192 14.889 3.76676 14.9991 4.04316 15H13.9568C14.2332 14.9991 14.4981 14.889 14.6935 14.6935C14.889 14.4981 14.9991 14.2333 15 13.9569V4.39156L11.6091 1Z" fill="#F7E2E2"/>
<path d="M12 3.42357C12.0008 3.66818 12.0982 3.90256 12.2712 4.07559C12.4441 4.24862 12.6785 4.34626 12.9231 4.3472L15 4.4L11.6 1L12 3.42357Z" fill="#F49292"/>
<path d="M1.97959 9H10.0204C10.6735 9 11 9.35714 11 10.0714V12.9286C11 13.6429 10.6735 14 10.0204 14H1.97959C1.32653 14 1 13.6429 1 12.9286V10.0714C1 9.35714 1.32653 9 1.97959 9Z" fill="#F47F7F"/>
<path d="M5 4H9.90343V4.52479H5V4ZM5 5.1582H9.90343V5.68299H5V5.1582ZM5 6.3164H11.5374V6.84119H5V6.3164ZM5 7.47521H13V8H5V7.47521Z" fill="#F49292"/>
<path d="M3.77357 12.892L3.59814 12.8478C3.48496 12.8193 3.37484 12.7751 3.26996 12.7159C3.17284 12.6612 3.08207 12.5912 3 12.5075L3.18451 12.2309C3.30586 12.3309 3.43725 12.4115 3.57545 12.4706C3.69892 12.5253 3.82902 12.5542 3.96035 12.5564C4.13843 12.5687 4.31584 12.5209 4.47304 12.4181C4.52934 12.3789 4.57587 12.3219 4.6077 12.253C4.63952 12.1842 4.65544 12.1061 4.65377 12.0271C4.657 11.9759 4.65079 11.9245 4.63562 11.8767C4.62044 11.8288 4.59667 11.7857 4.56605 11.7505C4.50243 11.6858 4.42605 11.6426 4.34449 11.6251C4.22193 11.5985 4.09821 11.5807 3.97396 11.5716H3.84692C3.71767 11.5584 3.58963 11.5312 3.46429 11.4905C3.36404 11.4554 3.27474 11.3844 3.20795 11.2867C3.13259 11.1627 3.09587 11.0101 3.10435 10.8561C3.10037 10.6924 3.13815 10.5314 3.21249 10.395C3.2913 10.262 3.4012 10.1611 3.52781 10.1055C3.68748 10.0339 3.85682 9.99979 4.02689 10.005C4.12843 10.0051 4.22973 10.0171 4.32936 10.041C4.42865 10.0652 4.52586 10.1007 4.61974 10.147C4.70919 10.1911 4.79439 10.2471 4.87381 10.3139L4.68931 10.5822C4.58163 10.5041 4.46662 10.4422 4.34676 10.3978C4.23867 10.3572 4.12636 10.3358 4.01328 10.3342C3.85456 10.3221 3.69653 10.3684 3.55957 10.467C3.50858 10.5071 3.467 10.5627 3.4389 10.6283C3.4108 10.694 3.39714 10.7673 3.39926 10.8413C3.3963 10.8886 3.40265 10.936 3.41777 10.9796C3.4329 11.0232 3.45637 11.0618 3.48622 11.0921C3.55039 11.1504 3.62553 11.1882 3.70476 11.2019C3.8253 11.224 3.94671 11.2384 4.06848 11.2452H4.08739C4.09367 11.2461 4.10001 11.2461 4.10629 11.2452H4.13276C4.27183 11.2519 4.40995 11.2764 4.54488 11.318C4.65697 11.3551 4.75686 11.4337 4.83071 11.543C4.91488 11.6831 4.95585 11.8548 4.94641 12.028C4.95046 12.1948 4.90985 12.3585 4.83071 12.4946C4.74415 12.631 4.6266 12.7333 4.4927 12.7887C4.32057 12.8609 4.1393 12.8953 3.95732 12.8902L3.77357 12.892ZM6.72494 10.0419H7.06447L6.15705 12.8551H5.89995L4.98875 10.0419H5.32903L6.02699 12.3471L6.72494 10.0419ZM7.53708 12.7583C7.41539 12.666 7.32005 12.5301 7.2641 12.3692C7.19665 12.1758 7.16366 11.9671 7.16731 11.7569V11.1484C7.16266 10.9361 7.1938 10.7249 7.25881 10.5278C7.31251 10.3657 7.40635 10.2281 7.52725 10.1341C7.65354 10.0416 7.79892 9.99521 7.94617 10.0004C8.10632 9.99575 8.26511 10.0371 8.40971 10.1212C8.54761 10.2079 8.65936 10.3457 8.72882 10.5149L8.67967 11.0562C8.67972 10.9346 8.65586 10.8147 8.6101 10.7067C8.56344 10.5965 8.49314 10.5037 8.40669 10.4384C8.31234 10.368 8.20343 10.3322 8.09287 10.3351C8.01017 10.3289 7.92735 10.3448 7.85018 10.3816C7.77301 10.4184 7.70332 10.4752 7.64597 10.5481C7.53431 10.7174 7.47898 10.9316 7.49095 11.1484V11.7588C7.48016 11.9721 7.5364 12.1825 7.64824 12.3471C7.70595 12.4192 7.77575 12.4754 7.85287 12.5117C7.93 12.5479 8.01263 12.5635 8.09514 12.5573C8.20526 12.5599 8.31359 12.523 8.40669 12.4513C8.49363 12.3827 8.56409 12.2873 8.61086 12.1746C8.65666 12.0653 8.68026 11.9442 8.67967 11.8215L8.71067 12.4098C8.6605 12.5708 8.56214 12.7026 8.43542 12.7786C8.28822 12.8592 8.12786 12.8977 7.96659 12.8911C7.8161 12.8962 7.66741 12.8502 7.53708 12.7583ZM7.74881 13.9957L7.5454 13.8777C7.41604 13.8057 7.30597 13.6906 7.2278 13.5458L7.44558 13.3069C7.5126 13.4141 7.59837 13.5017 7.69663 13.5633C7.79871 13.6383 7.91575 13.6776 8.03494 13.677C8.15412 13.6763 8.27086 13.6356 8.37236 13.5595C8.47387 13.4833 8.55623 13.3745 8.61044 13.2451C8.66464 13.1157 8.68859 12.9706 8.67967 12.8256V10.0419H8.99953V12.7712C9.00483 13.0007 8.9649 13.2284 8.88308 13.4351C8.80899 13.615 8.69051 13.7621 8.54431 13.8556C8.37802 13.9566 8.19387 14.006 8.00818 13.9994L7.74881 13.9957Z" fill="white"/>
</svg>
