<svg width="16" height="16" viewBox="0 0 16 16" fill="none" xmlns="http://www.w3.org/2000/svg">
<path opacity="0.603" d="M9.0001 7.99633C9.00043 7.78815 8.92099 7.58776 8.77811 7.43635L8.72011 7.38036L8.14613 6.82037L3.4573 2.24353C3.2945 2.08797 3.07799 2.00116 2.85282 2.00116C2.62765 2.00116 2.41114 2.08797 2.24834 2.24353C2.16973 2.32037 2.10726 2.41214 2.06462 2.51346C2.02197 2.61477 2 2.72359 2 2.83351C2 2.94344 2.02197 3.05226 2.06462 3.15357C2.10726 3.25489 2.16973 3.34666 2.24834 3.42349L6.94017 8.00033L2.25034 12.5802C2.17173 12.657 2.10926 12.7488 2.06662 12.8501C2.02397 12.9514 2.002 13.0602 2.002 13.1702C2.002 13.2801 2.02397 13.3889 2.06662 13.4902C2.10926 13.5915 2.17173 13.6833 2.25034 13.7601C2.41297 13.9157 2.62956 14.0022 2.85463 14.0015C3.07969 14.0007 3.29571 13.9128 3.4573 13.7561L8.14613 9.18029L8.72811 8.61231L8.77611 8.56531C8.92252 8.41238 9.00297 8.20803 9.0001 7.99633Z" fill="currentColor"/>
<path opacity="0.704" d="M13.9999 7.99617C14.0003 7.78799 13.9208 7.5876 13.7779 7.43619L13.7199 7.3792L13.1459 6.81922L8.45711 2.24237C8.29432 2.08681 8.07781 2 7.85264 2C7.62746 2 7.41096 2.08681 7.24816 2.24237C7.16954 2.31921 7.10708 2.41098 7.06443 2.5123C7.02179 2.61361 6.99982 2.72243 6.99982 2.83235C6.99982 2.94228 7.02179 3.0511 7.06443 3.15241C7.10708 3.25373 7.16954 3.3455 7.24816 3.42233L11.94 8.00017L7.25016 12.58C7.17154 12.6568 7.10908 12.7486 7.06643 12.8499C7.02379 12.9513 7.00182 13.0601 7.00182 13.17C7.00182 13.2799 7.02379 13.3887 7.06643 13.4901C7.10908 13.5914 7.17154 13.6831 7.25016 13.76C7.41278 13.9156 7.62938 14.0021 7.85444 14.0013C8.07951 14.0006 8.29552 13.9126 8.45711 13.756L13.1459 9.18013L13.7279 8.61215L13.7759 8.56515C13.9223 8.41222 14.0028 8.20787 13.9999 7.99617Z" fill="currentColor"/>
</svg>
