<svg width="16" height="16" viewBox="0 0 16 16" fill="none" xmlns="http://www.w3.org/2000/svg">
<path d="M11.241 4.13066C11.4145 3.9571 11.6963 3.9571 11.8699 4.13066C12.043 4.30419 12.0431 4.58513 11.8699 4.75859L8.62767 7.9998L11.8699 11.241L11.9265 11.3103C12.0404 11.4829 12.0217 11.718 11.8699 11.8699C11.718 12.0218 11.4828 12.0405 11.3103 11.9266L11.241 11.8699L7.99974 8.62773L4.75853 11.8699C4.58507 12.0432 4.30413 12.0431 4.1306 11.8699C3.95704 11.6964 3.95704 11.4146 4.1306 11.241L7.37083 7.9998L4.1306 4.75859C3.95704 4.58503 3.95704 4.30422 4.1306 4.13066C4.30416 3.9571 4.58497 3.9571 4.75853 4.13066L7.99974 7.37089L11.241 4.13066Z" fill="#F40000"/>
</svg>
