<svg width="16" height="16" viewBox="0 0 16 16" fill="none" xmlns="http://www.w3.org/2000/svg">
<path d="M13.5028 3.4972H8C8 2.66629 7.32587 2 6.5028 2H5.49944C4.66853 2 4.00224 2.67413 4.00224 3.4972H2.4972C1.66629 3.4972 1 4.17133 1 4.9944V12.9978C1 13.8287 1.67413 14.495 2.4972 14.495H13.5028C14.3337 14.495 15 13.8208 15 12.9978V4.9944C15 4.17133 14.3259 3.4972 13.5028 3.4972ZM8 12.0022C6.34602 12.0022 4.99776 10.654 4.99776 9C4.99776 7.34602 6.34602 5.99776 8 5.99776C9.65397 5.99776 11.0022 7.34602 11.0022 9C11.0022 10.654 9.65397 12.0022 8 12.0022ZM12.7503 7.00112C12.3348 7.00112 11.9978 6.66405 11.9978 6.2486C11.9978 5.83315 12.3348 5.49608 12.7503 5.49608C13.1657 5.49608 13.5028 5.83315 13.5028 6.2486C13.5028 6.66405 13.1657 7.00112 12.7503 7.00112Z" fill="currentColor"/>
</svg>
