<svg xmlns="http://www.w3.org/2000/svg" xmlns:xlink="http://www.w3.org/1999/xlink" fill="none" version="1.1" width="14" height="14" viewBox="0 0 14 14"><g><g><path d="" fill="currentColor" fill-opacity="1"/></g><g><path d="M3.33333,7.4C3.33333,7.4,4.66667,6.06667,4.66667,6.06667C4.66667,6.06667,8.33333,9.733329999999999,8.33333,9.733329999999999C8.33333,9.733329999999999,10.66667,7.4,10.66667,7.4C10.66667,7.4,12.6667,9.4,12.6667,9.4C12.6667,9.4,12.6667,3.33333,12.6667,3.33333C12.6667,3.33333,3.33333,3.33333,3.33333,3.33333C3.33333,3.33333,3.33333,7.4,3.33333,7.4C3.33333,7.4,3.33333,7.4,3.33333,7.4ZM3.33333,9.286C3.33333,9.286,3.33333,12.6667,3.33333,12.6667C3.33333,12.6667,5.4,12.6667,5.4,12.6667C5.4,12.6667,7.39067,10.67667,7.39067,10.67667C7.39067,10.67667,4.66667,7.95267,4.66667,7.95267C4.66667,7.95267,3.33333,9.286,3.33333,9.286C3.33333,9.286,3.33333,9.286,3.33333,9.286ZM7.286,12.6667C7.286,12.6667,12.6667,12.6667,12.6667,12.6667C12.6667,12.6667,12.6667,11.286,12.6667,11.286C12.6667,11.286,10.66667,9.286,10.66667,9.286C10.66667,9.286,7.286,12.6667,7.286,12.6667C7.286,12.6667,7.286,12.6667,7.286,12.6667ZM2.666667,2C2.666667,2,13.3333,2,13.3333,2C13.5101,2.0000000000000004,13.6797,2.070238,13.8047,2.195262C13.9297,2.320287,14,2.489856,14,2.666667C14,2.666667,14,13.3333,14,13.3333C14,13.5101,13.9297,13.6797,13.8047,13.8047C13.6797,13.9297,13.5101,14,13.3333,14C13.3333,14,2.666667,14,2.666667,14C2.489856,14,2.320287,13.9297,2.195262,13.8047C2.070238,13.6797,2.0000000000000004,13.5101,2,13.3333C2,13.3333,2,2.666667,2,2.666667C2,2.489856,2.070238,2.320287,2.195262,2.195262C2.320287,2.070238,2.489856,2.0000000000000004,2.666667,2C2.666667,2,2.666667,2,2.666667,2C2.666667,2,2.666667,2,2.666667,2ZM10.33333,6.66667C10.06813,6.66667,9.81373,6.56131,9.6262,6.37377C9.43867,6.18624,9.33333,5.93188,9.33333,5.66667C9.33333,5.4014500000000005,9.43867,5.14709,9.6262,4.95956C9.81373,4.77203,10.06813,4.66667,10.33333,4.66667C10.59853,4.66667,10.85293,4.77203,11.04047,4.95956C11.228,5.14709,11.33333,5.4014500000000005,11.33333,5.66667C11.33333,5.93188,11.228,6.18624,11.04047,6.37377C10.85293,6.56131,10.59853,6.66667,10.33333,6.66667C10.33333,6.66667,10.33333,6.66667,10.33333,6.66667C10.33333,6.66667,10.33333,6.66667,10.33333,6.66667Z" fill="currentColor" fill-opacity="1"/></g></g></svg>