<svg width="16" height="16" viewBox="0 0 16 16" fill="none" xmlns="http://www.w3.org/2000/svg">
<path d="M14 2.9999C14.2653 2.9999 14.5196 2.89455 14.7071 2.70702C14.8946 2.51949 15 2.26515 15 1.99995C15 1.73475 14.8946 1.48041 14.7071 1.29288C14.5196 1.10535 14.2653 1 14 1C13.7348 1 13.4805 1.10535 13.293 1.29288C13.1055 1.48041 13.0001 1.73475 13.0001 1.99995C13.0001 2.26515 13.1055 2.51949 13.293 2.70702C13.4805 2.89455 13.7348 2.9999 14 2.9999ZM14 10.9999C14.2653 10.9999 14.5196 10.8945 14.7071 10.707C14.8946 10.5194 15 10.2651 15 9.9999C15 9.7347 14.8946 9.48036 14.7071 9.29283C14.5196 9.1053 14.2653 8.99995 14 8.99995C13.7348 8.99995 13.4805 9.1053 13.293 9.29283C13.1055 9.48036 13.0001 9.7347 13.0001 9.9999C13.0001 10.2651 13.1055 10.5194 13.293 10.707C13.4805 10.8945 13.7348 10.9999 14 10.9999ZM9.9999 2.9999C10.2651 2.9999 10.5194 2.89455 10.707 2.70702C10.8945 2.51949 10.9998 2.26515 10.9998 1.99995C10.9998 1.73475 10.8945 1.48041 10.707 1.29288C10.5194 1.10535 10.2651 1 9.9999 1C9.7347 1 9.48036 1.10535 9.29283 1.29288C9.1053 1.48041 8.99995 1.73475 8.99995 1.99995C8.99995 2.26515 9.1053 2.51949 9.29283 2.70702C9.48036 2.89455 9.7347 2.9999 9.9999 2.9999ZM9.9999 7.00005C10.2651 7.00005 10.5194 6.8947 10.707 6.70717C10.8945 6.51964 10.9998 6.2653 10.9998 6.0001C10.9998 5.7349 10.8945 5.48056 10.707 5.29303C10.5194 5.1055 10.2651 5.00015 9.9999 5.00015C9.7347 5.00015 9.48036 5.1055 9.29283 5.29303C9.1053 5.48056 8.99995 5.7349 8.99995 6.0001C8.99995 6.2653 9.1053 6.51964 9.29283 6.70717C9.48036 6.8947 9.7347 7.00005 9.9999 7.00005ZM9.9999 10.9999C10.2651 10.9999 10.5194 10.8945 10.707 10.707C10.8945 10.5194 10.9998 10.2651 10.9998 9.9999C10.9998 9.7347 10.8945 9.48036 10.707 9.29283C10.5194 9.1053 10.2651 8.99995 9.9999 8.99995C9.7347 8.99995 9.48036 9.1053 9.29283 9.29283C9.1053 9.48036 8.99995 9.7347 8.99995 9.9999C8.99995 10.2651 9.1053 10.5194 9.29283 10.707C9.48036 10.8945 9.7347 10.9999 9.9999 10.9999ZM9.9999 15C10.2651 15 10.5194 14.8946 10.707 14.7071C10.8945 14.5196 10.9998 14.2653 10.9998 14.0001C10.9998 13.7348 10.8945 13.4805 10.707 13.293C10.5194 13.1055 10.2651 13.0001 9.9999 13.0001C9.7347 13.0001 9.48036 13.1055 9.29283 13.293C9.1053 13.4805 8.99995 13.7348 8.99995 14.0001C8.99995 14.2653 9.1053 14.5196 9.29283 14.7071C9.48036 14.8946 9.7347 15 9.9999 15ZM6.0001 2.9999C6.2653 2.9999 6.51964 2.89455 6.70717 2.70702C6.8947 2.51949 7.00005 2.26515 7.00005 1.99995C7.00005 1.73475 6.8947 1.48041 6.70717 1.29288C6.51964 1.10535 6.2653 1 6.0001 1C5.7349 1 5.48056 1.10535 5.29303 1.29288C5.1055 1.48041 5.00015 1.73475 5.00015 1.99995C5.00015 2.26515 5.1055 2.51949 5.29303 2.70702C5.48056 2.89455 5.7349 2.9999 6.0001 2.9999ZM6.0001 7.00005C6.2653 7.00005 6.51964 6.8947 6.70717 6.70717C6.8947 6.51964 7.00005 6.2653 7.00005 6.0001C7.00005 5.7349 6.8947 5.48056 6.70717 5.29303C6.51964 5.1055 6.2653 5.00015 6.0001 5.00015C5.7349 5.00015 5.48056 5.1055 5.29303 5.29303C5.1055 5.48056 5.00015 5.7349 5.00015 6.0001C5.00015 6.2653 5.1055 6.51964 5.29303 6.70717C5.48056 6.8947 5.7349 7.00005 6.0001 7.00005ZM6.0001 10.9999C6.2653 10.9999 6.51964 10.8945 6.70717 10.707C6.8947 10.5194 7.00005 10.2651 7.00005 9.9999C7.00005 9.7347 6.8947 9.48036 6.70717 9.29283C6.51964 9.1053 6.2653 8.99995 6.0001 8.99995C5.7349 8.99995 5.48056 9.1053 5.29303 9.29283C5.1055 9.48036 5.00015 9.7347 5.00015 9.9999C5.00015 10.2651 5.1055 10.5194 5.29303 10.707C5.48056 10.8945 5.7349 10.9999 6.0001 10.9999ZM6.0001 15C6.2653 15 6.51964 14.8946 6.70717 14.7071C6.8947 14.5196 7.00005 14.2653 7.00005 14.0001C7.00005 13.7348 6.8947 13.4805 6.70717 13.293C6.51964 13.1055 6.2653 13.0001 6.0001 13.0001C5.7349 13.0001 5.48056 13.1055 5.29303 13.293C5.1055 13.4805 5.00015 13.7348 5.00015 14.0001C5.00015 14.2653 5.1055 14.5196 5.29303 14.7071C5.48056 14.8946 5.7349 15 6.0001 15ZM1.99995 2.9999C2.26515 2.9999 2.51949 2.89455 2.70702 2.70702C2.89455 2.51949 2.9999 2.26515 2.9999 1.99995C2.9999 1.73475 2.89455 1.48041 2.70702 1.29288C2.51949 1.10535 2.26515 1 1.99995 1C1.73475 1 1.48041 1.10535 1.29288 1.29288C1.10535 1.48041 1 1.73475 1 1.99995C1 2.26515 1.10535 2.51949 1.29288 2.70702C1.48041 2.89455 1.73475 2.9999 1.99995 2.9999ZM1.99995 7.00005C2.26515 7.00005 2.51949 6.8947 2.70702 6.70717C2.89455 6.51964 2.9999 6.2653 2.9999 6.0001C2.9999 5.7349 2.89455 5.48056 2.70702 5.29303C2.51949 5.1055 2.26515 5.00015 1.99995 5.00015C1.73475 5.00015 1.48041 5.1055 1.29288 5.29303C1.10535 5.48056 1 5.7349 1 6.0001C1 6.2653 1.10535 6.51964 1.29288 6.70717C1.48041 6.8947 1.73475 7.00005 1.99995 7.00005ZM1.99995 10.9999C2.26515 10.9999 2.51949 10.8945 2.70702 10.707C2.89455 10.5194 2.9999 10.2651 2.9999 9.9999C2.9999 9.7347 2.89455 9.48036 2.70702 9.29283C2.51949 9.1053 2.26515 8.99995 1.99995 8.99995C1.73475 8.99995 1.48041 9.1053 1.29288 9.29283C1.10535 9.48036 1 9.7347 1 9.9999C1 10.2651 1.10535 10.5194 1.29288 10.707C1.48041 10.8945 1.73475 10.9999 1.99995 10.9999ZM1.99995 15C2.26515 15 2.51949 14.8946 2.70702 14.7071C2.89455 14.5196 2.9999 14.2653 2.9999 14.0001C2.9999 13.7348 2.89455 13.4805 2.70702 13.293C2.51949 13.1055 2.26515 13.0001 1.99995 13.0001C1.73475 13.0001 1.48041 13.1055 1.29288 13.293C1.10535 13.4805 1 13.7348 1 14.0001C1 14.2653 1.10535 14.5196 1.29288 14.7071C1.48041 14.8946 1.73475 15 1.99995 15Z" fill="currentColor"/>
</svg>
