<svg width="16" height="16" viewBox="0 0 16 16" fill="none" xmlns="http://www.w3.org/2000/svg">
<path fill-rule="evenodd" clip-rule="evenodd" d="M7.75962 14L7.75453 13.9977L7.73675 13.9893L7.66636 13.9568C7.60471 13.9284 7.51476 13.8874 7.40265 13.8373C7.17821 13.737 6.86603 13.6009 6.51509 13.4574C5.79958 13.1651 4.97005 12.8621 4.39153 12.7514C3.90549 12.6584 3.27913 12.5654 2.72255 12.4898C1.74319 12.3567 1 11.6344 1 10.7691V3.2914C1 2.57854 1.67052 2 2.49936 2H5C5.90029 2 6.75245 2.38085 7.33985 2.71799C7.60481 2.87007 7.83025 3.02167 8 3.14397C8.16975 3.02167 8.39519 2.87007 8.66015 2.71799C9.24755 2.38085 10.0997 2 11 2H13.5006C14.3295 2 15 2.57854 15 3.2914V10.7691C15 11.6344 14.2568 12.3567 13.2774 12.4898C12.7209 12.5654 12.0945 12.6584 11.6085 12.7514C11.03 12.8621 10.2004 13.1651 9.48491 13.4574C9.13397 13.6009 8.82179 13.737 8.59735 13.8373C8.48524 13.8874 8.39529 13.9284 8.33364 13.9568L8.26325 13.9893L8.24547 13.9977L8.24038 14M2 3.2914C2 3.0533 2.22364 2.86093 2.49936 2.86093H5C5.59971 2.86093 6.24755 3.12578 6.78515 3.43434C7.04582 3.58394 7.26403 3.73418 7.41679 3.84691C7.44731 3.86943 7.47511 3.89038 7.5 3.90943V12.9136C7.33268 12.8413 7.14454 12.7617 6.94391 12.6798C6.22908 12.3876 5.30862 12.0449 4.60847 11.911C4.0912 11.812 3.44003 11.7157 2.87845 11.6394C2.3716 11.5705 2 11.199 2 10.7691V3.2914ZM8.5 3.90943V12.9136C8.66732 12.8413 8.85546 12.7617 9.05609 12.6798C9.77092 12.3876 10.6914 12.0449 11.3915 11.911C11.9088 11.812 12.56 11.7157 13.1215 11.6394C13.6284 11.5705 14 11.199 14 10.7691V3.2914C14 3.0533 13.7764 2.86093 13.5006 2.86093H11C10.4003 2.86093 9.75245 3.12578 9.21485 3.43434C8.95418 3.58394 8.73597 3.73418 8.58321 3.84691C8.55269 3.86943 8.52489 3.89038 8.5 3.90943Z" fill="currentColor"/>
</svg>
