<svg width="16" height="16" viewBox="0 0 16 16" fill="none" xmlns="http://www.w3.org/2000/svg">
<path d="M13.5746 5.38064C13.5746 5.24764 13.572 5.11611 13.5665 4.98532C14.1339 4.55496 14.6194 4.02624 15 3.42432C14.4774 3.6626 13.9205 3.8169 13.3498 3.88153C13.9434 3.51164 14.3984 2.91995 14.6135 2.21001C14.0532 2.55514 13.4354 2.7965 12.7895 2.92253C12.2663 2.31906 11.5192 1.93479 10.6935 1.92043C9.10674 1.8939 7.82095 3.2519 7.82095 4.95327C7.82095 5.19495 7.846 5.42964 7.89537 5.65622C5.50653 5.50037 3.38958 4.24074 1.97374 2.3419C1.71639 2.82009 1.58277 3.35507 1.58505 3.89811C1.58505 4.97611 2.09237 5.93364 2.86274 6.49916C2.40177 6.47706 1.95398 6.33811 1.56147 6.09537V6.13516C1.56147 7.64127 2.55216 8.90311 3.86595 9.19748C3.62009 9.26814 3.36538 9.30325 3.10958 9.30174C2.92807 9.30084 2.74716 9.28084 2.56984 9.24206C2.93458 10.4763 3.996 11.3782 5.25268 11.4084C4.269 12.234 3.03037 12.7273 1.68563 12.7236C1.45353 12.7236 1.22474 12.7082 1 12.6794C2.27179 13.564 3.78121 14.078 5.40374 14.078C10.6858 14.0791 13.5746 9.42185 13.5746 5.38064Z" fill="currentColor"/>
</svg>
