<svg width="16" height="16" viewBox="0 0 16 16" fill="none" xmlns="http://www.w3.org/2000/svg">
<path d="M1.81713 7.48039L4.02443 8.93258C3.75301 9.44703 3.81343 10.1559 4.16829 10.7951C4.29584 11.0254 4.46176 11.2467 4.66413 11.4468C4.86361 11.6436 5.08324 11.8048 5.3115 11.9291C5.95887 12.2794 6.67673 12.3303 7.20326 12.038L8.68023 14.1938L9.23313 15L9.44605 14.784C9.61149 14.6161 9.7635 14.4486 9.90352 14.2806C10.7849 13.2205 11.1676 12.1331 11.1211 10.8301C14.8327 7.6114 15.435 3.83792 14.7583 1.39521L14.72 1.25316L14.5775 1.21668C12.1271 0.570252 8.38388 1.2426 5.19689 4.98297C3.87289 4.93498 2.78483 5.33522 1.70971 6.26095C1.54427 6.40348 1.37883 6.55849 1.21291 6.72646L1 6.94242L1.81713 7.48039ZM6.73811 11.1987C6.59377 11.2788 6.40292 11.2918 6.16651 11.238C5.8644 11.1689 5.58819 11.0106 5.33787 10.7634C5.08803 10.5167 4.92547 10.2418 4.85019 9.93797C4.79264 9.70426 4.79983 9.51854 4.87272 9.38033L5.27889 8.6096L2.54986 6.8138C2.83608 6.58485 3.14972 6.39252 3.48351 6.24128C3.98798 6.01956 4.54712 5.91974 5.16188 5.9423L5.62559 5.95861L5.92674 5.60588C7.28718 4.00876 8.80203 2.92802 10.4703 2.36413C11.6884 1.9519 12.8421 1.84872 13.9307 2.05412C14.1517 3.14398 14.0654 4.30198 13.6717 5.52814C13.1322 7.20924 12.0729 8.73438 10.4929 10.1045L10.1462 10.4049L10.1625 10.8637C10.1845 11.4751 10.0881 12.0337 9.87331 12.5386C9.73178 12.8638 9.55109 13.1705 9.33527 13.4518L7.50105 10.7759L6.73811 11.1987ZM11.7938 4.24344C11.618 4.06201 11.4068 3.91858 11.1734 3.82201C10.94 3.72544 10.6893 3.67777 10.4368 3.68195C9.90688 3.68195 9.45468 3.86911 9.08016 4.24392C8.89885 4.41982 8.75548 4.63104 8.6589 4.86454C8.56232 5.09804 8.51458 5.34888 8.51863 5.60156C8.51863 6.13138 8.70612 6.58393 9.08064 6.95873C9.25631 7.14021 9.46727 7.28375 9.70051 7.38048C9.93375 7.47722 10.1843 7.5251 10.4368 7.52118C10.9667 7.52118 11.4189 7.33402 11.7934 6.95873C11.9746 6.78289 12.118 6.57175 12.2145 6.33833C12.3111 6.10491 12.3589 5.85417 12.3549 5.60156C12.3549 5.07127 12.1679 4.61872 11.7934 4.24392L11.7938 4.24344ZM11.1158 6.27967C10.9288 6.46683 10.7024 6.56089 10.4377 6.56089C10.3114 6.56292 10.186 6.53901 10.0693 6.49064C9.95263 6.44227 9.84707 6.37047 9.75918 6.27967C9.66848 6.19186 9.59672 6.0864 9.54831 5.96977C9.49989 5.85315 9.47586 5.72784 9.4777 5.60156C9.4777 5.33666 9.57168 5.11014 9.7587 4.92298C9.94572 4.73534 10.1721 4.64176 10.4372 4.64176C10.7019 4.64176 10.9278 4.73534 11.1153 4.92298C11.3023 5.11014 11.3958 5.33618 11.3958 5.60156C11.3958 5.86647 11.3023 6.09251 11.1153 6.28015L11.1158 6.27967ZM4.30927 12.0515C4.23138 11.9306 4.12404 11.8316 3.99736 11.7638C3.87068 11.696 3.72883 11.6615 3.58517 11.6637C3.44765 11.6658 3.31284 11.7023 3.19311 11.7701C3.07338 11.8378 2.97257 11.9346 2.89992 12.0515C2.70571 12.2487 2.54314 12.5391 2.41271 12.9225C2.30254 13.2603 2.22152 13.6069 2.17054 13.9586C2.51746 13.8922 2.85939 13.802 3.19387 13.6884C3.59572 13.5473 3.88632 13.3856 4.06615 13.2032C4.18142 13.1296 4.27647 13.0283 4.34264 12.9085C4.4088 12.7887 4.44398 12.6543 4.44498 12.5175C4.44652 12.3523 4.39931 12.1904 4.30927 12.052V12.0515Z" fill="currentColor"/>
</svg>
