<svg width="16" height="16" viewBox="0 0 16 16" fill="none" xmlns="http://www.w3.org/2000/svg">
<path d="M6.64148 1.86409C7.18077 0.711971 8.81898 0.711971 9.35828 1.86409L10.5048 4.31233C10.5793 4.47138 10.7321 4.57978 10.9071 4.59749L13.618 4.8719C14.9285 5.00486 15.4435 6.64141 14.4452 7.50081L12.4882 9.1844C12.3486 9.30454 12.2862 9.49191 12.3261 9.67171L12.8827 12.1776C13.1616 13.4367 11.8258 14.4383 10.6952 13.8172L8.24109 12.4686C8.0912 12.3863 7.90957 12.3863 7.75964 12.4686L5.30457 13.8172L5.30359 13.8162C4.1731 14.4369 2.83898 13.4367 3.11804 12.1776L3.67371 9.67171C3.71359 9.49187 3.65122 9.30457 3.5116 9.1844L1.55554 7.50081C0.556666 6.64142 1.07168 5.00453 2.38269 4.8719L5.09265 4.59749C5.26766 4.57978 5.42135 4.47162 5.49597 4.31233L6.64148 1.86409ZM8.453 2.28792C8.27324 1.90387 7.72652 1.90387 7.54675 2.28792L6.40125 4.73616C6.17743 5.21412 5.71835 5.53948 5.19324 5.5926L2.48328 5.86702C2.04641 5.91121 1.87433 6.45646 2.20691 6.74299L4.16394 8.42659C4.58277 8.7871 4.76995 9.34897 4.65027 9.8885L4.09363 12.3934C4.00051 12.8132 4.44626 13.1473 4.82312 12.9403L7.2782 11.5916C7.72791 11.3448 8.27287 11.3446 8.72253 11.5916L11.1766 12.9403C11.5535 13.1473 11.9992 12.8132 11.9061 12.3934L11.3505 9.8885C11.2308 9.34888 11.4177 8.78712 11.8368 8.42659L13.7928 6.74299C14.1256 6.45653 13.9535 5.91123 13.5165 5.86702L10.8065 5.5926C10.2815 5.53949 9.82226 5.21427 9.59851 4.73616L8.453 2.28792Z" fill="currentColor"/>
</svg>
