<svg width="16" height="16" viewBox="0 0 16 16" fill="none" xmlns="http://www.w3.org/2000/svg">
<path d="M12.1227 6.19858L11.148 6.02404C11.123 3.48085 8.44869 1.21193 8.32372 1.1122C8.14877 0.9626 7.87384 0.9626 7.6739 1.1122C7.54893 1.21193 4.87464 3.50579 4.84964 6.02404L3.92489 6.17364C3.67495 6.22351 3.5 6.42297 3.5 6.67231V9.26536C3.5 9.41496 3.57498 9.56456 3.67495 9.63936C3.77493 9.71416 3.8749 9.76403 3.99987 9.76403H4.07485L5.89936 9.43989C6.44922 10.0882 7.14903 10.4372 7.97382 10.4372C8.7986 10.4372 9.49841 10.0632 10.0483 9.41496L11.9228 9.73909H11.9978C12.1227 9.73909 12.2227 9.68923 12.3227 9.61443C12.4476 9.51469 12.4976 9.39003 12.4976 9.24043V6.64737C12.5226 6.44791 12.3477 6.24844 12.1227 6.19858ZM9.52341 11.4844H6.5242C6.24927 11.4844 6.02433 11.7088 6.02433 11.9831V13.4791C6.02433 13.6785 6.1493 13.878 6.34925 13.9528C6.54919 14.0276 6.77413 13.9777 6.8991 13.8281L7.12404 13.5788L7.57392 14.6759C7.6489 14.8753 7.82386 15 8.0488 15C8.27374 15 8.4237 14.8753 8.52367 14.6759L8.97355 13.5788L9.19849 13.8281C9.34845 13.9777 9.5484 14.0276 9.74835 13.9528C9.94829 13.878 10.0733 13.7035 10.0733 13.4791V11.9831C10.0233 11.7088 9.79833 11.4844 9.52341 11.4844Z" fill="currentColor"/>
</svg>
