<svg width="16" height="16" viewBox="0 0 16 16" fill="none" xmlns="http://www.w3.org/2000/svg">
<path opacity="0.38" d="M3.49753 8.8125C2.95428 9.38497 2.49434 9.4456 2.11901 10.8504C1.86126 12.0017 2.0202 13.295 2.61512 14.0173C3.19197 13.8146 3.6616 13.4417 4.51683 13.2365C5.09824 13.0515 5.80298 13.0983 6.36364 13.0223L3.49753 8.8125ZM12.5024 8.8125C13.0457 9.38497 13.5056 9.4456 13.881 10.8504C14.1387 12.0017 13.9798 13.295 13.3849 14.0173C12.808 13.8146 12.3384 13.4417 11.4831 13.2365C10.9018 13.0515 10.197 13.0983 9.63639 13.0223L12.5024 8.8125Z" fill="white"/>
<path d="M11.9478 3.42377C10.6097 1.49048 8.19443 0.5 8.19443 0.5C8.19443 0.5 5.50023 1.529 4.32611 3.53337C3.69053 4.50386 3.48352 5.99516 3.48352 7.18808C3.48352 10.0202 6.47093 13.672 6.47093 13.672H9.80306C9.80306 13.672 12.7139 10.047 12.7139 7.20639C12.7175 5.93266 12.8126 4.49048 11.9478 3.42377ZM8.10108 7.9921C6.98021 7.9921 6.07117 7.12497 6.07117 6.05515C6.07117 4.98526 6.98021 4.11813 8.10108 4.11813C9.22196 4.11813 10.131 4.98526 10.131 6.05515C10.131 7.12501 9.22194 7.99208 8.10107 7.99208L8.10108 7.9921Z" fill="white"/>
<path d="M8.10112 5.14868C7.54041 5.14868 7.0862 5.58238 7.0862 6.11718C7.0862 6.65198 7.54041 7.0857 8.10112 7.0857C8.66187 7.0857 9.11609 6.65198 9.11609 6.11718C9.11609 5.58235 8.66187 5.14868 8.10112 5.14868ZM7.9704 15.4523L6.74039 14.238C6.71805 14.2159 6.70302 14.1881 6.69715 14.158C6.69128 14.1278 6.69484 14.0967 6.70739 14.0685C6.71994 14.0402 6.74092 14.0162 6.76771 13.9992C6.7945 13.9823 6.82592 13.9733 6.85805 13.9733H9.35195C9.38426 13.9733 9.41585 13.9824 9.44274 13.9995C9.46962 14.0167 9.49059 14.041 9.50301 14.0694C9.51543 14.0979 9.51873 14.1293 9.51251 14.1595C9.50628 14.1898 9.49081 14.2176 9.46804 14.2395L8.20417 15.4538C8.18883 15.4685 8.17056 15.4802 8.15043 15.4881C8.13031 15.496 8.10872 15.5 8.08695 15.4999C8.06518 15.4998 8.04366 15.4955 8.02364 15.4873C8.00363 15.4791 7.98553 15.4672 7.9704 15.4523Z" fill="#C4C4C4"/>
</svg>
