<svg width="16" height="16" viewBox="0 0 16 16" fill="none" xmlns="http://www.w3.org/2000/svg">
<path d="M8 15C4.13402 15 1 11.866 1 8C1 4.13402 4.13402 1 8 1C11.866 1 15 4.13402 15 8C15 11.866 11.866 15 8 15ZM7.69732 7.15473V5.08342C7.69732 4.92869 7.63585 4.78029 7.52644 4.67088C7.41702 4.56147 7.26863 4.5 7.1139 4.5C6.95917 4.5 6.81077 4.56147 6.70136 4.67088C6.59195 4.78029 6.53048 4.92869 6.53048 5.08342V8.4211L4.02224 4.8624C3.93671 4.7406 3.81456 4.64923 3.67356 4.60159C3.53255 4.55394 3.38003 4.55249 3.23814 4.59746C3.09626 4.64242 2.9724 4.73145 2.88458 4.85161C2.79675 4.97177 2.74951 5.1168 2.74974 5.26564V10.0351C2.74974 10.1898 2.81121 10.3382 2.92062 10.4476C3.03004 10.557 3.17843 10.6185 3.33316 10.6185C3.4879 10.6185 3.63629 10.557 3.7457 10.4476C3.85511 10.3382 3.91658 10.1898 3.91658 10.0351V6.73771L6.42533 10.2959C6.51094 10.4175 6.63305 10.5086 6.77396 10.5561C6.91487 10.6037 7.06725 10.605 7.20899 10.5601C7.35074 10.5152 7.47449 10.4262 7.56229 10.3062C7.6501 10.1862 7.69739 10.0414 7.69732 9.89266V9.37611C7.94443 9.83261 8.33672 10.1937 8.81211 10.4021C9.28749 10.6106 9.81883 10.6546 10.322 10.5272C10.8252 10.3997 11.2716 10.1081 11.5904 9.69843C11.9092 9.28878 12.0823 8.78451 12.0823 8.26542C12.0823 7.74633 11.9092 7.24206 11.5904 6.83241C11.2716 6.42277 10.8252 6.13114 10.322 6.00368C9.81883 5.87623 9.28749 5.92022 8.81211 6.1287C8.33672 6.33717 7.94443 6.69823 7.69732 7.15473ZM9.75026 9.43175C9.595 9.435 9.44067 9.40722 9.29629 9.35006C9.15191 9.29289 9.02039 9.20748 8.90945 9.09883C8.7985 8.99018 8.71036 8.86048 8.65018 8.71733C8.59001 8.57417 8.55901 8.42045 8.55901 8.26517C8.55901 8.10988 8.59001 7.95616 8.65018 7.81301C8.71036 7.66986 8.7985 7.54015 8.90945 7.43151C9.02039 7.32286 9.15191 7.23745 9.29629 7.18028C9.44067 7.12311 9.595 7.09534 9.75026 7.09859C10.0554 7.10497 10.3459 7.23068 10.5595 7.44876C10.7731 7.66684 10.8927 7.95993 10.8927 8.26517C10.8927 8.57041 10.7731 8.86349 10.5595 9.08157C10.3459 9.29965 10.0554 9.42537 9.75026 9.43175ZM12.6668 10.3332C12.7449 10.3355 12.8226 10.3221 12.8953 10.2938C12.9681 10.2656 13.0345 10.223 13.0905 10.1686C13.1465 10.1142 13.191 10.0491 13.2214 9.97725C13.2518 9.90534 13.2675 9.82807 13.2675 9.75C13.2675 9.67193 13.2518 9.59466 13.2214 9.52276C13.191 9.45085 13.1465 9.38578 13.0905 9.3314C13.0345 9.27702 12.9681 9.23444 12.8953 9.20617C12.8226 9.1779 12.7449 9.16453 12.6668 9.16684C12.5152 9.17132 12.3712 9.23473 12.2655 9.34361C12.1598 9.45248 12.1007 9.59826 12.1007 9.75C12.1007 9.90174 12.1598 10.0475 12.2655 10.1564C12.3712 10.2653 12.5152 10.3287 12.6668 10.3332Z" fill="currentColor"/>
</svg>
