<svg width="16" height="16" viewBox="0 0 16 16" fill="none" xmlns="http://www.w3.org/2000/svg">
<path d="M8 1C4.16806 1 1 4.16806 1 8C1 11.8319 4.16806 15 8 15C11.8319 15 15 11.8319 15 8C15 4.16806 11.8319 1 8 1ZM8 3.94672C9.03089 3.94672 9.84212 4.75809 9.84212 5.78891C9.84212 6.81973 9.03089 7.6311 8 7.6311C6.96911 7.6311 6.15788 6.8198 6.15788 5.78898C6.15788 4.75816 6.96911 3.94672 8 3.94672ZM11.1681 10.8747C10.8731 11.4648 9.39965 11.9794 8 12.0531C6.52664 11.9794 5.05328 11.463 4.75816 10.8747C4.09435 9.62092 6.3053 8.36883 8 8.36883C9.69477 8.36883 11.8319 9.62092 11.1681 10.8747Z" fill="currentColor"/>
</svg>
