<svg width="16" height="16" viewBox="0 0 16 16" fill="none" xmlns="http://www.w3.org/2000/svg">
<path d="M8 1C4.16806 1 1 4.16806 1 8C1 11.8319 4.16806 15 8 15C11.8319 15 15 11.8319 15 8C15 4.16806 11.8319 1 8 1ZM8 3.94672C9.03089 3.94672 9.84212 4.75809 9.84212 5.78891C9.84212 6.81973 9.03089 7.6311 8 7.6311C6.96911 7.6311 6.15788 6.8198 6.15788 5.78898C6.15788 4.75816 6.96911 3.94672 8 3.94672ZM11.1681 10.8747C10.8731 11.4648 9.39965 11.9794 8 12.0531C6.52664 11.9794 5.05328 11.463 4.75816 10.8747C4.09435 9.62092 6.3053 8.36883 8 8.36883C9.69477 8.36883 11.8319 9.62092 11.1681 10.8747Z" fill="currentColor"/>
<path d="M9.56604 8.29694C9.56604 8.17297 9.48906 8.05184 9.36226 8.0148C9.15396 7.9521 8.96227 8.09744 8.96227 8.28554V8.93818H9.56604V8.29694ZM12.8868 8.29694C12.8868 8.17297 12.8098 8.05184 12.683 8.0148C12.4747 7.9521 12.283 8.09744 12.283 8.28554V8.93818H12.8868V8.29694Z" fill="#3ECF8E"/>
<path d="M14.3962 8.93675H12.8868V9.45544C12.8868 9.57941 12.8098 9.70054 12.683 9.73758C12.4747 9.80028 12.283 9.65494 12.283 9.46684V8.93533H9.56604V9.45402C9.56604 9.57799 9.48906 9.69911 9.36226 9.73616C9.15396 9.79886 8.96226 9.65351 8.96226 9.46542V8.9339H7.60377C7.27019 8.9339 7 9.18897 7 9.50389V14.43C7 14.7449 7.27019 15 7.60377 15H14.3962C14.7298 15 15 14.7449 15 14.43V9.50674C15 9.19182 14.7298 8.93675 14.3962 8.93675ZM8.89283 13.9811L8.36302 13.481C8.34707 13.387 8.35496 13.2908 8.38604 13.2002C8.41711 13.1097 8.47049 13.0274 8.54178 12.9601C8.61308 12.8927 8.70026 12.8424 8.79618 12.813C8.8921 12.7837 8.99403 12.7762 9.09358 12.7913L9.6234 13.2915C9.63934 13.3854 9.63145 13.4817 9.60038 13.5722C9.5693 13.6628 9.51593 13.7451 9.44463 13.8124C9.37334 13.8797 9.28615 13.9301 9.19023 13.9594C9.09431 13.9888 8.99239 13.9962 8.89283 13.9811ZM8.89283 11.9349L8.36302 11.4347C8.34707 11.3407 8.35496 11.2445 8.38604 11.154C8.41711 11.0634 8.47049 10.9811 8.54178 10.9138C8.61308 10.8465 8.70026 10.7961 8.79618 10.7668C8.8921 10.7374 8.99403 10.73 9.09358 10.745L9.6234 11.2452C9.6392 11.3392 9.63122 11.4353 9.6001 11.5258C9.56897 11.6163 9.5156 11.6986 9.44433 11.7658C9.37307 11.8331 9.28594 11.8835 9.19009 11.9129C9.09423 11.9423 8.99237 11.9498 8.89283 11.9349ZM10.8566 13.9811L10.3268 13.481C10.3108 13.387 10.3187 13.2908 10.3498 13.2002C10.3809 13.1097 10.4343 13.0274 10.5056 12.9601C10.5769 12.8927 10.664 12.8424 10.76 12.813C10.8559 12.7837 10.9578 12.7762 11.0574 12.7913L11.5872 13.2915C11.6033 13.3855 11.5955 13.4817 11.5644 13.5724C11.5334 13.663 11.48 13.7453 11.4087 13.8127C11.3374 13.88 11.2501 13.9304 11.1542 13.9597C11.0582 13.989 10.9562 13.9963 10.8566 13.9811ZM10.8566 11.9349L10.3268 11.4347C10.3108 11.3407 10.3187 11.2445 10.3498 11.154C10.3809 11.0634 10.4343 10.9811 10.5056 10.9138C10.5769 10.8465 10.664 10.7961 10.76 10.7668C10.8559 10.7374 10.9578 10.73 11.0574 10.745L11.5872 11.2452C11.6031 11.3392 11.5952 11.4354 11.5642 11.526C11.5331 11.6165 11.4797 11.6988 11.4084 11.7661C11.3371 11.8334 11.2499 11.8838 11.154 11.9132C11.0581 11.9425 10.9562 11.9499 10.8566 11.9349ZM12.8219 11.9349L12.2921 11.4347C12.2761 11.3407 12.284 11.2445 12.3151 11.154C12.3462 11.0634 12.3995 10.9811 12.4708 10.9138C12.5421 10.8465 12.6293 10.7961 12.7252 10.7668C12.8212 10.7374 12.9231 10.73 13.0226 10.745L13.5525 11.2452C13.5683 11.3392 13.5603 11.4353 13.5292 11.5258C13.498 11.6163 13.4447 11.6986 13.3734 11.7658C13.3021 11.8331 13.215 11.8835 13.1191 11.9129C13.0233 11.9423 12.9214 11.9498 12.8219 11.9349Z" fill="#3ECF8E"/>
</svg>
