<svg width="16" height="16" viewBox="0 0 16 16" fill="none" xmlns="http://www.w3.org/2000/svg">
<path d="M6 2C6 1.86739 6.05268 1.74021 6.14645 1.64645C6.24021 1.55268 6.36739 1.5 6.5 1.5H9.5C9.63261 1.5 9.75979 1.55268 9.85355 1.64645C9.94732 1.74021 10 1.86739 10 2V5H6V2ZM5 6H2C1.86739 6 1.74021 6.05268 1.64645 6.14645C1.55268 6.24021 1.5 6.36739 1.5 6.5V9.5C1.5 9.63261 1.55268 9.75979 1.64645 9.85355C1.74021 9.94732 1.86739 10 2 10H5V6ZM6 11V14C6 14.1326 6.05268 14.2598 6.14645 14.3536C6.24021 14.4473 6.36739 14.5 6.5 14.5H9.5C9.63261 14.5 9.75979 14.4473 9.85355 14.3536C9.94732 14.2598 10 14.1326 10 14V11H6ZM11 10H14C14.1326 10 14.2598 9.94732 14.3536 9.85355C14.4473 9.75979 14.5 9.63261 14.5 9.5V6.5C14.5 6.36739 14.4473 6.24021 14.3536 6.14645C14.2598 6.05268 14.1326 6 14 6H11V10ZM10 6H6V10H10V6Z" fill="currentColor"/>
</svg>
