<svg width="16" height="16" viewBox="0 0 16 16" fill="none" xmlns="http://www.w3.org/2000/svg">
<path d="M4.28116 2C4.1851 2.00004 4.09172 2.03169 4.01543 2.09007C3.93915 2.14844 3.8842 2.2303 3.85906 2.32301L1.01524 12.8233C0.997657 12.8881 0.995253 12.9562 1.00821 13.0221C1.02118 13.0881 1.04913 13.1501 1.08995 13.2035C1.13078 13.2569 1.18336 13.3002 1.24361 13.3299C1.30385 13.3597 1.37014 13.3752 1.43734 13.3753H14.5627C14.6299 13.3752 14.6962 13.3597 14.7564 13.3299C14.8166 13.3002 14.8692 13.2569 14.91 13.2035C14.9509 13.1501 14.9788 13.0881 14.9918 13.0221C15.0047 12.9562 15.0023 12.8881 14.9848 12.8233L12.1409 2.32301C12.1158 2.2303 12.0609 2.14844 11.9846 2.09007C11.9083 2.03169 11.8149 2.00004 11.7188 2H4.28116ZM4.61613 2.87502H6.44142L6.25161 4.62506H4.14099L4.61613 2.87502ZM7.32325 2.87502H8.67675L8.86645 4.62506H7.13355L7.32325 2.87502ZM9.55868 2.87502H11.3839L11.8573 4.62506H9.74839L9.55868 2.87502ZM3.90517 5.50009H6.15599L5.87055 8.12515H3.19422L3.90517 5.50009ZM7.03782 5.50009H8.96218L9.24762 8.12515H6.75238L7.03782 5.50009ZM9.84401 5.50009H12.0948L12.8058 8.12515H10.1294L9.84401 5.50009ZM2.95664 9.00017H5.77482L5.39542 12.5003H2.00813L2.95664 9.00017ZM6.65841 9.00017H9.34159L9.72275 12.5003H6.27736L6.65841 9.00017ZM10.2252 9.00017H13.0434L13.9919 12.5003H10.6046L10.2252 9.00017Z" fill="currentColor"/>
</svg>
