<svg width="16" height="16" viewBox="0 0 16 16" fill="none" xmlns="http://www.w3.org/2000/svg">
<path d="M1.4375 1C1.32147 1.00001 1.21019 1.04611 1.12815 1.12815C1.0461 1.2102 1.00001 1.32147 1 1.4375V14.5625C1.00001 14.6785 1.0461 14.7898 1.12815 14.8718C1.21019 14.9539 1.32147 15 1.4375 15H14.5625C14.6785 15 14.7898 14.9539 14.8719 14.8718C14.9539 14.7898 15 14.6785 15 14.5625V1.4375C15 1.32147 14.9539 1.2102 14.8719 1.12815C14.7898 1.04611 14.6785 1.00001 14.5625 1H1.4375ZM1.875 1.875H5.375V5.375H1.875V1.875ZM6.25 1.875H9.75V5.375H6.25V1.875ZM10.625 1.875H14.125V5.375H10.625V1.875ZM1.875 6.25H5.375V9.75H1.875V6.25ZM6.25 6.25H9.75V9.75H6.25V6.25ZM10.625 6.25H14.125V9.75H10.625V6.25ZM1.875 10.625H5.375V14.125H1.875V10.625ZM6.25 10.625H9.75V14.125H6.25V10.625ZM10.625 10.625H14.125V14.125H10.625V10.625Z" fill="currentColor"/>
</svg>
