<svg width="800" height="600" viewBox="0 0 800 600" fill="none" xmlns="http://www.w3.org/2000/svg">
<g filter="url(#filter0_i_102_2)">
<path d="M360.594 142.51C367.212 133.563 381.118 135.541 384.979 145.978L400.309 187.411C405.941 202.632 392.052 217.87 376.375 213.669L347.643 205.97C334.021 202.32 328.353 186.096 336.74 174.758L360.594 142.51Z" fill="#F59C39"/>
</g>
<mask id="mask0_102_2" style="mask-type:alpha" maskUnits="userSpaceOnUse" x="332" y="136" width="70" height="79">
<path d="M360.594 142.51C367.212 133.563 381.118 135.541 384.979 145.978L400.309 187.411C405.941 202.632 392.052 217.87 376.375 213.669L347.643 205.97C334.021 202.32 328.353 186.096 336.74 174.758L360.594 142.51Z" fill="#F59C39"/>
</mask>
<g mask="url(#mask0_102_2)">
<g filter="url(#filter1_f_102_2)">
<path d="M367.994 165.608L385.811 121.612L375.916 113.542L337.339 153.453L367.994 165.608Z" fill="#FFE2AF"/>
</g>
</g>
<g filter="url(#filter2_i_102_2)">
<path d="M482.263 175.185C481.013 164.113 467.959 158.867 459.395 165.994L425.295 194.374C412.829 204.748 417.247 224.867 432.913 229.065L461.73 236.786C475.345 240.434 488.361 229.232 486.781 215.225L482.263 175.185Z" fill="#F59C39"/>
</g>
<mask id="mask1_102_2" style="mask-type:alpha" maskUnits="userSpaceOnUse" x="418" y="162" width="69" height="76">
<path d="M482.263 175.185C481.013 164.113 467.959 158.867 459.395 165.994L425.295 194.374C412.829 204.748 417.247 224.867 432.913 229.065L461.73 236.786C475.345 240.434 488.361 229.232 486.781 215.225L482.263 175.185Z" fill="#F59C39"/>
</mask>
<g mask="url(#mask1_102_2)">
<g filter="url(#filter3_f_102_2)">
<path d="M479.191 148.111L444.486 177.578C431.229 188.835 441.517 210.369 458.604 207.13V207.13L460.574 199.775C464.004 186.976 469.313 174.757 476.327 163.516L476.963 162.497C479.64 158.207 480.445 153.009 479.191 148.111V148.111Z" fill="#FFEDC5"/>
</g>
</g>
<g filter="url(#filter4_i_102_2)">
<path d="M312.603 149.691C314.162 131.452 338.785 126.912 346.746 143.395L351.88 154.023C359 168.764 379.152 170.842 389.13 157.864L412.113 127.972C421.878 115.273 442.12 120.697 444.227 136.577L449.185 173.955C451.338 190.184 469.829 198.461 483.366 189.254L493.125 182.617C508.262 172.323 527.315 188.566 519.546 205.141L477.041 295.818L304.075 249.471L312.603 149.691Z" fill="url(#paint0_linear_102_2)"/>
</g>
<ellipse cx="390.497" cy="272.874" rx="89.0486" ry="10.9445" transform="rotate(15 390.497 272.874)" fill="#6F6F6F"/>
<mask id="mask2_102_2" style="mask-type:alpha" maskUnits="userSpaceOnUse" x="304" y="120" width="218" height="176">
<path d="M312.603 149.691C314.162 131.452 338.785 126.912 346.746 143.395L351.88 154.023C359 168.764 379.152 170.842 389.13 157.864L412.113 127.972C421.878 115.273 442.12 120.697 444.227 136.577L449.185 173.955C451.338 190.184 469.829 198.461 483.366 189.254L493.125 182.617C508.262 172.323 527.315 188.566 519.546 205.141L477.041 295.818L304.075 249.471L312.603 149.691Z" fill="url(#paint1_linear_102_2)"/>
</mask>
<g mask="url(#mask2_102_2)">
<g filter="url(#filter5_f_102_2)">
<path d="M345.924 249.847L304.075 249.471L317.286 96.1074L361.312 173.671L345.924 249.847Z" fill="#FED99C"/>
</g>
<g filter="url(#filter6_f_102_2)">
<path d="M316.064 249.728L304.075 249.471L317.286 96.1074L324.734 92.6843L316.064 249.728Z" fill="#FFA34F"/>
</g>
<g filter="url(#filter7_f_102_2)">
<path d="M310.093 247.636L298.105 247.379L317.286 96.1074L318.764 90.5918L310.093 247.636Z" fill="#F87C0B"/>
</g>
<g filter="url(#filter8_f_102_2)">
<path d="M348.067 252.162L336.352 259.844L369.527 112.076L367.032 177.071L348.067 252.162Z" fill="#FFF9D5"/>
</g>
<g filter="url(#filter9_f_102_2)">
<path d="M366.476 256.585L345.769 262.614L377.495 114.211L394.987 150.18L366.476 256.585Z" fill="#FDFFF1"/>
</g>
<g filter="url(#filter10_f_102_2)">
<path d="M405.212 256.391L366.093 254.266L405.072 108.792L442.124 78.3238L405.212 256.391Z" fill="#FFF9D5"/>
</g>
<g filter="url(#filter11_f_102_2)">
<path d="M445.779 275.618L396.561 262.43L435.54 116.956L472.592 86.4878L479.806 174.878L445.779 275.618Z" fill="#FEBB6B"/>
</g>
<g filter="url(#filter12_f_102_2)">
<path d="M471.325 282.463L445.31 275.492L479.681 170.657L494.109 163.685L531.883 151.145L471.325 282.463Z" fill="#FEA252"/>
</g>
<g filter="url(#filter13_f_102_2)">
<path d="M481.169 285.1L470.622 282.274L522.752 172.099L544.07 154.411L481.169 285.1Z" fill="#FFCE9E"/>
</g>
<path d="M358.016 173.313L329.419 118.325L334.955 112.665L377.037 171.234C374.614 180.278 362.337 181.621 358.016 173.313Z" fill="url(#paint2_linear_102_2)"/>
<path d="M469.578 203.206L521.838 169.883L519.874 162.214L454.145 191.895C451.722 200.94 461.682 208.24 469.578 203.206Z" fill="url(#paint3_linear_102_2)"/>
<g filter="url(#filter14_f_102_2)">
<ellipse cx="432.482" cy="117.121" rx="14.0731" ry="13.7996" transform="rotate(15 432.482 117.121)" fill="#EA7405"/>
</g>
<g opacity="0.7" filter="url(#filter15_f_102_2)">
<ellipse cx="325.274" cy="115.983" rx="13.1025" ry="12.8479" transform="rotate(15 325.274 115.983)" fill="#EA7405"/>
</g>
<g opacity="0.7" filter="url(#filter16_f_102_2)">
<ellipse cx="527.302" cy="170.116" rx="13.1025" ry="12.8479" transform="rotate(15 527.302 170.116)" fill="#EA7405"/>
</g>
</g>
<path d="M303.417 251.281L304.699 236.283C332.008 237.173 362.533 241.735 394.065 250.184C427.451 259.13 457.681 271.285 482.611 285.118L476.707 297.713C453.76 283.291 425.227 270.85 393.329 262.303C361.431 253.756 330.501 250.264 303.417 251.281Z" fill="#FF9535"/>
<mask id="mask3_102_2" style="mask-type:alpha" maskUnits="userSpaceOnUse" x="303" y="236" width="180" height="62">
<path d="M303.417 251.281L304.699 236.283C332.008 237.173 362.533 241.735 394.065 250.184C427.451 259.13 457.681 271.285 482.611 285.118L476.707 297.713C453.76 283.291 425.227 270.85 393.329 262.303C361.431 253.756 330.501 250.264 303.417 251.281Z" fill="#FD9434"/>
</mask>
<g mask="url(#mask3_102_2)">
<g filter="url(#filter17_f_102_2)">
<path d="M304.131 238.402L304.699 236.283C332.008 237.173 362.533 241.735 394.065 250.184C427.451 259.13 457.681 271.285 482.611 285.118L481.78 288.22C458.833 273.798 425.532 260.34 393.634 251.793C361.736 243.246 331.215 237.386 304.131 238.402Z" fill="#FFE4BD"/>
</g>
</g>
<ellipse cx="435.684" cy="105.171" rx="22.3228" ry="21.889" transform="rotate(15 435.684 105.171)" fill="url(#paint4_radial_102_2)"/>
<ellipse cx="324.432" cy="107.875" rx="16.9848" ry="16.6547" transform="rotate(15 324.432 107.875)" fill="url(#paint5_radial_102_2)"/>
<ellipse cx="531.148" cy="163.264" rx="16.9848" ry="16.6547" transform="rotate(15 531.148 163.264)" fill="url(#paint6_radial_102_2)"/>
<g filter="url(#filter18_di_102_2)">
<path d="M393.633 188.982L407.111 211.806L430.195 198.779" stroke="url(#paint7_linear_102_2)" stroke-width="20" stroke-linecap="round" stroke-linejoin="round"/>
</g>
<g filter="url(#filter19_i_102_2)">
<ellipse cx="390.497" cy="272.874" rx="89.5339" ry="10.9445" transform="rotate(15 390.497 272.874)" fill="url(#paint8_linear_102_2)"/>
</g>
<mask id="mask4_102_2" style="mask-type:alpha" maskUnits="userSpaceOnUse" x="303" y="247" width="175" height="52">
<ellipse cx="390.497" cy="272.874" rx="89.5339" ry="10.9445" transform="rotate(15 390.497 272.874)" fill="url(#paint9_linear_102_2)"/>
</mask>
<g mask="url(#mask4_102_2)">
<g filter="url(#filter20_f_102_2)">
<ellipse cx="394.783" cy="258.751" rx="85.1664" ry="16.6547" transform="rotate(15 394.783 258.751)" fill="#ED5E15"/>
</g>
</g>
<g filter="url(#filter21_f_102_2)">
<ellipse cx="61.0739" cy="11.9454" rx="61.0739" ry="11.9454" transform="matrix(0.980804 0.194998 -0.192432 0.98131 321.947 362.636)" fill="#FED99C"/>
</g>
<g filter="url(#filter22_f_102_2)">
<path d="M436.705 98.5477C435.957 101.34 429.995 102.169 427.147 101.406C424.299 100.643 422.597 97.7604 423.346 94.9681C424.094 92.1758 429.746 87.8157 432.594 88.5787C435.441 89.3417 437.453 95.7554 436.705 98.5477Z" fill="#FEF4A0"/>
</g>
<g filter="url(#filter23_f_102_2)">
<path d="M533.628 159.631C533.035 161.846 528.232 162.483 525.934 161.867C523.636 161.251 522.254 158.957 522.847 156.742C523.441 154.528 527.981 151.085 530.28 151.701C532.578 152.317 534.222 157.416 533.628 159.631Z" fill="#FEF4A0"/>
</g>
<g filter="url(#filter24_f_102_2)">
<path d="M325.506 103.865C324.913 106.08 320.11 106.717 317.812 106.101C315.514 105.485 314.132 103.191 314.725 100.976C315.319 98.7616 319.86 95.3192 322.158 95.9349C324.456 96.5507 326.1 101.65 325.506 103.865Z" fill="#FEF4A0"/>
</g>
<path d="M358.104 383.4L327.512 453.288L296.92 383.4H265.688L307.416 473H347.736L389.336 383.4H358.104ZM421.503 383.4H393.343V473H421.503V383.4ZM499.618 383.4H429.218V473H457.378V450.6H499.618C519.97 450.6 533.922 436.904 533.922 416.936C533.922 396.968 519.97 383.4 499.618 383.4ZM493.218 426.792H457.378V407.208H493.218C498.466 407.208 505.762 407.208 505.762 416.936C505.762 426.792 498.466 426.792 493.218 426.792Z" fill="url(#paint10_linear_102_2)"/>
<path opacity="0.5" d="M192.2 517.832C187.24 517.832 184.76 522.616 184.76 532.184V535.976C184.76 540.52 185.416 544.088 186.728 546.68C188.04 549.24 189.976 550.52 192.536 550.52C196.056 550.52 199.288 547.096 202.232 540.248H203.096L202.76 550.952H202.232C202.04 550.6 201.864 550.36 201.704 550.232C201.544 550.072 201.304 549.992 200.984 549.992C200.696 549.992 199.544 550.248 197.528 550.76C195.512 551.24 193.464 551.48 191.384 551.48C186.168 551.48 182.12 550.072 179.24 547.256C176.392 544.44 174.968 540.216 174.968 534.584C174.968 528.92 176.456 524.552 179.432 521.48C182.44 518.408 186.472 516.872 191.528 516.872C193.48 516.872 195.384 517.128 197.24 517.64C199.128 518.12 200.232 518.36 200.552 518.36C200.872 518.36 201.112 518.296 201.272 518.168C201.432 518.008 201.608 517.752 201.8 517.4H202.328L202.712 527.816H201.848C200.408 524.584 198.92 522.12 197.384 520.424C195.88 518.696 194.152 517.832 192.2 517.832ZM228.736 536.168V532.616C228.736 526.76 228.448 523.064 227.872 521.528C227.232 519.768 226.32 518.68 225.136 518.264C224.464 518.008 223.648 517.88 222.688 517.88C221.728 517.88 220.896 518.008 220.192 518.264C219.52 518.52 218.96 518.968 218.512 519.608C218.064 520.248 217.696 520.92 217.408 521.624C217.152 522.328 216.944 523.32 216.784 524.6C216.592 526.456 216.496 529.192 216.496 532.808V536.264C216.496 540.168 216.64 542.952 216.928 544.616C217.248 546.248 217.632 547.416 218.08 548.12C219.072 549.688 220.608 550.472 222.688 550.472C225.216 550.472 226.848 549.416 227.584 547.304C228.352 545.16 228.736 541.448 228.736 536.168ZM222.592 551.48C217.248 551.48 213.248 550.04 210.592 547.16C207.968 544.248 206.656 540.056 206.656 534.584C206.656 529.08 208.064 524.76 210.88 521.624C213.728 518.456 217.744 516.872 222.928 516.872C228.112 516.872 232.016 518.376 234.64 521.384C237.296 524.36 238.624 528.6 238.624 534.104C238.624 539.608 237.28 543.88 234.592 546.92C231.936 549.96 227.936 551.48 222.592 551.48ZM268.914 518.312V551H262.194L245.73 519.944V550.088H248.37V551H241.794V550.088H244.434V518.312H241.794V517.4H255.042L267.618 541.496V518.312H264.978V517.4H271.554V518.312H268.914ZM291.001 550.52C292.569 550.52 293.561 550.232 293.977 549.656C294.425 549.08 294.649 548.104 294.649 546.728V537.416H291.577V536.36H305.401V537.416H303.529V550.952H302.809C302.233 550.152 301.417 549.752 300.361 549.752C299.913 549.752 298.569 550.04 296.329 550.616C294.121 551.192 292.233 551.48 290.665 551.48C285.449 551.48 281.401 550.072 278.521 547.256C275.673 544.44 274.249 540.216 274.249 534.584C274.249 528.92 275.737 524.552 278.713 521.48C281.721 518.408 285.753 516.872 290.809 516.872C292.761 516.872 294.713 517.128 296.665 517.64C298.649 518.12 299.801 518.36 300.121 518.36C300.441 518.36 300.681 518.296 300.841 518.168C301.001 518.008 301.177 517.752 301.369 517.4H301.897L302.281 527.816H301.417C299.849 524.712 298.265 522.28 296.665 520.52C295.097 518.728 293.337 517.832 291.385 517.832C286.489 517.832 284.041 522.616 284.041 532.184V535.976C284.041 540.776 284.633 544.408 285.817 546.872C287.033 549.304 288.761 550.52 291.001 550.52ZM322.713 534.008H320.169V550.088H323.289V551H307.689V550.088H310.809V518.312H307.689V517.4H322.185C326.345 517.4 329.289 517.624 331.017 518.072C332.777 518.488 334.009 519 334.713 519.608C336.249 520.856 337.017 522.84 337.017 525.56C337.017 528.28 336.345 530.232 335.001 531.416C333.657 532.568 331.609 533.256 328.857 533.48V533.624C331.449 533.976 333.257 534.744 334.281 535.928C335.305 537.112 335.817 539.096 335.817 541.88V544.424C335.817 546.088 335.897 547.208 336.057 547.784C336.249 548.36 336.633 548.648 337.209 548.648C337.785 548.648 338.233 548.392 338.553 547.88C338.905 547.336 339.225 546.216 339.513 544.52L340.329 544.616C339.977 547.336 339.353 549.16 338.457 550.088C337.593 551.016 335.849 551.48 333.225 551.48C330.601 551.48 328.729 550.872 327.609 549.656C326.521 548.408 325.977 546.088 325.977 542.696V539.192C325.977 537.4 325.737 536.088 325.257 535.256C324.809 534.424 323.961 534.008 322.713 534.008ZM320.169 518.312V533.096H321.705C323.529 533.096 324.873 532.536 325.737 531.416C326.633 530.296 327.081 528.472 327.081 525.944V524.552C327.081 522.024 326.649 520.36 325.785 519.56C324.953 518.728 323.609 518.312 321.753 518.312H320.169ZM361.595 550.088L358.091 539.72H348.587L344.891 550.088H348.491V551H341.147V550.088H343.403L355.643 517.112H359.579L371.675 550.088H373.883V551H358.187V550.088H361.595ZM353.531 526.088L349.019 538.664H357.707L353.531 526.088ZM399.934 517.4L400.414 529.448H399.502C398.094 525.192 396.846 522.296 395.758 520.76C394.67 519.192 393.102 518.408 391.054 518.408H390.478V549.992H394.558V551H377.038V549.992H381.118V518.408H380.494C378.446 518.408 376.862 519.224 375.742 520.856C374.622 522.456 373.39 525.32 372.046 529.448H371.134L371.614 517.4H399.934ZM415.18 540.776C415.18 543.72 415.676 545.976 416.668 547.544C417.692 549.112 419.516 549.896 422.14 549.896C424.764 549.896 426.78 549.08 428.188 547.448C429.596 545.816 430.3 543.336 430.3 540.008V518.312H427.18V517.4H434.188V518.312H431.548V539.672C431.548 543.64 430.668 546.6 428.908 548.552C427.148 550.504 424.028 551.48 419.548 551.48C415.1 551.48 411.692 550.552 409.324 548.696C406.988 546.84 405.82 543.656 405.82 539.144V518.312H403.18V517.4H418.3V518.312H415.18V540.776ZM435.946 517.4H453.226V518.456H448.138V549.944H449.866C452.586 549.944 454.746 549.112 456.346 547.448C457.978 545.784 459.626 543.224 461.29 539.768H462.298L461.385 551H435.946V549.944H438.778V518.456H435.946V517.4ZM484.267 550.088L480.763 539.72H471.259L467.563 550.088H471.163V551H463.819V550.088H466.075L478.315 517.112H482.251L494.347 550.088H496.555V551H480.859V550.088H484.267ZM476.203 526.088L471.691 538.664H480.379L476.203 526.088ZM522.606 517.4L523.086 529.448H522.174C520.766 525.192 519.518 522.296 518.43 520.76C517.342 519.192 515.774 518.408 513.726 518.408H513.15V549.992H517.23V551H499.71V549.992H503.79V518.408H503.166C501.118 518.408 499.534 519.224 498.414 520.856C497.294 522.456 496.062 525.32 494.718 529.448H493.806L494.286 517.4H522.606ZM526.044 517.4H540.684V518.312H538.044V550.088H540.684V551H526.044V550.088H528.684V518.312H526.044V517.4ZM565.954 536.168V532.616C565.954 526.76 565.666 523.064 565.09 521.528C564.45 519.768 563.538 518.68 562.354 518.264C561.682 518.008 560.866 517.88 559.906 517.88C558.946 517.88 558.114 518.008 557.41 518.264C556.738 518.52 556.178 518.968 555.73 519.608C555.282 520.248 554.914 520.92 554.626 521.624C554.37 522.328 554.162 523.32 554.002 524.6C553.81 526.456 553.714 529.192 553.714 532.808V536.264C553.714 540.168 553.858 542.952 554.146 544.616C554.466 546.248 554.85 547.416 555.298 548.12C556.29 549.688 557.826 550.472 559.906 550.472C562.434 550.472 564.066 549.416 564.802 547.304C565.57 545.16 565.954 541.448 565.954 536.168ZM559.81 551.48C554.466 551.48 550.466 550.04 547.81 547.16C545.186 544.248 543.874 540.056 543.874 534.584C543.874 529.08 545.282 524.76 548.098 521.624C550.946 518.456 554.962 516.872 560.146 516.872C565.33 516.872 569.234 518.376 571.858 521.384C574.514 524.36 575.842 528.6 575.842 534.104C575.842 539.608 574.498 543.88 571.81 546.92C569.154 549.96 565.154 551.48 559.81 551.48ZM606.133 518.312V551H599.413L582.949 519.944V550.088H585.589V551H579.013V550.088H581.653V518.312H579.013V517.4H592.261L604.837 541.496V518.312H602.197V517.4H608.773V518.312H606.133Z" fill="#5F533F"/>
<defs>
<filter id="filter0_i_102_2" x="332.806" y="136.833" width="72.7804" height="81.5442" filterUnits="userSpaceOnUse" color-interpolation-filters="sRGB">
<feFlood flood-opacity="0" result="BackgroundImageFix"/>
<feBlend mode="normal" in="SourceGraphic" in2="BackgroundImageFix" result="shape"/>
<feColorMatrix in="SourceAlpha" type="matrix" values="0 0 0 0 0 0 0 0 0 0 0 0 0 0 0 0 0 0 127 0" result="hardAlpha"/>
<feOffset dx="4" dy="4"/>
<feGaussianBlur stdDeviation="6"/>
<feComposite in2="hardAlpha" operator="arithmetic" k2="-1" k3="1"/>
<feColorMatrix type="matrix" values="0 0 0 0 1 0 0 0 0 0.9725 0 0 0 0 0.875 0 0 0 1 0"/>
<feBlend mode="normal" in2="shape" result="effect1_innerShadow_102_2"/>
</filter>
<filter id="filter1_f_102_2" x="302.339" y="78.5417" width="118.473" height="122.067" filterUnits="userSpaceOnUse" color-interpolation-filters="sRGB">
<feFlood flood-opacity="0" result="BackgroundImageFix"/>
<feBlend mode="normal" in="SourceGraphic" in2="BackgroundImageFix" result="shape"/>
<feGaussianBlur stdDeviation="17.5" result="effect1_foregroundBlur_102_2"/>
</filter>
<filter id="filter2_i_102_2" x="418.078" y="162.737" width="72.8329" height="78.7453" filterUnits="userSpaceOnUse" color-interpolation-filters="sRGB">
<feFlood flood-opacity="0" result="BackgroundImageFix"/>
<feBlend mode="normal" in="SourceGraphic" in2="BackgroundImageFix" result="shape"/>
<feColorMatrix in="SourceAlpha" type="matrix" values="0 0 0 0 0 0 0 0 0 0 0 0 0 0 0 0 0 0 127 0" result="hardAlpha"/>
<feOffset dx="4" dy="4"/>
<feGaussianBlur stdDeviation="6"/>
<feComposite in2="hardAlpha" operator="arithmetic" k2="-1" k3="1"/>
<feColorMatrix type="matrix" values="0 0 0 0 1 0 0 0 0 0.9725 0 0 0 0 0.875 0 0 0 1 0"/>
<feBlend mode="normal" in2="shape" result="effect1_innerShadow_102_2"/>
</filter>
<filter id="filter3_f_102_2" x="393.443" y="103.111" width="131.326" height="149.347" filterUnits="userSpaceOnUse" color-interpolation-filters="sRGB">
<feFlood flood-opacity="0" result="BackgroundImageFix"/>
<feBlend mode="normal" in="SourceGraphic" in2="BackgroundImageFix" result="shape"/>
<feGaussianBlur stdDeviation="22.5" result="effect1_foregroundBlur_102_2"/>
</filter>
<filter id="filter4_i_102_2" x="304.075" y="118.925" width="223.266" height="176.892" filterUnits="userSpaceOnUse" color-interpolation-filters="sRGB">
<feFlood flood-opacity="0" result="BackgroundImageFix"/>
<feBlend mode="normal" in="SourceGraphic" in2="BackgroundImageFix" result="shape"/>
<feColorMatrix in="SourceAlpha" type="matrix" values="0 0 0 0 0 0 0 0 0 0 0 0 0 0 0 0 0 0 127 0" result="hardAlpha"/>
<feOffset dx="6" dy="-2"/>
<feGaussianBlur stdDeviation="6.5"/>
<feComposite in2="hardAlpha" operator="arithmetic" k2="-1" k3="1"/>
<feColorMatrix type="matrix" values="0 0 0 0 1 0 0 0 0 0.9725 0 0 0 0 0.875 0 0 0 1 0"/>
<feBlend mode="normal" in2="shape" result="effect1_innerShadow_102_2"/>
</filter>
<filter id="filter5_f_102_2" x="238.075" y="30.1074" width="189.237" height="285.74" filterUnits="userSpaceOnUse" color-interpolation-filters="sRGB">
<feFlood flood-opacity="0" result="BackgroundImageFix"/>
<feBlend mode="normal" in="SourceGraphic" in2="BackgroundImageFix" result="shape"/>
<feGaussianBlur stdDeviation="33" result="effect1_foregroundBlur_102_2"/>
</filter>
<filter id="filter6_f_102_2" x="270.075" y="58.6842" width="88.6591" height="225.044" filterUnits="userSpaceOnUse" color-interpolation-filters="sRGB">
<feFlood flood-opacity="0" result="BackgroundImageFix"/>
<feBlend mode="normal" in="SourceGraphic" in2="BackgroundImageFix" result="shape"/>
<feGaussianBlur stdDeviation="17" result="effect1_foregroundBlur_102_2"/>
</filter>
<filter id="filter7_f_102_2" x="261.105" y="53.5918" width="94.6591" height="231.044" filterUnits="userSpaceOnUse" color-interpolation-filters="sRGB">
<feFlood flood-opacity="0" result="BackgroundImageFix"/>
<feBlend mode="normal" in="SourceGraphic" in2="BackgroundImageFix" result="shape"/>
<feGaussianBlur stdDeviation="18.5" result="effect1_foregroundBlur_102_2"/>
</filter>
<filter id="filter8_f_102_2" x="304.352" y="80.0759" width="97.1752" height="211.768" filterUnits="userSpaceOnUse" color-interpolation-filters="sRGB">
<feFlood flood-opacity="0" result="BackgroundImageFix"/>
<feBlend mode="normal" in="SourceGraphic" in2="BackgroundImageFix" result="shape"/>
<feGaussianBlur stdDeviation="16" result="effect1_foregroundBlur_102_2"/>
</filter>
<filter id="filter9_f_102_2" x="299.769" y="68.2111" width="141.218" height="240.403" filterUnits="userSpaceOnUse" color-interpolation-filters="sRGB">
<feFlood flood-opacity="0" result="BackgroundImageFix"/>
<feBlend mode="normal" in="SourceGraphic" in2="BackgroundImageFix" result="shape"/>
<feGaussianBlur stdDeviation="23" result="effect1_foregroundBlur_102_2"/>
</filter>
<filter id="filter10_f_102_2" x="263.093" y="-24.6762" width="282.031" height="384.067" filterUnits="userSpaceOnUse" color-interpolation-filters="sRGB">
<feFlood flood-opacity="0" result="BackgroundImageFix"/>
<feBlend mode="normal" in="SourceGraphic" in2="BackgroundImageFix" result="shape"/>
<feGaussianBlur stdDeviation="51.5" result="effect1_foregroundBlur_102_2"/>
</filter>
<filter id="filter11_f_102_2" x="339.561" y="29.4878" width="197.245" height="303.13" filterUnits="userSpaceOnUse" color-interpolation-filters="sRGB">
<feFlood flood-opacity="0" result="BackgroundImageFix"/>
<feBlend mode="normal" in="SourceGraphic" in2="BackgroundImageFix" result="shape"/>
<feGaussianBlur stdDeviation="28.5" result="effect1_foregroundBlur_102_2"/>
</filter>
<filter id="filter12_f_102_2" x="388.31" y="94.1454" width="200.573" height="245.317" filterUnits="userSpaceOnUse" color-interpolation-filters="sRGB">
<feFlood flood-opacity="0" result="BackgroundImageFix"/>
<feBlend mode="normal" in="SourceGraphic" in2="BackgroundImageFix" result="shape"/>
<feGaussianBlur stdDeviation="28.5" result="effect1_foregroundBlur_102_2"/>
</filter>
<filter id="filter13_f_102_2" x="413.622" y="97.411" width="187.448" height="244.689" filterUnits="userSpaceOnUse" color-interpolation-filters="sRGB">
<feFlood flood-opacity="0" result="BackgroundImageFix"/>
<feBlend mode="normal" in="SourceGraphic" in2="BackgroundImageFix" result="shape"/>
<feGaussianBlur stdDeviation="28.5" result="effect1_foregroundBlur_102_2"/>
</filter>
<filter id="filter14_f_102_2" x="397.423" y="82.2999" width="70.1167" height="69.6431" filterUnits="userSpaceOnUse" color-interpolation-filters="sRGB">
<feFlood flood-opacity="0" result="BackgroundImageFix"/>
<feBlend mode="normal" in="SourceGraphic" in2="BackgroundImageFix" result="shape"/>
<feGaussianBlur stdDeviation="10.5" result="effect1_foregroundBlur_102_2"/>
</filter>
<filter id="filter15_f_102_2" x="303.185" y="94.1143" width="44.1777" height="43.7366" filterUnits="userSpaceOnUse" color-interpolation-filters="sRGB">
<feFlood flood-opacity="0" result="BackgroundImageFix"/>
<feBlend mode="normal" in="SourceGraphic" in2="BackgroundImageFix" result="shape"/>
<feGaussianBlur stdDeviation="4.5" result="effect1_foregroundBlur_102_2"/>
</filter>
<filter id="filter16_f_102_2" x="505.213" y="148.248" width="44.1777" height="43.7366" filterUnits="userSpaceOnUse" color-interpolation-filters="sRGB">
<feFlood flood-opacity="0" result="BackgroundImageFix"/>
<feBlend mode="normal" in="SourceGraphic" in2="BackgroundImageFix" result="shape"/>
<feGaussianBlur stdDeviation="4.5" result="effect1_foregroundBlur_102_2"/>
</filter>
<filter id="filter17_f_102_2" x="299.131" y="231.283" width="188.479" height="61.9365" filterUnits="userSpaceOnUse" color-interpolation-filters="sRGB">
<feFlood flood-opacity="0" result="BackgroundImageFix"/>
<feBlend mode="normal" in="SourceGraphic" in2="BackgroundImageFix" result="shape"/>
<feGaussianBlur stdDeviation="2.5" result="effect1_foregroundBlur_102_2"/>
</filter>
<filter id="filter18_di_102_2" x="378.632" y="170.98" width="72.5653" height="58.8272" filterUnits="userSpaceOnUse" color-interpolation-filters="sRGB">
<feFlood flood-opacity="0" result="BackgroundImageFix"/>
<feColorMatrix in="SourceAlpha" type="matrix" values="0 0 0 0 0 0 0 0 0 0 0 0 0 0 0 0 0 0 127 0" result="hardAlpha"/>
<feOffset dx="3"/>
<feGaussianBlur stdDeviation="4"/>
<feComposite in2="hardAlpha" operator="out"/>
<feColorMatrix type="matrix" values="0 0 0 0 0.921569 0 0 0 0 0.470588 0 0 0 0 0.0313726 0 0 0 1 0"/>
<feBlend mode="normal" in2="BackgroundImageFix" result="effect1_dropShadow_102_2"/>
<feBlend mode="normal" in="SourceGraphic" in2="effect1_dropShadow_102_2" result="shape"/>
<feColorMatrix in="SourceAlpha" type="matrix" values="0 0 0 0 0 0 0 0 0 0 0 0 0 0 0 0 0 0 127 0" result="hardAlpha"/>
<feOffset dx="3" dy="2"/>
<feGaussianBlur stdDeviation="3"/>
<feComposite in2="hardAlpha" operator="arithmetic" k2="-1" k3="1"/>
<feColorMatrix type="matrix" values="0 0 0 0 0.996078 0 0 0 0 0.964706 0 0 0 0 0.854902 0 0 0 1 0"/>
<feBlend mode="normal" in2="shape" result="effect2_innerShadow_102_2"/>
</filter>
<filter id="filter19_i_102_2" x="303.966" y="247.398" width="173.061" height="52.9536" filterUnits="userSpaceOnUse" color-interpolation-filters="sRGB">
<feFlood flood-opacity="0" result="BackgroundImageFix"/>
<feBlend mode="normal" in="SourceGraphic" in2="BackgroundImageFix" result="shape"/>
<feColorMatrix in="SourceAlpha" type="matrix" values="0 0 0 0 0 0 0 0 0 0 0 0 0 0 0 0 0 0 127 0" result="hardAlpha"/>
<feOffset dy="2"/>
<feGaussianBlur stdDeviation="11"/>
<feComposite in2="hardAlpha" operator="arithmetic" k2="-1" k3="1"/>
<feColorMatrix type="matrix" values="0 0 0 0 0.866667 0 0 0 0 0.508011 0 0 0 0 0.176944 0 0 0 1 0"/>
<feBlend mode="normal" in2="shape" result="effect1_innerShadow_102_2"/>
</filter>
<filter id="filter20_f_102_2" x="286.404" y="205.461" width="216.759" height="106.581" filterUnits="userSpaceOnUse" color-interpolation-filters="sRGB">
<feFlood flood-opacity="0" result="BackgroundImageFix"/>
<feBlend mode="normal" in="SourceGraphic" in2="BackgroundImageFix" result="shape"/>
<feGaussianBlur stdDeviation="13" result="effect1_foregroundBlur_102_2"/>
</filter>
<filter id="filter21_f_102_2" x="224.604" y="274.557" width="309.893" height="223.421" filterUnits="userSpaceOnUse" color-interpolation-filters="sRGB">
<feFlood flood-opacity="0" result="BackgroundImageFix"/>
<feBlend mode="normal" in="SourceGraphic" in2="BackgroundImageFix" result="shape"/>
<feGaussianBlur stdDeviation="47.5" result="effect1_foregroundBlur_102_2"/>
</filter>
<filter id="filter22_f_102_2" x="398.169" y="63.4905" width="63.6929" height="63.1846" filterUnits="userSpaceOnUse" color-interpolation-filters="sRGB">
<feFlood flood-opacity="0" result="BackgroundImageFix"/>
<feBlend mode="normal" in="SourceGraphic" in2="BackgroundImageFix" result="shape"/>
<feGaussianBlur stdDeviation="12.5" result="effect1_foregroundBlur_102_2"/>
</filter>
<filter id="filter23_f_102_2" x="497.71" y="126.628" width="61.0406" height="60.4611" filterUnits="userSpaceOnUse" color-interpolation-filters="sRGB">
<feFlood flood-opacity="0" result="BackgroundImageFix"/>
<feBlend mode="normal" in="SourceGraphic" in2="BackgroundImageFix" result="shape"/>
<feGaussianBlur stdDeviation="12.5" result="effect1_foregroundBlur_102_2"/>
</filter>
<filter id="filter24_f_102_2" x="289.588" y="70.8624" width="61.0406" height="60.4611" filterUnits="userSpaceOnUse" color-interpolation-filters="sRGB">
<feFlood flood-opacity="0" result="BackgroundImageFix"/>
<feBlend mode="normal" in="SourceGraphic" in2="BackgroundImageFix" result="shape"/>
<feGaussianBlur stdDeviation="12.5" result="effect1_foregroundBlur_102_2"/>
</filter>
<linearGradient id="paint0_linear_102_2" x1="320.549" y1="112.992" x2="474.724" y2="299.199" gradientUnits="userSpaceOnUse">
<stop stop-color="#FFDDA4"/>
<stop offset="1" stop-color="#FEAD57"/>
</linearGradient>
<linearGradient id="paint1_linear_102_2" x1="320.549" y1="112.992" x2="474.724" y2="299.199" gradientUnits="userSpaceOnUse">
<stop stop-color="#FFDDA4"/>
<stop offset="1" stop-color="#FEAD57"/>
</linearGradient>
<linearGradient id="paint2_linear_102_2" x1="330.97" y1="111.597" x2="360.412" y2="177.54" gradientUnits="userSpaceOnUse">
<stop stop-color="#EB7708"/>
<stop offset="1" stop-color="#FACD6C"/>
</linearGradient>
<linearGradient id="paint3_linear_102_2" x1="523.858" y1="163.282" x2="465.39" y2="205.669" gradientUnits="userSpaceOnUse">
<stop offset="0.226676" stop-color="#FACD6C"/>
<stop offset="1" stop-color="#EB7708"/>
</linearGradient>
<radialGradient id="paint4_radial_102_2" cx="0" cy="0" r="1" gradientUnits="userSpaceOnUse" gradientTransform="translate(417.729 94.4644) rotate(34.2528) scale(42.2716 41.9757)">
<stop stop-color="#FFC85C"/>
<stop offset="1" stop-color="#E97000"/>
</radialGradient>
<radialGradient id="paint5_radial_102_2" cx="0" cy="0" r="1" gradientUnits="userSpaceOnUse" gradientTransform="translate(310.77 99.7286) rotate(34.2528) scale(32.1631 31.938)">
<stop stop-color="#FFC85C"/>
<stop offset="1" stop-color="#E97000"/>
</radialGradient>
<radialGradient id="paint6_radial_102_2" cx="0" cy="0" r="1" gradientUnits="userSpaceOnUse" gradientTransform="translate(517.486 155.118) rotate(34.2528) scale(32.1631 31.938)">
<stop stop-color="#FFC85C"/>
<stop offset="1" stop-color="#E97000"/>
</radialGradient>
<linearGradient id="paint7_linear_102_2" x1="388.946" y1="187.726" x2="427.558" y2="208.299" gradientUnits="userSpaceOnUse">
<stop stop-color="#FFEDCB"/>
<stop offset="1" stop-color="#FFD6A5"/>
</linearGradient>
<linearGradient id="paint8_linear_102_2" x1="307.794" y1="272.874" x2="467.833" y2="272.874" gradientUnits="userSpaceOnUse">
<stop stop-color="#F9A13D"/>
<stop offset="1" stop-color="#F19734"/>
</linearGradient>
<linearGradient id="paint9_linear_102_2" x1="307.794" y1="272.874" x2="467.833" y2="272.874" gradientUnits="userSpaceOnUse">
<stop stop-color="#F9A13D"/>
<stop offset="1" stop-color="#F19734"/>
</linearGradient>
<linearGradient id="paint10_linear_102_2" x1="273.5" y1="382.435" x2="558.737" y2="499.168" gradientUnits="userSpaceOnUse">
<stop stop-color="#9C8869"/>
<stop offset="1" stop-color="#4F4434"/>
</linearGradient>
</defs>
</svg>
