<svg width="16" height="16" viewBox="0 0 16 16" fill="none" xmlns="http://www.w3.org/2000/svg">
<path d="M14.6566 5.53867L12.4312 2.56882C12.2706 2.35565 12.0627 2.18254 11.8241 2.06304C11.5854 1.94354 11.3222 1.88089 11.0553 1.88H4.98751C4.72148 1.88062 4.4592 1.94266 4.22108 2.06129C3.98297 2.17992 3.77548 2.35193 3.61476 2.56392L1.34669 5.56982C1.10502 5.89022 0.983042 6.28506 1.0019 6.68593C1.02076 7.08681 1.17926 7.46846 1.44994 7.76475L6.74177 13.5613C6.90297 13.7376 7.09908 13.8784 7.31763 13.9748C7.53618 14.0712 7.77239 14.1211 8.01126 14.1213H8.01616C8.25581 14.1204 8.49263 14.0696 8.71152 13.972C8.9304 13.8744 9.12654 13.7323 9.2874 13.5546L14.5572 7.7238C14.824 7.42735 14.9798 7.04764 14.9982 6.64925C15.0165 6.25087 14.8963 5.85842 14.658 5.53867H14.6566ZM11.2051 7.59464L8.35637 10.5974C8.31044 10.6457 8.25518 10.6842 8.19393 10.7106C8.13269 10.7369 8.06673 10.7506 8.00006 10.7507C7.93321 10.7506 7.86708 10.7369 7.8057 10.7104C7.74432 10.684 7.68898 10.6453 7.64305 10.5967L4.7943 7.57609C4.70704 7.48089 4.66075 7.35517 4.66546 7.22611C4.67017 7.09706 4.72549 6.97504 4.81945 6.88645C4.91342 6.79787 5.03849 6.74983 5.1676 6.75273C5.29671 6.75564 5.41949 6.80925 5.50938 6.90197L8.00181 9.54526L10.4935 6.92017C10.5376 6.87196 10.5908 6.833 10.65 6.80558C10.7093 6.77816 10.7734 6.76282 10.8387 6.76046C10.9039 6.7581 10.969 6.76877 11.0301 6.79184C11.0911 6.81491 11.147 6.84992 11.1944 6.89483C11.2418 6.93974 11.2798 6.99364 11.3061 7.05339C11.3324 7.11314 11.3466 7.17754 11.3478 7.24282C11.3489 7.30811 11.3371 7.37297 11.3129 7.43361C11.2887 7.49426 11.2526 7.54948 11.2069 7.59604L11.2051 7.59464Z" fill="currentColor"/>
</svg>
