<svg width="14" height="10" viewBox="0 0 14 10" fill="none" xmlns="http://www.w3.org/2000/svg">
<path d="M12 0C13.1046 0 14 0.895431 14 2V4C14 7.31371 11.3137 10 8 10H2C0.895431 10 0 9.10457 0 8V2C0 0.895431 0.895431 4.8319e-08 2 0H12ZM0.859375 2C0.81434 2 0.77832 2.037 0.77832 2.08203C0.778585 2.12684 0.814504 2.16309 0.859375 2.16309H1.0332C1.13763 2.16309 1.23251 2.22636 1.27148 2.32324L3.46094 7.77246C3.53708 7.96187 3.72164 8.08594 3.92578 8.08594H4.02539C4.23299 8.08594 4.41939 7.95771 4.49316 7.76367L6.55664 2.33008C6.59495 2.22944 6.69211 2.16309 6.7998 2.16309H6.97754C7.02241 2.16309 7.05931 2.12684 7.05957 2.08203C7.05957 2.037 7.02257 2 6.97754 2H5.71289C5.66786 2 5.63184 2.037 5.63184 2.08203C5.6321 2.12684 5.66802 2.16309 5.71289 2.16309H5.92871C6.13652 2.16322 6.2797 2.37107 6.20605 2.56543L5.21094 5.19336C5.04686 5.6264 4.43266 5.62328 4.27344 5.18848L3.30078 2.5293C3.23586 2.35142 3.36727 2.16319 3.55664 2.16309H3.74805C3.79292 2.16309 3.82982 2.12684 3.83008 2.08203C3.83008 2.037 3.79308 2 3.74805 2H0.859375ZM7.32031 4C7.29033 4.00026 7.2666 4.02465 7.2666 4.05469C7.2666 4.08489 7.29109 4.10938 7.32129 4.10938H7.4375C7.53215 4.10938 7.60938 4.1866 7.60938 4.28125V7.7207C7.60911 7.81513 7.53199 7.8916 7.4375 7.8916H7.32031C7.29038 7.8916 7.2666 7.91636 7.2666 7.94629C7.26687 7.976 7.29054 8 7.32031 8H9.11035C9.14012 8 9.16478 7.976 9.16504 7.94629C9.16504 7.91636 9.14028 7.8916 9.11035 7.8916H8.99316C8.89851 7.8916 8.82227 7.81438 8.82227 7.71973V4.28027C8.82253 4.18584 8.89867 4.10938 8.99316 4.10938H9.11035C9.14033 4.10911 9.16504 4.08473 9.16504 4.05469C9.16504 4.02465 9.14033 4.00026 9.11035 4H7.32031ZM9.4707 4C9.44072 4.00026 9.41699 4.02465 9.41699 4.05469C9.41699 4.08489 9.44148 4.10938 9.47168 4.10938H9.61914C9.73056 4.10964 9.82129 4.20004 9.82129 4.31152V7.68945C9.82129 7.80093 9.73056 7.89134 9.61914 7.8916H9.4707C9.44077 7.8916 9.41699 7.91636 9.41699 7.94629C9.41726 7.976 9.44093 8 9.4707 8H11.7578C11.7876 8 11.8122 7.976 11.8125 7.94629C11.8125 7.91636 11.7877 7.8916 11.7578 7.8916H11.4229C11.2081 7.8916 11.0344 7.71763 11.0342 7.50293V6.41016C11.0342 6.38265 11.0565 6.36035 11.084 6.36035C11.71 6.36031 12.1976 6.27798 12.5459 6.11426C12.9189 5.93519 13.1064 5.60981 13.1064 5.1377C13.1064 4.7112 12.9522 4.41581 12.6455 4.25195C12.3387 4.08446 11.872 4.00007 11.2461 4H9.4707ZM11.2021 4.10938C11.4381 4.10946 11.6004 4.17354 11.6875 4.30273C11.7787 4.4323 11.8242 4.65977 11.8242 4.9834V5.25781C11.8242 5.60792 11.7769 5.86141 11.6816 6.01758C11.5863 6.17365 11.4136 6.25183 11.165 6.25195C11.0928 6.25195 11.0342 6.19337 11.0342 6.12109V4.27734C11.0342 4.18458 11.1094 4.10938 11.2021 4.10938Z" fill="currentColor"/>
</svg>
