<svg width="300" height="300" viewBox="0 0 300 300" fill="none" xmlns="http://www.w3.org/2000/svg">
<g clip-path="url(#clip0_113_226)">
<g filter="url(#filter0_i_113_226)">
<path d="M70.4838 84.0959C78.4252 72.3871 95.1118 74.9757 99.7448 88.6345L118.14 142.857C124.898 162.777 108.232 182.719 89.4204 177.221L54.9432 167.145C38.5974 162.369 31.7961 141.136 41.8601 126.299L70.4838 84.0959Z" fill="#F59C39"/>
</g>
<mask id="mask0_113_226" style="mask-type:alpha" maskUnits="userSpaceOnUse" x="37" y="76" width="83" height="103">
<path d="M70.4838 84.0959C78.4252 72.3871 95.1118 74.9757 99.7448 88.6345L118.14 142.857C124.898 162.777 108.232 182.719 89.4204 177.221L54.9432 167.145C38.5974 162.369 31.7961 141.136 41.8601 126.299L70.4838 84.0959Z" fill="#F59C39"/>
</mask>
<g mask="url(#mask0_113_226)">
<g filter="url(#filter1_f_113_226)">
<path d="M79.3635 114.324L100.743 56.7469L88.8695 46.1858L42.5789 98.4169L79.3635 114.324Z" fill="#FFE2AF"/>
</g>
</g>
<g filter="url(#filter2_i_113_226)">
<path d="M216.481 126.857C214.981 112.368 199.317 105.502 189.041 114.829L148.122 151.97C133.163 165.546 138.465 191.876 157.263 197.37L191.843 207.474C208.18 212.248 223.799 197.588 221.903 179.257L216.481 126.857Z" fill="#F59C39"/>
</g>
<mask id="mask1_113_226" style="mask-type:alpha" maskUnits="userSpaceOnUse" x="139" y="110" width="84" height="99">
<path d="M216.481 126.857C214.981 112.368 199.317 105.502 189.041 114.829L148.122 151.97C133.163 165.546 138.465 191.876 157.263 197.37L191.843 207.474C208.18 212.248 223.799 197.588 221.903 179.257L216.481 126.857Z" fill="#F59C39"/>
</mask>
<g mask="url(#mask1_113_226)">
<g filter="url(#filter3_f_113_226)">
<path d="M212.795 91.4258L171.15 129.989C155.243 144.721 167.588 172.902 188.091 168.663L190.455 159.038C194.571 142.288 200.942 126.297 209.358 111.586L210.121 110.253C213.334 104.638 214.3 97.8358 212.795 91.4258Z" fill="#FFEDC5"/>
</g>
</g>
<g filter="url(#filter4_i_113_226)">
<path d="M12.8967 93.4937C14.7674 69.6245 44.3139 63.6831 53.8667 85.2542L60.0273 99.163C68.571 118.454 92.7525 121.174 104.726 104.19L132.304 65.0703C144.022 48.4513 168.311 55.5496 170.84 76.3316L176.789 125.248C179.372 146.486 201.561 157.319 217.805 145.269L229.515 136.584C247.679 123.112 270.542 144.369 261.219 166.061L210.215 284.729L2.66345 224.075L12.8967 93.4937Z" fill="url(#paint0_linear_113_226)"/>
</g>
<path d="M102.967 268.537C159.97 285.195 207.702 292.505 209.579 284.864C211.457 277.223 166.768 257.525 109.765 240.867C52.7619 224.209 5.02989 216.899 3.15265 224.54C1.27541 232.181 45.9638 251.879 102.967 268.537Z" fill="#6F6F6F"/>
<mask id="mask2_113_226" style="mask-type:alpha" maskUnits="userSpaceOnUse" x="2" y="55" width="262" height="230">
<path d="M12.8967 93.4937C14.7674 69.6245 44.3139 63.6831 53.8667 85.2542L60.0273 99.163C68.571 118.454 92.7525 121.174 104.726 104.19L132.304 65.0703C144.022 48.4513 168.311 55.5496 170.84 76.3316L176.789 125.248C179.372 146.486 201.561 157.319 217.805 145.269L229.515 136.584C247.679 123.112 270.542 144.369 261.219 166.061L210.215 284.729L2.66345 224.075L12.8967 93.4937Z" fill="url(#paint1_linear_113_226)"/>
</mask>
<g mask="url(#mask2_113_226)">
<g filter="url(#filter5_f_113_226)">
<path d="M52.8804 224.567L2.66345 224.075L18.5161 23.3694L71.3453 124.876L52.8804 224.567Z" fill="#FED99C"/>
</g>
<g filter="url(#filter6_f_113_226)">
<path d="M17.0497 224.411L2.66345 224.075L18.5161 23.3694L27.4533 18.8896L17.0497 224.411Z" fill="#FFA34F"/>
</g>
<g filter="url(#filter7_f_113_226)">
<path d="M9.88479 221.673L-4.50024 221.337L18.5161 23.3695L20.2896 16.1512L9.88479 221.673Z" fill="#F87C0B"/>
</g>
<g filter="url(#filter8_f_113_226)">
<path d="M55.4519 227.596L41.3945 237.65L81.203 44.2673L78.2091 129.326L55.4519 227.596Z" fill="#FFF9D5"/>
</g>
<g filter="url(#filter9_f_113_226)">
<path d="M77.5419 233.385L52.6945 241.275L90.7642 47.0613L111.754 94.1336L77.5419 233.385Z" fill="#FDFFF1"/>
</g>
<g filter="url(#filter10_f_113_226)">
<path d="M124.023 233.131L77.0823 230.35L123.855 39.9696L168.316 0.0961914L124.023 233.131Z" fill="#FFF9D5"/>
</g>
<g filter="url(#filter11_f_113_226)">
<path d="M172.702 258.293L113.643 241.034L160.416 50.6537L204.876 10.7803L213.533 126.456L172.702 258.293Z" fill="#FEBB6B"/>
</g>
<g filter="url(#filter12_f_113_226)">
<path d="M203.356 267.251L172.139 258.128L213.383 120.932L230.696 111.808L276.023 95.3965L203.356 267.251Z" fill="#FEA252"/>
</g>
<g filter="url(#filter13_f_113_226)">
<path d="M215.168 270.702L202.513 267.004L265.066 122.819L290.647 99.6707L215.168 270.702Z" fill="#FFCE9E"/>
</g>
<path d="M67.3903 124.408L33.0752 52.4454L39.7181 45.0382L90.2147 121.687C87.3072 133.523 72.5753 135.28 67.3903 124.408Z" fill="url(#paint2_linear_113_226)"/>
<path d="M201.26 163.528L263.969 119.919L261.613 109.882L182.741 148.726C179.833 160.563 191.785 170.116 201.26 163.528Z" fill="url(#paint3_linear_113_226)"/>
<g filter="url(#filter14_f_113_226)">
<path d="M152.46 68.3137C161.469 70.9463 170.691 65.2705 173.058 55.6365C175.425 46.0024 170.041 36.0583 161.032 33.4257C152.023 30.7931 142.801 36.4689 140.434 46.103C138.068 55.737 143.452 65.6811 152.46 68.3137Z" fill="#EA7405"/>
</g>
<g opacity="0.7" filter="url(#filter15_f_113_226)">
<path d="M24.1112 65.6213C32.4986 68.0724 41.0844 62.788 43.2881 53.8183C45.4918 44.8487 40.4789 35.5904 32.0916 33.1393C23.7042 30.6883 15.1184 35.9727 12.9147 44.9423C10.711 53.912 15.7238 63.1703 24.1112 65.6213Z" fill="#EA7405"/>
</g>
<g opacity="0.7" filter="url(#filter16_f_113_226)">
<path d="M266.536 136.465C274.923 138.916 283.509 133.631 285.713 124.662C287.916 115.692 282.903 106.434 274.516 103.983C266.129 101.532 257.543 106.816 255.339 115.786C253.136 124.755 258.148 134.014 266.536 136.465Z" fill="#EA7405"/>
</g>
</g>
<path d="M1.87384 226.443L3.4122 206.816C36.1818 207.98 72.8104 213.951 110.647 225.008C150.709 236.715 186.984 252.622 216.899 270.726L209.814 287.208C182.279 268.335 148.04 252.053 109.764 240.868C71.4881 229.682 34.3734 225.112 1.87384 226.443Z" fill="#FF9535"/>
<mask id="mask3_113_226" style="mask-type:alpha" maskUnits="userSpaceOnUse" x="1" y="206" width="216" height="82">
<path d="M1.87384 226.443L3.4122 206.816C36.1818 207.98 72.8104 213.951 110.647 225.008C150.709 236.715 186.984 252.622 216.899 270.726L209.814 287.208C182.279 268.335 148.04 252.053 109.764 240.868C71.4881 229.682 34.3734 225.112 1.87384 226.443Z" fill="#FD9434"/>
</mask>
<g mask="url(#mask3_113_226)">
<g filter="url(#filter17_f_113_226)">
<path d="M2.73071 209.589L3.41228 206.816C36.1819 207.98 72.8105 213.951 110.648 225.008C150.709 236.715 186.984 252.622 216.899 270.725L215.902 274.785C188.366 255.911 148.407 238.299 110.13 227.113C71.8541 215.928 35.2303 208.259 2.73071 209.589Z" fill="#FFE4BD"/>
</g>
</g>
<path d="M153.79 62.9007C168.08 67.0765 182.708 58.0735 186.462 42.7919C190.217 27.5103 181.676 11.7369 167.387 7.56103C153.097 3.38519 138.469 12.3882 134.715 27.6698C130.96 42.9514 139.501 58.7248 153.79 62.9007Z" fill="url(#paint4_radial_113_226)"/>
<path d="M21.9185 59.8227C32.7911 63 43.9208 56.1498 46.7775 44.5225C49.6342 32.8952 43.136 20.8936 32.2634 17.7164C21.3909 14.5391 10.2611 21.3892 7.40443 33.0165C4.54775 44.6439 11.0459 56.6454 21.9185 59.8227Z" fill="url(#paint5_radial_113_226)"/>
<path d="M269.969 132.31C280.841 135.487 291.971 128.637 294.828 117.01C297.684 105.382 291.186 93.3807 280.313 90.2034C269.441 87.0261 258.311 93.8763 255.454 105.504C252.598 117.131 259.096 129.132 269.969 132.31Z" fill="url(#paint6_radial_113_226)"/>
<mask id="mask4_113_226" style="mask-type:alpha" maskUnits="userSpaceOnUse" x="2" y="55" width="262" height="230">
<path d="M12.8967 93.4937C14.7674 69.6245 44.3139 63.6831 53.8667 85.2542L60.0273 99.163C68.571 118.454 92.7525 121.174 104.726 104.19L132.304 65.0703C144.022 48.4513 168.311 55.5496 170.84 76.3316L176.789 125.248C179.372 146.486 201.561 157.319 217.805 145.269L229.515 136.584C247.679 123.112 270.542 144.369 261.219 166.061L210.215 284.729L2.66345 224.075L12.8967 93.4937Z" fill="url(#paint7_linear_113_226)"/>
</mask>
<g mask="url(#mask4_113_226)">
<g filter="url(#filter18_f_113_226)">
<path d="M52.8804 224.567L2.66345 224.075L18.5161 23.3694L71.3453 124.876L52.8804 224.567Z" fill="#FED99C"/>
</g>
<g filter="url(#filter19_f_113_226)">
<path d="M17.0497 224.411L2.66345 224.075L18.5161 23.3694L27.4533 18.8896L17.0497 224.411Z" fill="#FFA34F"/>
</g>
<g filter="url(#filter20_f_113_226)">
<path d="M9.88479 221.673L-4.50024 221.337L18.5161 23.3695L20.2896 16.1512L9.88479 221.673Z" fill="#F87C0B"/>
</g>
<g filter="url(#filter21_f_113_226)">
<path d="M55.4519 227.596L41.3945 237.65L81.203 44.2673L78.2091 129.326L55.4519 227.596Z" fill="#FFF9D5"/>
</g>
<g filter="url(#filter22_f_113_226)">
<path d="M77.5419 233.385L52.6945 241.275L90.7642 47.0613L111.754 94.1336L77.5419 233.385Z" fill="#FDFFF1"/>
</g>
<g filter="url(#filter23_f_113_226)">
<path d="M124.023 233.131L77.0823 230.35L123.855 39.9696L168.316 0.0961914L124.023 233.131Z" fill="#FFF9D5"/>
</g>
<g filter="url(#filter24_f_113_226)">
<path d="M172.702 258.293L113.643 241.034L160.416 50.6537L204.876 10.7803L213.533 126.456L172.702 258.293Z" fill="#FEBB6B"/>
</g>
<g filter="url(#filter25_f_113_226)">
<path d="M203.356 267.251L172.139 258.128L213.383 120.932L230.696 111.808L276.023 95.3965L203.356 267.251Z" fill="#FEA252"/>
</g>
<g filter="url(#filter26_f_113_226)">
<path d="M215.168 270.702L202.513 267.004L265.066 122.819L290.647 99.6707L215.168 270.702Z" fill="#FFCE9E"/>
</g>
<path d="M67.3903 124.408L33.0752 52.4454L39.7181 45.0382L90.2147 121.687C87.3072 133.523 72.5753 135.28 67.3903 124.408Z" fill="url(#paint8_linear_113_226)"/>
<path d="M201.26 163.528L263.969 119.919L261.613 109.882L182.741 148.726C179.833 160.563 191.785 170.116 201.26 163.528Z" fill="url(#paint9_linear_113_226)"/>
<g filter="url(#filter27_f_113_226)">
<path d="M152.46 68.3137C161.469 70.9463 170.691 65.2705 173.058 55.6365C175.425 46.0024 170.041 36.0583 161.032 33.4257C152.023 30.7931 142.801 36.4689 140.434 46.103C138.068 55.737 143.452 65.6811 152.46 68.3137Z" fill="#EA7405"/>
</g>
<g opacity="0.7" filter="url(#filter28_f_113_226)">
<path d="M24.1112 65.6213C32.4986 68.0724 41.0844 62.788 43.2881 53.8183C45.4918 44.8487 40.4789 35.5904 32.0916 33.1393C23.7042 30.6883 15.1184 35.9727 12.9147 44.9423C10.711 53.912 15.7238 63.1703 24.1112 65.6213Z" fill="#EA7405"/>
</g>
<g opacity="0.7" filter="url(#filter29_f_113_226)">
<path d="M266.536 136.465C274.923 138.916 283.509 133.631 285.713 124.662C287.916 115.692 282.903 106.434 274.516 103.983C266.129 101.532 257.543 106.816 255.339 115.786C253.136 124.755 258.148 134.014 266.536 136.465Z" fill="#EA7405"/>
</g>
</g>
<path d="M153.79 62.9007C168.08 67.0765 182.708 58.0735 186.462 42.7919C190.217 27.5103 181.676 11.7369 167.387 7.56103C153.097 3.38519 138.469 12.3882 134.715 27.6698C130.96 42.9514 139.501 58.7248 153.79 62.9007Z" fill="url(#paint10_radial_113_226)"/>
<path d="M21.9185 59.8227C32.7911 63 43.9208 56.1498 46.7775 44.5225C49.6342 32.8952 43.136 20.8936 32.2634 17.7164C21.3909 14.5391 10.2611 21.3892 7.40443 33.0165C4.54775 44.6439 11.0459 56.6454 21.9185 59.8227Z" fill="url(#paint11_radial_113_226)"/>
<path d="M269.969 132.31C280.841 135.487 291.971 128.637 294.828 117.01C297.684 105.382 291.186 93.3807 280.313 90.2034C269.441 87.0261 258.311 93.8763 255.454 105.504C252.598 117.131 259.096 129.132 269.969 132.31Z" fill="url(#paint12_radial_113_226)"/>
<g filter="url(#filter30_di_113_226)">
<path d="M110.129 144.913L126.302 174.783L154.002 157.735" stroke="url(#paint13_linear_113_226)" stroke-width="20" stroke-linecap="round" stroke-linejoin="round"/>
</g>
<g filter="url(#filter31_i_113_226)">
<path d="M102.967 268.537C160.281 285.286 208.265 292.669 210.142 285.028C212.019 277.388 167.079 257.616 109.765 240.867C52.4513 224.118 4.46746 216.735 2.59021 224.376C0.71297 232.016 45.6532 251.788 102.967 268.537Z" fill="url(#paint14_linear_113_226)"/>
</g>
<mask id="mask5_113_226" style="mask-type:alpha" maskUnits="userSpaceOnUse" x="2" y="221" width="209" height="68">
<path d="M102.967 268.537C160.281 285.286 208.265 292.669 210.142 285.028C212.019 277.388 167.079 257.616 109.765 240.867C52.4513 224.118 4.46746 216.735 2.59021 224.376C0.71297 232.016 45.6532 251.788 102.967 268.537Z" fill="url(#paint15_linear_113_226)"/>
</mask>
<g mask="url(#mask5_113_226)">
<g filter="url(#filter32_f_113_226)">
<path d="M106.337 257.273C160.855 273.204 207.366 276.694 210.223 265.066C213.079 253.439 171.2 231.098 116.682 215.166C62.1635 199.234 15.6521 195.745 12.7954 207.372C9.93874 219 51.8185 241.341 106.337 257.273Z" fill="#ED5E15"/>
</g>
</g>
<g filter="url(#filter33_f_113_226)">
<path d="M161.814 26.563C160.916 30.2172 153.762 31.3021 150.344 30.3036C146.927 29.3051 144.885 25.5326 145.783 21.8784C146.681 18.2241 153.463 12.5181 156.881 13.5166C160.297 14.5152 162.711 22.9087 161.814 26.563Z" fill="#FEF4A0"/>
</g>
<g filter="url(#filter34_f_113_226)">
<path d="M278.117 106.502C277.405 109.401 271.642 110.234 268.884 109.428C266.127 108.622 264.469 105.62 265.18 102.721C265.893 99.8237 271.341 95.3179 274.099 96.1241C276.857 96.9302 278.83 103.603 278.117 106.502Z" fill="#FEF4A0"/>
</g>
<g filter="url(#filter35_f_113_226)">
<path d="M28.3797 33.5217C27.6682 36.4204 21.9048 37.2541 19.1473 36.4479C16.3898 35.6418 14.7314 32.6396 15.443 29.7409C16.1558 26.8429 21.6048 22.3379 24.3623 23.1437C27.1198 23.9496 29.0925 30.623 28.3797 33.5217Z" fill="#FEF4A0"/>
</g>
</g>
<defs>
<filter id="filter0_i_113_226" x="37.1398" y="76.6657" width="86.5338" height="105.481" filterUnits="userSpaceOnUse" color-interpolation-filters="sRGB">
<feFlood flood-opacity="0" result="BackgroundImageFix"/>
<feBlend mode="normal" in="SourceGraphic" in2="BackgroundImageFix" result="shape"/>
<feColorMatrix in="SourceAlpha" type="matrix" values="0 0 0 0 0 0 0 0 0 0 0 0 0 0 0 0 0 0 127 0" result="hardAlpha"/>
<feOffset dx="4" dy="4"/>
<feGaussianBlur stdDeviation="6"/>
<feComposite in2="hardAlpha" operator="arithmetic" k2="-1" k3="1"/>
<feColorMatrix type="matrix" values="0 0 0 0 1 0 0 0 0 0.9725 0 0 0 0 0.875 0 0 0 1 0"/>
<feBlend mode="normal" in2="shape" result="effect1_innerShadow_113_226"/>
</filter>
<filter id="filter1_f_113_226" x="7.57886" y="11.1858" width="128.164" height="138.138" filterUnits="userSpaceOnUse" color-interpolation-filters="sRGB">
<feFlood flood-opacity="0" result="BackgroundImageFix"/>
<feBlend mode="normal" in="SourceGraphic" in2="BackgroundImageFix" result="shape"/>
<feGaussianBlur stdDeviation="17.5" result="effect1_foregroundBlur_113_226"/>
</filter>
<filter id="filter2_i_113_226" x="139.463" y="110.567" width="86.5967" height="101.818" filterUnits="userSpaceOnUse" color-interpolation-filters="sRGB">
<feFlood flood-opacity="0" result="BackgroundImageFix"/>
<feBlend mode="normal" in="SourceGraphic" in2="BackgroundImageFix" result="shape"/>
<feColorMatrix in="SourceAlpha" type="matrix" values="0 0 0 0 0 0 0 0 0 0 0 0 0 0 0 0 0 0 127 0" result="hardAlpha"/>
<feOffset dx="4" dy="4"/>
<feGaussianBlur stdDeviation="6"/>
<feComposite in2="hardAlpha" operator="arithmetic" k2="-1" k3="1"/>
<feColorMatrix type="matrix" values="0 0 0 0 1 0 0 0 0 0.9725 0 0 0 0 0.875 0 0 0 1 0"/>
<feBlend mode="normal" in2="shape" result="effect1_innerShadow_113_226"/>
</filter>
<filter id="filter3_f_113_226" x="118.899" y="46.4258" width="139.589" height="167.667" filterUnits="userSpaceOnUse" color-interpolation-filters="sRGB">
<feFlood flood-opacity="0" result="BackgroundImageFix"/>
<feBlend mode="normal" in="SourceGraphic" in2="BackgroundImageFix" result="shape"/>
<feGaussianBlur stdDeviation="22.5" result="effect1_foregroundBlur_113_226"/>
</filter>
<filter id="filter4_i_113_226" x="2.66345" y="53.8483" width="266.71" height="230.88" filterUnits="userSpaceOnUse" color-interpolation-filters="sRGB">
<feFlood flood-opacity="0" result="BackgroundImageFix"/>
<feBlend mode="normal" in="SourceGraphic" in2="BackgroundImageFix" result="shape"/>
<feColorMatrix in="SourceAlpha" type="matrix" values="0 0 0 0 0 0 0 0 0 0 0 0 0 0 0 0 0 0 127 0" result="hardAlpha"/>
<feOffset dx="6" dy="-2"/>
<feGaussianBlur stdDeviation="6.5"/>
<feComposite in2="hardAlpha" operator="arithmetic" k2="-1" k3="1"/>
<feColorMatrix type="matrix" values="0 0 0 0 1 0 0 0 0 0.9725 0 0 0 0 0.875 0 0 0 1 0"/>
<feBlend mode="normal" in2="shape" result="effect1_innerShadow_113_226"/>
</filter>
<filter id="filter5_f_113_226" x="-63.3365" y="-42.6306" width="200.682" height="333.197" filterUnits="userSpaceOnUse" color-interpolation-filters="sRGB">
<feFlood flood-opacity="0" result="BackgroundImageFix"/>
<feBlend mode="normal" in="SourceGraphic" in2="BackgroundImageFix" result="shape"/>
<feGaussianBlur stdDeviation="33" result="effect1_foregroundBlur_113_226"/>
</filter>
<filter id="filter6_f_113_226" x="-31.3365" y="-15.1104" width="92.7899" height="273.521" filterUnits="userSpaceOnUse" color-interpolation-filters="sRGB">
<feFlood flood-opacity="0" result="BackgroundImageFix"/>
<feBlend mode="normal" in="SourceGraphic" in2="BackgroundImageFix" result="shape"/>
<feGaussianBlur stdDeviation="17" result="effect1_foregroundBlur_113_226"/>
</filter>
<filter id="filter7_f_113_226" x="-41.5002" y="-20.8488" width="98.7899" height="279.522" filterUnits="userSpaceOnUse" color-interpolation-filters="sRGB">
<feFlood flood-opacity="0" result="BackgroundImageFix"/>
<feBlend mode="normal" in="SourceGraphic" in2="BackgroundImageFix" result="shape"/>
<feGaussianBlur stdDeviation="18.5" result="effect1_foregroundBlur_113_226"/>
</filter>
<filter id="filter8_f_113_226" x="9.39447" y="12.2673" width="103.809" height="257.382" filterUnits="userSpaceOnUse" color-interpolation-filters="sRGB">
<feFlood flood-opacity="0" result="BackgroundImageFix"/>
<feBlend mode="normal" in="SourceGraphic" in2="BackgroundImageFix" result="shape"/>
<feGaussianBlur stdDeviation="16" result="effect1_foregroundBlur_113_226"/>
</filter>
<filter id="filter9_f_113_226" x="6.69446" y="1.06134" width="151.059" height="286.213" filterUnits="userSpaceOnUse" color-interpolation-filters="sRGB">
<feFlood flood-opacity="0" result="BackgroundImageFix"/>
<feBlend mode="normal" in="SourceGraphic" in2="BackgroundImageFix" result="shape"/>
<feGaussianBlur stdDeviation="23" result="effect1_foregroundBlur_113_226"/>
</filter>
<filter id="filter10_f_113_226" x="-25.9177" y="-102.904" width="297.234" height="439.035" filterUnits="userSpaceOnUse" color-interpolation-filters="sRGB">
<feFlood flood-opacity="0" result="BackgroundImageFix"/>
<feBlend mode="normal" in="SourceGraphic" in2="BackgroundImageFix" result="shape"/>
<feGaussianBlur stdDeviation="51.5" result="effect1_foregroundBlur_113_226"/>
</filter>
<filter id="filter11_f_113_226" x="56.6426" y="-46.2197" width="213.89" height="361.513" filterUnits="userSpaceOnUse" color-interpolation-filters="sRGB">
<feFlood flood-opacity="0" result="BackgroundImageFix"/>
<feBlend mode="normal" in="SourceGraphic" in2="BackgroundImageFix" result="shape"/>
<feGaussianBlur stdDeviation="28.5" result="effect1_foregroundBlur_113_226"/>
</filter>
<filter id="filter12_f_113_226" x="115.139" y="38.3965" width="217.884" height="285.854" filterUnits="userSpaceOnUse" color-interpolation-filters="sRGB">
<feFlood flood-opacity="0" result="BackgroundImageFix"/>
<feBlend mode="normal" in="SourceGraphic" in2="BackgroundImageFix" result="shape"/>
<feGaussianBlur stdDeviation="28.5" result="effect1_foregroundBlur_113_226"/>
</filter>
<filter id="filter13_f_113_226" x="145.513" y="42.6707" width="202.134" height="285.031" filterUnits="userSpaceOnUse" color-interpolation-filters="sRGB">
<feFlood flood-opacity="0" result="BackgroundImageFix"/>
<feBlend mode="normal" in="SourceGraphic" in2="BackgroundImageFix" result="shape"/>
<feGaussianBlur stdDeviation="28.5" result="effect1_foregroundBlur_113_226"/>
</filter>
<filter id="filter14_f_113_226" x="118.877" y="11.7816" width="75.7389" height="78.1763" filterUnits="userSpaceOnUse" color-interpolation-filters="sRGB">
<feFlood flood-opacity="0" result="BackgroundImageFix"/>
<feBlend mode="normal" in="SourceGraphic" in2="BackgroundImageFix" result="shape"/>
<feGaussianBlur stdDeviation="10.5" result="effect1_foregroundBlur_113_226"/>
</filter>
<filter id="filter15_f_113_226" x="3.39545" y="23.5397" width="49.4119" height="51.6813" filterUnits="userSpaceOnUse" color-interpolation-filters="sRGB">
<feFlood flood-opacity="0" result="BackgroundImageFix"/>
<feBlend mode="normal" in="SourceGraphic" in2="BackgroundImageFix" result="shape"/>
<feGaussianBlur stdDeviation="4.5" result="effect1_foregroundBlur_113_226"/>
</filter>
<filter id="filter16_f_113_226" x="245.82" y="94.383" width="49.4119" height="51.6813" filterUnits="userSpaceOnUse" color-interpolation-filters="sRGB">
<feFlood flood-opacity="0" result="BackgroundImageFix"/>
<feBlend mode="normal" in="SourceGraphic" in2="BackgroundImageFix" result="shape"/>
<feGaussianBlur stdDeviation="4.5" result="effect1_foregroundBlur_113_226"/>
</filter>
<filter id="filter17_f_113_226" x="-2.26929" y="201.816" width="224.168" height="77.9694" filterUnits="userSpaceOnUse" color-interpolation-filters="sRGB">
<feFlood flood-opacity="0" result="BackgroundImageFix"/>
<feBlend mode="normal" in="SourceGraphic" in2="BackgroundImageFix" result="shape"/>
<feGaussianBlur stdDeviation="2.5" result="effect1_foregroundBlur_113_226"/>
</filter>
<filter id="filter18_f_113_226" x="-63.3365" y="-42.6306" width="200.682" height="333.197" filterUnits="userSpaceOnUse" color-interpolation-filters="sRGB">
<feFlood flood-opacity="0" result="BackgroundImageFix"/>
<feBlend mode="normal" in="SourceGraphic" in2="BackgroundImageFix" result="shape"/>
<feGaussianBlur stdDeviation="33" result="effect1_foregroundBlur_113_226"/>
</filter>
<filter id="filter19_f_113_226" x="-31.3365" y="-15.1104" width="92.7899" height="273.521" filterUnits="userSpaceOnUse" color-interpolation-filters="sRGB">
<feFlood flood-opacity="0" result="BackgroundImageFix"/>
<feBlend mode="normal" in="SourceGraphic" in2="BackgroundImageFix" result="shape"/>
<feGaussianBlur stdDeviation="17" result="effect1_foregroundBlur_113_226"/>
</filter>
<filter id="filter20_f_113_226" x="-41.5002" y="-20.8488" width="98.7899" height="279.522" filterUnits="userSpaceOnUse" color-interpolation-filters="sRGB">
<feFlood flood-opacity="0" result="BackgroundImageFix"/>
<feBlend mode="normal" in="SourceGraphic" in2="BackgroundImageFix" result="shape"/>
<feGaussianBlur stdDeviation="18.5" result="effect1_foregroundBlur_113_226"/>
</filter>
<filter id="filter21_f_113_226" x="9.39447" y="12.2673" width="103.809" height="257.382" filterUnits="userSpaceOnUse" color-interpolation-filters="sRGB">
<feFlood flood-opacity="0" result="BackgroundImageFix"/>
<feBlend mode="normal" in="SourceGraphic" in2="BackgroundImageFix" result="shape"/>
<feGaussianBlur stdDeviation="16" result="effect1_foregroundBlur_113_226"/>
</filter>
<filter id="filter22_f_113_226" x="6.69446" y="1.06134" width="151.059" height="286.213" filterUnits="userSpaceOnUse" color-interpolation-filters="sRGB">
<feFlood flood-opacity="0" result="BackgroundImageFix"/>
<feBlend mode="normal" in="SourceGraphic" in2="BackgroundImageFix" result="shape"/>
<feGaussianBlur stdDeviation="23" result="effect1_foregroundBlur_113_226"/>
</filter>
<filter id="filter23_f_113_226" x="-25.9177" y="-102.904" width="297.234" height="439.035" filterUnits="userSpaceOnUse" color-interpolation-filters="sRGB">
<feFlood flood-opacity="0" result="BackgroundImageFix"/>
<feBlend mode="normal" in="SourceGraphic" in2="BackgroundImageFix" result="shape"/>
<feGaussianBlur stdDeviation="51.5" result="effect1_foregroundBlur_113_226"/>
</filter>
<filter id="filter24_f_113_226" x="56.6426" y="-46.2197" width="213.89" height="361.513" filterUnits="userSpaceOnUse" color-interpolation-filters="sRGB">
<feFlood flood-opacity="0" result="BackgroundImageFix"/>
<feBlend mode="normal" in="SourceGraphic" in2="BackgroundImageFix" result="shape"/>
<feGaussianBlur stdDeviation="28.5" result="effect1_foregroundBlur_113_226"/>
</filter>
<filter id="filter25_f_113_226" x="115.139" y="38.3965" width="217.884" height="285.854" filterUnits="userSpaceOnUse" color-interpolation-filters="sRGB">
<feFlood flood-opacity="0" result="BackgroundImageFix"/>
<feBlend mode="normal" in="SourceGraphic" in2="BackgroundImageFix" result="shape"/>
<feGaussianBlur stdDeviation="28.5" result="effect1_foregroundBlur_113_226"/>
</filter>
<filter id="filter26_f_113_226" x="145.513" y="42.6707" width="202.134" height="285.031" filterUnits="userSpaceOnUse" color-interpolation-filters="sRGB">
<feFlood flood-opacity="0" result="BackgroundImageFix"/>
<feBlend mode="normal" in="SourceGraphic" in2="BackgroundImageFix" result="shape"/>
<feGaussianBlur stdDeviation="28.5" result="effect1_foregroundBlur_113_226"/>
</filter>
<filter id="filter27_f_113_226" x="118.877" y="11.7816" width="75.7389" height="78.1763" filterUnits="userSpaceOnUse" color-interpolation-filters="sRGB">
<feFlood flood-opacity="0" result="BackgroundImageFix"/>
<feBlend mode="normal" in="SourceGraphic" in2="BackgroundImageFix" result="shape"/>
<feGaussianBlur stdDeviation="10.5" result="effect1_foregroundBlur_113_226"/>
</filter>
<filter id="filter28_f_113_226" x="3.39545" y="23.5397" width="49.4119" height="51.6813" filterUnits="userSpaceOnUse" color-interpolation-filters="sRGB">
<feFlood flood-opacity="0" result="BackgroundImageFix"/>
<feBlend mode="normal" in="SourceGraphic" in2="BackgroundImageFix" result="shape"/>
<feGaussianBlur stdDeviation="4.5" result="effect1_foregroundBlur_113_226"/>
</filter>
<filter id="filter29_f_113_226" x="245.82" y="94.383" width="49.4119" height="51.6813" filterUnits="userSpaceOnUse" color-interpolation-filters="sRGB">
<feFlood flood-opacity="0" result="BackgroundImageFix"/>
<feBlend mode="normal" in="SourceGraphic" in2="BackgroundImageFix" result="shape"/>
<feGaussianBlur stdDeviation="4.5" result="effect1_foregroundBlur_113_226"/>
</filter>
<filter id="filter30_di_113_226" x="95.1273" y="126.911" width="79.8761" height="65.8715" filterUnits="userSpaceOnUse" color-interpolation-filters="sRGB">
<feFlood flood-opacity="0" result="BackgroundImageFix"/>
<feColorMatrix in="SourceAlpha" type="matrix" values="0 0 0 0 0 0 0 0 0 0 0 0 0 0 0 0 0 0 127 0" result="hardAlpha"/>
<feOffset dx="3"/>
<feGaussianBlur stdDeviation="4"/>
<feComposite in2="hardAlpha" operator="out"/>
<feColorMatrix type="matrix" values="0 0 0 0 0.921569 0 0 0 0 0.470588 0 0 0 0 0.0313726 0 0 0 1 0"/>
<feBlend mode="normal" in2="BackgroundImageFix" result="effect1_dropShadow_113_226"/>
<feBlend mode="normal" in="SourceGraphic" in2="effect1_dropShadow_113_226" result="shape"/>
<feColorMatrix in="SourceAlpha" type="matrix" values="0 0 0 0 0 0 0 0 0 0 0 0 0 0 0 0 0 0 127 0" result="hardAlpha"/>
<feOffset dx="3" dy="2"/>
<feGaussianBlur stdDeviation="3"/>
<feComposite in2="hardAlpha" operator="arithmetic" k2="-1" k3="1"/>
<feColorMatrix type="matrix" values="0 0 0 0 0.996078 0 0 0 0 0.964706 0 0 0 0 0.854902 0 0 0 1 0"/>
<feBlend mode="normal" in2="shape" result="effect2_innerShadow_113_226"/>
</filter>
<filter id="filter31_i_113_226" x="2.53351" y="221.361" width="207.665" height="68.6824" filterUnits="userSpaceOnUse" color-interpolation-filters="sRGB">
<feFlood flood-opacity="0" result="BackgroundImageFix"/>
<feBlend mode="normal" in="SourceGraphic" in2="BackgroundImageFix" result="shape"/>
<feColorMatrix in="SourceAlpha" type="matrix" values="0 0 0 0 0 0 0 0 0 0 0 0 0 0 0 0 0 0 127 0" result="hardAlpha"/>
<feOffset dy="2"/>
<feGaussianBlur stdDeviation="11"/>
<feComposite in2="hardAlpha" operator="arithmetic" k2="-1" k3="1"/>
<feColorMatrix type="matrix" values="0 0 0 0 0.866667 0 0 0 0 0.508011 0 0 0 0 0.176944 0 0 0 1 0"/>
<feBlend mode="normal" in2="shape" result="effect1_innerShadow_113_226"/>
</filter>
<filter id="filter32_f_113_226" x="-13.3425" y="174.504" width="249.703" height="123.43" filterUnits="userSpaceOnUse" color-interpolation-filters="sRGB">
<feFlood flood-opacity="0" result="BackgroundImageFix"/>
<feBlend mode="normal" in="SourceGraphic" in2="BackgroundImageFix" result="shape"/>
<feGaussianBlur stdDeviation="13" result="effect1_foregroundBlur_113_226"/>
</filter>
<filter id="filter33_f_113_226" x="120.571" y="-11.5988" width="66.4308" height="67.2549" filterUnits="userSpaceOnUse" color-interpolation-filters="sRGB">
<feFlood flood-opacity="0" result="BackgroundImageFix"/>
<feBlend mode="normal" in="SourceGraphic" in2="BackgroundImageFix" result="shape"/>
<feGaussianBlur stdDeviation="12.5" result="effect1_foregroundBlur_113_226"/>
</filter>
<filter id="filter34_f_113_226" x="240.015" y="71.0291" width="63.2482" height="63.6904" filterUnits="userSpaceOnUse" color-interpolation-filters="sRGB">
<feFlood flood-opacity="0" result="BackgroundImageFix"/>
<feBlend mode="normal" in="SourceGraphic" in2="BackgroundImageFix" result="shape"/>
<feGaussianBlur stdDeviation="12.5" result="effect1_foregroundBlur_113_226"/>
</filter>
<filter id="filter35_f_113_226" x="-9.7218" y="-1.95129" width="63.2482" height="63.6904" filterUnits="userSpaceOnUse" color-interpolation-filters="sRGB">
<feFlood flood-opacity="0" result="BackgroundImageFix"/>
<feBlend mode="normal" in="SourceGraphic" in2="BackgroundImageFix" result="shape"/>
<feGaussianBlur stdDeviation="12.5" result="effect1_foregroundBlur_113_226"/>
</filter>
<linearGradient id="paint0_linear_113_226" x1="22.4315" y1="45.4661" x2="226.74" y2="271.721" gradientUnits="userSpaceOnUse">
<stop stop-color="#FFDDA4"/>
<stop offset="1" stop-color="#FEAD57"/>
</linearGradient>
<linearGradient id="paint1_linear_113_226" x1="22.4315" y1="45.4661" x2="226.74" y2="271.721" gradientUnits="userSpaceOnUse">
<stop stop-color="#FFDDA4"/>
<stop offset="1" stop-color="#FEAD57"/>
</linearGradient>
<linearGradient id="paint2_linear_113_226" x1="34.9363" y1="43.6405" x2="75.6755" y2="127.305" gradientUnits="userSpaceOnUse">
<stop stop-color="#EB7708"/>
<stop offset="1" stop-color="#FACD6C"/>
</linearGradient>
<linearGradient id="paint3_linear_113_226" x1="266.393" y1="111.28" x2="192.161" y2="160.624" gradientUnits="userSpaceOnUse">
<stop offset="0.226676" stop-color="#FACD6C"/>
<stop offset="1" stop-color="#EB7708"/>
</linearGradient>
<radialGradient id="paint4_radial_113_226" cx="0" cy="0" r="1" gradientUnits="userSpaceOnUse" gradientTransform="translate(143.103 15.6151) rotate(51.6918) scale(53.4105 52.1701)">
<stop stop-color="#FFC85C"/>
<stop offset="1" stop-color="#E97000"/>
</radialGradient>
<radialGradient id="paint5_radial_113_226" cx="0" cy="0" r="1" gradientUnits="userSpaceOnUse" gradientTransform="translate(13.7858 23.8442) rotate(51.6918) scale(40.6383 39.6946)">
<stop stop-color="#FFC85C"/>
<stop offset="1" stop-color="#E97000"/>
</radialGradient>
<radialGradient id="paint6_radial_113_226" cx="0" cy="0" r="1" gradientUnits="userSpaceOnUse" gradientTransform="translate(261.836 96.3317) rotate(51.6918) scale(40.6383 39.6946)">
<stop stop-color="#FFC85C"/>
<stop offset="1" stop-color="#E97000"/>
</radialGradient>
<linearGradient id="paint7_linear_113_226" x1="22.4315" y1="45.4661" x2="226.74" y2="271.721" gradientUnits="userSpaceOnUse">
<stop stop-color="#FFDDA4"/>
<stop offset="1" stop-color="#FEAD57"/>
</linearGradient>
<linearGradient id="paint8_linear_113_226" x1="34.9363" y1="43.6405" x2="75.6755" y2="127.305" gradientUnits="userSpaceOnUse">
<stop stop-color="#EB7708"/>
<stop offset="1" stop-color="#FACD6C"/>
</linearGradient>
<linearGradient id="paint9_linear_113_226" x1="266.393" y1="111.28" x2="192.161" y2="160.624" gradientUnits="userSpaceOnUse">
<stop offset="0.226676" stop-color="#FACD6C"/>
<stop offset="1" stop-color="#EB7708"/>
</linearGradient>
<radialGradient id="paint10_radial_113_226" cx="0" cy="0" r="1" gradientUnits="userSpaceOnUse" gradientTransform="translate(143.103 15.6151) rotate(51.6918) scale(53.4105 52.1701)">
<stop stop-color="#FFC85C"/>
<stop offset="1" stop-color="#E97000"/>
</radialGradient>
<radialGradient id="paint11_radial_113_226" cx="0" cy="0" r="1" gradientUnits="userSpaceOnUse" gradientTransform="translate(13.7858 23.8442) rotate(51.6918) scale(40.6383 39.6946)">
<stop stop-color="#FFC85C"/>
<stop offset="1" stop-color="#E97000"/>
</radialGradient>
<radialGradient id="paint12_radial_113_226" cx="0" cy="0" r="1" gradientUnits="userSpaceOnUse" gradientTransform="translate(261.836 96.3317) rotate(51.6918) scale(40.6383 39.6946)">
<stop stop-color="#FFC85C"/>
<stop offset="1" stop-color="#E97000"/>
</radialGradient>
<linearGradient id="paint13_linear_113_226" x1="104.505" y1="143.27" x2="152.529" y2="166.731" gradientUnits="userSpaceOnUse">
<stop stop-color="#FFEDCB"/>
<stop offset="1" stop-color="#FFD6A5"/>
</linearGradient>
<linearGradient id="paint14_linear_113_226" x1="10.5077" y1="226.689" x2="198.004" y2="272.755" gradientUnits="userSpaceOnUse">
<stop stop-color="#F9A13D"/>
<stop offset="1" stop-color="#F19734"/>
</linearGradient>
<linearGradient id="paint15_linear_113_226" x1="10.5077" y1="226.689" x2="198.004" y2="272.755" gradientUnits="userSpaceOnUse">
<stop stop-color="#F9A13D"/>
<stop offset="1" stop-color="#F19734"/>
</linearGradient>
</defs>
</svg>
