<svg width="16" height="16" viewBox="0 0 16 16" fill="none" xmlns="http://www.w3.org/2000/svg">
<path d="M12.375 4H3.625C2.92881 4 2.26113 4.27656 1.76884 4.76884C1.27656 5.26113 1 5.92881 1 6.625V8.375C1 8.71972 1.0679 9.06106 1.19982 9.37954C1.33173 9.69802 1.52509 9.9874 1.76884 10.2312C2.26113 10.7234 2.92881 11 3.625 11H12.375C12.7197 11 13.0611 10.9321 13.3795 10.8002C13.698 10.6683 13.9874 10.4749 14.2312 10.2312C14.4749 9.9874 14.6683 9.69802 14.8002 9.37954C14.9321 9.06106 15 8.71972 15 8.375V6.625C15 5.92881 14.7234 5.26113 14.2312 4.76884C13.7389 4.27656 13.0712 4 12.375 4ZM5.29188 9.6875H5.24375C5.15391 9.67712 5.06949 9.63916 5.00211 9.57883C4.93473 9.51851 4.8877 9.43878 4.8675 9.35063L4.07125 5.85063C4.05861 5.79317 4.05741 5.73379 4.06772 5.67587C4.07803 5.61796 4.09964 5.56264 4.13133 5.51307C4.19533 5.41298 4.29647 5.3424 4.4125 5.31688C4.52853 5.29135 4.64995 5.31296 4.75005 5.37696C4.85015 5.44095 4.92072 5.54209 4.94625 5.65812L5.445 7.9375L6.60438 5.5575C6.62689 5.50171 6.66066 5.45117 6.70359 5.40903C6.74651 5.36688 6.79767 5.33404 6.85386 5.31256C6.91005 5.29108 6.97006 5.28142 7.03015 5.28418C7.09025 5.28693 7.14912 5.30206 7.20311 5.3286C7.25709 5.35514 7.30502 5.39252 7.34391 5.43842C7.38279 5.48432 7.41179 5.53775 7.4291 5.59536C7.4464 5.65298 7.45164 5.71354 7.44448 5.77327C7.43732 5.833 7.41793 5.89061 7.3875 5.9425L5.68563 9.4425C5.64955 9.51613 5.5935 9.57815 5.52388 9.62146C5.45426 9.66478 5.37387 9.68766 5.29188 9.6875ZM8.1225 9.32438C8.10479 9.4271 8.05099 9.52012 7.97078 9.58669C7.89057 9.65327 7.78923 9.68902 7.685 9.6875C7.65893 9.69183 7.63232 9.69183 7.60625 9.6875C7.49283 9.6672 7.392 9.60298 7.32565 9.50878C7.2593 9.41458 7.23279 9.298 7.25188 9.18438L7.86875 5.68438C7.88848 5.56834 7.95349 5.4649 8.04948 5.3968C8.14548 5.3287 8.26459 5.30152 8.38063 5.32125C8.49666 5.34098 8.6001 5.40599 8.6682 5.50198C8.7363 5.59798 8.76348 5.71709 8.74375 5.83312L8.1225 9.32438ZM12.0863 6.69938C12.0205 7.04149 11.8397 7.35082 11.5739 7.57604C11.3081 7.80125 10.9733 7.92879 10.625 7.9375H10.1175L9.8725 9.32438C9.85479 9.4271 9.80099 9.52012 9.72078 9.58669C9.64057 9.65327 9.53923 9.68902 9.435 9.6875C9.40893 9.69183 9.38232 9.69183 9.35625 9.6875C9.24283 9.6672 9.142 9.60298 9.07565 9.50878C9.0093 9.41458 8.98279 9.298 9.00188 9.18438L9.3125 7.43438C9.32832 7.33005 9.38131 7.23496 9.46171 7.16662C9.54211 7.09829 9.64449 7.06131 9.75 7.0625H10.625C10.7669 7.0536 10.902 6.99888 11.0101 6.90657C11.1182 6.81426 11.1934 6.68935 11.2244 6.55063C11.2355 6.50472 11.2362 6.45691 11.2263 6.41071C11.2165 6.36451 11.1964 6.32112 11.1675 6.28375C11.1384 6.25154 11.1025 6.22619 11.0624 6.20954C11.0223 6.1929 10.979 6.18537 10.9356 6.1875H10.0606C9.94459 6.1875 9.83331 6.14141 9.75127 6.05936C9.66922 5.97731 9.62313 5.86603 9.62313 5.75C9.62313 5.63397 9.66922 5.52269 9.75127 5.44064C9.83331 5.35859 9.94459 5.3125 10.0606 5.3125H10.9356C11.1065 5.31028 11.2757 5.34557 11.4314 5.41587C11.5871 5.48617 11.7255 5.58977 11.8369 5.71938C11.9476 5.85454 12.0273 6.01235 12.0704 6.18168C12.1135 6.35101 12.1189 6.52773 12.0863 6.69938Z" fill="currentColor"/>
</svg>
