<svg width="16" height="16" viewBox="0 0 16 16" fill="none" xmlns="http://www.w3.org/2000/svg">
<path d="M7.76355 1H7.74847C4.30503 1 1.5 3.80503 1.5 7.24847C1.5 9.13357 2.34452 10.9031 3.81741 12.0894L3.49066 14.6582C3.47558 14.7788 3.52083 14.8794 3.61131 14.9397C3.67163 14.9849 3.73196 15 3.78725 15C3.81742 15 3.86266 15 3.9079 14.9698L7.22065 13.4718C7.39659 13.4869 7.57756 13.502 7.7535 13.502H7.76858C11.1969 13.502 14.002 10.6969 14.0171 7.2535C14.0171 3.80503 11.212 1 7.76355 1ZM8.58294 11.1242C8.58294 11.3052 8.43716 11.451 8.25619 11.451H7.26589C7.08492 11.451 6.93914 11.3052 6.93914 11.1242V10.0133C6.93914 9.83231 7.08492 9.68653 7.26589 9.68653H8.25619C8.43716 9.68653 8.58294 9.83231 8.58294 10.0133V11.1242ZM9.00521 3.49336L8.60305 8.1684C8.593 8.33932 8.44722 8.47002 8.2763 8.47002H7.23573C7.06481 8.47002 6.92406 8.33932 6.90898 8.1684L6.50682 3.49336C6.49174 3.30233 6.64255 3.14147 6.83357 3.14147H8.67846C8.86948 3.14147 9.02029 3.30233 9.00521 3.49336Z" fill="#FF565E"/>
</svg>
