<svg width="16" height="14" viewBox="0 0 16 14" fill="none" xmlns="http://www.w3.org/2000/svg">
<path d="M15.9232 13.1429L8.49464 0.285714C8.38393 0.0946429 8.19286 0 8 0C7.80714 0 7.61429 0.0946429 7.50536 0.285714L0.0767862 13.1429C-0.142857 13.525 0.132143 14 0.571429 14H15.4286C15.8679 14 16.1429 13.525 15.9232 13.1429ZM7.42857 5.28571C7.42857 5.20714 7.49286 5.14286 7.57143 5.14286H8.42857C8.50714 5.14286 8.57143 5.20714 8.57143 5.28571V8.57143C8.57143 8.65 8.50714 8.71429 8.42857 8.71429H7.57143C7.49286 8.71429 7.42857 8.65 7.42857 8.57143V5.28571ZM8 11.5714C7.7757 11.5669 7.56213 11.4745 7.40513 11.3143C7.24812 11.154 7.16018 10.9386 7.16018 10.7143C7.16018 10.4899 7.24812 10.2745 7.40513 10.1143C7.56213 9.95404 7.7757 9.86172 8 9.85714C8.2243 9.86172 8.43787 9.95404 8.59488 10.1143C8.75189 10.2745 8.83982 10.4899 8.83982 10.7143C8.83982 10.9386 8.75189 11.154 8.59488 11.3143C8.43787 11.4745 8.2243 11.5669 8 11.5714Z" fill="#FF9900"/>
</svg>
