<svg width="16" height="16" viewBox="0 0 16 16" fill="none" xmlns="http://www.w3.org/2000/svg">
<path d="M1.2515 1.028C1.19561 1.028 1.13972 1.056 1.08383 1.112C1.05589 1.14 1.02794 1.224 1.02794 1.28V6.264C1.02794 6.292 1.05589 6.32 1.08383 6.348C1.11178 6.348 1.13972 6.348 1.16766 6.32L2.84431 4.64L5.10778 6.88C5.16367 6.936 5.21956 6.936 5.27545 6.936C5.33134 6.936 5.38723 6.908 5.44311 6.88L6.98004 5.368C7.03593 5.312 7.06387 5.256 7.06387 5.2C7.06387 5.144 7.03593 5.06 6.98004 5.032L4.71657 2.792L6.33733 1.14C6.36527 1.112 6.36527 1.084 6.36527 1.056C6.36527 1.028 6.30938 1 6.28144 1L1.2515 1.028ZM1.2515 15C1.19561 15 1.13972 14.972 1.08383 14.944C1.02794 14.888 1 14.832 1 14.776V9.764C1 9.736 1.02794 9.708 1.05589 9.68C1.08383 9.68 1.11178 9.68 1.13972 9.708L2.81637 11.388L5.07984 9.148C5.13573 9.092 5.19162 9.092 5.2475 9.092C5.30339 9.092 5.35928 9.12 5.41517 9.148L6.9521 10.66C7.00798 10.716 7.03593 10.772 7.03593 10.828C7.03593 10.884 7.00798 10.968 6.9521 10.996L4.68862 13.236L6.30938 14.86C6.33733 14.888 6.33733 14.916 6.33733 14.944C6.33733 14.972 6.28144 15 6.25349 15H1.2515ZM14.7485 1.028C14.8044 1.028 14.8603 1.056 14.9162 1.112C14.9721 1.168 15 1.224 15 1.28V6.264C15 6.292 14.9721 6.32 14.9441 6.348C14.9162 6.348 14.8882 6.348 14.8603 6.32L13.1836 4.64L10.9202 6.88C10.8643 6.936 10.8084 6.936 10.7525 6.936C10.6966 6.936 10.6407 6.908 10.5848 6.88L9.0479 5.368C8.99202 5.312 8.96407 5.256 8.96407 5.2C8.96407 5.144 8.99202 5.06 9.0479 5.032L11.3114 2.792L9.69062 1.14C9.66267 1.112 9.66267 1.084 9.66267 1.056C9.66267 1.028 9.71856 1 9.74651 1L14.7485 1.028ZM14.7485 15C14.8044 15 14.8603 14.972 14.9162 14.944C14.9721 14.888 15 14.832 15 14.776V9.764C15 9.736 14.9721 9.708 14.9441 9.68C14.9162 9.68 14.8882 9.68 14.8603 9.708L13.1836 11.388L10.9202 9.148C10.8643 9.092 10.8084 9.092 10.7525 9.092C10.6966 9.092 10.6407 9.12 10.5848 9.148L9.0479 10.66C8.99202 10.716 8.96407 10.772 8.96407 10.828C8.96407 10.884 8.99202 10.968 9.0479 10.996L11.3114 13.236L9.66267 14.86C9.63473 14.888 9.63473 14.916 9.63473 14.944C9.63473 14.972 9.69062 15 9.71856 15H14.7485Z" fill="currentColor"/>
</svg>
