<svg width="16" height="16" viewBox="0 0 16 16" fill="none" xmlns="http://www.w3.org/2000/svg">
<path d="M2.33945 9.09891C2.06995 9.09891 1.98945 9.34181 2.2047 9.55741L3.5242 10.8794L1.1008 13.3073C0.9664 13.4421 0.9664 13.658 1.1008 13.8197L2.09725 14.8179C2.23165 14.9527 2.44725 14.9527 2.6086 14.8179L5.0586 12.363L6.3781 13.685C6.59335 13.9006 6.83555 13.8197 6.83555 13.5499V9.39571C6.83555 9.23401 6.6742 9.09891 6.5125 9.09891H2.33945ZM9.4875 6.92786H13.6336C13.9031 6.92786 13.9836 6.63106 13.7684 6.41511L12.4489 5.06656L14.8723 2.61166C15.0067 2.47691 15.0067 2.23401 14.8723 2.09926L13.8758 1.10106C13.7414 0.966313 13.5258 0.966313 13.3645 1.10106L10.9414 3.52901L9.5953 2.20706C9.35275 1.99111 9.0836 2.07231 9.0836 2.34181V6.49631C9.0836 6.68496 9.29885 6.92786 9.4875 6.92786ZM6.8086 2.61096C6.8086 2.34111 6.5664 2.26026 6.35115 2.47586L5.03165 3.79781L2.6086 1.36986C2.4742 1.23511 2.2586 1.23511 2.09725 1.36986L1.1008 2.36841C0.9664 2.50316 0.9664 2.71911 1.1008 2.88081L3.5508 5.33571L2.23165 6.65766C2.0164 6.87326 2.09725 7.11616 2.3664 7.11616H6.5125C6.6742 7.11616 6.8086 6.95411 6.8086 6.79241V2.61096ZM9.0836 9.50386V13.658C9.0836 13.9275 9.3797 14.0087 9.5953 13.7928L10.9414 12.4708L13.3914 14.8988C13.5258 15.0335 13.7684 15.0335 13.9028 14.8988L14.8992 13.9006C15.0336 13.7658 15.0336 13.5499 14.8992 13.3882L12.4758 10.9602L13.7953 9.61166C14.0106 9.36876 13.9297 9.09891 13.6606 9.09891H9.51445C9.3258 9.09891 9.0836 9.31486 9.0836 9.50386Z" fill="currentColor"/>
</svg>
