<svg width="16" height="16" viewBox="0 0 16 16" fill="none" xmlns="http://www.w3.org/2000/svg">
<path d="M13.6464 1.64649C13.8417 1.45124 14.1582 1.45123 14.3535 1.64649C14.5487 1.84175 14.5487 2.15827 14.3535 2.35352L9.72067 6.98535C9.89661 7.28311 9.99996 7.62909 9.99996 8C9.99995 8.37062 9.89637 8.71607 9.72067 9.01367L14.3535 13.6465C14.5487 13.8417 14.5487 14.1583 14.3535 14.3535C14.1582 14.5488 13.8417 14.5487 13.6464 14.3535L9.01363 9.7207C8.71603 9.8964 8.37058 9.99999 7.99996 10C7.62905 10 7.28307 9.89665 6.98531 9.7207L2.35348 14.3535C2.15824 14.5488 1.84171 14.5487 1.64645 14.3535C1.45118 14.1583 1.45118 13.8417 1.64645 13.6465L6.27828 9.01367C6.10273 8.71616 5.99997 8.37045 5.99996 8C5.99996 7.62926 6.10248 7.28302 6.27828 6.98535L1.64645 2.35352C1.45118 2.15825 1.45118 1.84175 1.64645 1.64649C1.84171 1.45124 2.15822 1.45123 2.35348 1.64649L6.98531 6.27832C7.28299 6.10251 7.62922 6 7.99996 6C8.37042 6.00001 8.71612 6.10276 9.01363 6.27832L13.6464 1.64649Z" fill="currentColor" fill-opacity="0.8"/>
<path fill-rule="evenodd" clip-rule="evenodd" d="M13 2H3C2.44772 2 2 2.44772 2 3V13C2 13.5523 2.44772 14 3 14H13C13.5523 14 14 13.5523 14 13V3C14 2.44772 13.5523 2 13 2ZM3 1C1.89543 1 1 1.89543 1 3V13C1 14.1046 1.89543 15 3 15H13C14.1046 15 15 14.1046 15 13V3C15 1.89543 14.1046 1 13 1H3Z" fill="currentColor"/>
</svg>
