<svg width="16" height="16" viewBox="0 0 16 16" fill="none" xmlns="http://www.w3.org/2000/svg">
<path fill-rule="evenodd" clip-rule="evenodd" d="M13 2H3C2.44772 2 2 2.44772 2 3V13C2 13.5523 2.44772 14 3 14H13C13.5523 14 14 13.5523 14 13V3C14 2.44772 13.5523 2 13 2ZM3 1C1.89543 1 1 1.89543 1 3V13C1 14.1046 1.89543 15 3 15H13C14.1046 15 15 14.1046 15 13V3C15 1.89543 14.1046 1 13 1H3Z" fill="currentColor"/>
<path d="M8 2V3C8 3.55228 8.44772 4 9 4V4C9.55228 4 10 4.44772 10 5V11C10 11.5523 9.55228 12 9 12V12C8.44772 12 8 12.4477 8 13V14" stroke="currentColor"/>
</svg>
