<svg width="16" height="16" viewBox="0 0 16 16" fill="none" xmlns="http://www.w3.org/2000/svg">
<path d="M13 1C13.2933 1 13.5713 1.06432 13.8223 1.17773L13.0488 2.00195C13.0326 2.00117 13.0164 2 13 2H3C2.44772 2 2 2.44772 2 3V13C2 13.2138 2.06738 13.4117 2.18164 13.5742L1.49121 14.3105C1.22798 14.0077 1.05348 13.6257 1.01074 13.2041L1 13V3C1 1.89543 1.89543 1 3 1H13ZM13.7754 11.7441C13.8452 11.8109 13.9008 11.8915 13.9395 11.9805C13.9781 12.0695 13.9987 12.1655 14 12.2627C14.0013 12.3599 13.9835 12.4568 13.9473 12.5469C13.9111 12.6368 13.857 12.7185 13.7891 12.7871C13.721 12.8558 13.6399 12.9097 13.5508 12.9463C13.4618 12.9828 13.3666 13.0013 13.2705 13C13.1744 12.9986 13.0792 12.9775 12.9912 12.9385C12.9033 12.8994 12.8238 12.843 12.7578 12.7725L10.5527 10.5439L8.85547 12.2578L5.12402 8.48633C4.41897 7.77353 4.01544 6.81153 4 5.80371C3.9846 4.79594 4.35818 3.8214 5.04102 3.08691L5.12402 3L13.7754 11.7441Z" fill="currentColor"/>
<path opacity="0.5" d="M2.3506 12.8799C2.53757 12.6767 2.85444 12.6636 3.05763 12.8506C3.26077 13.0376 3.27387 13.3544 3.08693 13.5576L2.36818 14.3389C2.1812 14.542 1.86434 14.5551 1.66115 14.3682C1.45801 14.1812 1.44491 13.8643 1.63185 13.6611L2.3506 12.8799ZM5.2256 9.75488C5.41257 9.55174 5.72944 9.53865 5.93263 9.72558C6.13577 9.91256 6.14887 10.2294 5.96193 10.4326L4.52443 11.9951C4.33745 12.1983 4.02059 12.2114 3.8174 12.0244C3.61426 11.8374 3.60116 11.5206 3.7881 11.3174L5.2256 9.75488ZM8.1006 6.62988C8.28757 6.42674 8.60444 6.41365 8.80763 6.60058C9.01077 6.78756 9.02387 7.10442 8.83693 7.30762L7.39943 8.87012C7.21245 9.07326 6.89559 9.08635 6.6924 8.89941C6.48926 8.71244 6.47616 8.39557 6.6631 8.19238L8.1006 6.62988ZM10.9756 3.50488C11.1626 3.30174 11.4794 3.28865 11.6826 3.47558C11.8858 3.66256 11.8989 3.97942 11.7119 4.18262L10.2744 5.74512C10.0875 5.94826 9.77059 5.96135 9.5674 5.77441C9.36426 5.58744 9.35116 5.27057 9.5381 5.06738L10.9756 3.50488ZM13.1318 1.16113C13.3188 0.95799 13.6357 0.944896 13.8389 1.13183C14.042 1.31881 14.0551 1.63567 13.8682 1.83887L13.1494 2.62012C12.9625 2.82326 12.6456 2.83635 12.4424 2.64941C12.2393 2.46244 12.2262 2.14557 12.4131 1.94238L13.1318 1.16113Z" fill="currentColor"/>
</svg>
