<svg width="16" height="16" viewBox="0 0 16 16" fill="none" xmlns="http://www.w3.org/2000/svg"><path d="M3.5 12.4999L5.80329 10.1967" stroke="currentColor" stroke-opacity="0.6" stroke-linecap="round"></path><path opacity="0.6" d="M3.5 3.56189L6 6.06189" stroke="currentColor" stroke-linecap="round"></path><path opacity="0.6" d="M12.5 12.5618L10 10.0618" stroke="currentColor" stroke-linecap="round"></path><path opacity="0.6" d="M12.5 3.56177L10 6.06177" stroke="currentColor" stroke-linecap="round"></path><path fill-rule="evenodd" clip-rule="evenodd" d="M13 2H3C2.44772 2 2 2.44772 2 3V13C2 13.5523 2.44772 14 3 14H13C13.5523 14 14 13.5523 14 13V3C14 2.44772 13.5523 2 13 2ZM3 1C1.89543 1 1 1.89543 1 3V13C1 14.1046 1.89543 15 3 15H13C14.1046 15 15 14.1046 15 13V3C15 1.89543 14.1046 1 13 1H3Z" fill="currentColor"></path></svg>