<svg width="16" height="16" viewBox="0 0 16 16" fill="none" xmlns="http://www.w3.org/2000/svg"><path fill-rule="evenodd" clip-rule="evenodd" d="M12.937 15H13C14.1046 15 15 14.1046 15 13V3C15 1.89543 14.1046 1 13 1H12.937C12.9781 1.15981 13 1.32735 13 1.5V2C13.5523 2 14 2.44772 14 3V13C14 13.5523 13.5523 14 13 14V14.5C13 14.6726 12.9781 14.8402 12.937 15ZM9.06301 15C9.02188 14.8402 9 14.6726 9 14.5V14H3C2.44772 14 2 13.5523 2 13V3C2 2.44772 2.44772 2 3 2H9V1.5C9 1.32735 9.02188 1.15981 9.06301 1H3C1.89543 1 1 1.89543 1 3V13C1 14.1046 1.89543 15 3 15H9.06301Z" fill="currentColor"></path><path opacity="0.8" d="M11 1.5V14.5" stroke="currentColor" stroke-linecap="round"></path><path d="M0 8H7" stroke="currentColor"></path><path d="M6 10V6L10 8L6 10Z" fill="currentColor"></path></svg>