<svg width="16" height="16" viewBox="0 0 16 16" fill="none" xmlns="http://www.w3.org/2000/svg" color="white"><path fill-rule="evenodd" clip-rule="evenodd" d="M8.48144 12.056C8.18159 11.8913 7.81833 11.8913 7.51847 12.056L5.0636 13.4046C4.30984 13.8187 3.41961 13.1512 3.60584 12.3116L4.16161 9.80607C4.24141 9.44631 4.11688 9.07182 3.83754 8.83148L1.88115 7.14825C1.21523 6.57532 1.55868 5.48371 2.43268 5.39529L5.14333 5.12103C5.49345 5.08561 5.79917 4.86877 5.94836 4.55006L7.09427 2.10199C7.4538 1.33391 8.54612 1.33391 8.90565 2.10199L10.0516 4.55006C10.2007 4.86877 10.5065 5.08561 10.8566 5.12103L13.5672 5.39529C14.4412 5.48371 14.7847 6.57532 14.1188 7.14825L12.1624 8.83148C11.883 9.07182 11.7585 9.44631 11.8383 9.80607L12.3941 12.3116C12.5803 13.1512 11.6901 13.8187 10.9363 13.4046L8.48144 12.056Z" stroke="currentColor"></path></svg>