<svg width="16" height="16" viewBox="0 0 16 16" fill="none" xmlns="http://www.w3.org/2000/svg">
<path d="M8 14C11.3137 14 14 11.3137 14 8C14 7.3503 13.8967 6.72472 13.7057 6.13877L14.5531 5.53351C14.842 6.30063 15 7.13186 15 8C15 11.866 11.866 15 8 15C6.92738 15 5.9111 14.7587 5.00248 14.3275L5.39683 13.4074C6.18423 13.7872 7.06726 14 8 14Z" fill="white"/>
<path d="M2.51868 10.444C2.18533 9.69747 2 8.87038 2 8C2 4.68629 4.68629 2 8 2C8.29676 2 8.58848 2.02154 8.87369 2.06315L10.2566 1.3717C9.54858 1.13072 8.78955 1 8 1C4.13401 1 1 4.13401 1 8C1 9.37749 1.39788 10.6621 2.08499 11.745L2.51868 10.444Z" fill="white"/>
<path opacity="0.6" fill-rule="evenodd" clip-rule="evenodd" d="M12.1956 2.72694C11.8505 2.67938 11.367 2.75327 10.7481 3.1069C7.07001 5.20866 5.39441 7.8199 4.62916 9.88293C4.34531 10.6482 4.18546 11.3416 4.09663 11.9102C4.45222 11.4853 4.90319 10.9743 5.45219 10.4034C7.03747 8.75467 9.44204 6.60357 12.7295 4.57936C13.1996 4.26034 13.2694 3.62319 12.9392 3.16215C12.7827 2.94363 12.5363 2.7739 12.1956 2.72694ZM3.50012 13.4999C3.00205 13.5438 3.00202 13.5435 3.00199 13.5431L3.00174 13.5403L3.00126 13.5343L2.99988 13.5154C2.9988 13.4996 2.99745 13.4777 2.99611 13.4499C2.99344 13.3944 2.99078 13.3152 2.99031 13.2145C2.98937 13.0132 2.99719 12.7257 3.03123 12.3692C3.09928 11.6564 3.27239 10.6652 3.69158 9.53515C4.53315 7.26638 6.35752 4.46404 10.252 2.23866C11.0106 1.80516 11.7158 1.65137 12.3321 1.73631C12.9528 1.82185 13.4406 2.1448 13.7522 2.57985C14.3566 3.42376 14.3012 4.73344 13.2774 5.41595C13.2724 5.41931 13.2673 5.42258 13.2621 5.42575C10.054 7.40002 7.71135 9.49661 6.17303 11.0965C5.40398 11.8963 4.83643 12.5715 4.46271 13.0443C4.27586 13.2808 4.13753 13.4665 4.04674 13.5919C4.00135 13.6547 3.96785 13.7023 3.94612 13.7336L3.92234 13.7681L3.91705 13.7759L3.91614 13.7773C3.79838 13.9537 3.58194 14.0369 3.37638 13.9844C3.17074 13.9319 3.02061 13.7545 3.00199 13.5431L3.50012 13.4999Z" fill="white"/>
</svg>
