<svg width="16" height="16" viewBox="0 0 16 16" fill="none" xmlns="http://www.w3.org/2000/svg">
<g clip-path="url(#clip0_3_6)">
<path d="M14.7522 6.1473C14.9137 6.73741 14.9269 7.08545 15 8C15.0275 8.34366 14.9751 8.68369 14.9269 9.01511C14.4352 12.4 11.5212 15 8 15C7.1784 15 6.38986 14.8585 5.65744 14.5984L6.05316 13.7012L6.03261 13.67C6.64893 13.8838 7.3109 14 8 14C10.9895 14 13.512 11.7995 13.9373 8.87135C13.941 8.84595 13.941 8.84595 13.9447 8.82092C14.0021 8.4259 14.0171 8.25368 14.0032 8.07964C14.0032 8.07964 13.9698 7.6531 13.955 7.47218L13.9367 7.26393C13.9186 7.0739 13.9011 6.93751 13.8782 6.80774C13.8561 6.68241 13.8276 6.55728 13.7877 6.41134C13.7449 6.25502 13.6961 6.10147 13.6415 5.95093L13.6678 5.93762C13.8613 5.84118 14.1725 5.68613 14.5399 5.5031C14.6216 5.71252 14.6921 5.92776 14.7522 6.1473ZM8 1C8.80319 1 9.57479 1.13528 10.2933 1.38429L10.1373 2.39279C9.4701 2.13835 8.74871 2 8 2C6.71569 2 5.49482 2.40335 4.47845 3.14154C2.93235 4.26445 2 6.0534 2 8C2 8.74445 2.13558 9.45724 2.3834 10.115C2.08131 10.1758 1.74043 10.2451 1.3927 10.3158C1.13819 9.59135 1 8.81181 1 8C1 5.66934 2.13903 3.60472 3.8908 2.33242C5.04478 1.49429 6.46467 1 8 1Z" fill="white"/>
<path d="M17.1262 28.029L17.0674 28.0316C18.0372 27.5909 18.9738 27.0806 19.8695 26.5053C22.9935 25.4634 25.4641 22.9924 26.5062 19.8681C27.0772 18.9744 27.5886 18.0323 28.0325 17.0454C27.7783 22.9704 23.0406 27.7338 17.1262 28.029ZM14.426 5.23834C14.5513 5.53064 14.6575 5.83385 14.7431 6.14657C14.7478 6.16364 14.7523 6.18045 14.7567 6.19705C10.3866 6.94439 6.93947 10.3938 6.19356 14.7645C5.86457 14.6781 5.54512 14.5672 5.23709 14.4348C6.08912 9.83265 9.68265 6.19215 14.2604 5.27011L14.426 5.23834ZM9.90218 1.2642C10.2305 1.35722 10.5496 1.47372 10.8575 1.61193C10.0049 6.3068 6.30266 10.0077 1.60804 10.8587C1.47035 10.5511 1.35426 10.232 1.26161 9.90306C5.6079 9.18785 9.05422 5.8043 9.8632 1.49104L9.90218 1.2642ZM-1.33988 -11.9225C-2.38471 -11.4319 -3.38987 -10.8601 -4.3454 -10.2127C-7.01012 -9.14972 -9.13712 -7.02651 -10.2053 -4.36433C-10.8504 -3.41344 -11.4264 -2.4033 -11.9234 -1.33968C-11.5016 -6.8945 -7.13272 -11.3472 -1.61449 -11.8989L-1.33988 -11.9225Z" fill="white"/>
<path opacity="0.6" d="M4.71592 11.7714L4.63542 12.0881C4.57501 12.3454 4.52623 12.6052 4.48975 12.867C3.94822 12.4762 3.47512 11.9973 3.09076 11.4513C3.46057 11.4018 3.82524 11.3283 4.1838 11.2322C4.34676 11.4241 4.52496 11.6049 4.71592 11.7714ZM12.8607 4.48976L12.613 4.52702C12.3276 4.57571 12.0448 4.63893 11.7654 4.71582C11.591 4.51547 11.3998 4.32859 11.195 4.15802C11.2903 3.79976 11.3617 3.43509 11.4091 3.06635C11.969 3.45354 12.4609 3.93617 12.8607 4.48976Z" fill="white"/>
</g>
<defs>
<clipPath id="clip0_3_6">
<rect width="16" height="16" fill="white"/>
</clipPath>
</defs>
</svg>
