<svg width="16" height="16" viewBox="0 0 16 16" fill="none" xmlns="http://www.w3.org/2000/svg">
<path d="M12.9298 11.421C11.8462 12.9797 10.0422 14 8 14C4.68629 14 2 11.3137 2 8.00002C2 5.9833 2.99498 4.19897 4.52083 3.11114L5.07264 1.63965C2.6686 2.74794 1 5.17912 1 8.00002C1 11.866 4.13401 15 8 15C10.7915 15 13.2013 13.3661 14.3252 11.0024L12.9298 11.421Z" fill="white"/>
<path opacity="0.6" fill-rule="evenodd" clip-rule="evenodd" d="M13.7998 2.19954C12.8224 2.33881 11.4855 2.49953 10.4998 2.49953C9.64727 2.49953 8.6761 2.38085 7.90942 2.26192C7.44967 2.19061 7.02798 2.43006 6.86704 2.79794C5.11261 6.80805 9.1913 10.8867 13.2014 9.13232C13.5693 8.97137 13.8087 8.54968 13.7374 8.08993C13.6185 7.32325 13.4998 6.35208 13.4998 5.49953C13.4998 4.51381 13.6605 3.17695 13.7998 2.19954ZM8.06271 1.27374C7.18636 1.1378 6.30634 1.58465 5.95088 2.39712C3.83169 7.24097 8.75838 12.1677 13.6022 10.0485C14.4147 9.69302 14.8616 8.81299 14.7256 7.93664C14.6092 7.18608 14.4998 6.27477 14.4998 5.49953C14.4998 4.35752 14.7371 2.65323 14.8848 1.70343C14.9381 1.36068 14.6387 1.0613 14.2959 1.11458C13.3461 1.26222 11.6418 1.49953 10.4998 1.49953C9.72459 1.49953 8.81327 1.39017 8.06271 1.27374Z" fill="white"/>
</svg>
