<svg width="16" height="16" viewBox="0 0 16 16" fill="none" xmlns="http://www.w3.org/2000/svg">
<path d="M8 1C11.2246 1 13.94 3.1804 14.7522 6.1473C14.9137 6.73741 14.9269 7.08545 15 8C15.0275 8.34366 14.9751 8.68369 14.9269 9.01511C14.4352 12.4 11.5212 15 8 15C4.13401 15 1 11.866 1 8C1 5.66934 2.13903 3.60472 3.8908 2.33242C5.04478 1.49429 6.46467 1 8 1ZM8 2C6.71569 2 5.49482 2.40335 4.47845 3.14154C2.93235 4.26445 2 6.0534 2 8C2 11.3137 4.68629 14 8 14C10.9895 14 13.512 11.7995 13.9373 8.87135C13.941 8.84595 13.941 8.84595 13.9447 8.82092C14.0021 8.4259 14.0171 8.25368 14.0032 8.07964C14.0032 8.07964 13.9698 7.6531 13.955 7.47218L13.9367 7.26393C13.9186 7.0739 13.9011 6.93751 13.8782 6.80774C13.8561 6.68241 13.8276 6.55728 13.7877 6.41134C13.08 3.82638 10.7203 2 8 2Z" fill="white"/>
<g opacity="0.6">
<path fill-rule="evenodd" clip-rule="evenodd" d="M8.24128 3.50941C7.53412 4.60421 7.60355 6.36547 8.52551 7.92889C9.44747 9.49231 10.9467 10.3911 12.2353 10.2822L11.4611 8.96937C10.705 8.86426 9.9044 8.2984 9.38189 7.41235C8.85938 6.5263 8.74761 5.54494 9.01547 4.82224L8.24128 3.50941Z" fill="white"/>
<path fill-rule="evenodd" clip-rule="evenodd" d="M3.83891 5.8878C5.12744 5.77886 6.62669 6.6777 7.54865 8.24111C8.47062 9.80453 8.54005 11.5658 7.83289 12.6606L7.05869 11.3478C7.32655 10.6251 7.21478 9.6437 6.69227 8.75766C6.16976 7.87161 5.36913 7.30575 4.6131 7.20064L3.83891 5.8878Z" fill="white"/>
</g>
</svg>
