<svg width="16" height="16" viewBox="0 0 16 16" fill="none" xmlns="http://www.w3.org/2000/svg">
<path d="M6.32914 1.20065L5.90309 2.37623C5.39747 2.56477 4.91877 2.82173 4.47845 3.14153C2.93235 4.26445 2 6.05339 2 8C2 11.3137 4.68629 14 8 14C10.5524 14 12.7643 12.396 13.6213 10.1045L14.8417 9.48718C14.1598 12.6388 11.3557 15 8 15C4.13401 15 1 11.866 1 8C1 5.66934 2.13903 3.60471 3.8908 2.33242C4.61197 1.80864 5.43699 1.41914 6.32914 1.20065Z" fill="white"/>
<path opacity="0.6" d="M7.14673 1.64317C7.98036 0.918511 10.1248 2.02053 11.9364 4.1046C13.7481 6.18868 14.541 8.46561 13.7073 9.19027C12.8737 9.91493 10.7293 8.81291 8.91761 6.72884C7.10595 4.64477 6.3131 2.36784 7.14673 1.64317ZM7.80279 2.39788C7.78836 2.41043 7.77438 2.74375 7.98457 3.34738C8.2699 4.16681 8.86958 5.14933 9.67232 6.07278C10.4751 6.99623 11.3646 7.72681 12.1363 8.1234C12.7048 8.41556 13.0368 8.4481 13.0513 8.43556C13.0657 8.42302 13.0797 8.08969 12.8695 7.48606C12.5842 6.66664 11.9845 5.68411 11.1817 4.76066C10.379 3.83721 9.48949 3.10663 8.71775 2.71004C8.14925 2.41789 7.81722 2.38534 7.80279 2.39788Z" fill="white"/>
</svg>
