<svg width="16" height="16" viewBox="0 0 16 16" fill="none" xmlns="http://www.w3.org/2000/svg">
<path d="M6.32914 1.20065L5.90309 2.37623C5.39747 2.56477 4.91877 2.82173 4.47845 3.14153C2.93235 4.26445 2 6.05339 2 8C2 11.3137 4.68629 14 8 14C10.5524 14 12.7643 12.396 13.6213 10.1045L14.8417 9.48718C14.1598 12.6388 11.3557 15 8 15C4.13401 15 1 11.866 1 8C1 5.66934 2.13903 3.60471 3.8908 2.33242C4.61197 1.80864 5.43699 1.41914 6.32914 1.20065Z" fill="white"/>
<path opacity="0.6" d="M10.5 1C12.9853 1 15 3.01472 15 5.5C15 7.98528 12.9853 10 10.5 10C8.01472 10 6 7.98528 6 5.5C6 3.01472 8.01472 1 10.5 1ZM10.5 2C8.567 2 7 3.567 7 5.5C7 7.433 8.567 9 10.5 9C12.433 9 14 7.433 14 5.5C14 3.567 12.433 2 10.5 2Z" fill="white"/>
</svg>
