<svg width="16" height="16" viewBox="0 0 16 16" fill="none" xmlns="http://www.w3.org/2000/svg">
<path d="M8.00001 14C11.3137 14 14 11.3137 14 8C14 7.3503 13.8967 6.72472 13.7057 6.13877L14.5531 5.53351C14.842 6.30063 15 7.13186 15 8C15 11.866 11.866 15 8.00001 15C6.92739 15 5.91111 14.7587 5.00249 14.3275L5.39684 13.4074C6.18424 13.7872 7.06727 14 8.00001 14Z" fill="white"/>
<path d="M2.51868 10.444C2.18533 9.69747 2 8.87038 2 8C2 4.68629 4.68629 2 8 2C8.29676 2 8.58848 2.02154 8.87369 2.06315L10.2566 1.3717C9.54858 1.13072 8.78955 1 8 1C4.13401 1 1 4.13401 1 8C1 9.37749 1.39788 10.6621 2.08499 11.745L2.51868 10.444Z" fill="white"/>
<g opacity="0.6" clip-path="url(#clip0_3_31)">
<mask id="mask0_3_31" style="mask-type:luminance" maskUnits="userSpaceOnUse" x="3" y="2" width="11" height="11">
<path d="M3 2H14V13H3V2Z" fill="white"/>
</mask>
<g mask="url(#mask0_3_31)">
<path fill-rule="evenodd" clip-rule="evenodd" d="M10.6551 3.05537C9.68426 3.76106 8.61073 4.78928 7.73672 5.65213C6.98803 6.39125 6.46584 7.08798 6.14542 7.70218C5.36094 7.58109 4.5313 7.82268 3.92701 8.42697C3.63067 8.72331 3.45205 9.15926 3.33506 9.56578C3.21352 9.98811 3.1376 10.4559 3.08929 10.8819C3.04069 11.3104 3.0185 11.7106 3.00838 12.0028C3.00331 12.1493 3.00123 12.2695 3.00043 12.3538C3.00003 12.3959 2.99995 12.4291 2.99997 12.4522L3.00006 12.479L3.00011 12.4863L3.00012 12.4885L3.00013 12.4894C3.00301 12.7701 3.22999 12.9971 3.51064 12.9999L3.51156 13H3.51371L3.5211 13L3.54788 13.0001C3.57091 13.0001 3.60412 13 3.64627 12.9996C3.73054 12.9988 3.85083 12.9967 3.99731 12.9917C4.2895 12.9816 4.68968 12.9593 5.11815 12.9107C5.54417 12.8624 6.01191 12.7865 6.43425 12.665C6.84077 12.5479 7.27669 12.3693 7.57303 12.073C8.17559 11.4704 8.41752 10.6438 8.29885 9.86133C8.92324 9.54467 9.63398 9.02582 10.3891 8.2804C11.2683 7.41246 12.2895 6.3377 12.9843 5.359C13.3288 4.87375 13.6188 4.37699 13.7576 3.918C13.8947 3.46486 13.9196 2.90808 13.5047 2.49425C13.0877 2.07724 12.5284 2.11704 12.0825 2.2611C11.6286 2.40774 11.1365 2.7054 10.6551 3.05537ZM7.93843 8.88597C7.83659 8.7229 7.71479 8.56874 7.57303 8.42697C7.43328 8.28724 7.2815 8.16689 7.121 8.06594C7.30279 7.74152 7.56364 7.36944 7.91936 6.961L9.05941 8.10104C8.64483 8.45116 8.26735 8.70769 7.93843 8.88597ZM11.2615 3.88953C10.4198 4.50132 9.47056 5.39476 8.63333 6.21656L9.81454 7.39776C10.646 6.56924 11.5402 5.61173 12.1434 4.76201C12.4662 4.30736 12.6801 3.91854 12.7706 3.61942C12.8628 3.31445 12.7926 3.24059 12.7764 3.2244L12.7755 3.22343C12.766 3.21383 12.6992 3.1456 12.3995 3.2424C12.1022 3.33847 11.7153 3.55959 11.2615 3.88953ZM4.11397 10.9981C4.0735 11.3549 4.05266 11.6935 4.04202 11.958C4.30652 11.9474 4.64518 11.9265 5.00191 11.8861C5.39839 11.8411 5.80348 11.7734 6.14903 11.6739C6.5104 11.5699 6.73743 11.4502 6.84382 11.3438C7.44792 10.7397 7.44792 9.76027 6.84382 9.15616C6.23973 8.55208 5.26031 8.55208 4.65621 9.15616C4.54982 9.26259 4.43009 9.4896 4.32609 9.85095C4.22665 10.1966 4.15894 10.6016 4.11397 10.9981Z" fill="white"/>
</g>
</g>
<defs>
<clipPath id="clip0_3_31">
<rect width="11" height="11" fill="white" transform="translate(3 2)"/>
</clipPath>
</defs>
</svg>
