<svg width="16" height="16" viewBox="0 0 16 16" fill="none" xmlns="http://www.w3.org/2000/svg">
<path fill-rule="evenodd" clip-rule="evenodd" d="M1.32934 5.87193C1.11544 6.54301 1 7.25802 1 8C1 11.866 4.13401 15 8 15C11.5257 15 14.4425 12.3935 14.9288 9.00238L13.9501 8.7771C13.5691 11.7237 11.0504 14 8 14C4.68629 14 2 11.3137 2 8C2 7.33491 2.10821 6.6951 2.308 6.09721L1.32934 5.87193Z" fill="white"/>
<path opacity="0.6" fill-rule="evenodd" clip-rule="evenodd" d="M6.52301 1.15611C5.50835 1.37404 4.57535 1.8119 3.77635 2.41734L3.58756 3.43049L2.82329 3.28807C2.57108 3.565 2.34079 3.86224 2.13516 4.17706L14.8488 6.54616C14.7705 6.17553 14.6629 5.81572 14.5285 5.46926L13.7824 5.33023L13.9672 4.33856C13.4321 3.46828 12.7119 2.72398 11.8615 2.16049L11.3551 4.87791L9.89867 4.60652L10.4197 1.81042L7.99235 1.3581L7.47132 4.1542L6.01491 3.88281L6.52301 1.15611Z" fill="white"/>
</svg>
