<svg width="16" height="16" viewBox="0 0 16 16" fill="none" xmlns="http://www.w3.org/2000/svg">
<path d="M8 1C11.2246 1 13.94 3.1804 14.7522 6.1473C14.9137 6.73741 14.9269 7.08545 15 8C15.0275 8.34366 14.9751 8.68369 14.9269 9.01511C14.4352 12.4 11.5212 15 8 15C4.13401 15 1 11.866 1 8C1 5.66934 2.13903 3.60472 3.8908 2.33242C5.04478 1.49429 6.46467 1 8 1ZM8 2C6.71569 2 5.49482 2.40335 4.47845 3.14154C2.93235 4.26445 2 6.0534 2 8C2 11.3137 4.68629 14 8 14C10.9895 14 13.512 11.7995 13.9373 8.87135C13.941 8.84595 13.941 8.84595 13.9447 8.82092C14.0021 8.4259 14.0171 8.25368 14.0032 8.07964C14.0032 8.07964 13.9698 7.6531 13.955 7.47218L13.9367 7.26393C13.9186 7.0739 13.9011 6.93751 13.8782 6.80774C13.8561 6.68241 13.8276 6.55728 13.7877 6.41134C13.08 3.82638 10.7203 2 8 2Z" fill="white"/>
<path opacity="0.6" d="M8.72484 3.05215C9.1129 3.10851 9.48653 3.20943 9.84035 3.34957C9.91639 3.71351 9.95653 4.0912 9.95653 4.47826C9.95653 5.14849 9.83617 5.79062 9.61588 6.38419C10.2094 6.16384 10.8515 6.04348 11.5217 6.04348C11.9088 6.04348 12.2865 6.08362 12.6509 6.15997C12.7908 6.51413 12.8915 6.88744 12.9479 7.27517C12.4995 7.12489 12.0201 7.04348 11.5217 7.04348C9.04847 7.04348 7.04349 9.04846 7.04349 11.5217C7.04349 12.0198 7.12479 12.4988 7.27484 12.9463C6.88681 12.8914 6.51384 12.7906 6.1606 12.6508C6.08363 12.2865 6.04349 11.9088 6.04349 11.5217C6.04349 10.8515 6.16385 10.2094 6.38413 9.61581C5.79062 9.83616 5.1485 9.95652 4.47827 9.95652C4.09085 9.95652 3.71282 9.91631 3.34814 9.83982C3.20938 9.48617 3.10864 9.1132 3.05231 8.72583C3.50118 8.87522 3.98023 8.95652 4.47827 8.95652C6.95154 8.95652 8.95653 6.95154 8.95653 4.47826C8.95653 3.98361 8.87633 3.50768 8.72822 3.06278L8.72484 3.05215Z" fill="white"/>
</svg>
