<svg width="16" height="16" viewBox="0 0 16 16" fill="none" xmlns="http://www.w3.org/2000/svg">
<path opacity="0.6" d="M13.6241 10.0927C14.6307 7.39712 13.5745 4.29054 10.9998 2.80404C8.42512 1.31754 5.20665 1.95615 3.3755 4.17565L2.49902 3.66961C4.61539 0.974414 8.4458 0.17478 11.4998 1.93801C14.5538 3.70125 15.7765 7.41829 14.5006 10.5987L13.6241 10.0927Z" fill="white"/>
<path fill-rule="evenodd" clip-rule="evenodd" d="M1.91486 5.70834L1.99321 6.87555C2.00093 6.99057 1.99537 7.10609 1.97663 7.21984L1.73908 8.66179L2.96238 9.64454C3.26579 9.88828 3.46258 10.2404 3.5112 10.6265L3.66742 11.8672L5.03702 12.0872C5.40076 12.1456 5.73027 12.3359 5.96274 12.6217L6.83808 13.6978L7.99062 13.2127C8.34933 13.0618 8.75268 13.0561 9.11546 13.197L10.5819 13.7665L11.8242 12.7602C11.9152 12.6864 12.0147 12.6236 12.1204 12.573L13.0409 12.132L1.91486 5.70834ZM10.3566 13.9491C10.3564 13.9493 10.3568 13.9489 10.3566 13.9491V13.9491ZM1.70166 4.68565C1.85116 4.61249 2.02727 4.61853 2.17141 4.70175L13.7915 11.4106C13.9357 11.4939 14.029 11.6433 14.0404 11.8094L14.0804 12.3931C14.0945 12.5975 13.9824 12.7898 13.7976 12.8783L12.5524 13.4748C12.5171 13.4917 12.484 13.5126 12.4536 13.5372L10.986 14.7261C10.8467 14.839 10.6575 14.8686 10.4903 14.8037L8.75346 14.1292C8.63253 14.0822 8.49808 14.0841 8.37851 14.1344L6.8806 14.7648C6.6759 14.8509 6.43892 14.7918 6.29878 14.6195L5.18698 13.2527C5.10949 13.1574 4.99966 13.094 4.87841 13.0745L3.13885 12.7951C2.91958 12.7599 2.74982 12.5842 2.72207 12.3639L2.51904 10.7515C2.50283 10.6228 2.43723 10.5054 2.3361 10.4241L0.88511 9.25848C0.744442 9.14547 0.675573 8.96544 0.704903 8.78741L0.98993 7.05729C0.996176 7.01937 0.998031 6.98086 0.995457 6.94252L0.893727 5.427C0.880125 5.22437 0.990434 5.03364 1.17285 4.94439L1.70166 4.68565Z" fill="white"/>
</svg>
