<svg width="16" height="16" viewBox="0 0 16 16" fill="none" xmlns="http://www.w3.org/2000/svg">
<path d="M8.00001 14C11.3137 14 14 11.3137 14 8C14 7.63586 13.9453 7.02734 13.8628 6.71421L14.7472 6.14819C14.9026 6.52574 15 7.52586 15 8C15 11.866 11.866 15 8.00001 15C7.44612 15.0041 6.66283 14.9038 6.34325 14.8098L6.84456 13.8887C7.10774 13.9514 7.62157 14.0015 8.00001 14Z" fill="white"/>
<path d="M2 8C2 4.68629 4.68629 2 8 2C8.29676 2 8.20914 2.00005 8.20914 2.00005L9.57422 1.1836C9.11349 1.05586 8.36124 0.996782 8 1C4.13401 1 1 4.13401 1 8C1.00781 8.53906 1.07587 9.26246 1.19566 9.62539L2 8Z" fill="white"/>
<path opacity="0.6" d="M2.42108 11.2588C2.42457 11.2839 2.41748 11.2475 2.44949 11.1099C2.47754 10.9893 2.52633 10.8288 2.59857 10.6326C2.74265 10.2412 2.9698 9.73502 3.27648 9.16708C3.89051 8.03001 4.80716 6.67521 5.97561 5.51961L5.27243 4.8086C4.01825 6.04898 3.04593 7.48945 2.39658 8.69193C2.07159 9.29376 1.82345 9.84346 1.66014 10.2871C1.57868 10.5084 1.51575 10.7102 1.47548 10.8834C1.43919 11.0395 1.40719 11.2283 1.43063 11.3967L2.42108 11.2588ZM5.97561 5.51961C7.14816 4.35995 8.41337 3.50526 9.47019 2.96095C9.99886 2.68866 10.4677 2.49802 10.8395 2.38521C11.2378 2.2644 11.451 2.25616 11.5089 2.26759L11.7024 1.28649C11.3842 1.22373 10.9645 1.30229 10.5492 1.42827C10.1075 1.56226 9.58219 1.77841 9.0123 2.07194C7.87201 2.65924 6.52251 3.57226 5.27243 4.8086L5.97561 5.51961ZM13.5883 4.78081C13.5577 4.84575 13.4574 4.95908 13.1557 5.14327C12.8621 5.32252 12.4893 5.50654 11.996 5.77062C11.0322 6.28645 9.76793 7.02769 8.42152 8.3333L9.11767 9.0512C10.3702 7.83665 11.5443 7.1466 12.4679 6.65227C12.9181 6.41128 13.3512 6.19552 13.6767 5.9968C13.9942 5.80302 14.3264 5.56019 14.4928 5.20733L13.5883 4.78081ZM8.42152 8.3333C7.05743 9.65604 6.32235 11.0616 5.8271 12.1484C5.57101 12.7103 5.40206 13.1317 5.22968 13.4655C5.14674 13.626 5.07839 13.7343 5.0204 13.8044C4.96251 13.8743 4.93842 13.8774 4.95121 13.873L5.27666 14.8186C5.49939 14.7419 5.66577 14.5929 5.79064 14.4421C5.9154 14.2914 6.02208 14.1104 6.11818 13.9243C6.30388 13.5647 6.50906 13.0633 6.73706 12.563C7.20996 11.5253 7.88284 10.2486 9.11767 9.0512L8.42152 8.3333ZM4.95121 13.873C4.99309 13.8586 4.98926 13.8794 4.89932 13.849C4.8149 13.8204 4.69855 13.7611 4.55292 13.6626C4.2629 13.4664 3.92628 13.1624 3.59765 12.8159C3.27158 12.4722 2.9693 12.1037 2.74666 11.7914C2.63508 11.6349 2.54808 11.499 2.48894 11.392C2.42024 11.2677 2.41734 11.2319 2.42108 11.2588L1.43063 11.3967C1.45432 11.5668 1.53976 11.7419 1.61368 11.8756C1.69715 12.0267 1.80703 12.1961 1.93246 12.372C2.18385 12.7246 2.51616 13.1289 2.87216 13.5042C3.22562 13.8768 3.61857 14.2378 3.99257 14.4909C4.17896 14.617 4.37824 14.7284 4.57892 14.7962C4.77409 14.8622 5.02484 14.9052 5.27666 14.8186L4.95121 13.873ZM11.5089 2.26759C11.5089 2.26759 11.5134 2.2685 11.5228 2.27161C11.5321 2.27468 11.5447 2.27942 11.5608 2.28646C11.5934 2.30074 11.6349 2.32211 11.685 2.35221C11.7858 2.41276 11.9064 2.49948 12.0403 2.61017C12.3081 2.83148 12.6039 3.12783 12.8678 3.44667C13.1338 3.768 13.3512 4.09264 13.4777 4.36826C13.6203 4.67904 13.5847 4.78844 13.5883 4.78081L14.4928 5.20733C14.6934 4.7819 14.5461 4.29881 14.3866 3.95124C14.211 3.56851 13.9361 3.16894 13.6381 2.809C13.3381 2.44658 12.9983 2.10462 12.6774 1.83939C12.517 1.70681 12.3551 1.5882 12.1999 1.49497C12.0517 1.40593 11.8792 1.32134 11.7024 1.28649L11.5089 2.26759Z" fill="white"/>
</svg>
