<svg width="14" height="14" viewBox="0 0 14 14" fill="none" xmlns="http://www.w3.org/2000/svg">
<path d="M5.32914 0.200653L4.90309 1.37623C4.39747 1.56477 3.91877 1.82173 3.47845 2.14153C1.93235 3.26445 1 5.05339 1 7C1 10.3137 3.68629 13 7 13C9.87497 13 12.3179 10.965 12.8793 8.20474L14.001 7.03965L14.0069 7.25698C14.0015 7.51314 13.963 7.76654 13.9269 8.0151C13.4352 11.4 10.5212 14 7 14C3.13401 14 0 10.866 0 7C0 4.66934 1.13903 2.60471 2.8908 1.33242C3.61197 0.808636 4.43699 0.41914 5.32914 0.200653Z" fill="white"/>
<path opacity="0.6" d="M9.70115 0.994702C11.6564 1.38604 13.0912 2.66166 13.6626 4.50109C13.6668 4.51492 13.6668 4.51492 13.6711 4.52877C13.7801 4.88673 13.8604 5.28405 13.9167 5.70899L12.998 6.6593L12.9931 6.54757C12.9809 6.34946 12.963 6.14658 12.9384 5.94347C12.8882 5.52918 12.8143 5.148 12.7145 4.82016L12.7076 4.79772C12.2456 3.31053 11.1036 2.29524 9.5049 1.97525C7.88564 1.65116 6.49815 2.24608 5.7444 3.65763C4.96183 5.12314 5.60582 7.33904 7.03828 7.9114C8.39165 8.45216 9.52317 8.10552 9.9946 7.32199C10.4268 6.60363 10.3833 5.94347 9.9946 5.41207C9.80109 5.14751 9.52096 5.01652 9.2333 4.99502C9.19321 4.99202 8.68205 4.88252 7.69981 4.6665C8.47285 3.67915 10.0596 3.75312 10.8284 4.81797C11.5079 5.7591 11.4775 6.79712 10.8515 7.83754C10.1212 9.05133 8.46549 9.55854 6.66723 8.84001C4.65036 8.03414 3.81275 5.15205 4.86229 3.18659C5.83109 1.37232 7.66311 0.586788 9.70115 0.994702Z" fill="white"/>
</svg>
