<svg width="16" height="16" viewBox="0 0 16 16" fill="none" xmlns="http://www.w3.org/2000/svg">
<path d="M2 13.3258V2.67422C2 1.91754 2.80787 1.43501 3.4741 1.79375L13.3648 7.11953C14.066 7.4971 14.066 8.5029 13.3648 8.88047L3.4741 14.2063C2.80787 14.565 2 14.0825 2 13.3258Z" stroke="currentColor"/>
<path d="M10 1.5V14.5" stroke="currentColor" stroke-linecap="round"/>
<path d="M6.22651 10C6.19188 9.99495 6.16 9.97901 6.13587 9.9547C6.11175 9.93039 6.09676 9.89908 6.09327 9.86571L5.87237 6.92481L5.3324 8.65712C5.32372 8.68783 5.30444 8.71483 5.2777 8.73372C5.25097 8.75262 5.21834 8.7623 5.18513 8.76119C5.15479 8.75804 5.12605 8.74654 5.10241 8.72806C5.07876 8.70959 5.06121 8.68495 5.05189 8.65712L4.84853 7.89504L4.51543 8.21061C4.48773 8.23786 4.44994 8.25354 4.41024 8.25426H4.15077C4.11078 8.25426 4.07244 8.23905 4.04416 8.21198C4.01588 8.1849 4 8.14818 4 8.1099C4 8.07161 4.01588 8.03489 4.04416 8.00782C4.07244 7.98075 4.11078 7.96554 4.15077 7.96554H4.35063L4.82398 7.50896C4.8429 7.49085 4.86651 7.47788 4.89239 7.47139C4.91827 7.4649 4.94549 7.46512 4.97125 7.47203C4.9968 7.47897 5.01999 7.49225 5.03846 7.51052C5.05693 7.5288 5.07003 7.55142 5.07644 7.5761L5.20266 8.05954L5.82328 6.07879C5.83721 6.05263 5.85915 6.03115 5.88616 6.01724C5.91318 6.00332 5.94398 5.99762 5.97446 6.00091C6.00494 6.00419 6.03366 6.0163 6.05676 6.03561C6.07987 6.05493 6.09628 6.08053 6.10379 6.10901L6.31417 9.10699L6.86466 7.56603C6.87324 7.53902 6.8903 7.5152 6.9135 7.49778C6.93671 7.48037 6.96495 7.4702 6.99439 7.46867C7.02641 7.46261 7.05963 7.4669 7.08882 7.48088C7.11802 7.49486 7.14153 7.51772 7.15568 7.54589L7.53787 8.28112L7.6641 8.04275C7.67686 8.01949 7.69602 8.00001 7.7195 7.9864C7.74298 7.97279 7.76989 7.96558 7.79734 7.96554H8.84923C8.88922 7.96554 8.92756 7.98075 8.95584 8.00782C8.98412 8.03489 9 8.07161 9 8.1099C8.99911 8.14792 8.98294 8.18414 8.95485 8.21103C8.92677 8.23792 8.88894 8.2534 8.84923 8.25426H7.90252L7.66059 8.65712C7.6481 8.68117 7.62884 8.70141 7.60499 8.71555C7.58115 8.72969 7.55365 8.73719 7.5256 8.73719C7.49754 8.73719 7.47005 8.72969 7.4462 8.71555C7.42235 8.70141 7.4031 8.68117 7.3906 8.65712L7.03997 7.98568L6.37027 9.89257C6.36058 9.9218 6.34143 9.94732 6.31558 9.96543C6.28973 9.98354 6.25854 9.99329 6.22651 9.99329V10Z" fill="currentColor"/>
</svg>
