<svg width="16" height="16" viewBox="0 0 16 16" fill="none" xmlns="http://www.w3.org/2000/svg">
<path d="M12.5115 7.76856C12.5114 8.35224 12.2795 8.91199 11.8668 9.32468C11.454 9.73737 10.8942 9.9692 10.3106 9.96917C9.72688 9.96914 9.16712 9.73726 8.75441 9.32453C8.3417 8.91179 8.10984 8.35202 8.10984 7.76834C8.10984 7.18467 8.3417 6.62489 8.75441 6.21216C9.16712 5.79943 9.72688 5.56754 10.3106 5.56751C10.8942 5.56748 11.454 5.79931 11.8668 6.21201C12.2795 6.6247 12.5114 7.18445 12.5115 7.76813V7.76856ZM15 4.5V11.5C15 13.4333 13.4333 15 11.5 15H4.5C2.56669 15 1 13.4333 1 11.5V4.5C1 2.56669 2.56669 1 4.5 1H11.5C13.4333 1 15 2.56669 15 4.5ZM13.733 6.53175C13.4644 5.72751 13.0084 4.99869 12.4026 4.40548C11.7967 3.81228 11.0585 3.3717 10.2487 3.12013C10.3414 3.36743 10.3884 3.62952 10.3874 3.89362C9.74038 3.04487 8.749 2.49362 7.68544 2.39781C7.03428 2.33919 6.3789 2.44713 5.78095 2.7115C6.26706 2.86404 6.68547 3.17997 6.96526 3.60575C5.89032 3.22206 4.66926 3.34325 3.69232 3.933C3.29254 4.17503 2.93993 4.48749 2.65156 4.85525C2.98515 4.78476 3.33052 4.79247 3.66063 4.87779C3.99073 4.9631 4.2966 5.1237 4.55425 5.347C4.33895 5.55204 4.0844 5.71142 3.80591 5.81555C3.52743 5.91968 3.23076 5.96641 2.93375 5.95294C3.02326 6.09899 3.12973 6.23395 3.25094 6.355C3.24525 6.36506 3.23863 6.37469 3.233 6.38475C2.95372 6.5107 2.70394 6.69379 2.49978 6.92221C2.29561 7.15063 2.14159 7.41931 2.04764 7.71092C1.95369 8.00252 1.92191 8.31058 1.95435 8.61523C1.98678 8.91987 2.0827 9.21433 2.23594 9.47962C2.17294 8.93494 2.63494 8.45413 3.18225 8.49613C3.71955 8.53769 4.10144 9.06969 3.97019 9.59294C3.92295 9.77509 3.8193 9.93764 3.67408 10.0573C3.52886 10.177 3.34951 10.2477 3.16169 10.2592C3.66919 11.1618 4.53937 11.8347 5.54169 12.0946C5.89702 12.1859 6.26349 12.2264 6.63019 12.2149C6.35004 12.4283 6.02233 12.5706 5.67512 12.6296C6.59764 13.2565 7.69346 13.5783 8.80843 13.5499C9.9234 13.5215 11.0014 13.1443 11.8908 12.4713C12.7802 11.7983 13.4362 10.8634 13.7666 9.7981C14.097 8.73283 14.0851 7.59079 13.7326 6.53262L13.733 6.53175Z" fill="currentColor"/>
</svg>
