<svg width="16" height="16" viewBox="0 0 16 16" fill="none" xmlns="http://www.w3.org/2000/svg">
<path d="M8 11.8848C8.27599 11.8848 8.49975 12.0652 8.5 12.2881V13.0957C8.5 13.3187 8.27614 13.5 8 13.5C7.72386 13.5 7.5 13.3187 7.5 13.0957V12.2881C7.50025 12.0652 7.72401 11.8848 8 11.8848ZM5.5 5.42285C6.0522 5.42285 6.49987 5.87068 6.5 6.42285V10.8848C6.49993 11.437 6.05224 11.8848 5.5 11.8848H2.5C1.94776 11.8848 1.50007 11.437 1.5 10.8848V6.42285C1.50013 5.87068 1.9478 5.42285 2.5 5.42285H5.5ZM13.5 5.42285C14.0522 5.42285 14.4999 5.87068 14.5 6.42285V10.8848C14.4999 11.437 14.0522 11.8848 13.5 11.8848H10.5C9.94776 11.8848 9.50007 11.437 9.5 10.8848V6.42285C9.50013 5.87068 9.9478 5.42285 10.5 5.42285H13.5ZM8 8.6543C8.27611 8.6543 8.49995 8.83461 8.5 9.05762V10.6729C8.5 10.8959 8.27614 11.0771 8 11.0771C7.72386 11.0771 7.5 10.8959 7.5 10.6729V9.05762C7.50005 8.83461 7.72389 8.6543 8 8.6543ZM8 5.42285C8.27614 5.42285 8.5 5.60411 8.5 5.82715V7.44238C8.49995 7.66539 8.27611 7.8457 8 7.8457C7.72389 7.8457 7.50005 7.66539 7.5 7.44238V5.82715C7.5 5.60411 7.72386 5.42285 8 5.42285ZM8 3C8.27614 3 8.5 3.18126 8.5 3.4043V4.21191C8.49975 4.43478 8.27599 4.61523 8 4.61523C7.72401 4.61523 7.50025 4.43478 7.5 4.21191V3.4043C7.5 3.18126 7.72386 3 8 3Z" fill="currentColor"/>
</svg>
