<svg width="16" height="16" viewBox="0 0 16 16" fill="none" xmlns="http://www.w3.org/2000/svg">
<path d="M12.7258 7.54748H11.8294V4.30297C11.8292 4.17981 11.7859 4.06061 11.707 3.96606C11.6637 3.92444 11.6126 3.8918 11.5566 3.87005C11.5006 3.84829 11.4409 3.83785 11.3809 3.83931H8.56969V3.31282C8.58973 2.34326 7.83629 1.52211 6.87864 1.50044C5.94158 1.47877 5.14697 2.25876 5.12638 3.24891V3.83931H1.94795C1.82763 3.84 1.71176 3.88492 1.62241 3.96552C1.54117 4.04947 1.5 4.17622 1.5 4.30243V7.7154H2.41702C3.3335 7.75765 4.06691 8.53709 4.06691 9.48553C4.06691 10.4334 3.3335 11.234 2.41702 11.2551H1.5V14.036C1.5 14.1627 1.54062 14.2678 1.62241 14.3734C1.70366 14.4574 1.82608 14.4996 1.94795 14.4996H4.94331V13.6146C4.94331 12.6244 5.71733 11.845 6.65494 11.845C7.592 11.845 8.36603 12.6455 8.36603 13.6146V14.5002H11.3608C11.4814 14.4996 11.5974 14.4547 11.6869 14.374C11.7682 14.2895 11.8088 14.1627 11.8088 14.0365V11.2557H12.7052C13.7035 11.2557 14.4981 10.434 14.4981 9.40157C14.5092 9.16204 14.4715 8.92276 14.3874 8.6982C14.3033 8.47364 14.1745 8.26849 14.0088 8.09515C13.8432 7.92182 13.644 7.78391 13.4235 7.68977C13.2029 7.59564 12.9656 7.54723 12.7258 7.54748Z" fill="currentColor"/>
</svg>
