<svg width="16" height="16" viewBox="0 0 16 16" fill="none" xmlns="http://www.w3.org/2000/svg">
<path d="M13.1116 3.63422V3.41629C13.1116 2.35863 12.2518 1.5 11.1959 1.5H4.80265C3.74534 1.5 2.887 2.36008 2.887 3.41629V3.43518H2.09111C1.76433 3.43518 1.5 3.6996 1.5 4.02649C1.5 4.35337 1.76433 4.61779 2.09111 4.61779H2.887V4.65266C2.887 5.71033 3.74679 6.56895 4.80265 6.56895H11.1959C12.0935 6.56895 12.8472 5.94714 13.0535 5.11321C13.2205 5.34857 13.3163 5.63478 13.3163 5.93842C13.3163 6.72441 12.6773 7.36366 11.8916 7.36366H9.11323C8.17356 7.36366 7.40817 8.1293 7.40817 9.06929V10.1807C7.06396 10.3841 6.83158 10.7589 6.83158 11.1861V13.3319C6.83158 13.9755 7.35588 14.5 7.99927 14.5C8.64267 14.5 9.16696 13.9755 9.16696 13.3319V11.1875C9.16696 10.7589 8.93459 10.3856 8.59038 10.1822V9.07074C8.59038 8.78163 8.82566 8.54627 9.11468 8.54627H11.893C13.3309 8.54627 14.5 7.37673 14.5 5.93842C14.4985 4.96066 13.9554 4.08024 13.1116 3.63422Z" fill="currentColor"/>
</svg>
