<svg width="16" height="16" viewBox="0 0 16 16" fill="none" xmlns="http://www.w3.org/2000/svg">
<path fill-rule="evenodd" clip-rule="evenodd" d="M12.2857 2.85714H3.71429C3.2409 2.85714 2.85714 3.2409 2.85714 3.71429V12.2857C2.85714 12.7591 3.2409 13.1429 3.71429 13.1429H12.2857C12.7591 13.1429 13.1429 12.7591 13.1429 12.2857V3.71429C13.1429 3.2409 12.7591 2.85714 12.2857 2.85714ZM3.71429 2C2.76751 2 2 2.76751 2 3.71429V12.2857C2 13.2325 2.76751 14 3.71429 14H12.2857C13.2325 14 14 13.2325 14 12.2857V3.71429C14 2.76751 13.2325 2 12.2857 2H3.71429Z" fill="currentColor" fill-opacity="0.6"/>
<path d="M8 13.5714C11.077 13.5714 13.5714 11.077 13.5714 8C13.5714 4.92299 11.077 2.42857 8 2.42857C4.92299 2.42857 2.42857 4.92299 2.42857 8C2.42857 11.077 4.92299 13.5714 8 13.5714Z" stroke="currentColor"/>
</svg>
