<svg width="16" height="16" viewBox="0 0 16 16" fill="none" xmlns="http://www.w3.org/2000/svg">
<path d="M13.933 1.5H10.0122C9.73071 1.5 9.46721 1.69039 9.4203 1.96907C9.36098 2.32224 9.63414 2.63127 9.97766 2.63127H13.0859C13.2418 2.63127 13.3687 2.7582 13.3687 2.91409V5.98785C13.3687 6.26929 13.5591 6.53279 13.8378 6.5797C14.191 6.63902 14.5 6.36586 14.5 6.02234V2.06426C14.4972 1.75385 14.2434 1.5 13.933 1.5ZM6.02096 13.366H2.91409C2.7582 13.366 2.63127 13.239 2.63127 13.0831V10.0108C2.63127 9.72933 2.44089 9.46583 2.16221 9.41892C1.80903 9.3596 1.5 9.63276 1.5 9.97628V13.9316C1.5 14.242 1.75385 14.4972 2.06564 14.4972H5.98647C6.26791 14.4972 6.53141 14.3069 6.57832 14.0282C6.63764 13.675 6.36448 13.366 6.02096 13.366ZM6.79216 6.50796C6.79216 6.5052 6.79078 6.50106 6.79078 6.4983V3.68391C6.79078 3.3735 6.53693 3.11827 6.22514 3.11827C5.91473 3.11827 5.6595 3.37212 5.6595 3.68391V5.14353L3.02998 2.51125C2.81062 2.29189 2.45055 2.29189 2.23119 2.51125C2.01183 2.73061 2.01183 3.09068 2.23119 3.31004L4.86209 5.94232H3.40247C3.09206 5.94232 2.83684 6.19617 2.83684 6.50796C2.83684 6.81837 3.09068 7.0736 3.40247 7.0736H6.21686C6.21962 7.0736 6.22376 7.07498 6.22652 7.07498C6.33689 7.07498 6.44036 7.04187 6.52727 6.9853C6.53003 6.98254 6.53417 6.98116 6.53831 6.97978C6.57004 6.95909 6.59901 6.93564 6.62523 6.90804C6.65144 6.88183 6.67627 6.85148 6.69697 6.82113C6.69972 6.81837 6.7011 6.81423 6.70248 6.81147C6.75905 6.7218 6.79216 6.61833 6.79216 6.50796ZM11.1365 10.3364H12.5961C12.9066 10.3364 13.1618 10.0825 13.1618 9.77072C13.1618 9.46031 12.9079 9.20508 12.5961 9.20508H9.78176C9.779 9.20508 9.77486 9.2037 9.7721 9.2037C9.66035 9.2037 9.55826 9.23681 9.46997 9.29338C9.46721 9.29476 9.46307 9.29614 9.46031 9.2989C9.42858 9.31959 9.39961 9.34304 9.37339 9.37064C9.34718 9.39685 9.32235 9.4272 9.30166 9.45755C9.30028 9.46031 9.2989 9.46445 9.29614 9.46721C9.23957 9.5555 9.20646 9.65759 9.20646 9.76934C9.20646 9.7721 9.20784 9.77624 9.20784 9.779V12.5934C9.20784 12.9038 9.46169 13.159 9.77348 13.159C10.0839 13.159 10.3391 12.9052 10.3391 12.5934V11.1351L12.97 13.7661C13.1894 13.9854 13.5495 13.9854 13.7688 13.7661C13.9882 13.5467 13.9882 13.1866 13.7688 12.9673L11.1365 10.3364Z" fill="currentColor"/>
</svg>
