<svg width="16" height="16" viewBox="0 0 16 16" fill="none" xmlns="http://www.w3.org/2000/svg">
<path d="M1.77766 12C1.67655 12.001 1.57622 11.9822 1.48242 11.9447C1.38861 11.9073 1.30316 11.8518 1.23095 11.7816C1.15874 11.7113 1.10117 11.6277 1.06155 11.5353C1.02192 11.443 1.00101 11.3439 1 11.2435C1.00258 11.0412 1.0859 10.8482 1.23168 10.7068C1.37747 10.5654 1.57381 10.4871 1.77766 10.4892H14.2223C14.4262 10.4871 14.6225 10.5654 14.7683 10.7068C14.9141 10.8482 14.9974 11.0412 15 11.2435C14.999 11.3439 14.9781 11.443 14.9385 11.5353C14.8988 11.6277 14.8413 11.7113 14.7691 11.7816C14.6968 11.8518 14.6114 11.9073 14.5176 11.9447C14.4238 11.9822 14.3235 12.001 14.2223 12H1.77766ZM7.38998 6.82503C6.66202 6.12276 6.02995 5.51289 5.28099 5.51289H5.23759C4.47463 5.53581 3.50587 6.18181 2.36073 7.43421C2.22201 7.58459 2.02964 7.67533 1.82454 7.68713C1.61945 7.69894 1.4178 7.63088 1.26249 7.49742C1.18615 7.43263 1.12373 7.35325 1.07897 7.26401C1.0342 7.17478 1.008 7.07751 1.00193 6.97801C0.995855 6.87851 1.01003 6.77881 1.04361 6.68486C1.07719 6.59092 1.12949 6.50464 1.19739 6.43118C2.67782 4.81132 3.94685 4.04029 5.18719 4H5.28239C6.66902 4 7.63287 4.92871 8.48543 5.75045C9.19169 6.43257 9.80346 7.0223 10.4971 7.0223H10.5335C11.2076 7.00216 12.0594 6.43534 13.0632 5.33854C13.2026 5.18874 13.3953 5.09855 13.6004 5.08702C13.8056 5.07549 14.0072 5.1435 14.1628 5.27672C14.2389 5.34167 14.3011 5.42111 14.3457 5.51034C14.3903 5.59957 14.4164 5.69677 14.4225 5.79618C14.4286 5.8956 14.4145 5.99522 14.381 6.08914C14.3476 6.18305 14.2956 6.26936 14.2279 6.34296C12.8917 7.80167 11.7333 8.49629 10.5818 8.5338H10.4943C9.16509 8.5338 8.22364 7.63079 7.39068 6.82572L7.38998 6.82503Z" fill="currentColor"/>
</svg>
