<svg width="16" height="16" viewBox="0 0 16 16" fill="none" xmlns="http://www.w3.org/2000/svg">
<path fill-rule="evenodd" clip-rule="evenodd" d="M11.718 12.6039C11.733 12.5306 11.7673 12.4626 11.8173 12.4071C12.8906 11.1868 13.4812 9.61653 13.4779 7.99142C13.475 6.36953 12.8838 4.80377 11.8141 3.58471C11.7651 3.5285 11.7317 3.46042 11.7173 3.38728C11.7029 3.31414 11.708 3.2385 11.732 3.16792C11.7856 3.02493 12.0667 2.873 12.2187 2.84538C12.3698 2.81613 12.5209 2.90956 12.6232 3.02493C13.8319 4.39878 14.499 6.16566 14.5 7.99548C14.4984 9.82543 13.8314 11.5924 12.6232 12.9668C12.5209 13.0814 12.3706 13.1756 12.2187 13.1472C12.0667 13.1139 11.7816 12.9676 11.732 12.8238C11.7078 12.7531 11.703 12.6771 11.718 12.6039ZM6.51286 5.42358C6.96481 5.16231 7.47758 5.02462 7.99962 5.02436C8.77686 5.04252 9.51615 5.36404 10.0594 5.92017C10.6027 6.47629 10.9069 7.2229 10.9069 8.00035C10.9069 8.77781 10.6027 9.52441 10.0594 10.0805C9.51615 10.6367 8.77686 10.9582 7.99962 10.9763C7.47763 10.9763 6.96485 10.8388 6.51288 10.5777C6.0609 10.3166 5.68568 9.94098 5.42497 9.48875C5.16354 9.03643 5.02589 8.5232 5.02589 8.00076C5.02589 7.47831 5.16354 6.96509 5.42497 6.51276C5.68571 6.0605 6.06091 5.68485 6.51286 5.42358ZM2.518 8.00029C2.518 6.38108 3.11027 4.8155 4.18189 3.59358C4.28425 3.47903 4.31269 3.31979 4.26394 3.1768C4.2152 3.03381 3.92759 2.88594 3.77647 2.85344C3.62536 2.82582 3.47506 2.91519 3.37269 3.03381C2.16826 4.40828 1.50292 6.17277 1.5 8.00029C1.5 9.82342 2.16621 11.5889 3.37675 12.9708C3.47831 13.0854 3.63023 13.1796 3.78135 13.1504C3.93246 13.122 4.21438 12.9708 4.268 12.8287C4.29208 12.7577 4.29686 12.6817 4.28187 12.6083C4.26688 12.5349 4.23266 12.4669 4.1827 12.4111C3.11133 11.1913 2.51972 9.62376 2.518 8.00029ZM10.9837 5.37203C10.9664 5.48272 10.9929 5.5958 11.0576 5.68726C11.5483 6.36484 11.801 7.16672 11.801 7.99623C11.8006 8.82491 11.5406 9.63265 11.0576 10.306C11.0152 10.3675 10.9892 10.4388 10.982 10.5131C10.9747 10.5874 10.9865 10.6624 11.0162 10.7309C11.0779 10.8699 11.3761 11.0047 11.5272 11.0202C11.6791 11.0372 11.8254 10.9267 11.9164 10.804C12.5047 9.98738 12.8206 9.006 12.819 7.99948C12.8201 6.99279 12.5043 6.01129 11.9164 5.1941C11.8841 5.14817 11.8428 5.10928 11.7951 5.07981C11.7473 5.05033 11.694 5.0309 11.6385 5.02267C11.5272 5.00643 11.3314 5.0308 11.238 5.09661C11.147 5.15835 10.9999 5.26153 10.9837 5.37203ZM5.01536 5.35577C4.99952 5.24807 4.8594 5.14809 4.76806 5.08291L4.76107 5.07792C4.67251 5.01211 4.4759 4.98367 4.36134 5.00398C4.24997 5.02285 4.15031 5.08433 4.08349 5.17541C3.49406 5.99157 3.17783 6.97323 3.18005 7.97998C3.18005 8.98985 3.49528 9.96235 4.08349 10.7837C4.17367 10.9064 4.32072 11.0128 4.47184 11.0015C4.62295 10.9901 4.92112 10.8495 4.98286 10.7114C5.04461 10.5733 5.02836 10.4124 4.94224 10.2865C4.45494 9.61527 4.19426 8.80619 4.19804 7.97673C4.19804 7.14641 4.45477 6.35021 4.94224 5.66775C5.00664 5.5774 5.0329 5.46533 5.01536 5.35577Z" fill="currentColor"/>
</svg>
