<svg width="16" height="16" viewBox="0 0 16 16" fill="none" xmlns="http://www.w3.org/2000/svg">
<path d="M2.58333 11.6942L13.3907 3.66667L13.4167 3.70675V2.58333H14.5V5.83333H13.4167V5.00567L2.58333 13.0527V13.4167H1.5V10.1667H2.58333V11.6942ZM12.3333 3.03833L3.66667 9.04217V2.58333C3.66667 2.29602 3.7808 2.02047 3.98397 1.8173C4.18713 1.61414 4.46268 1.5 4.75 1.5H11.25C11.5373 1.5 11.8129 1.61414 12.016 1.8173C12.2192 2.02047 12.3333 2.29602 12.3333 2.58333V3.03833ZM12.3333 6.9925V13.4167C12.3333 13.704 12.2192 13.9795 12.016 14.1827C11.8129 14.3859 11.5373 14.5 11.25 14.5H4.75C4.46268 14.5 4.18713 14.3859 3.98397 14.1827C3.7808 13.9795 3.66667 13.704 3.66667 13.4167V12.9963L12.3333 6.99142V6.9925Z" fill="currentColor"/>
</svg>
