<svg width="16" height="16" viewBox="0 0 16 16" fill="none" xmlns="http://www.w3.org/2000/svg">
<path d="M9.74069 6.25882C9.83304 6.3512 9.88492 6.47648 9.88492 6.60711C9.88492 6.73773 9.83304 6.86301 9.74069 6.95539L6.95441 9.74167C6.90896 9.78872 6.85461 9.82625 6.7945 9.85207C6.7344 9.87789 6.66976 9.89148 6.60435 9.89205C6.53894 9.89262 6.47407 9.88015 6.41353 9.85538C6.35299 9.83061 6.29798 9.79403 6.25173 9.74778C6.20548 9.70153 6.1689 9.64652 6.14413 9.58598C6.11936 9.52544 6.10689 9.46057 6.10746 9.39516C6.10803 9.32975 6.12162 9.26511 6.14744 9.20501C6.17326 9.14491 6.21079 9.09055 6.25784 9.0451L9.04412 6.25882C9.1365 6.16647 9.26178 6.11459 9.3924 6.11459C9.52303 6.11459 9.64831 6.16647 9.74069 6.25882Z" fill="currentColor" fill-opacity="0.7"/>
<path d="M9.39388 8.69731L10.4382 7.65295C10.7156 7.37596 10.8716 7.00014 10.8719 6.60815C10.8722 6.21616 10.7167 5.84012 10.4397 5.56274C10.1627 5.28537 9.78691 5.12939 9.39493 5.12911C9.00294 5.12883 8.62689 5.28428 8.34952 5.56127L7.30515 6.60563L6.95638 6.25784C6.77167 6.07307 6.66791 5.82252 6.66791 5.56127C6.66791 5.30001 6.77167 5.04946 6.95638 4.86469L9.74266 2.07743C9.92565 1.89437 10.1429 1.74915 10.382 1.65007C10.6212 1.551 10.8775 1.5 11.1363 1.5C11.3951 1.5 11.6514 1.551 11.8906 1.65007C12.1297 1.74915 12.3469 1.89437 12.5299 2.07743L13.9231 3.47155C14.2925 3.84108 14.5 4.34219 14.5 4.86469C14.5 5.3872 14.2925 5.88831 13.9231 6.25784L11.1358 9.04412C10.951 9.22882 10.7005 9.33259 10.4392 9.33259C10.178 9.33259 9.92742 9.22882 9.74266 9.04412L9.39487 8.69632L9.39388 8.69731ZM6.60563 7.30417L5.56126 8.34853C5.29192 8.62713 5.14278 9.00038 5.14597 9.38788C5.14915 9.77537 5.3044 10.1461 5.57828 10.4203C5.85217 10.6944 6.22276 10.85 6.61026 10.8535C6.99775 10.8571 7.37113 10.7083 7.64999 10.4392L8.69632 9.39388L9.04412 9.74167C9.13572 9.83318 9.20839 9.94184 9.25798 10.0614C9.30756 10.1811 9.33308 10.3093 9.33308 10.4387C9.33308 10.5682 9.30756 10.6964 9.25798 10.816C9.20839 10.9356 9.13572 11.0443 9.04412 11.1358L6.25783 13.9221C6.07485 14.1051 5.85759 14.2504 5.61846 14.3494C5.37934 14.4485 5.12304 14.4995 4.8642 14.4995C4.60537 14.4995 4.34906 14.4485 4.10994 14.3494C3.87082 14.2504 3.65356 14.1051 3.47057 13.9221L2.07743 12.5289C1.89437 12.346 1.74915 12.1287 1.65007 11.8896C1.55099 11.6504 1.5 11.3941 1.5 11.1353C1.5 10.8765 1.55099 10.6202 1.65007 10.381C1.74915 10.1419 1.89437 9.92466 2.07743 9.74167L4.86371 6.95539C4.95521 6.86379 5.06387 6.79112 5.18348 6.74153C5.30309 6.69195 5.4313 6.66643 5.56077 6.66643C5.69025 6.66643 5.81846 6.69195 5.93806 6.74153C6.05767 6.79112 6.16633 6.86379 6.25783 6.95539L6.60563 7.30417Z" fill="currentColor"/>
</svg>
