<svg width="16" height="16" viewBox="0 0 16 16" fill="none" xmlns="http://www.w3.org/2000/svg">
<path d="M4.8893 12.116L4.57062 11.2596L4.07389 11.7563C4.03325 11.7963 4.00499 11.8477 3.99149 11.9061C3.97799 11.9645 3.97963 12.0283 3.99628 12.0922L4.62776 14.4264C4.64607 14.4952 4.68292 14.5615 4.734 14.6174C4.78508 14.6733 4.8483 14.7166 4.91629 14.7422C4.98623 14.7678 5.05796 14.7753 5.12411 14.764C5.19027 14.7527 5.24844 14.7229 5.29264 14.6778L5.69315 14.2772L5.3746 13.4207L4.8893 12.116ZM5.93251 9.89825L5.13783 10.6929L5.45611 11.5492L5.94127 12.8538L6.25969 13.7102L7.05437 12.9155L5.93251 9.89825ZM7.27583 8.55494L6.49932 9.33144L7.62118 12.3487L8.39768 11.5722L7.27583 8.55494ZM8.62346 7.2073L7.84276 7.98801L8.9645 11.0053L9.74532 10.2245L8.62346 7.2073ZM13.2199 5.89686L11.0994 5.0531C11.0285 5.02574 10.9554 5.01703 10.8879 5.02789C10.8203 5.03875 10.7609 5.06877 10.716 5.11475L10.5718 5.259L11.6936 8.27623L13.4239 6.54591C13.4664 6.50419 13.4954 6.45008 13.5081 6.3885C13.5208 6.32692 13.5169 6.25984 13.4967 6.19338C13.4766 6.12877 13.4403 6.0672 13.3917 6.01506C13.343 5.96292 13.2837 5.92211 13.2199 5.89686ZM10.0048 5.82593L9.19039 6.64037L10.3122 9.6576L11.1267 8.84316L10.0048 5.82593Z" fill="currentColor" fill-opacity="0.7"/>
<path fill-rule="evenodd" clip-rule="evenodd" d="M10.8536 2.14645C11.0488 2.34171 11.0488 2.65829 10.8536 2.85355L2.85355 10.8536C2.65829 11.0488 2.34171 11.0488 2.14645 10.8536C1.95118 10.6583 1.95118 10.3417 2.14645 10.1464L10.1464 2.14645C10.3417 1.95118 10.6583 1.95118 10.8536 2.14645Z" fill="currentColor"/>
</svg>
