<svg width="160" height="160" viewBox="0 0 160 160" fill="none" xmlns="http://www.w3.org/2000/svg">
<path d="M130.261 41.8041H118.748L118.569 29.6734C118.55 21.5655 111.973 15 103.863 15H29.6979C21.5895 15 15.014 21.5663 15 29.672V103.522C15.0138 111.633 21.5924 118.203 29.7064 118.203H41.4302V130.326C41.4486 138.434 48.0256 145 56.1366 145H130.294C138.407 145 144.986 138.429 145 130.319V56.486C144.986 48.3742 138.407 41.8041 130.294 41.8041H130.259H130.261H130.261ZM41.4302 56.486V108.331H33.7277C28.8603 108.331 24.9135 104.39 24.9044 99.5249V33.6709C24.9044 28.812 28.8611 24.8636 33.7438 24.8636H99.8412C104.716 24.8636 108.673 28.812 108.673 33.6709L108.876 41.8041H56.1366C48.0234 41.8041 41.4441 48.3742 41.4302 56.4844V56.486ZM121.526 80.8609L89.1484 113.109C88.4697 113.763 87.5775 114.149 86.6364 114.197C86.2633 114.516 85.5785 114.714 84.8476 114.714C83.7584 114.714 82.7718 114.275 82.0547 113.563L64.9201 96.4933C64.19 95.7653 63.7378 94.7581 63.7378 93.6457C63.7378 92.5325 64.19 91.5261 64.9201 90.7975L66.8209 88.9043C67.5541 88.1749 68.5644 87.7236 69.6807 87.7236C70.7978 87.7236 71.808 88.1749 72.5412 88.9043L85.3706 101.693L113.913 73.2636C114.643 72.5336 115.652 72.0814 116.766 72.0814C117.88 72.0814 118.888 72.5327 119.618 73.2636L121.527 75.1653C122.277 75.9232 122.697 76.9466 122.695 78.0127C122.697 79.0793 122.277 80.1031 121.526 80.8609Z" fill="currentColor"/>
</svg>
