<svg width="16" height="16" viewBox="0 0 16 16" fill="none" xmlns="http://www.w3.org/2000/svg">
<path d="M8.23255 1.62361C8.08633 1.54628 7.91132 1.54626 7.76509 1.62358L3.20639 4.03375C2.85128 4.2215 2.85133 4.73018 3.20649 4.91785L7.76518 7.32679C7.91136 7.40404 8.08628 7.40403 8.23245 7.32676L12.7895 4.91781C13.1446 4.73012 13.1446 4.22156 12.7896 4.03379L8.23255 1.62361ZM3.10774 5.53151C2.77393 5.35454 2.37199 5.5975 2.37354 5.97531L2.39559 11.358C2.39634 11.5423 2.49851 11.7113 2.66141 11.7977L7.02181 14.109C7.35561 14.286 7.75752 14.043 7.75598 13.6652L7.73393 8.28297C7.73317 8.09861 7.63102 7.92962 7.46814 7.84326L3.10774 5.53151ZM13.6221 5.9753C13.6237 5.59749 13.2217 5.35455 12.8879 5.53153L8.52798 7.84326C8.3651 7.92962 8.26296 8.0986 8.26221 8.28296L8.24016 13.6652C8.23861 14.043 8.64052 14.286 8.97433 14.109L13.3345 11.7977C13.4975 11.7113 13.5996 11.5423 13.6004 11.3579L13.6221 5.9753ZM3.04129 7.08028C3.03975 6.70248 3.44165 6.45953 3.77545 6.63646L6.80674 8.24321C6.96965 8.32957 7.07182 8.49858 7.07256 8.68297L7.08825 12.5608C7.08978 12.9386 6.68784 13.1815 6.35404 13.0045L3.32289 11.3974C3.16 11.311 3.05786 11.1421 3.05711 10.9577L3.04129 7.08028ZM12.2205 6.63646C12.5543 6.45953 12.9562 6.70248 12.9547 7.08028L12.9389 10.9577C12.9381 11.1421 12.836 11.311 12.6731 11.3974L9.64207 13.0045C9.30828 13.1815 8.90634 12.9386 8.90785 12.5608L8.92341 8.68298C8.92415 8.49859 9.02632 8.32957 9.18924 8.24321L12.2205 6.63646Z" fill="currentColor"/>
</svg>
