<svg width="16" height="16" viewBox="0 0 16 16" fill="none" xmlns="http://www.w3.org/2000/svg">
<path opacity="0.5" d="M7.56863 2.00004C7.45502 2.00005 7.34607 2.04518 7.26574 2.12551C7.18541 2.20584 7.14029 2.31479 7.14027 2.42839V3.71345H4.1418C4.02821 3.71346 3.91925 3.75859 3.83892 3.83892C3.75859 3.91925 3.71346 4.02821 3.71345 4.1418V7.14027H2.42839C2.31479 7.14029 2.20584 7.18541 2.12551 7.26574C2.04518 7.34607 2.00005 7.45502 2.00004 7.56863V13.5655C1.99924 13.6223 2.00973 13.6787 2.03089 13.7314C2.05206 13.784 2.08349 13.832 2.12334 13.8724C2.1632 13.9128 2.21069 13.9449 2.26306 13.9668C2.31543 13.9888 2.37163 14 2.42839 14C2.48516 14 2.54136 13.9888 2.59373 13.9668C2.64611 13.9449 2.69359 13.9128 2.73345 13.8724C2.77331 13.832 2.80473 13.784 2.8259 13.7314C2.84706 13.6787 2.85755 13.6223 2.85675 13.5655V7.99697H4.1418C4.25541 7.99697 4.36436 7.95184 4.44469 7.87151C4.52501 7.79118 4.57014 7.68222 4.57016 7.56863V4.57016H7.56863C7.68222 4.57014 7.79118 4.52501 7.87151 4.44469C7.95184 4.36436 7.99697 4.25541 7.99697 4.1418V2.85675H13.5655C13.6223 2.85755 13.6787 2.84706 13.7314 2.8259C13.784 2.80473 13.832 2.77331 13.8724 2.73345C13.9128 2.69359 13.9449 2.64611 13.9668 2.59373C13.9888 2.54136 14 2.48516 14 2.42839C14 2.37163 13.9888 2.31543 13.9668 2.26306C13.9449 2.21069 13.9128 2.1632 13.8724 2.12334C13.832 2.08349 13.784 2.05206 13.7314 2.03089C13.6787 2.00973 13.6223 1.99924 13.5655 2.00004H7.56863Z" fill="currentColor"/>
<path d="M13.5854 5.00004C8.84867 5.00004 5.00004 8.84867 5.00004 13.5854C4.99928 13.6396 5.00928 13.6933 5.02949 13.7436C5.04969 13.7938 5.07968 13.8397 5.11772 13.8782C5.15576 13.9168 5.20109 13.9474 5.25106 13.9683C5.30105 13.9893 5.35469 14 5.40887 14C5.46305 14 5.51669 13.9893 5.56667 13.9683C5.61665 13.9474 5.66198 13.9168 5.70002 13.8782C5.73805 13.8397 5.76805 13.7938 5.78825 13.7436C5.80845 13.6933 5.81846 13.6396 5.81769 13.5854C5.81769 9.29055 9.29055 5.81769 13.5854 5.81769C13.6396 5.81846 13.6933 5.80845 13.7436 5.78825C13.7938 5.76805 13.8397 5.73805 13.8782 5.70002C13.9168 5.66198 13.9474 5.61665 13.9683 5.56667C13.9893 5.51669 14 5.46305 14 5.40887C14 5.35469 13.9893 5.30105 13.9683 5.25106C13.9474 5.20109 13.9168 5.15576 13.8782 5.11772C13.8397 5.07968 13.7938 5.04969 13.7436 5.02949C13.6933 5.00928 13.6396 4.99928 13.5854 5.00004Z" fill="currentColor"/>
</svg>
