<svg width="16" height="16" viewBox="0 0 16 16" fill="none" xmlns="http://www.w3.org/2000/svg">
<path d="M12.372 12.3186H5.15198V5.09861H8.32798C8.94398 5.09861 10.0506 4.90528 10.0506 5.48261C9.82131 7.73461 9.68264 7.44128 11.9973 7.44128C12.2373 7.95861 12.3706 8.53461 12.3706 9.14128L12.372 12.3186Z" fill="#64EDAC"/>
<path d="M9.94 3.42933H4.64933V2.53333C4.64933 2.23867 4.41067 2 4.116 2C3.82133 2 3.58267 2.23867 3.58267 2.53333V3.42933H2.53333C2.23867 3.42933 2 3.668 2 3.96267C2 4.25733 2.23867 4.496 2.53333 4.496H3.58133V12.5307C3.58133 13.4147 4.30133 14.1347 5.18533 14.1347H13.7533C14.048 14.1347 14.2867 13.896 14.2867 13.6013V7.77733C14.288 5.38 12.3373 3.42933 9.94 3.42933ZM4.64933 12.5307V4.496H9.94133C11.7507 4.496 13.2227 5.968 13.2227 7.77733V13.0693H5.18667C4.88933 13.0693 4.64933 12.828 4.64933 12.5307Z" fill="white" fill-opacity="0.6"/>
<path d="M12.46 8.48798H10.8653C9.83065 8.48798 8.98932 7.64665 8.98932 6.61198V5.25465C8.98932 4.95998 9.22799 4.72131 9.52265 4.72131C9.81732 4.72131 10.056 4.95998 10.056 5.25465V6.61198C10.056 7.05865 10.4187 7.42131 10.8653 7.42131H12.46C12.7547 7.42131 12.9933 7.65998 12.9933 7.95465C12.9933 8.24931 12.7547 8.48798 12.46 8.48798Z" fill="white"/>
</svg>
