<svg width="16" height="16" viewBox="0 0 16 16" fill="none" xmlns="http://www.w3.org/2000/svg">
<path d="M4.1583 2.81208C4.5518 2.19868 5.4482 2.19868 5.8417 2.81208L8.34225 6.71005C8.7692 7.37561 8.29129 8.25 7.50055 8.25H2.49945C1.70872 8.25 1.2308 7.37561 1.65775 6.71005L4.1583 2.81208Z" fill="currentColor" fill-opacity="0.7"/>
<path d="M5.15385 6.34345C5.54608 5.7207 6.45392 5.7207 6.84615 6.34345L10.2307 11.7171C10.6501 12.383 10.1715 13.25 9.3845 13.25H2.6155C1.82851 13.25 1.34993 12.383 1.76935 11.7171L5.15385 6.34345Z" fill="currentColor"/>
<path d="M10.1583 6.31208C10.5518 5.69868 11.4482 5.69868 11.8417 6.31208L14.3422 10.21C14.7692 10.8756 14.2913 11.75 13.5006 11.75H8.49945C7.70872 11.75 7.2308 10.8756 7.65775 10.2101L10.1583 6.31208Z" fill="currentColor" fill-opacity="0.4"/>
</svg>
