<svg width="16" height="16" viewBox="0 0 16 16" fill="none" xmlns="http://www.w3.org/2000/svg">
<path d="M2.30675 8.99071C2.11034 8.79424 2 8.52781 2 8.25C2 7.97219 2.11034 7.70576 2.30675 7.50929L7.50903 2.30675C7.7055 2.11034 7.97193 2 8.24974 2C8.52755 2 8.79398 2.11034 8.99045 2.30675L14.1933 7.50955C14.3897 7.70602 14.5 7.97245 14.5 8.25026C14.5 8.52807 14.3897 8.7945 14.1933 8.99097L8.99045 14.1933C8.79398 14.3897 8.52755 14.5 8.24974 14.5C7.97193 14.5 7.7055 14.3897 7.50903 14.1933L2.30675 8.99071Z" fill="currentColor"/>
</svg>
