<svg width="16" height="16" viewBox="0 0 16 16" fill="none" xmlns="http://www.w3.org/2000/svg">
<path d="M4.73125 5.43954C4.7297 5.32048 4.75206 5.20232 4.797 5.09205C4.84193 4.98178 4.90853 4.88165 4.99286 4.79758L7.51786 2.27258C7.60022 2.1873 7.69874 2.11928 7.80767 2.07249C7.91661 2.02569 8.03377 2.00106 8.15232 2.00003C8.27087 1.999 8.38844 2.02159 8.49817 2.06649C8.6079 2.11138 8.70759 2.17768 8.79142 2.26151C8.87526 2.34534 8.94155 2.44503 8.98645 2.55476C9.03134 2.66449 9.05393 2.78206 9.0529 2.90062C9.05187 3.01917 9.02724 3.13633 8.98045 3.24526C8.93365 3.35419 8.86563 3.45272 8.78036 3.53508L7.75714 4.55829H9.14286C10.5637 4.55829 11.9263 5.1227 12.9309 6.12736C13.9356 7.13202 14.5 8.49463 14.5 9.91543V13.4717C14.5 13.7085 14.4059 13.9356 14.2385 14.103C14.071 14.2705 13.8439 14.3645 13.6071 14.3645C13.3703 14.3645 13.1432 14.2705 12.9758 14.103C12.8084 13.9356 12.7143 13.7085 12.7143 13.4717V9.91543C12.7143 8.96823 12.338 8.05983 11.6682 7.39005C10.9985 6.72028 10.0901 6.34401 9.14286 6.34401H5.62411C5.50595 6.34402 5.38896 6.32057 5.27993 6.27503C5.1709 6.22949 5.07199 6.16277 4.98894 6.07872C4.90589 5.99467 4.84035 5.89497 4.79611 5.78541C4.75188 5.67584 4.72983 5.55859 4.73125 5.44044V5.43954ZM3.78571 8.13061H9.14286C9.61646 8.13061 10.0707 8.31875 10.4055 8.65364C10.7404 8.98852 10.9286 9.44273 10.9286 9.91633V12.5949C10.9286 13.0685 10.7404 13.5227 10.4055 13.8576C10.0707 14.1925 9.61646 14.3806 9.14286 14.3806H3.78571C3.31211 14.3806 2.85791 14.1925 2.52302 13.8576C2.18814 13.5227 2 13.0685 2 12.5949V9.91633C2 9.44273 2.18814 8.98852 2.52302 8.65364C2.85791 8.31875 3.31211 8.13061 3.78571 8.13061ZM3.78571 9.91633V12.5949H9.14286V9.91633H3.78571Z" fill="currentColor"/>
</svg>
