<svg width="16" height="16" viewBox="0 0 16 16" fill="none" xmlns="http://www.w3.org/2000/svg">
<path d="M4.25 5.5H10.75V10.5H4.25V5.5ZM2.3 4.25V3H3.6V4.875C3.6 5.04076 3.53152 5.19973 3.40962 5.31694C3.28772 5.43415 3.12239 5.5 2.95 5.5H1V4.25H2.3ZM2.3 11.75V13H3.6V11.125C3.6 10.9592 3.53152 10.8003 3.40962 10.6831C3.28772 10.5658 3.12239 10.5 2.95 10.5H1V11.75H2.3ZM12.7 4.25V3H11.4V4.875C11.4 5.04076 11.4685 5.19973 11.5904 5.31694C11.7123 5.43415 11.8776 5.5 12.05 5.5H14V4.25H12.6992H12.7ZM12.7 11.75V13H11.4V11.125C11.4 10.9592 11.4685 10.8003 11.5904 10.6831C11.7123 10.5658 11.8776 10.5 12.05 10.5H14V11.75H12.6992H12.7Z" fill="currentColor"/>
</svg>
