<svg width="16" height="16" viewBox="0 0 16 16" fill="none" xmlns="http://www.w3.org/2000/svg">
<path d="M2.18187 6.87446V8.49927H3.72146V6.87446H2.18187ZM2.18328 3.62482V5.24964H3.72287V3.62482H2.18328ZM3.72287 2V3.62482H5.26246V2H3.72287ZM6.80205 2V3.62482H8.34164V2H6.80205ZM3.72287 11.7489H2.18328V2H2H11.4208V4.43795H9.88123V3.62482H3.72287V10.1241H4.49267V11.7489H3.72287ZM6.03226 5.24964H13.7302C14.1546 5.24964 14.5 5.61329 14.5 6.06277V14.1869C14.5 14.6349 14.1546 15 13.7302 15H6.03226C5.60788 15 5.26246 14.6363 5.26246 14.1869V6.06132C5.26246 5.61329 5.60788 5.24964 6.03226 5.24964Z" fill="currentColor"/>
</svg>
