<svg width="16" height="16" viewBox="0 0 16 16" fill="none" xmlns="http://www.w3.org/2000/svg">
<path d="M3.61473 1.03614C3.53555 1.03444 3.45695 1.05004 3.3844 1.08184C3.31184 1.11364 3.24707 1.16087 3.1946 1.22027C2.73209 1.73024 2.0028 2.34263 2.00195 3.34658C2.00096 4.52228 2.85021 5.44462 3.92838 6.24238C5.00656 7.04013 6.38614 7.75777 7.74252 8.48304C8.1801 8.71702 8.61725 8.95002 9.03971 9.18082C10.1432 9.78367 11.1562 10.386 11.8587 10.9854C12.5611 11.5847 12.9084 12.1356 12.9081 12.6562C12.9077 13.1334 12.5832 13.6549 12.1201 14.0265C12.0641 14.0713 12.0176 14.1267 11.983 14.1895C11.9485 14.2524 11.9266 14.3214 11.9187 14.3927C11.9108 14.4639 11.917 14.5361 11.9369 14.6049C11.9568 14.6738 11.9901 14.7381 12.0349 14.7941C12.0796 14.8501 12.1349 14.8967 12.1977 14.9313C12.2604 14.9659 12.3294 14.9878 12.4006 14.9957C12.4717 15.0036 12.5438 14.9974 12.6126 14.9775C12.6814 14.9575 12.7456 14.9242 12.8016 14.8794C13.4488 14.36 13.9973 13.5875 13.9981 12.6581C13.9987 11.6715 13.3832 10.8517 12.5654 10.1538C11.7475 9.45603 10.6838 8.83502 9.56052 8.22137C9.13047 7.98642 8.69338 7.75471 8.25752 7.52165C6.89583 6.79355 5.54657 6.08174 4.57698 5.36433C3.60738 4.64691 3.0913 3.96855 3.09198 3.34851C3.09235 2.91278 3.48594 2.52384 4.00195 1.95488C4.07395 1.87786 4.12213 1.78159 4.14063 1.67774C4.15913 1.57388 4.14717 1.4669 4.1062 1.3697C4.06524 1.27251 3.99703 1.18928 3.90981 1.13008C3.82259 1.07089 3.72009 1.03825 3.61473 1.03614Z" fill="white"/>
<path opacity="0.6" d="M12.4163 1.00129C12.3078 1.00888 12.2041 1.04877 12.1184 1.11583C12.0327 1.18288 11.9691 1.27406 11.9356 1.37762C11.9021 1.48118 11.9003 1.59238 11.9304 1.69698C11.9605 1.80158 12.0211 1.89479 12.1046 1.96462C12.5419 2.34415 12.91 2.99028 12.91 3.53657C12.908 4.09861 12.6585 4.48176 12.1742 4.88562C11.6894 5.28991 10.9777 5.65318 10.2343 6.02533C10.1702 6.0574 10.1131 6.1018 10.0661 6.15598C10.0192 6.21016 9.98339 6.27305 9.96073 6.34109C9.93808 6.40912 9.92903 6.48095 9.93411 6.55248C9.93919 6.62402 9.95828 6.69386 9.99032 6.758C10.0224 6.82215 10.0667 6.87934 10.1208 6.92633C10.1749 6.97332 10.2378 7.00917 10.3057 7.03185C10.3737 7.05452 10.4454 7.06358 10.5169 7.0585C10.5883 7.05341 10.6581 7.0343 10.7222 7.00223C11.4656 6.63007 12.2401 6.24926 12.8712 5.72296C13.5024 5.19666 13.9982 4.46296 14 3.53657C14 2.55739 13.4619 1.69852 12.817 1.1389C12.7628 1.09035 12.6994 1.05315 12.6306 1.02951C12.5617 1.00588 12.4889 0.996291 12.4163 1.00129ZM5.52372 8.94245C5.43819 8.94288 5.35395 8.96347 5.27783 9.00251C4.53437 9.37466 3.75987 9.75548 3.12875 10.2818C2.49762 10.8081 2.00184 11.5418 2 12.4682C2 13.4491 2.53136 14.3073 3.18296 14.8678C3.23737 14.9146 3.30048 14.9503 3.36865 14.9727C3.43682 14.9951 3.50873 15.0039 3.58029 14.9985C3.65184 14.9931 3.72159 14.9736 3.78564 14.9412C3.84968 14.9088 3.90675 14.8641 3.95353 14.8096C4.00032 14.7551 4.03593 14.692 4.05833 14.6237C4.08073 14.5555 4.08949 14.4835 4.0841 14.4118C4.07871 14.3402 4.05929 14.2704 4.02692 14.2062C3.99456 14.1421 3.94986 14.085 3.89545 14.0382C3.45164 13.6564 3.09003 13.0262 3.09003 12.4682C3.09201 11.9061 3.34146 11.523 3.82575 11.1191C4.31058 10.7148 5.02227 10.3516 5.76573 9.97941C5.87705 9.92533 5.96667 9.83495 6.01991 9.72313C6.07314 9.61131 6.08684 9.48471 6.05869 9.36409C6.03054 9.24347 5.96223 9.13601 5.86502 9.05939C5.7678 8.98276 5.64744 8.94155 5.52372 8.94245Z" fill="white"/>
<path opacity="0.5" d="M4.53049 11.972C4.46481 11.971 4.39959 11.9832 4.33864 12.0077C4.27769 12.0322 4.22223 12.0686 4.17546 12.1148C4.12869 12.161 4.09154 12.216 4.06619 12.2766C4.04084 12.3373 4.02777 12.4024 4.02777 12.4682C4.02777 12.5339 4.04084 12.599 4.06619 12.6597C4.09154 12.7204 4.12869 12.7754 4.17546 12.8215C4.22223 12.8677 4.27769 12.9041 4.33864 12.9286C4.39959 12.9531 4.46481 12.9653 4.53049 12.9644H6.51307C6.63186 12.9659 6.74724 12.9246 6.83821 12.8482C6.92918 12.7717 6.98969 12.665 7.00871 12.5476C7.02774 12.665 7.08824 12.7717 7.17921 12.8482C7.27018 12.9246 7.38557 12.9659 7.50436 12.9644H11.4695C11.5352 12.9653 11.6004 12.9531 11.6614 12.9286C11.7223 12.9041 11.7778 12.8677 11.8245 12.8215C11.8713 12.7754 11.9085 12.7204 11.9338 12.6597C11.9592 12.599 11.9722 12.5339 11.9722 12.4682C11.9722 12.4024 11.9592 12.3373 11.9338 12.2766C11.9085 12.216 11.8713 12.161 11.8245 12.1148C11.7778 12.0686 11.7223 12.0322 11.6614 12.0077C11.6004 11.9832 11.5352 11.971 11.4695 11.972H7.50436C7.38557 11.9704 7.27018 12.0117 7.17921 12.0882C7.08824 12.1647 7.02774 12.2713 7.00871 12.3887C6.98969 12.2713 6.92918 12.1647 6.83821 12.0882C6.74724 12.0117 6.63186 11.9704 6.51307 11.972H4.53049ZM4.53049 3.04033C4.46481 3.0394 4.39959 3.05155 4.33864 3.07607C4.27769 3.10059 4.22223 3.13699 4.17546 3.18316C4.12869 3.22933 4.09154 3.28434 4.06619 3.34501C4.04084 3.40567 4.02777 3.47078 4.02777 3.53653C4.02777 3.60229 4.04084 3.6674 4.06619 3.72806C4.09154 3.78873 4.12869 3.84374 4.17546 3.88991C4.22223 3.93608 4.27769 3.97248 4.33864 3.997C4.39959 4.02152 4.46481 4.03367 4.53049 4.03274H8.49564C8.61443 4.03426 8.72982 3.99302 8.82079 3.91653C8.91176 3.84004 8.97226 3.7334 8.99129 3.616C9.01031 3.7334 9.07082 3.84004 9.16179 3.91653C9.25276 3.99302 9.36814 4.03426 9.48693 4.03274H11.4695C11.5352 4.03367 11.6004 4.02152 11.6614 3.997C11.7223 3.97248 11.7778 3.93608 11.8245 3.88991C11.8713 3.84374 11.9085 3.78873 11.9338 3.72806C11.9592 3.6674 11.9722 3.60229 11.9722 3.53653C11.9722 3.47078 11.9592 3.40567 11.9338 3.34501C11.9085 3.28434 11.8713 3.22933 11.8245 3.18316C11.7778 3.13699 11.7223 3.10059 11.6614 3.07607C11.6004 3.05155 11.5352 3.0394 11.4695 3.04033H9.48693C9.36814 3.03881 9.25276 3.08005 9.16179 3.15654C9.07082 3.23303 9.01031 3.33967 8.99129 3.45706C8.97226 3.33967 8.91176 3.23303 8.82079 3.15654C8.72982 3.08005 8.61443 3.03881 8.49564 3.04033H4.53049Z" fill="white"/>
</svg>
