<svg width="16" height="16" viewBox="0 0 16 16" fill="none" xmlns="http://www.w3.org/2000/svg">
<path opacity="0.6" d="M3.33333 2.33337C2.0502 2.33337 1 3.38357 1 4.66671C1 5.76765 1.64444 6.40304 2.05729 6.85056C2.60976 7.44943 3.18148 7.98662 3.60677 8.40004L2.77005 9.23676C1.91879 10.088 1.69066 11.4065 2.24505 12.3667C2.77197 13.2793 3.85214 13.7259 4.87005 13.4532C5.88797 13.1804 6.6 12.2539 6.6 11.2C6.60087 11.1382 6.58945 11.0768 6.56639 11.0194C6.54333 10.962 6.50909 10.9098 6.46567 10.8658C6.42225 10.8217 6.37051 10.7868 6.31346 10.7629C6.25641 10.739 6.19518 10.7267 6.13333 10.7267C6.07149 10.7267 6.01026 10.739 5.95321 10.7629C5.89615 10.7868 5.84441 10.8217 5.80099 10.8658C5.75757 10.9098 5.72334 10.962 5.70028 11.0194C5.67722 11.0768 5.66579 11.1382 5.66667 11.2C5.66667 11.8359 5.24367 12.3881 4.62943 12.5526C4.01519 12.7172 3.37239 12.4508 3.05443 11.9C2.76396 11.3969 2.88121 10.4454 3.42995 9.89666L4.59661 8.72999C4.6841 8.64247 4.73325 8.52379 4.73325 8.40004C4.73325 8.27629 4.6841 8.15761 4.59661 8.07009C4.19379 7.66728 3.37583 6.90249 2.74271 6.21619C2.29454 5.73038 1.93333 5.43243 1.93333 4.66671C1.93333 3.88798 2.55461 3.26671 3.33333 3.26671C4.42223 3.26671 5.22673 4.41999 5.80339 4.99666C5.8464 5.0414 5.8979 5.0771 5.95489 5.1017C6.01187 5.1263 6.07318 5.13928 6.13524 5.1399C6.1973 5.14051 6.25885 5.12876 6.31631 5.10529C6.37376 5.08182 6.42597 5.04712 6.46986 5.00323C6.51375 4.95935 6.54845 4.90714 6.57192 4.84968C6.59538 4.79223 6.60713 4.73068 6.60652 4.66862C6.60591 4.60655 6.59292 4.54524 6.56833 4.48826C6.54373 4.43128 6.50802 4.37977 6.46328 4.33676C6.10661 3.9801 5.04444 2.33337 3.33333 2.33337Z" fill="white"/>
<path d="M12.6667 2.3333C10.9556 2.3333 9.89338 3.98002 9.53671 4.33669C9.49197 4.3797 9.45626 4.43121 9.43167 4.48819C9.40707 4.54517 9.39408 4.60648 9.39347 4.66854C9.39286 4.7306 9.40461 4.79215 9.42808 4.84961C9.45154 4.90707 9.48625 4.95928 9.53013 5.00316C9.57402 5.04705 9.62623 5.08175 9.68368 5.10522C9.74114 5.12868 9.80269 5.14044 9.86475 5.13982C9.92681 5.13921 9.98812 5.12622 10.0451 5.10163C10.1021 5.07703 10.1536 5.04132 10.1966 4.99658C10.7733 4.41991 11.5778 3.26663 12.6667 3.26663C13.4454 3.26663 14.0667 3.88791 14.0667 4.66663C14.0667 5.43236 13.7055 5.7303 13.2573 6.21611C12.6242 6.90241 11.8062 7.6672 11.4034 8.07002C11.3159 8.15754 11.2667 8.27622 11.2667 8.39997C11.2667 8.52372 11.3159 8.64239 11.4034 8.72992L12.57 9.89658C13.1188 10.4453 13.236 11.3969 12.9456 11.9C12.6276 12.4507 11.9848 12.7172 11.3706 12.5526C10.7563 12.388 10.3333 11.8359 10.3333 11.2C10.3342 11.1381 10.3228 11.0767 10.2997 11.0194C10.2767 10.962 10.2424 10.9097 10.199 10.8657C10.1556 10.8217 10.1038 10.7867 10.0468 10.7628C9.98973 10.7389 9.9285 10.7267 9.86666 10.7267C9.80481 10.7267 9.74358 10.7389 9.68653 10.7628C9.62948 10.7867 9.57774 10.8217 9.53432 10.8657C9.4909 10.9097 9.45666 10.962 9.4336 11.0194C9.41054 11.0767 9.39912 11.1381 9.39999 11.2C9.39999 12.2538 10.112 13.1803 11.1299 13.4531C12.1479 13.7258 13.228 13.2793 13.7549 12.3666C14.3093 11.4064 14.0812 10.088 13.2299 9.23669L12.3932 8.39997C12.8185 7.98655 13.3902 7.44936 13.9427 6.85049C14.3556 6.40296 15 5.76758 15 4.66663C15 3.3835 13.9498 2.3333 12.6667 2.3333ZM8.46666 6.06669V4.20002H7.53333V6.06669H8.46666ZM8.46666 3.26669V1.40002H7.53333V3.26669H8.46666ZM8.46666 14.4667V12.6H7.53333V14.4667H8.46666ZM8.46666 11.6667V9.80002H7.53333V11.6667H8.46666ZM8.46666 8.86669V7.00002H7.53333V8.86669H8.46666Z" fill="white"/>
</svg>
