<svg width="16" height="16" viewBox="0 0 16 16" fill="none" xmlns="http://www.w3.org/2000/svg">
<g clip-path="url(#clip0_538_3717)">
<path d="M3 9V9C1.89543 9 1 8.10457 1 7V3C1 1.89543 1.89543 1 3 1H7C8.10457 1 9 1.89543 9 3V3" stroke="currentColor" stroke-linecap="round"/>
<path d="M10 5V8.5M10 5L8 6.5M10 5L12 6.5" stroke="currentColor" stroke-linecap="round"/>
<path d="M5 10H8.5M5 10L6.5 12M5 10L6.5 8" stroke="currentColor" stroke-linecap="round"/>
<path d="M15 10H11.5M15 10L13.5 8M15 10L13.5 12" stroke="currentColor" stroke-linecap="round"/>
<path d="M10 15V11.5M10 15L12 13.5M10 15L8 13.5" stroke="currentColor" stroke-linecap="round"/>
</g>
<defs>
<clipPath id="clip0_538_3717">
<rect width="16" height="16" fill="currentColor"/>
</clipPath>
</defs>
</svg>
