<svg width="16" height="16" viewBox="0 0 16 16" fill="none" xmlns="http://www.w3.org/2000/svg">
<path fill-rule="evenodd" clip-rule="evenodd" d="M11.8182 7.77178C11.8182 7.07902 11.8882 6.13227 11.9964 5.25031C12.0833 6.18164 12.1571 7.11426 12.2177 8.04785L12.2297 8.21718C12.3174 9.48859 12.4065 10.774 12.5267 11.7531C12.5896 12.2611 12.6638 12.7205 12.76 13.0636C12.8057 13.2419 12.8747 13.4128 12.9651 13.5715C13.0442 13.7026 13.262 14 13.6566 14C13.7565 13.9991 13.8552 13.9773 13.9469 13.9359C14.0386 13.8946 14.1214 13.8345 14.1904 13.7593C14.2837 13.6606 14.3446 13.5494 14.3834 13.467C14.4626 13.2969 14.522 13.0901 14.5687 12.8876C14.6641 12.4724 14.7433 11.921 14.8056 11.3342C14.9307 10.1548 15 8.73914 15 7.77178C15 7.68476 14.9836 7.59859 14.9516 7.51819C14.9196 7.43779 14.8728 7.36473 14.8137 7.30319C14.7546 7.24166 14.6844 7.19284 14.6072 7.15954C14.53 7.12623 14.4472 7.10909 14.3636 7.10909C14.2801 7.10909 14.1973 7.12623 14.1201 7.15954C14.0429 7.19284 13.9727 7.24166 13.9136 7.30319C13.8545 7.36473 13.8077 7.43779 13.7757 7.51819C13.7437 7.59859 13.7273 7.68476 13.7273 7.77178C13.7273 8.3946 13.6962 9.22208 13.6396 10.0437C13.5894 9.4319 13.5434 8.7708 13.4968 8.09939L13.4869 7.95215C13.3942 6.62405 13.2981 5.2665 13.1623 4.24025C13.0959 3.73227 13.0153 3.2692 12.9099 2.92172C12.8583 2.75239 12.7883 2.5654 12.6844 2.40785C12.5896 2.26503 12.3676 2 11.9928 2C11.8953 2.00103 11.7989 2.02227 11.7093 2.06246C11.6197 2.10265 11.5387 2.161 11.471 2.23411C11.384 2.32466 11.3261 2.42552 11.2886 2.50061C11.2108 2.65448 11.1493 2.84147 11.0991 3.02552C10.9945 3.40393 10.9004 3.90454 10.8198 4.44196C10.6604 5.51659 10.546 6.82574 10.5455 7.76541C10.5454 7.7675 10.5454 7.76959 10.5454 7.77168C10.5454 8.39745 10.5143 9.14542 10.4563 9.85659C10.4068 9.35082 10.3609 8.80309 10.3142 8.24432L10.3036 8.12653C10.2117 7.0296 10.1148 5.89733 9.97836 5.03892C9.91049 4.61487 9.82776 4.21585 9.71533 3.91033C9.66018 3.76015 9.58311 3.58861 9.46786 3.44285C9.35049 3.29561 9.13271 3.1042 8.81028 3.1042C8.45463 3.1042 8.24251 3.35819 8.16685 3.45978C8.06927 3.59156 7.99645 3.74616 7.94059 3.88677C7.82604 4.1761 7.72634 4.55303 7.64432 4.95941C7.47958 5.77806 7.36362 6.82567 7.36362 7.77168C7.36362 7.78211 7.36385 7.79252 7.36432 7.80289C7.36331 8.40455 7.33302 9.03527 7.2795 9.60695C7.23227 9.20954 7.1886 8.7776 7.1436 8.33258L7.1436 8.33257L7.1436 8.33254L7.13102 8.20818L7.12112 8.11468C7.0292 7.20327 6.93162 6.2499 6.79233 5.52401C6.72445 5.16622 6.63819 4.81726 6.51799 4.5434C6.45788 4.40794 6.37304 4.25039 6.24718 4.11861C6.11425 3.97947 5.90495 3.84033 5.6292 3.84033C5.37182 3.84033 5.18021 3.96843 5.06566 4.0737C4.95041 4.18119 4.86273 4.31002 4.79697 4.42634C4.66546 4.66192 4.55728 4.96376 4.47172 5.28769C4.29795 5.94521 4.18205 6.82095 4.18182 7.76885L4.18182 7.77168C4.17932 8.46761 4.14983 9.16314 4.09343 9.85659C4.04323 9.35082 3.99727 8.80309 3.95061 8.24432L3.94 8.12653C3.84808 7.0296 3.75121 5.89733 3.61475 5.03892C3.54687 4.61487 3.46414 4.21585 3.35172 3.91033C3.29727 3.76015 3.21949 3.58861 3.10424 3.44285C2.98687 3.29561 2.76909 3.1042 2.44667 3.1042C2.09101 3.1042 1.87889 3.35819 1.80323 3.45978C1.70566 3.59156 1.63283 3.74616 1.57697 3.88677C1.46172 4.1761 1.36273 4.55303 1.28071 4.95941C1.11596 5.77806 1 6.82567 1 7.77168C1.00003 7.94739 1.06709 8.11589 1.18642 8.24012C1.30576 8.36436 1.46761 8.43415 1.63636 8.43415C1.80512 8.43415 1.96696 8.36436 2.0863 8.24012C2.20564 8.11589 2.2727 7.94739 2.27273 7.77168C2.27687 7.10096 2.33006 6.43154 2.43182 5.76923C2.52303 6.48849 2.59798 7.35352 2.67293 8.24211L2.68495 8.38493C2.77263 9.43475 2.86313 10.5044 2.98404 11.3224C3.04626 11.7442 3.12263 12.1395 3.22515 12.4414C3.27714 12.607 3.35347 12.7632 3.45141 12.9044C3.55606 13.0465 3.77172 13.2637 4.11111 13.2637C4.5297 13.2637 4.74677 12.9243 4.8104 12.8146C4.90162 12.6578 4.96596 12.4716 5.01475 12.2993C5.11586 11.9437 5.19576 11.477 5.25798 10.9793C5.38516 9.91709 5.45079 8.84789 5.45453 7.77748L5.45455 7.77162C5.45275 7.20867 5.50104 6.64676 5.59879 6.09309V6.09383C5.69708 6.70487 5.77556 7.46389 5.85546 8.25309L5.86819 8.37603C5.95586 9.24769 6.04637 10.1459 6.16869 10.8349C6.23233 11.1912 6.31152 11.5365 6.42112 11.806C6.48058 11.9611 6.56499 12.1045 6.67071 12.23C6.79304 12.3699 7.00233 12.5274 7.29293 12.5274C7.62879 12.5274 7.84445 12.3117 7.94556 12.1792C8.04566 12.0416 8.12505 11.889 8.18102 11.7265C8.29061 11.4276 8.37334 11.0411 8.43698 10.631C8.56637 9.80131 8.63708 8.74119 8.63708 7.77162C8.63708 7.76252 8.6369 7.75342 8.63654 7.74435C8.64196 7.08277 8.69507 6.42255 8.79543 5.76923C8.88735 6.48849 8.9616 7.35352 9.03655 8.24211L9.04857 8.38493C9.13624 9.43475 9.22675 10.5044 9.34766 11.3224C9.40988 11.7442 9.48624 12.1395 9.58877 12.4414C9.64077 12.607 9.71709 12.7632 9.81503 12.9044C9.91968 13.0465 10.1353 13.2637 10.4747 13.2637C10.8933 13.2637 11.1104 12.9243 11.174 12.8146C11.2652 12.6578 11.3296 12.4716 11.3784 12.2993C11.4795 11.9437 11.5594 11.477 11.6216 10.9793C11.7486 9.91816 11.8143 8.85004 11.8181 7.78071C11.8182 7.77774 11.8182 7.77476 11.8182 7.77178Z" fill="white"/>
</svg>
