<svg width="16" height="16" viewBox="0 0 16 16" fill="none" xmlns="http://www.w3.org/2000/svg">
<path opacity="0.5" d="M7.49673 1.00005C7.36419 1.00006 7.23708 1.05271 7.14336 1.14643C7.04964 1.24015 6.997 1.36726 6.99698 1.49979V2.99903H3.49877C3.36624 2.99904 3.23912 3.05169 3.14541 3.14541C3.05169 3.23912 2.99904 3.36624 2.99903 3.49877V6.99698H1.49979C1.36726 6.997 1.24015 7.04964 1.14643 7.14336C1.05271 7.23708 1.00006 7.36419 1.00005 7.49673V14.4931C0.999113 14.5594 1.01135 14.6251 1.03604 14.6866C1.06074 14.748 1.0974 14.804 1.1439 14.8511C1.1904 14.8983 1.2458 14.9357 1.3069 14.9613C1.368 14.9869 1.43357 15 1.49979 15C1.56602 15 1.63159 14.9869 1.69269 14.9613C1.75379 14.9357 1.80919 14.8983 1.85569 14.8511C1.90219 14.804 1.93885 14.748 1.96355 14.6866C1.98824 14.6251 2.00048 14.5594 1.99954 14.4931V7.99647H3.49877C3.63131 7.99646 3.75842 7.94381 3.85214 7.85009C3.94585 7.75638 3.9985 7.62926 3.99852 7.49673V3.99852H7.49673C7.62926 3.9985 7.75638 3.94585 7.85009 3.85214C7.94381 3.75842 7.99646 3.63131 7.99647 3.49877V1.99954H14.4931C14.5594 2.00048 14.6251 1.98824 14.6866 1.96355C14.748 1.93885 14.804 1.90219 14.8511 1.85569C14.8983 1.80919 14.9357 1.75379 14.9613 1.69269C14.9869 1.63159 15 1.56602 15 1.49979C15 1.43357 14.9869 1.368 14.9613 1.3069C14.9357 1.2458 14.8983 1.1904 14.8511 1.1439C14.804 1.0974 14.748 1.06074 14.6866 1.03604C14.6251 1.01135 14.5594 0.999113 14.4931 1.00005H7.49673Z" fill="white"/>
<path d="M14.4932 3.99852C8.70305 3.99852 3.99852 8.70305 3.99852 14.4932C3.99759 14.5594 4.00982 14.6251 4.03452 14.6866C4.05921 14.748 4.09587 14.804 4.14237 14.8511C4.18887 14.8983 4.24428 14.9357 4.30537 14.9613C4.36647 14.9869 4.43204 15 4.49827 15C4.5645 15 4.63007 14.9869 4.69116 14.9613C4.75226 14.9357 4.80767 14.8983 4.85417 14.8511C4.90066 14.804 4.93733 14.748 4.96202 14.6866C4.98671 14.6251 4.99895 14.5594 4.99801 14.4932C4.99801 9.24321 9.24321 4.99801 14.4932 4.99801C14.5594 4.99895 14.6251 4.98671 14.6866 4.96202C14.748 4.93733 14.804 4.90066 14.8511 4.85417C14.8983 4.80767 14.9357 4.75226 14.9613 4.69116C14.9869 4.63007 15 4.5645 15 4.49827C15 4.43204 14.9869 4.36647 14.9613 4.30537C14.9357 4.24428 14.8983 4.18887 14.8511 4.14237C14.804 4.09587 14.748 4.05921 14.6866 4.03452C14.6251 4.00982 14.5594 3.99759 14.4932 3.99852Z" fill="white"/>
</svg>
