<svg width="16" height="16" viewBox="0 0 16 16" fill="none" xmlns="http://www.w3.org/2000/svg">
<g clip-path="url(#clip0_537_3656)">
<path d="M3 9V9C1.89543 9 1 8.10457 1 7V3C1 1.89543 1.89543 1 3 1H7C8.10457 1 9 1.89543 9 3V3" stroke="currentColor" stroke-linecap="round"/>
<path d="M14.9931 9.99912C14.9931 7.24128 12.7574 5.00562 9.9995 5.00562C7.24159 5.00562 5.00586 7.24128 5.00586 9.99912C5.00586 12.757 7.24159 14.9926 9.9995 14.9926C12.7574 14.9926 14.9931 12.757 14.9931 9.99912Z" stroke="currentColor"/>
<path d="M14.9981 10.1393C13.712 11.0228 11.8943 11.5559 9.90687 11.5559C9.47665 11.5559 9.05334 11.5313 8.64233 11.4829C9.00034 13.0209 9.86923 14.2639 10.9763 14.9039C10.5889 14.9807 10.1939 15.0117 9.79932 14.9961C8.82825 14.1333 8.11454 12.8481 7.83029 11.3546C6.76011 11.1411 5.79442 10.7662 5.00696 10.2653C4.99097 9.96014 5.00254 9.65417 5.04153 9.3511C5.73757 9.88502 6.66101 10.3014 7.7212 10.5457C7.70383 10.3331 7.69512 10.1198 7.69507 9.90653C7.69507 7.92449 8.43413 6.15909 9.58728 5.01673C9.97314 4.9853 10.3613 4.99819 10.7443 5.05514C9.40059 5.96089 8.46333 7.77929 8.46333 9.90576C8.46333 10.1723 8.47869 10.4343 8.50635 10.6901C8.97036 10.7551 9.43834 10.7874 9.90687 10.7869C11.9727 10.7869 13.8034 10.1693 14.9389 9.21742C14.9868 9.522 15.0066 9.83033 14.9981 10.1385V10.1393Z" fill="currentColor" fill-opacity="0.6"/>
</g>
<defs>
<clipPath id="clip0_537_3656">
<rect width="16" height="16" fill="currentColor"/>
</clipPath>
</defs>
</svg>
