<svg width="16" height="16" viewBox="0 0 16 16" fill="none" xmlns="http://www.w3.org/2000/svg">
<path d="M11 1C13.2091 1 15 2.79086 15 5V11C15 13.14 13.3194 14.8879 11.2061 14.9951L11 15H5L4.79395 14.9951C2.7488 14.8913 1.10865 13.2512 1.00488 11.2061L1 11V5C1 2.79086 2.79086 1 5 1H11ZM5 2C3.39489 2 2.08421 3.26056 2.00391 4.8457L2 5V11C2 12.6569 3.34315 14 5 14H11C12.6569 14 14 12.6569 14 11V5C14 3.39489 12.7394 2.08421 11.1543 2.00391L11 2H5ZM8 5C9.65685 5 11 6.34315 11 8C11 9.65685 9.65685 11 8 11C6.34315 11 5 9.65685 5 8C5 6.34315 6.34315 5 8 5ZM8 6C6.89543 6 6 6.89543 6 8C6 9.10457 6.89543 10 8 10C9.10457 10 10 9.10457 10 8C10 6.89543 9.10457 6 8 6Z" fill="currentColor"/>
</svg>
