<svg width="16" height="16" viewBox="0 0 16 16" fill="none" xmlns="http://www.w3.org/2000/svg">
<g clip-path="url(#clip0_537_3663)">
<path d="M3 9V9C1.89543 9 1 8.10457 1 7V3C1 1.89543 1.89543 1 3 1H7C8.10457 1 9 1.89543 9 3V3" stroke="currentColor" stroke-linecap="round"/>
<path fill-rule="evenodd" clip-rule="evenodd" d="M10 5C10.2892 5 10.5565 5.1547 10.7013 5.40592L14.9102 12.7061C15.05 12.9485 15.0306 13.2493 14.8239 13.4375C14.2271 13.9808 12.742 15 10 15C7.25798 15 5.77293 13.9808 5.17607 13.4375C4.96941 13.2493 4.95006 12.9485 5.08979 12.7061L9.29866 5.40592C9.44349 5.1547 9.71078 5 10 5Z" stroke="currentColor"/>
<path opacity="0.6" d="M6 13C6 13 7.71511 12 10.478 12C13.2408 12 14 13 14 13" stroke="currentColor" stroke-linecap="square"/>
</g>
<defs>
<clipPath id="clip0_537_3663">
<rect width="16" height="16" fill="currentColor"/>
</clipPath>
</defs>
</svg>
