<svg width="16" height="16" viewBox="0 0 16 16" fill="none" xmlns="http://www.w3.org/2000/svg">
<path d="M9.10068 2.91243C8.48676 2.56253 7.73378 2.56256 7.11989 2.9125L3.51796 4.96576C2.89379 5.32156 2.50842 5.98482 2.50842 6.70328V10.7641C2.50842 11.4825 2.89379 12.1458 3.51796 12.5016L7.11981 14.5548C7.73374 14.9048 8.48678 14.9048 9.10072 14.5548L12.7027 12.5016C13.3269 12.1458 13.7123 11.4825 13.7123 10.764V6.70292C13.7123 5.9844 13.3269 5.3211 12.7026 4.96532L9.10068 2.91243ZM9.10054 13.1013C8.4867 13.4512 7.73383 13.4512 7.11999 13.1013L4.79295 11.7751C4.16868 11.4194 3.78323 10.7561 3.78323 10.0375V7.42949C3.78323 6.71098 4.16864 6.04769 4.79288 5.6919L7.11992 4.36558C7.73379 4.0157 8.48673 4.0157 9.10061 4.36557L11.4277 5.69191C12.052 6.04769 12.4374 6.71099 12.4374 7.4295V10.0375C12.4374 10.756 12.0519 11.4194 11.4277 11.7751L9.10054 13.1013Z" fill="white"/>
<path d="M10.8299 2.65167V5.71126L8.14421 7.24183L8.14325 7.24136V4.18288L8.14452 4.18225L10.8299 2.65167Z" fill="#EDEDED"/>
<path d="M10.8299 2.64996V2.65169L8.14455 4.18227L8.14327 4.18149L5.45868 2.65138V2.64996L8.14423 1.11938L10.8299 2.64996Z" fill="white"/>
<path d="M8.14327 4.18147V7.24137L5.45868 5.71127V2.65137L8.14327 4.18147Z" fill="#B5B5B5"/>
<path d="M6.51534 9.48596V12.5455L3.82963 14.0761L3.82867 14.0757V11.0172L3.82995 11.0165L6.51534 9.48596Z" fill="#EDEDED"/>
<path d="M6.5153 9.48425V9.48598L3.82991 11.0166L3.82863 11.0158L1.14404 9.48567V9.48425L3.82959 7.95367L6.5153 9.48425Z" fill="white"/>
<path d="M3.82863 11.0157V14.0756L1.14404 12.5455V9.4856L3.82863 11.0157Z" fill="#B5B5B5"/>
<path d="M15.144 9.48596V12.5455L12.4583 14.0761L12.4573 14.0757V11.0172L12.4586 11.0165L15.144 9.48596Z" fill="#EDEDED"/>
<path d="M15.144 9.48425V9.48598L12.4586 11.0166L12.4574 11.0158L9.77277 9.48567V9.48425L12.4583 7.95367L15.144 9.48425Z" fill="white"/>
<path d="M12.4574 11.0157V14.0756L9.77277 12.5455V9.4856L12.4574 11.0157Z" fill="#B5B5B5"/>
</svg>
