<svg width="16" height="16" viewBox="0 0 16 16" fill="none" xmlns="http://www.w3.org/2000/svg">
<path d="M2 12.9095L2.275 12.9206L2.55 12.9522L2.825 13.0015L3.1 13.0657L3.375 13.142L3.65 13.2277L3.925 13.32L4.2 13.4162L4.475 13.5136L4.75 13.6092L5.025 13.7004L5.3 13.7844L5.575 13.8585L5.85 13.9199L6.125 13.9657L6.4 13.9934L6.675 14L6.95 13.9829L7.225 13.9392L7.5 13.8662L7.775 13.7612L8.05 13.6214L8.325 13.4439L8.6 13.2262L8.875 12.9653L9.15 12.6585L9.425 12.3031L9.7 11.8964L9.975 11.4354L10.25 10.9175L10.525 10.34L10.8 9.69995L11.075 8.99471L11.35 8.22151L11.625 7.37756L11.9 6.46011L12.175 5.46639L12.45 4.39364L12.725 3.2391L13 2" stroke="currentColor" stroke-linecap="round"/>
</svg>
