<svg width="16" height="16" viewBox="0 0 16 16" fill="none" xmlns="http://www.w3.org/2000/svg">
<path d="M2 13.9195L2.275 13.9523L2.55 14.0407L2.825 14.1702L3.1 14.3262L3.375 14.4941L3.65 14.6592L3.925 14.807L4.2 14.9228L4.475 14.992L4.75 15L5.025 14.9322L5.3 14.774L5.575 14.5108L5.85 14.1279L6.125 13.6108L6.4 12.9448L6.675 12.1154L6.95 11.1078L7.225 9.90756L7.5 8.5L7.775 7.09244L8.05 5.89218L8.325 4.88463L8.6 4.05517L8.875 3.38919L9.15 2.87207L9.425 2.4892L9.7 2.22598L9.975 2.06778L10.25 2L10.525 2.00802L10.8 2.07724L11.075 2.19304L11.35 2.3408L11.625 2.50593L11.9 2.67379L12.175 2.82979L12.45 2.95931L12.725 3.04774L13 3.08046" stroke="currentColor" stroke-linecap="round"/>
</svg>
