<svg width="16" height="16" viewBox="0 0 16 16" fill="none" xmlns="http://www.w3.org/2000/svg">
<path d="M2 15L2.3 13.6576L2.6 12.4069L2.9 11.2447L3.2 10.1682L3.5 9.17431L3.8 8.26003L4.1 7.42239L4.4 6.65839L4.7 5.96504L5 5.33935L5.3 4.77831L5.6 4.27895L5.9 3.83826L6.2 3.45326L6.5 3.12094L6.8 2.83832L7.1 2.6024L7.4 2.41019L7.7 2.25869L8 2.14492L8.3 2.06587L8.6 2.01857L8.9 2L9.2 2.00718L9.5 2.03712L9.8 2.08682L10.1 2.15329L10.4 2.23353L10.7 2.32456L11 2.42338L11.3 2.52699L11.6 2.6324L11.9 2.73662L12.2 2.83666L12.5 2.92952L12.8 3.01221L13.1 3.08173L13.4 3.1351L13.7 3.16931L14 3.18138" stroke="currentColor" stroke-linecap="round"/>
</svg>
