<svg width="16" height="16" viewBox="0 0 16 16" fill="none" xmlns="http://www.w3.org/2000/svg">
<path d="M2 14L2.3 13.9433L2.6 13.7731L2.9 13.4895L3.2 13.0925L3.5 12.582L3.8 11.9581L4.1 11.2208L4.4 10.37L4.7 9.40578L5 8.32813L5.3 7.13703L5.6 5.8325L5.9 4.41453L6.2 2.88313L6.5 2.36328L6.8 3.08L7.1 3.68328L7.4 4.17312L7.7 4.54953L8 4.8125L8.3 4.96203L8.6 4.99813L8.9 4.92078L9.2 4.73L9.5 4.42578L9.8 4.00813L10.1 3.47703L10.4 2.8325L10.7 2.07453L11 2.32813L11.3 2.58078L11.6 2.72L11.9 2.74578L12.2 2.65812L12.5 2.45703L12.8 2.1425L13.1 2.10828L13.4 2.18563L13.7 2.14953L14 2" stroke="currentColor" stroke-linecap="round"/>
</svg>
