<svg width="16" height="16" viewBox="0 0 16 16" fill="none" xmlns="http://www.w3.org/2000/svg">
<path d="M2 14L2.3 13.9072L2.6 13.9288L2.9 13.6709L3.2 13.64L3.5 13.8359L3.8 13.5838L4.1 12.9959L4.4 12.635L4.7 12.5009L5 12.5938L5.3 12.9134L5.6 13.46L5.9 13.5584L6.2 12.0838L6.5 10.8359L6.8 9.815L7.1 9.02094L7.4 8.45375L7.7 8.11344L8 8L8.3 7.88656L8.6 7.54625L8.9 6.97906L9.2 6.185L9.5 5.16406L9.8 3.91625L10.1 2.44156L10.4 2.54L10.7 3.08656L11 3.40625L11.3 3.49906L11.6 3.365L11.9 3.00406L12.2 2.41625L12.5 2.16406L12.8 2.36L13.1 2.32906L13.4 2.07125L13.7 2.09281L14 2" stroke="currentColor" stroke-linecap="round"/>
</svg>
