<svg width="16" height="16" viewBox="0 0 16 16" fill="none" xmlns="http://www.w3.org/2000/svg">
<path d="M2 14L2.3 13.8505L2.6 13.8144L2.9 13.8917L3.2 13.8575L3.5 13.543L3.8 13.3419L4.1 13.2542L4.4 13.28L4.7 13.4192L5 13.6719L5.3 13.9255L5.6 13.1675L5.9 12.523L6.2 11.9919L6.5 11.5742L6.8 11.27L7.1 11.0792L7.4 11.0019L7.7 11.038L8 11.1875L8.3 11.4505L8.6 11.8269L8.9 12.3167L9.2 12.92L9.5 13.6367L9.8 13.1169L10.1 11.5855L10.4 10.1675L10.7 8.86297L11 7.67188L11.3 6.59422L11.6 5.63L11.9 4.77922L12.2 4.04187L12.5 3.41797L12.8 2.9075L13.1 2.51047L13.4 2.22687L13.7 2.05672L14 2" stroke="currentColor" stroke-linecap="round"/>
</svg>
