<svg width="16" height="16" viewBox="0 0 16 16" fill="none" xmlns="http://www.w3.org/2000/svg">
<path d="M2 14L2.3 13.9963L2.6 13.985L2.9 13.9662L3.2 13.9398L3.5 13.9059L3.8 13.8642L4.1 13.8148L4.4 13.7576L4.7 13.6923L5 13.6189L5.3 13.5373L5.6 13.4473L5.9 13.3486L6.2 13.241L6.5 13.1243L6.8 12.9982L7.1 12.8623L7.4 12.7163L7.7 12.5598L8 12.3923L8.3 12.2132L8.6 12.022L8.9 11.8178L9.2 11.6L9.5 11.3675L9.8 11.1192L10.1 10.8538L10.4 10.5697L10.7 10.265L11 9.93725L11.3 9.58354L11.6 9.2L11.9 8.78159L12.2 8.32139L12.5 7.80947L12.8 7.23068L13.1 6.55961L13.4 5.747L13.7 4.66646L14 2" stroke="currentColor" stroke-linecap="round"/>
</svg>
