<svg width="16" height="16" viewBox="0 0 16 16" fill="none" xmlns="http://www.w3.org/2000/svg">
<path d="M2 14L2.3 13.9925L2.6 13.9699L2.9 13.9321L3.2 13.8788L3.5 13.8095L3.8 13.7236L4.1 13.6205L4.4 13.4991L4.7 13.3582L5 13.1962L5.3 13.011L5.6 12.8L5.9 12.5596L6.2 12.2849L6.5 11.9686L6.8 11.6L7.1 11.1607L7.4 10.6153L7.7 9.8735L8 8L8.3 6.1265L8.6 5.38466L8.9 4.8393L9.2 4.4L9.5 4.03137L9.8 3.71514L10.1 3.44039L10.4 3.2L10.7 2.98901L11 2.80385L11.3 2.64183L11.6 2.50091L11.9 2.3795L12.2 2.27636L12.5 2.19052L12.8 2.12122L13.1 2.06788L13.4 2.03008L13.7 2.0075L14 2" stroke="currentColor" stroke-linecap="round"/>
</svg>
