<svg width="16" height="16" viewBox="0 0 16 16" fill="none" xmlns="http://www.w3.org/2000/svg">
<path d="M2 14L2.3 11.3335L2.6 10.253L2.9 9.44039L3.2 8.76932L3.5 8.19053L3.8 7.67861L4.1 7.21841L4.4 6.8L4.7 6.41647L5 6.06275L5.3 5.73501L5.6 5.43029L5.9 5.14619L6.2 4.88079L6.5 4.6325L6.8 4.4L7.1 4.18216L7.4 3.97802L7.7 3.78677L8 3.6077L8.3 3.44017L8.6 3.28366L8.9 3.13768L9.2 3.00182L9.5 2.8757L9.8 2.759L10.1 2.65143L10.4 2.55273L10.7 2.46267L11 2.38105L11.3 2.30769L11.6 2.24245L11.9 2.18518L12.2 2.13577L12.5 2.09412L12.8 2.06015L13.1 2.0338L13.4 2.01501L13.7 2.00375L14 2" stroke="currentColor" stroke-linecap="round"/>
</svg>
