<svg width="16" height="16" viewBox="0 0 16 16" fill="none" xmlns="http://www.w3.org/2000/svg">
<path d="M2 14L2.3 13.9998L2.6 13.9985L2.9 13.9949L3.2 13.988L3.5 13.9766L3.8 13.9595L4.1 13.9357L4.4 13.904L4.7 13.8633L5 13.8125L5.3 13.7504L5.6 13.676L5.9 13.5881L6.2 13.4855L6.5 13.3672L6.8 13.232L7.1 13.0788L7.4 12.9065L7.7 12.7139L8 12.5L8.3 12.2636L8.6 12.0035L8.9 11.7187L9.2 11.408L9.5 11.0703L9.8 10.7045L10.1 10.3094L10.4 9.884L10.7 9.42706L11 8.9375L11.3 8.41419L11.6 7.856L11.9 7.26181L12.2 6.6305L12.5 5.96094L12.8 5.252L13.1 4.50256L13.4 3.7115L13.7 2.87769L14 2" stroke="currentColor" stroke-linecap="round"/>
</svg>
