<svg width="16" height="16" viewBox="0 0 16 16" fill="none" xmlns="http://www.w3.org/2000/svg">
<path d="M2 14L2.3 13.1223L2.6 12.2885L2.9 11.4974L3.2 10.748L3.5 10.0391L3.8 9.3695L4.1 8.73819L4.4 8.144L4.7 7.58581L5 7.0625L5.3 6.57294L5.6 6.116L5.9 5.69056L6.2 5.2955L6.5 4.92969L6.8 4.592L7.1 4.28131L7.4 3.9965L7.7 3.73644L8 3.5L8.3 3.28606L8.6 3.0935L8.9 2.92119L9.2 2.768L9.5 2.63281L9.8 2.5145L10.1 2.41194L10.4 2.324L10.7 2.24956L11 2.1875L11.3 2.13669L11.6 2.096L11.9 2.06431L12.2 2.0405L12.5 2.02344L12.8 2.012L13.1 2.00506L13.4 2.0015L13.7 2.00019L14 2" stroke="currentColor" stroke-linecap="round"/>
</svg>
