<svg width="16" height="16" viewBox="0 0 16 16" fill="none" xmlns="http://www.w3.org/2000/svg">
<path d="M2 14L2.3 13.9993L2.6 13.994L2.9 13.9798L3.2 13.952L3.5 13.9063L3.8 13.838L4.1 13.7428L4.4 13.616L4.7 13.4533L5 13.25L5.3 13.0018L5.6 12.704L5.9 12.3523L6.2 11.942L6.5 11.4688L6.8 10.928L7.1 10.3153L7.4 9.626L7.7 8.85575L8 8L8.3 7.14425L8.6 6.374L8.9 5.68475L9.2 5.072L9.5 4.53125L9.8 4.058L10.1 3.64775L10.4 3.296L10.7 2.99825L11 2.75L11.3 2.54675L11.6 2.384L11.9 2.25725L12.2 2.162L12.5 2.09375L12.8 2.048L13.1 2.02025L13.4 2.006L13.7 2.00075L14 2" stroke="currentColor" stroke-linecap="round"/>
</svg>
