<svg width="16" height="16" viewBox="0 0 16 16" fill="none" xmlns="http://www.w3.org/2000/svg">
<path d="M2 15L2.275 12.7245L2.55 9.90065L2.825 7.12195L3.1 4.80129L3.375 3.16033L3.65 2.25161L3.925 2L4.2 2.25161L4.475 2.82048L4.75 3.52645L5.025 4.22112L5.3 4.80129L5.575 5.21153L5.85 5.43871L6.125 5.50161L6.4 5.43871L6.675 5.29649L6.95 5.12L7.225 4.94633L7.5 4.80129L7.775 4.69873L8.05 4.64194L8.325 4.62621L8.6 4.64194L8.875 4.67749L9.15 4.72161L9.425 4.76503L9.7 4.80129L9.975 4.82693L10.25 4.84113L10.525 4.84506L10.8 4.84113L11.075 4.83224L11.35 4.82121L11.625 4.81036L11.9 4.80129L12.175 4.79488L12.45 4.79133L12.725 4.79035L13 4.80129" stroke="currentColor" stroke-linecap="round"/>
</svg>
