<svg width="16" height="16" viewBox="0 0 16 16" fill="none" xmlns="http://www.w3.org/2000/svg">
<path d="M3 11.4142L3.225 11.4243L3.45 11.4234L3.675 11.4201L3.9 11.4142L4.125 11.4058L4.35 11.3958L4.575 11.3856L4.8 11.3774L5.025 11.3738L5.25 11.3774L5.475 11.3905L5.7 11.4142L5.925 11.4477L6.15 11.4877L6.375 11.5285L6.6 11.5613L6.825 11.5758L7.05 11.5613L7.275 11.5089L7.5 11.4142L7.725 11.2803L7.95 11.12L8.175 10.9571L8.4 10.8258L8.625 10.7677L8.85 10.8258L9.075 11.0355L9.3 11.4142L9.525 11.9497L9.75 12.591L9.975 13.2426L10.2 13.7677L10.425 14L10.65 13.7677L10.875 12.9289L11.1 11.4142L11.325 9.27204L11.55 6.7071L11.775 4.10043L12 2" stroke="currentColor" stroke-linecap="round"/>
</svg>
