<svg width="16" height="16" viewBox="0 0 16 16" fill="none" xmlns="http://www.w3.org/2000/svg">
<path d="M2 13.7L2.275 13.7051L2.55 13.7L2.825 13.6898L3.1 13.6797H3.375L3.65 13.7L3.925 13.7406L4.2 13.7812H4.475L4.75 13.7L5.025 13.5375L5.3 13.375H5.575L5.85 13.7L6.125 14.35L6.4 15H6.675L6.95 13.7L7.225 11.1L7.5 8.5L7.775 5.9L8.05 3.3L8.325 2H8.6L8.875 2.65L9.15 3.3L9.425 3.625H9.7L9.975 3.4625L10.25 3.3L10.525 3.21875H10.8L11.075 3.25937L11.35 3.3L11.625 3.32031H11.9L12.175 3.31016L12.45 3.3L12.725 3.29492L13 3.3" stroke="currentColor" stroke-linecap="round"/>
</svg>
