<svg width="16" height="16" viewBox="0 0 16 16" fill="none" xmlns="http://www.w3.org/2000/svg">
<path d="M2 14L2.3 13.9917L2.6 13.9883L2.9 13.9834L3.2 13.9766L3.5 13.9669L3.8 13.9531L4.1 13.9337L4.4 13.9063L4.7 13.8674L5 13.8125L5.3 13.7348L5.6 13.625L5.9 13.4697L6.2 13.25L6.5 12.9393L6.8 12.5L7.1 11.8787L7.4 11L7.7 9.75736L8 8L8.3 6.24264L8.6 5L8.9 4.12132L9.2 3.5L9.5 3.06066L9.8 2.75L10.1 2.53033L10.4 2.375L10.7 2.26517L11 2.1875L11.3 2.13258L11.6 2.09375L11.9 2.06629L12.2 2.04688L12.5 2.03315L12.8 2.02344L13.1 2.01657L13.4 2.01172L13.7 2.00829L14 2" stroke="currentColor" stroke-linecap="round"/>
</svg>
