<svg width="16" height="16" viewBox="0 0 16 16" fill="none" xmlns="http://www.w3.org/2000/svg">
<path d="M2 14L2.3 13.9861L2.6 13.9834L2.9 13.9803L3.2 13.9766L3.5 13.9721L3.8 13.9669L4.1 13.9606L4.4 13.9531L4.7 13.9443L5 13.9337L5.3 13.9212L5.6 13.9063L5.9 13.8885L6.2 13.8674L6.5 13.8423L6.8 13.8125L7.1 13.777L7.4 13.7348L7.7 13.6847L8 13.625L8.3 13.554L8.6 13.4697L8.9 13.3693L9.2 13.25L9.5 13.1081L9.8 12.9393L10.1 12.7387L10.4 12.5L10.7 12.2162L11 11.8787L11.3 11.4773L11.6 11L11.9 10.4324L12.2 9.75736L12.5 8.95462L12.8 8L13.1 6.86476L13.4 5.51472L13.7 3.90924L14 2" stroke="currentColor" stroke-linecap="round"/>
</svg>
