<svg width="16" height="16" viewBox="0 0 16 16" fill="none" xmlns="http://www.w3.org/2000/svg">
<path d="M2 14L2.3 12.0908L2.6 10.4853L2.9 9.13524L3.2 8L3.5 7.04538L3.8 6.24264L4.1 5.56762L4.4 5L4.7 4.52269L5 4.12132L5.3 3.78381L5.6 3.5L5.9 3.26134L6.2 3.06066L6.5 2.89191L6.8 2.75L7.1 2.63067L7.4 2.53033L7.7 2.44595L8 2.375L8.3 2.31534L8.6 2.26517L8.9 2.22298L9.2 2.1875L9.5 2.15767L9.8 2.13258L10.1 2.11149L10.4 2.09375L10.7 2.07883L11 2.06629L11.3 2.05574L11.6 2.04688L11.9 2.03942L12.2 2.03315L12.5 2.02787L12.8 2.02344L13.1 2.01971L13.4 2.01657L13.7 2.01394L14 2" stroke="currentColor" stroke-linecap="round"/>
</svg>
