<svg width="16" height="16" viewBox="0 0 16 16" fill="none" xmlns="http://www.w3.org/2000/svg">
<path d="M1 14.3333L1.33333 14L1.66667 13.6667L2 13.3333L2.33333 13L2.66667 12.6667L3 12.3333L3.33333 12L3.66667 11.6667L4 11.3333L4.33333 11L4.66667 10.6667L5 10.3333L5.33333 10L5.66667 9.66667L6 9.33333L6.33333 9L6.66667 8.66667L7 8.33333L7.33333 8L7.66667 7.66667L8 7.33333L8.33333 7L8.66667 6.66667L9 6.33333L9.33333 6L9.66667 5.66667L10 5.33333L10.3333 5L10.6667 4.66667L11 4.33333L11.3333 4L11.6667 3.66667L12 3.33333L12.3333 3L12.6667 2.66667L13 2.33333L13.3333 2L13.6667 1.66667L14 1.33333L14.3333 1" stroke="currentColor" stroke-linecap="round"/>
</svg>
