<svg width="16" height="16" viewBox="0 0 16 16" fill="none" xmlns="http://www.w3.org/2000/svg">
<path d="M2 14L2.3 13.4075L2.6 12.83L2.9 12.2675L3.2 11.72L3.5 11.1875L3.8 10.67L4.1 10.1675L4.4 9.68L4.7 9.2075L5 8.75L5.3 8.3075L5.6 7.88L5.9 7.4675L6.2 7.07L6.5 6.6875L6.8 6.32L7.1 5.9675L7.4 5.63L7.7 5.3075L8 5L8.3 4.7075L8.6 4.43L8.9 4.1675L9.2 3.92L9.5 3.6875L9.8 3.47L10.1 3.2675L10.4 3.08L10.7 2.9075L11 2.75L11.3 2.6075L11.6 2.48L11.9 2.3675L12.2 2.27L12.5 2.1875L12.8 2.12L13.1 2.0675L13.4 2.03L13.7 2.0075L14 2" stroke="currentColor" stroke-linecap="round"/>
</svg>
