<svg width="16" height="16" viewBox="0 0 16 16" fill="none" xmlns="http://www.w3.org/2000/svg">
<path d="M2 14L2.3 13.9925L2.6 13.97L2.9 13.9325L3.2 13.88L3.5 13.8125L3.8 13.73L4.1 13.6325L4.4 13.52L4.7 13.3925L5 13.25L5.3 13.0925L5.6 12.92L5.9 12.7325L6.2 12.53L6.5 12.3125L6.8 12.08L7.1 11.8325L7.4 11.57L7.7 11.2925L8 11L8.3 10.6925L8.6 10.37L8.9 10.0325L9.2 9.68L9.5 9.3125L9.8 8.93L10.1 8.5325L10.4 8.12L10.7 7.6925L11 7.25L11.3 6.7925L11.6 6.32L11.9 5.8325L12.2 5.33L12.5 4.8125L12.8 4.28L13.1 3.7325L13.4 3.17L13.7 2.5925L14 2" stroke="currentColor" stroke-linecap="round"/>
</svg>
