<svg width="16" height="16" viewBox="0 0 16 16" fill="none" xmlns="http://www.w3.org/2000/svg">
<path d="M2 14L2.3 13.985L2.6 13.94L2.9 13.865L3.2 13.76L3.5 13.625L3.8 13.46L4.1 13.265L4.4 13.04L4.7 12.785L5 12.5L5.3 12.185L5.6 11.84L5.9 11.465L6.2 11.06L6.5 10.625L6.8 10.16L7.1 9.665L7.4 9.14L7.7 8.585L8 8L8.3 7.415L8.6 6.86L8.9 6.335L9.2 5.84L9.5 5.375L9.8 4.94L10.1 4.535L10.4 4.16L10.7 3.815L11 3.5L11.3 3.215L11.6 2.96L11.9 2.735L12.2 2.54L12.5 2.375L12.8 2.24L13.1 2.135L13.4 2.06L13.7 2.015L14 2" stroke="currentColor" stroke-linecap="round"/>
</svg>
