<svg width="16" height="16" viewBox="0 0 16 16" fill="none" xmlns="http://www.w3.org/2000/svg">
<path d="M2 14L2.3 12.8443L2.6 11.7741L2.9 10.7851L3.2 9.8732L3.5 9.03418L3.8 8.26408L4.1 7.55901L4.4 6.9152L4.7 6.329L5 5.79688L5.3 5.31538L5.6 4.8812L5.9 4.49113L6.2 4.14208L6.5 3.83105L6.8 3.5552L7.1 3.31175L7.4 3.09808L7.7 2.91163L8 2.75L8.3 2.61088L8.6 2.49208L8.9 2.3915L9.2 2.3072L9.5 2.2373L9.8 2.18007L10.1 2.13388L10.4 2.0972L10.7 2.06863L11 2.04688L11.3 2.03075L11.6 2.0192L11.9 2.01125L12.2 2.00607L12.5 2.00293L12.8 2.0012L13.1 2.00038L13.4 2.00007L13.7 2L14 2" stroke="currentColor" stroke-linecap="round"/>
</svg>
