<svg width="16" height="16" viewBox="0 0 16 16" fill="none" xmlns="http://www.w3.org/2000/svg">
<path d="M2 14L2.3 14L2.6 13.9994L2.9 13.997L3.2 13.9904L3.5 13.9766L3.8 13.9514L4.1 13.91L4.4 13.8464L4.7 13.754L5 13.625L5.3 13.451L5.6 13.2224L5.9 12.929L6.2 12.5594L6.5 12.1016L6.8 11.5424L7.1 10.868L7.4 10.0634L7.7 9.11296L8 8L8.3 6.88704L8.6 5.9366L8.9 5.13204L9.2 4.4576L9.5 3.89844L9.8 3.4406L10.1 3.07104L10.4 2.7776L10.7 2.54904L11 2.375L11.3 2.24604L11.6 2.1536L11.9 2.09004L12.2 2.0486L12.5 2.02344L12.8 2.0096L13.1 2.00304L13.4 2.0006L13.7 2.00004L14 2" stroke="currentColor" stroke-linecap="round"/>
</svg>
