<svg width="16" height="16" viewBox="0 0 16 16" fill="none" xmlns="http://www.w3.org/2000/svg">
<path d="M2 14L2.3 14L2.6 13.9999L2.9 13.9996L3.2 13.9988L3.5 13.9971L3.8 13.9939L4.1 13.9887L4.4 13.9808L4.7 13.9692L5 13.9531L5.3 13.9314L5.6 13.9028L5.9 13.8661L6.2 13.8199L6.5 13.7627L6.8 13.6928L7.1 13.6085L7.4 13.5079L7.7 13.3891L8 13.25L8.3 13.0884L8.6 12.9019L8.9 12.6882L9.2 12.4448L9.5 12.1689L9.8 11.8579L10.1 11.5089L10.4 11.1188L10.7 10.6846L11 10.2031L11.3 9.671L11.6 9.0848L11.9 8.441L12.2 7.73592L12.5 6.96582L12.8 6.1268L13.1 5.21487L13.4 4.22593L13.7 3.15575L14 2" stroke="currentColor" stroke-linecap="round"/>
</svg>
