<svg width="16" height="16" viewBox="0 0 16 16" fill="none" xmlns="http://www.w3.org/2000/svg">
<path d="M2 14H2.3L2.6 14L2.9 14L3.2 13.9999L3.5 13.9996L3.8 13.9991L4.1 13.998L4.4 13.9962L4.7 13.9931L5 13.9883L5.3 13.9811L5.6 13.9708L5.9 13.9565L6.2 13.937L6.5 13.911L6.8 13.8771L7.1 13.8336L7.4 13.7786L7.7 13.7098L8 13.625L8.3 13.5214L8.6 13.3961L8.9 13.2457L9.2 13.0669L9.5 12.8556L9.8 12.6077L10.1 12.3185L10.4 11.9832L10.7 11.5963L11 11.1523L11.3 10.645L11.6 10.0678L11.9 9.41382L12.2 8.67554L12.5 7.84509L12.8 6.91412L13.1 5.87376L13.4 4.71463L13.7 3.42685L14 2" stroke="currentColor" stroke-linecap="round"/>
</svg>
