<svg width="16" height="16" viewBox="0 0 16 16" fill="none" xmlns="http://www.w3.org/2000/svg">
<path d="M2 14L2.3 14L2.6 13.9999L2.9 13.9995L3.2 13.9981L3.5 13.9941L3.8 13.9854L4.1 13.9685L4.4 13.9386L4.7 13.8893L5 13.8125L5.3 13.698L5.6 13.5334L5.9 13.3038L6.2 12.9916L6.5 12.5762L6.8 12.0339L7.1 11.3378L7.4 10.4571L7.7 9.35731L8 8L8.3 6.64269L8.6 5.54294L8.9 4.66223L9.2 3.96608L9.5 3.42383L9.8 3.00842L10.1 2.69617L10.4 2.46656L10.7 2.30197L11 2.1875L11.3 2.11072L11.6 2.06144L11.9 2.03151L12.2 2.01458L12.5 2.00586L12.8 2.00192L13.1 2.00046L13.4 2.00006L13.7 2L14 2" stroke="currentColor" stroke-linecap="round"/>
</svg>
