<svg width="16" height="16" viewBox="0 0 16 16" fill="none" xmlns="http://www.w3.org/2000/svg">
<path d="M2 14L2.3 12.5731L2.6 11.2854L2.9 10.1262L3.2 9.08588L3.5 8.15491L3.8 7.32446L4.1 6.58618L4.4 5.93216L4.7 5.35498L5 4.84766L5.3 4.40365L5.6 4.01684L5.9 3.68151L6.2 3.39235L6.5 3.14441L6.8 2.93312L7.1 2.75426L7.4 2.60394L7.7 2.47861L8 2.375L8.3 2.29017L8.6 2.22143L8.9 2.16639L9.2 2.12288L9.5 2.08899L9.8 2.06303L10.1 2.04351L10.4 2.02916L10.7 2.01887L11 2.01172L11.3 2.00692L11.6 2.00384L11.9 2.00197L12.2 2.00091L12.5 2.00037L12.8 2.00012L13.1 2.00003L13.4 2L13.7 2L14 2" stroke="currentColor" stroke-linecap="round"/>
</svg>
