<svg width="16" height="16" viewBox="0 0 16 16" fill="none" xmlns="http://www.w3.org/2000/svg">
<path d="M2 14L2.3 13.5289L2.6 13.0585L2.9 12.5896L3.2 12.1228L3.5 11.6589L3.8 11.1987L4.1 10.7427L4.4 10.2918L4.7 9.8466L5 9.4078L5.3 8.97608L5.6 8.55211L5.9 8.13655L6.2 7.73002L6.5 7.33316L6.8 6.94658L7.1 6.57087L7.4 6.20662L7.7 5.85439L8 5.51472L8.3 5.18813L8.6 4.87513L8.9 4.5762L9.2 4.2918L9.5 4.02236L9.8 3.76832L10.1 3.53005L10.4 3.30792L10.7 3.10228L11 2.91345L11.3 2.7417L11.6 2.58732L11.9 2.45054L12.2 2.33156L12.5 2.23058L12.8 2.14774L13.1 2.08318L13.4 2.03699L13.7 2.00925L14 2" stroke="currentColor" stroke-linecap="round"/>
</svg>
