<svg width="16" height="16" viewBox="0 0 16 16" fill="none" xmlns="http://www.w3.org/2000/svg">
<path d="M2 14L2.3 13.9815L2.6 13.9261L2.9 13.8342L3.2 13.7063L3.5 13.5433L3.8 13.346L4.1 13.1158L4.4 12.8541L4.7 12.5624L5 12.2426L5.3 11.8967L5.6 11.5267L5.9 11.135L6.2 10.7239L6.5 10.2961L6.8 9.8541L7.1 9.40067L7.4 8.93861L7.7 8.47075L8 8L8.3 7.52925L8.6 7.06139L8.9 6.59933L9.2 6.1459L9.5 5.7039L9.8 5.27606L10.1 4.86501L10.4 4.47329L10.7 4.10331L11 3.75736L11.3 3.43756L11.6 3.1459L11.9 2.88416L12.2 2.65396L12.5 2.45672L12.8 2.29366L13.1 2.16578L13.4 2.07387L13.7 2.0185L14 2" stroke="currentColor" stroke-linecap="round"/>
</svg>
