<svg width="16" height="16" viewBox="0 0 16 16" fill="none" xmlns="http://www.w3.org/2000/svg">
<path d="M2 14L2.3 13.9907L2.6 13.963L2.9 13.9168L3.2 13.8523L3.5 13.7694L3.8 13.6684L4.1 13.5495L4.4 13.4127L4.7 13.2583L5 13.0866L5.3 12.8977L5.6 12.6921L5.9 12.47L6.2 12.2317L6.5 11.9776L6.8 11.7082L7.1 11.4238L7.4 11.1249L7.7 10.8119L8 10.4853L8.3 10.1456L8.6 9.79338L8.9 9.42913L9.2 9.05342L9.5 8.66684L9.8 8.26998L10.1 7.86346L10.4 7.44789L10.7 7.02392L11 6.5922L11.3 6.1534L11.6 5.7082L11.9 5.25729L12.2 4.80134L12.5 4.34108L12.8 3.87721L13.1 3.41045L13.4 2.94151L13.7 2.47112L14 2" stroke="currentColor" stroke-linecap="round"/>
</svg>
