<svg width="16" height="16" viewBox="0 0 16 16" fill="none" xmlns="http://www.w3.org/2000/svg">
<rect x="1.5" y="1.5" width="9" height="9" rx="1.5" stroke="white"/>
<rect x="5.5" y="5.5" width="9" height="9" rx="1.5" stroke="white"/>
<path d="M5.5 1C7.98528 1 10 3.01472 10 5.5C10 5.68016 9.98738 5.8576 9.9668 6.03223C10.1417 6.01158 10.3196 6 10.5 6C12.9853 6 15 8.01472 15 10.5C15 12.9853 12.9853 15 10.5 15C8.01472 15 6 12.9853 6 10.5C6 10.3196 6.01158 10.1417 6.03223 9.9668C5.8576 9.98738 5.68016 10 5.5 10C3.01472 10 1 7.98528 1 5.5C1 3.01472 3.01472 1 5.5 1Z" fill="#3ECF8E" fill-opacity="0.75"/>
</svg>
