<svg width="16" height="16" viewBox="0 0 16 16" fill="none" xmlns="http://www.w3.org/2000/svg">
<path fill-rule="evenodd" clip-rule="evenodd" d="M2.96552 5.34484C2.96552 4.71099 3.3727 4.17225 3.93977 3.97592C4.19172 3.88869 4.41379 3.68043 4.41379 3.41381C4.41379 3.14719 4.19548 2.92601 3.93411 2.97871C2.83081 3.20116 2 4.17598 2 5.34484V10.6552C2 13.0548 3.94525 15 6.34483 15H10.2069C12.6065 15 14.5517 13.0548 14.5517 10.6552V5.34484C14.5517 4.17598 13.7209 3.20116 12.6176 2.97871C12.3562 2.92601 12.1379 3.14719 12.1379 3.41381C12.1379 3.68043 12.36 3.88869 12.6119 3.97592C13.179 4.17225 13.5862 4.71099 13.5862 5.34484V8.24139C13.5862 10.1077 12.0732 11.6207 10.2069 11.6207H6.34483C4.47848 11.6207 2.96552 10.1077 2.96552 8.24139V5.34484ZM2.98219 10.993C3.15169 12.7007 4.5925 14.0345 6.34483 14.0345H10.2069C11.9592 14.0345 13.4001 12.7007 13.5695 10.993C12.7728 11.9656 11.5623 12.5862 10.2069 12.5862H6.34483C4.98942 12.5862 3.77898 11.9656 2.98219 10.993Z" fill="currentColor"/>
<path d="M10.2069 6.7931L8.27587 8.72414M8.27587 8.72414L6.34483 6.7931M8.27587 8.72414V1M8.27587 1L10.2069 2.93104M8.27587 1L6.34483 2.93104" stroke="currentColor" stroke-opacity="0.6" stroke-linecap="round" stroke-linejoin="round"/>
</svg>
