<svg width="16" height="16" viewBox="0 0 16 16" fill="none" xmlns="http://www.w3.org/2000/svg">
<path fill-rule="evenodd" clip-rule="evenodd" d="M2.92308 4.30769C2.92308 3.7017 3.31237 3.18664 3.85451 2.99895C4.09538 2.91555 4.30769 2.71644 4.30769 2.46154C4.30769 2.20664 4.09898 1.99518 3.8491 2.04556C2.79429 2.25824 2 3.19021 2 4.30769V9.38462C2 11.6787 3.85974 13.5385 6.15385 13.5385H9.84615C12.1403 13.5385 14 11.6787 14 9.38462V4.30769C14 3.19021 13.2057 2.25824 12.1509 2.04556C11.901 1.99518 11.6923 2.20664 11.6923 2.46154C11.6923 2.71644 11.9046 2.91555 12.1454 2.99895C12.6877 3.18664 13.0769 3.7017 13.0769 4.30769V7.07692C13.0769 8.86123 11.6305 10.3077 9.84615 10.3077H6.15385C4.36954 10.3077 2.92308 8.86123 2.92308 7.07692V4.30769ZM2.93902 9.7076C3.10106 11.3402 4.47854 12.6154 6.15385 12.6154H9.84615C11.5214 12.6154 12.899 11.3402 13.061 9.7076C12.2992 10.6374 11.142 11.2308 9.84615 11.2308H6.15385C4.85802 11.2308 3.70079 10.6374 2.93902 9.7076Z" fill="currentColor"/>
<path d="M6.15384 3.84615L7.99999 2M7.99999 2L9.84615 3.84615M7.99999 2V7.07692" stroke="currentColor" stroke-opacity="0.6" stroke-linecap="round" stroke-linejoin="round"/>
</svg>
