<svg width="16" height="16" viewBox="0 0 16 16" fill="none" xmlns="http://www.w3.org/2000/svg">
<path d="M11.6364 3H4.36364C3.61052 3 3 3.61052 3 4.36364V11.6364C3 12.3895 3.61052 13 4.36364 13H11.6364C12.3895 13 13 12.3895 13 11.6364V4.36364C13 3.61052 12.3895 3 11.6364 3Z" stroke="currentColor" stroke-opacity="0.6"/>
<path d="M8 3H4.36364C3.61052 3 3 3.61052 3 4.36364V11.6364C3 12.3895 3.61052 13 4.36364 13H8C8.75312 13 9.36364 12.3895 9.36364 11.6364V4.36364C9.36364 3.61052 8.75312 3 8 3Z" stroke="currentColor"/>
</svg>
