<svg width="16" height="16" viewBox="0 0 16 16" fill="none" xmlns="http://www.w3.org/2000/svg">
<path d="M8.5 3.85714C7.4122 3.85714 6.34884 4.1839 5.44437 4.7961C4.5399 5.40829 3.83495 6.27843 3.41866 7.29648C3.00238 8.31452 2.89346 9.43475 3.10568 10.5155C3.3179 11.5963 3.84173 12.589 4.61091 13.3682C5.3801 14.1473 6.36011 14.678 7.427 14.8929C8.4939 15.1079 9.59977 14.9976 10.6048 14.5759C11.6098 14.1542 12.4687 13.4401 13.0731 12.5239C13.6774 11.6077 14 10.5305 14 9.42857C13.9984 7.95144 13.4184 6.53528 12.3873 5.49079C11.3562 4.4463 9.95819 3.85878 8.5 3.85714ZM11.1156 7.43524L8.82389 9.75667C8.78193 9.80228 8.73133 9.83887 8.67511 9.86424C8.61889 9.88962 8.55819 9.90327 8.49665 9.90437C8.43511 9.90546 8.37398 9.894 8.31691 9.87065C8.25984 9.84729 8.208 9.81254 8.16448 9.76845C8.12095 9.72436 8.08664 9.67185 8.06359 9.61404C8.04054 9.55622 8.02922 9.4943 8.03031 9.43196C8.03139 9.36962 8.04486 9.30814 8.06991 9.25119C8.09496 9.19424 8.13108 9.14298 8.17611 9.10048L10.4678 6.77905C10.5097 6.73343 10.5603 6.69684 10.6166 6.67147C10.6728 6.64609 10.7335 6.63245 10.795 6.63135C10.8566 6.63025 10.9177 6.64171 10.9748 6.66507C11.0318 6.68842 11.0837 6.72317 11.1272 6.76726C11.1707 6.81135 11.205 6.86386 11.2281 6.92168C11.2511 6.97949 11.2624 7.04141 11.2614 7.10375C11.2603 7.16609 11.2468 7.22757 11.2218 7.28452C11.1967 7.34147 11.1606 7.39273 11.1156 7.43524ZM6.66667 2.46429C6.66667 2.34115 6.71496 2.22306 6.80091 2.13599C6.88686 2.04892 7.00344 2 7.125 2H9.875C9.99656 2 10.1131 2.04892 10.1991 2.13599C10.285 2.22306 10.3333 2.34115 10.3333 2.46429C10.3333 2.58742 10.285 2.70551 10.1991 2.79259C10.1131 2.87966 9.99656 2.92857 9.875 2.92857H7.125C7.00344 2.92857 6.88686 2.87966 6.80091 2.79259C6.71496 2.70551 6.66667 2.58742 6.66667 2.46429Z" fill="currentColor"/>
</svg>
