<svg width="16" height="16" viewBox="0 0 16 16" fill="none" xmlns="http://www.w3.org/2000/svg">
<path d="M10.35 6.82413L6.82479 10.3495L10.0567 13.5815L13.5811 10.0553L10.3492 6.82413H10.35ZM1.24409 5.35601L5.35671 1.24326C5.51251 1.0875 5.7238 1 5.94411 1C6.16441 1 6.3757 1.0875 6.5315 1.24326L14.7567 9.46875C14.9125 9.62456 15 9.83585 15 10.0562C15 10.2765 14.9125 10.4878 14.7567 10.6436L10.6441 14.7563C10.567 14.8336 10.4753 14.8949 10.3745 14.9367C10.2736 14.9785 10.1655 15 10.0563 15C9.94713 15 9.83901 14.9785 9.73815 14.9367C9.63729 14.8949 9.54566 14.8336 9.4685 14.7563L1.24326 6.53084C1.0875 6.37503 1 6.16373 1 5.94342C1 5.72311 1.0875 5.51181 1.24326 5.35601H1.24409Z" fill="white"/>
<circle cx="8.5" cy="4.5" r="2.5" fill="#3ECF8E"/>
</svg>
