<svg width="16" height="16" viewBox="0 0 16 16" fill="none" xmlns="http://www.w3.org/2000/svg">
<path d="M8.04062 1.81472C8.01896 1.66848 7.90792 1.54933 7.76168 1.52766C7.16318 1.44371 6.55385 1.55204 6.01764 1.83638L4.01362 2.90608C3.48012 3.19043 3.04952 3.63727 2.78412 4.18159L1.79024 6.22891C1.52484 6.77323 1.43818 7.39068 1.5438 7.98646L1.93648 10.2288C2.04209 10.8272 2.33186 11.3743 2.76787 11.7967L4.40088 13.3783C4.83689 13.8007 5.39206 14.0715 5.99056 14.1555L8.23832 14.4723C8.83681 14.5563 9.44615 14.448 9.98236 14.1636L11.9864 13.0939C12.5199 12.8096 12.9505 12.3627 13.2159 11.8157L14.2098 9.77109C14.4752 9.22677 14.5618 8.60932 14.4562 8.01354C14.4318 7.87001 14.3127 7.76169 14.1691 7.74002C12.7744 7.51796 11.656 6.46451 11.3391 5.10234C11.2904 4.89653 11.1225 4.73946 10.914 4.70696C9.43531 4.47136 8.26811 3.29875 8.03791 1.81472H8.04062ZM6.70009 4.96694C6.92993 4.96694 7.15036 5.05824 7.31287 5.22076C7.47539 5.38327 7.5667 5.60369 7.5667 5.83353C7.5667 6.06336 7.47539 6.28378 7.31287 6.4463C7.15036 6.60881 6.92993 6.70012 6.70009 6.70012C6.47025 6.70012 6.24983 6.60881 6.08731 6.4463C5.92479 6.28378 5.83349 6.06336 5.83349 5.83353C5.83349 5.60369 5.92479 5.38327 6.08731 5.22076C6.24983 5.05824 6.47025 4.96694 6.70009 4.96694ZM4.96688 10.1665C4.96688 9.93664 5.05819 9.71622 5.22071 9.5537C5.38323 9.39119 5.60365 9.29988 5.83349 9.29988C6.06333 9.29988 6.28375 9.39119 6.44627 9.5537C6.60879 9.71622 6.70009 9.93664 6.70009 10.1665C6.70009 10.3963 6.60879 10.6167 6.44627 10.7792C6.28375 10.9418 6.06333 11.0331 5.83349 11.0331C5.60365 11.0331 5.38323 10.9418 5.22071 10.7792C5.05819 10.6167 4.96688 10.3963 4.96688 10.1665ZM11.0331 8.43329C11.263 8.43329 11.4834 8.5246 11.6459 8.68711C11.8084 8.84963 11.8997 9.07005 11.8997 9.29988C11.8997 9.52972 11.8084 9.75014 11.6459 9.91265C11.4834 10.0752 11.263 10.1665 11.0331 10.1665C10.8033 10.1665 10.5829 10.0752 10.4203 9.91265C10.2578 9.75014 10.1665 9.52972 10.1665 9.29988C10.1665 9.07005 10.2578 8.84963 10.4203 8.68711C10.5829 8.5246 10.8033 8.43329 11.0331 8.43329Z" fill="white"/>
<circle opacity="0.6" cx="4.5" cy="11.5" r="3.5" fill="#3ECF8E"/>
</svg>
