<svg width="16" height="16" viewBox="0 0 16 16" fill="none" xmlns="http://www.w3.org/2000/svg">
<path d="M12.634 6.36303V4.31738C12.634 3.86524 12.2644 3.5 11.8093 3.5H2.32474C1.86966 3.5 1.5 3.86672 1.5 4.31738V9.63402C1.5 10.0862 1.86966 10.4514 2.32474 10.4514H9.74742V7.18189C9.74742 6.72975 10.1171 6.36451 10.5722 6.36451H12.634V6.36303ZM14.148 7.19072H11.0758C10.7739 7.19072 10.528 7.43962 10.528 7.74595V11.9433C10.528 12.2496 10.7739 12.4985 11.0758 12.4985H14.148C14.4499 12.4985 14.6959 12.2496 14.6959 11.9433V7.74595C14.6959 7.43962 14.4499 7.19072 14.148 7.19072ZM13.3306 11.6841H11.933C11.8608 11.6841 11.8019 11.5928 11.8019 11.4794C11.8019 11.366 11.8608 11.2747 11.933 11.2747H13.3306C13.4028 11.2747 13.4617 11.366 13.4617 11.4794C13.4617 11.5928 13.4028 11.6841 13.3306 11.6841ZM8.92268 11.6811H4.79897C4.57069 11.6811 4.3866 11.8638 4.3866 12.0906C4.3866 12.3159 4.57069 12.5 4.79897 12.5H8.92268C9.15096 12.5 9.33505 12.3174 9.33505 12.0906C9.33505 11.8638 9.15096 11.6811 8.92268 11.6811Z" fill="white"/>
<circle opacity="0.6" cx="6" cy="5" r="2" fill="#3ECF8E"/>
</svg>
