<svg width="16" height="16" viewBox="0 0 16 16" fill="none" xmlns="http://www.w3.org/2000/svg">
<path d="M7.51886 10.1371C7.51886 10.0795 7.49699 10.0219 7.46201 9.98552L4.5566 6.75237C4.5566 6.75237 4.02742 6.27642 3.55509 6.52197C3.08277 6.76753 3.46325 7.74217 3.46325 7.74217L3.95745 8.47884L3.36558 8.11808C3.36558 8.11808 3.02737 7.88769 3.03466 7.13586C3.04195 6.29157 3.04195 4.8046 3.04195 4.8046C3.04195 4.8046 2.98509 4.16949 2.38594 4.06793C1.94131 3.98911 1.65266 4.53024 1.63808 4.87584C1.61622 5.22295 1.52583 6.12484 1.51125 6.71599C1.50396 7.30714 1.36256 9.12001 2.32908 10.0295C2.96323 10.6282 3.19647 10.9965 4.51579 11.7984V13.7537C4.51579 13.7537 4.4808 13.9993 4.7986 13.9993H7.24625C7.24625 13.9993 7.57134 14.0281 7.57717 13.7174C7.57717 13.3566 7.52761 10.6934 7.52032 10.1447V10.1371H7.51886ZM13.6679 10.0295C14.6344 9.12001 14.5003 7.30866 14.4857 6.71599C14.4711 6.12484 14.3793 5.22144 14.3589 4.87584C14.3443 4.52873 14.0557 3.98759 13.611 4.06793C13.0119 4.16949 12.955 4.8046 12.955 4.8046C12.955 4.8046 12.955 6.29157 12.9623 7.13586C12.9696 7.88617 12.6314 8.11808 12.6314 8.11808L12.0395 8.47884L12.5337 7.74217C12.5337 7.74217 12.9142 6.76753 12.4419 6.52197C11.9695 6.27642 11.4404 6.75237 11.4404 6.75237L8.53349 9.98552C8.49851 10.0219 8.47664 10.0795 8.47664 10.1371V10.1447C8.46935 10.6934 8.41978 13.3566 8.41978 13.7174C8.42707 14.0281 8.7507 13.9993 8.7507 13.9993H11.1984C11.5162 13.9993 11.4812 13.7537 11.4812 13.7537V11.7984C12.8005 10.9965 13.0337 10.6282 13.6679 10.0295ZM11.8485 3.15089C11.8485 2.09742 11.108 1 9.86009 1C9.04227 1 8.3294 1.42593 7.9839 2.04589C7.6384 1.42442 6.92554 1 6.10771 1C4.86712 1 4.11926 2.09742 4.11926 3.15089C4.11926 5.65495 7.71566 7.82099 7.87165 7.91497C7.90664 7.93619 7.94891 7.94377 7.9839 7.94377C8.02618 7.94377 8.06116 7.93619 8.09615 7.91497C8.25214 7.82099 11.8485 5.65495 11.8485 3.15089Z" fill="white"/>
<circle opacity="0.6" cx="10" cy="6" r="2" fill="#3ECF8E"/>
</svg>
