<svg width="16" height="16" viewBox="0 0 16 16" fill="none" xmlns="http://www.w3.org/2000/svg">
<path d="M5.47655 1.32655C7.12563 0.799135 8.91052 0.914075 10.4805 1.64784C10.4816 1.64835 10.4831 1.64882 10.4844 1.64882C10.4856 1.64881 10.4871 1.64834 10.4883 1.64784C10.5066 1.65712 10.5226 1.66673 10.541 1.67323C11.7267 2.24136 12.7289 3.13786 13.4297 4.25917C14.1305 5.38065 14.5009 6.68075 14.499 8.00722C14.4971 9.33374 14.1221 10.6329 13.418 11.7523C12.7138 12.8715 11.7099 13.7659 10.5224 14.3305L10.5058 14.3392L10.457 14.3607C9.70263 14.7126 8.89037 14.9228 8.06151 14.9808C7.89223 14.9939 7.72249 15.0004 7.55272 15.0004C6.3392 15.0014 5.14723 14.6775 4.09764 14.0619C4.08316 14.054 4.06879 14.0456 4.05565 14.0355C3.01961 13.4234 2.15996 12.5478 1.56151 11.4965C1.50063 11.3892 1.48374 11.2614 1.51561 11.142C1.54749 11.0227 1.62552 10.9215 1.73143 10.8598C1.78383 10.8281 1.84187 10.8067 1.90233 10.7982C1.96269 10.7898 2.02414 10.794 2.083 10.8099C2.14188 10.826 2.19705 10.854 2.2451 10.892C2.29309 10.9299 2.33367 10.9769 2.36327 11.0307C2.88219 11.942 3.62849 12.7004 4.52733 13.2299C4.53923 13.235 4.55077 13.2412 4.56151 13.2484C4.72964 13.3418 4.89858 13.4357 5.07225 13.515C6.47422 14.1517 8.06473 14.221 9.51561 13.7084C10.9664 13.1957 12.167 12.1399 12.8711 10.7592C13.5752 9.37838 13.7295 7.77726 13.3008 6.28554C12.872 4.79373 11.893 3.52424 10.5664 2.73964L10.5039 2.7035L10.4443 2.67128H10.4394C9.55894 2.18835 8.57209 1.93495 7.5703 1.93495C6.56867 1.93503 5.5825 2.18843 4.70214 2.67128L4.68456 2.68007L4.63475 2.70741L4.56444 2.74745C3.65152 3.27746 2.89427 4.04296 2.36913 4.96522C2.33947 5.01898 2.29895 5.066 2.25096 5.10389C2.2029 5.14179 2.14771 5.1699 2.08885 5.18593C2.03004 5.20192 1.96853 5.20601 1.90819 5.19764C1.84787 5.18925 1.78965 5.16852 1.73729 5.1371C1.68456 5.10652 1.63767 5.06566 1.60057 5.01698C1.56361 4.96844 1.53629 4.91303 1.5205 4.85389C1.5047 4.79456 1.50085 4.7322 1.50878 4.67128C1.51669 4.61044 1.53603 4.55156 1.56639 4.49843C2.43283 2.98553 3.82763 1.85402 5.47655 1.32655ZM7.13866 4.83729C7.55092 4.7878 7.96899 4.82155 8.36815 4.9369C9.16921 5.15487 9.85275 5.68539 10.2676 6.41151C10.6823 7.13761 10.7948 8.0008 10.581 8.81093C10.5653 8.87003 10.5379 8.92548 10.501 8.97401C10.464 9.02255 10.4177 9.06356 10.3652 9.09413C10.3128 9.12454 10.2552 9.14478 10.1953 9.15272C10.1351 9.16065 10.0732 9.15599 10.0146 9.14003C9.89661 9.10781 9.79643 9.0293 9.73534 8.92225C9.67427 8.81516 9.65688 8.68816 9.68846 8.56874C9.80144 8.14308 9.78741 7.69315 9.64745 7.27577C9.50737 6.85828 9.24731 6.49151 8.90135 6.22304C8.55558 5.95485 8.139 5.796 7.70409 5.76698C7.26889 5.73802 6.8348 5.84066 6.45702 6.06093C6.07922 6.28123 5.77407 6.60994 5.58104 7.00526C5.38817 7.40047 5.31528 7.8447 5.37206 8.28163C5.42887 8.71868 5.61291 9.12884 5.90038 9.46034C6.18784 9.79183 6.56606 10.0297 6.98729 10.1439C7.04591 10.1599 7.10128 10.1876 7.1494 10.225C7.19729 10.2623 7.23737 10.3088 7.26757 10.3617C7.29784 10.4148 7.31733 10.4738 7.32518 10.5346C7.33302 10.5953 7.32921 10.657 7.31346 10.7162C7.28167 10.8355 7.20447 10.9376 7.09862 10.9994C6.99262 11.0612 6.86625 11.0782 6.74803 11.0463C6.3452 10.9444 5.96634 10.7625 5.63378 10.5111C5.30117 10.2597 5.02114 9.94324 4.81053 9.58143C4.60009 9.2198 4.46309 8.81943 4.40721 8.4037C4.35135 7.98774 4.37778 7.56404 4.48534 7.15858C4.59291 6.75325 4.779 6.37322 5.03319 6.04139C5.28744 5.70952 5.60538 5.43273 5.96678 5.22597C6.32814 5.01926 6.72634 4.8868 7.13866 4.83729Z" fill="currentColor"/>
</svg>
