<svg width="16" height="16" viewBox="0 0 16 16" fill="none" xmlns="http://www.w3.org/2000/svg">
<path d="M13.7067 2.96732C13.5357 2.81476 13.3104 2.73128 13.0775 2.73128C13.0563 2.73128 13.035 2.73128 13.0138 2.73272C13.001 2.73414 12.8527 2.74282 12.6209 2.74282C12.2367 2.74282 11.4867 2.71691 10.7763 2.55142C9.85891 2.33698 8.80019 1.34393 8.49218 1.14821C8.33691 1.04894 8.15819 1 7.97912 1C7.80078 1 7.62207 1.04894 7.46715 1.14678C7.42981 1.17125 6.32126 2.2981 5.23693 2.55142C4.52685 2.71691 3.76256 2.74282 3.37876 2.74282C3.14694 2.74282 2.99901 2.73414 2.98438 2.73272C2.96423 2.73128 2.94408 2.73128 2.92358 2.73128C2.69029 2.73128 2.46434 2.81474 2.29259 2.96732C2.10619 3.13281 2 3.3645 2 3.60773V5.79954C2 13.9019 7.57962 14.9453 7.81617 14.987C7.87038 14.9957 7.92494 15 7.97951 15C8.03371 15 8.089 14.9957 8.14246 14.987C8.37938 14.9453 14 13.9019 14 5.79954V3.60773C14 3.3645 13.8934 3.13283 13.7067 2.96732ZM11.6442 6.10175L7.77589 9.7788C7.75172 9.81762 7.72205 9.85653 7.68616 9.88962C7.57263 9.99755 7.42249 10.0494 7.27378 10.0465C7.12513 10.0494 6.97531 9.99755 6.86182 9.88962C6.82594 9.85653 6.79592 9.81762 6.77174 9.7788L4.70449 7.81292C4.48437 7.60422 4.48437 7.26605 4.70449 7.05592C4.92457 6.84729 5.28161 6.84729 5.50172 7.05592L7.2738 8.74119L10.8473 5.34482C11.0674 5.13612 11.4241 5.13612 11.6442 5.34482C11.8643 5.55343 11.8643 5.89311 11.6442 6.10175Z" fill="white"/>
<circle opacity="0.6" cx="3" cy="11" r="2" fill="#3ECF8E"/>
</svg>
