<svg width="16" height="16" viewBox="0 0 16 16" fill="none" xmlns="http://www.w3.org/2000/svg">
<path d="M2.38889 11.7126C1.61111 11.7126 1 12.336 1 13.1296C1 13.9231 1.61111 14.5466 2.38889 14.5466C3.16667 14.5466 3.77778 13.9231 3.77778 13.1296C3.77778 12.8462 3.72222 12.6194 3.55556 12.3927L4.44444 11.0324C4.94444 11.3725 5.55556 11.5425 6.16667 11.5425C6.55556 11.5425 6.88889 11.4858 7.22222 11.3725L7.88889 12.3927C7.72222 12.6761 7.61111 12.9595 7.61111 13.3563C7.61111 14.2632 8.33333 15 9.22222 15C10.1111 15 10.8333 14.2632 10.8333 13.3563C10.8333 12.4494 10.1111 11.7126 9.22222 11.7126C9.11111 11.7126 8.94444 11.7126 8.83333 11.7692L8.22222 10.8057C8.94444 10.1822 9.44444 9.2753 9.44444 8.25506C9.44444 7.63158 9.27778 7.12146 9 6.61134L10.2778 5.47773C10.6667 5.76113 11.1111 5.87449 11.6111 5.87449C12.8889 5.87449 14 4.79757 14 3.43725C14 2.1336 12.9444 1 11.6111 1C10.3333 1 9.27778 2.07692 9.27778 3.43725C9.27778 3.83401 9.38889 4.23077 9.55556 4.57085L8.33333 5.70445C7.77778 5.25101 7.05556 4.91093 6.22222 4.91093C5.61111 4.91093 5.05556 5.08097 4.55556 5.36437L4.11111 4.74089C4.33333 4.45749 4.44444 4.11741 4.44444 3.72065C4.5 2.81377 3.77778 2.07692 2.88889 2.07692C2 2.07692 1.27778 2.81377 1.27778 3.72065C1.27778 4.62753 2 5.36437 2.88889 5.36437C3 5.36437 3.11111 5.36437 3.22222 5.30769L3.77778 6.10121C3.33333 6.66802 3.05556 7.40486 3.05556 8.19838C3.05556 8.9919 3.33333 9.67207 3.77778 10.2389L2.77778 11.7126H2.38889Z" fill="white"/>
<circle opacity="0.6" cx="10" cy="8" r="2" fill="#3ECF8E"/>
</svg>
