<svg width="16" height="16" viewBox="0 0 16 16" fill="none" xmlns="http://www.w3.org/2000/svg">
<circle cx="8" cy="8" r="6.75" fill="#D9D9D9" fill-opacity="0.2" stroke="#7D7D7D" stroke-width="0.5"/>
<g filter="url(#filter0_f_552_3665)">
<path d="M10.1654 13.2224C12.3333 12.2833 13.164 10.2092 13.3815 8.77454C13.4459 8.34984 13.0961 8 12.6665 8C12.2369 8 11.897 8.351 11.8313 8.77551C11.595 10.3018 10.671 11.1507 9.8145 11.5676C9.33591 11.8004 8.97048 12.2745 9.20851 12.7507C9.37623 13.0861 9.82122 13.3713 10.1654 13.2224Z" fill="url(#paint0_linear_552_3665)" fill-opacity="0.2"/>
</g>
<g filter="url(#filter1_f_552_3665)">
<path d="M2.90806 9.12883C3.14691 10.2708 4.87955 11.1004 5.06683 9.07462C5.25412 7.04885 5.70213 5.97519 7.08708 4.41414C8.37313 2.96452 6.67101 2.42529 5.6001 3.00351C2.52448 4.66393 2.58957 7.60624 2.90806 9.12883Z" fill="url(#paint1_linear_552_3665)"/>
</g>
<defs>
<filter id="filter0_f_552_3665" x="7.13379" y="6" width="8.25537" height="9.26294" filterUnits="userSpaceOnUse" color-interpolation-filters="sRGB">
<feFlood flood-opacity="0" result="BackgroundImageFix"/>
<feBlend mode="normal" in="SourceGraphic" in2="BackgroundImageFix" result="shape"/>
<feGaussianBlur stdDeviation="1" result="effect1_foregroundBlur_552_3665"/>
</filter>
<filter id="filter1_f_552_3665" x="1.42838" y="1.44206" width="7.4528" height="10.1982" filterUnits="userSpaceOnUse" color-interpolation-filters="sRGB">
<feFlood flood-opacity="0" result="BackgroundImageFix"/>
<feBlend mode="normal" in="SourceGraphic" in2="BackgroundImageFix" result="shape"/>
<feGaussianBlur stdDeviation="0.666667" result="effect1_foregroundBlur_552_3665"/>
</filter>
<linearGradient id="paint0_linear_552_3665" x1="12.6665" y1="12.2778" x2="10.3332" y2="10.3333" gradientUnits="userSpaceOnUse">
<stop offset="0.15625" stop-color="white"/>
<stop offset="1" stop-color="white" stop-opacity="0"/>
</linearGradient>
<linearGradient id="paint1_linear_552_3665" x1="3.47522" y1="4.24257" x2="6.06413" y2="6.04334" gradientUnits="userSpaceOnUse">
<stop stop-color="white"/>
<stop offset="0.886158" stop-color="white" stop-opacity="0"/>
</linearGradient>
</defs>
</svg>
