<svg width="16" height="16" viewBox="0 0 16 16" fill="none" xmlns="http://www.w3.org/2000/svg">
<g filter="url(#filter0_ii_554_3638)">
<path d="M8 15C11.866 15 15 11.866 15 8C15 4.13401 11.866 1 8 1C4.13401 1 1 4.13401 1 8C1 11.866 4.13401 15 8 15Z" fill="url(#paint0_radial_554_3638)"/>
</g>
<g filter="url(#filter1_f_554_3638)">
<path d="M10.1654 13.2224C12.3333 12.2833 13.164 10.2092 13.3815 8.77454C13.4459 8.34984 13.0961 8 12.6665 8C12.2369 8 11.897 8.351 11.8313 8.77551C11.595 10.3018 10.671 11.1507 9.8145 11.5676C9.33591 11.8004 8.97048 12.2745 9.20851 12.7507C9.37623 13.0861 9.82122 13.3713 10.1654 13.2224Z" fill="url(#paint1_linear_554_3638)" fill-opacity="0.2"/>
</g>
<g filter="url(#filter2_f_554_3638)">
<path d="M2.90806 9.12883C3.14691 10.2708 4.87955 11.1004 5.06683 9.07462C5.25412 7.04885 5.70213 5.97519 7.08708 4.41414C8.37313 2.96452 6.67101 2.42529 5.6001 3.00351C2.52448 4.66393 2.58957 7.60624 2.90806 9.12883Z" fill="url(#paint2_linear_554_3638)"/>
</g>
<defs>
<filter id="filter0_ii_554_3638" x="0.333333" y="0.333333" width="15" height="15" filterUnits="userSpaceOnUse" color-interpolation-filters="sRGB">
<feFlood flood-opacity="0" result="BackgroundImageFix"/>
<feBlend mode="normal" in="SourceGraphic" in2="BackgroundImageFix" result="shape"/>
<feColorMatrix in="SourceAlpha" type="matrix" values="0 0 0 0 0 0 0 0 0 0 0 0 0 0 0 0 0 0 127 0" result="hardAlpha"/>
<feOffset dx="0.333333" dy="0.333333"/>
<feGaussianBlur stdDeviation="0.666667"/>
<feComposite in2="hardAlpha" operator="arithmetic" k2="-1" k3="1"/>
<feColorMatrix type="matrix" values="0 0 0 0 1 0 0 0 0 1 0 0 0 0 1 0 0 0 0.9 0"/>
<feBlend mode="normal" in2="shape" result="effect1_innerShadow_554_3638"/>
<feColorMatrix in="SourceAlpha" type="matrix" values="0 0 0 0 0 0 0 0 0 0 0 0 0 0 0 0 0 0 127 0" result="hardAlpha"/>
<feOffset dx="-0.666667" dy="-0.666667"/>
<feGaussianBlur stdDeviation="4"/>
<feComposite in2="hardAlpha" operator="arithmetic" k2="-1" k3="1"/>
<feColorMatrix type="matrix" values="0 0 0 0 0 0 0 0 0 0 0 0 0 0 0 0 0 0 0.6 0"/>
<feBlend mode="normal" in2="effect1_innerShadow_554_3638" result="effect2_innerShadow_554_3638"/>
</filter>
<filter id="filter1_f_554_3638" x="7.13379" y="6" width="8.25537" height="9.26294" filterUnits="userSpaceOnUse" color-interpolation-filters="sRGB">
<feFlood flood-opacity="0" result="BackgroundImageFix"/>
<feBlend mode="normal" in="SourceGraphic" in2="BackgroundImageFix" result="shape"/>
<feGaussianBlur stdDeviation="1" result="effect1_foregroundBlur_554_3638"/>
</filter>
<filter id="filter2_f_554_3638" x="1.42838" y="1.44206" width="7.4528" height="10.1982" filterUnits="userSpaceOnUse" color-interpolation-filters="sRGB">
<feFlood flood-opacity="0" result="BackgroundImageFix"/>
<feBlend mode="normal" in="SourceGraphic" in2="BackgroundImageFix" result="shape"/>
<feGaussianBlur stdDeviation="0.666667" result="effect1_foregroundBlur_554_3638"/>
</filter>
<radialGradient id="paint0_radial_554_3638" cx="0" cy="0" r="1" gradientUnits="userSpaceOnUse" gradientTransform="translate(4.5 5.27778) rotate(70.2011) scale(10.333)">
<stop stop-color="#A329EE" stop-opacity="0.34"/>
<stop offset="1" stop-opacity="0.26"/>
</radialGradient>
<linearGradient id="paint1_linear_554_3638" x1="12.6665" y1="12.2778" x2="10.3332" y2="10.3333" gradientUnits="userSpaceOnUse">
<stop offset="0.15625" stop-color="white"/>
<stop offset="1" stop-color="white" stop-opacity="0"/>
</linearGradient>
<linearGradient id="paint2_linear_554_3638" x1="3.47522" y1="4.24257" x2="6.06413" y2="6.04334" gradientUnits="userSpaceOnUse">
<stop stop-color="#EC8C8C"/>
<stop offset="0.886158" stop-color="white" stop-opacity="0"/>
</linearGradient>
</defs>
</svg>
