<svg width="16" height="16" viewBox="0 0 16 16" fill="none" xmlns="http://www.w3.org/2000/svg">
<g filter="url(#filter0_ii_552_3647)">
<path d="M8 15C11.866 15 15 11.866 15 8C15 4.13401 11.866 1 8 1C4.13401 1 1 4.13401 1 8C1 11.866 4.13401 15 8 15Z" fill="url(#paint0_radial_552_3647)"/>
</g>
<mask id="mask0_552_3647" style="mask-type:alpha" maskUnits="userSpaceOnUse" x="1" y="1" width="14" height="14">
<path d="M8 15C11.866 15 15 11.866 15 8C15 4.13401 11.866 1 8 1C4.13401 1 1 4.13401 1 8C1 11.866 4.13401 15 8 15Z" fill="url(#paint1_radial_552_3647)"/>
</mask>
<g mask="url(#mask0_552_3647)">
<path d="M5.66694 12.6664C9.96249 12.6664 13.4447 9.18417 13.4447 4.88862C13.4447 0.593071 9.96249 -2.88916 5.66694 -2.88916C1.37139 -2.88916 -2.11084 0.593071 -2.11084 4.88862C-2.11084 9.18417 1.37139 12.6664 5.66694 12.6664Z" fill="url(#paint2_radial_552_3647)"/>
<path d="M3.3335 9.55542C7.19949 9.55542 10.3335 6.42141 10.3335 2.55542C10.3335 -1.31057 7.19949 -4.44458 3.3335 -4.44458C-0.532497 -4.44458 -3.6665 -1.31057 -3.6665 2.55542C-3.6665 6.42141 -0.532497 9.55542 3.3335 9.55542Z" fill="url(#paint3_radial_552_3647)"/>
</g>
<g filter="url(#filter1_f_552_3647)">
<path d="M10.1654 13.2224C12.3333 12.2833 13.164 10.2092 13.3815 8.77454C13.4459 8.34984 13.0961 8 12.6665 8C12.2369 8 11.897 8.351 11.8313 8.77551C11.595 10.3018 10.671 11.1507 9.8145 11.5676C9.33591 11.8004 8.97048 12.2745 9.20851 12.7507C9.37623 13.0861 9.82122 13.3713 10.1654 13.2224Z" fill="url(#paint4_linear_552_3647)" fill-opacity="0.2"/>
</g>
<g filter="url(#filter2_f_552_3647)">
<path d="M2.90806 9.12883C3.14691 10.2708 4.87955 11.1004 5.06683 9.07462C5.25412 7.04885 5.70213 5.97519 7.08708 4.41414C8.37313 2.96452 6.67101 2.42529 5.6001 3.00351C2.52448 4.66393 2.58957 7.60624 2.90806 9.12883Z" fill="url(#paint5_linear_552_3647)"/>
</g>
<defs>
<filter id="filter0_ii_552_3647" x="0.333333" y="0.333333" width="15" height="15" filterUnits="userSpaceOnUse" color-interpolation-filters="sRGB">
<feFlood flood-opacity="0" result="BackgroundImageFix"/>
<feBlend mode="normal" in="SourceGraphic" in2="BackgroundImageFix" result="shape"/>
<feColorMatrix in="SourceAlpha" type="matrix" values="0 0 0 0 0 0 0 0 0 0 0 0 0 0 0 0 0 0 127 0" result="hardAlpha"/>
<feOffset dx="0.333333" dy="0.333333"/>
<feGaussianBlur stdDeviation="0.666667"/>
<feComposite in2="hardAlpha" operator="arithmetic" k2="-1" k3="1"/>
<feColorMatrix type="matrix" values="0 0 0 0 1 0 0 0 0 1 0 0 0 0 1 0 0 0 0.9 0"/>
<feBlend mode="normal" in2="shape" result="effect1_innerShadow_552_3647"/>
<feColorMatrix in="SourceAlpha" type="matrix" values="0 0 0 0 0 0 0 0 0 0 0 0 0 0 0 0 0 0 127 0" result="hardAlpha"/>
<feOffset dx="-0.666667" dy="-0.666667"/>
<feGaussianBlur stdDeviation="4"/>
<feComposite in2="hardAlpha" operator="arithmetic" k2="-1" k3="1"/>
<feColorMatrix type="matrix" values="0 0 0 0 0 0 0 0 0 0 0 0 0 0 0 0 0 0 0.6 0"/>
<feBlend mode="normal" in2="effect1_innerShadow_552_3647" result="effect2_innerShadow_552_3647"/>
</filter>
<filter id="filter1_f_552_3647" x="7.13379" y="6" width="8.25537" height="9.26294" filterUnits="userSpaceOnUse" color-interpolation-filters="sRGB">
<feFlood flood-opacity="0" result="BackgroundImageFix"/>
<feBlend mode="normal" in="SourceGraphic" in2="BackgroundImageFix" result="shape"/>
<feGaussianBlur stdDeviation="1" result="effect1_foregroundBlur_552_3647"/>
</filter>
<filter id="filter2_f_552_3647" x="1.42838" y="1.44206" width="7.4528" height="10.1982" filterUnits="userSpaceOnUse" color-interpolation-filters="sRGB">
<feFlood flood-opacity="0" result="BackgroundImageFix"/>
<feBlend mode="normal" in="SourceGraphic" in2="BackgroundImageFix" result="shape"/>
<feGaussianBlur stdDeviation="0.666667" result="effect1_foregroundBlur_552_3647"/>
</filter>
<radialGradient id="paint0_radial_552_3647" cx="0" cy="0" r="1" gradientUnits="userSpaceOnUse" gradientTransform="translate(4.5 5.27778) rotate(70.2011) scale(10.333)">
<stop stop-color="white" stop-opacity="0.75"/>
<stop offset="1" stop-color="#292929" stop-opacity="0.28"/>
</radialGradient>
<radialGradient id="paint1_radial_552_3647" cx="0" cy="0" r="1" gradientUnits="userSpaceOnUse" gradientTransform="translate(4.5 5.27778) rotate(70.2011) scale(10.333)">
<stop stop-color="white" stop-opacity="0.75"/>
<stop offset="1" stop-color="#292929" stop-opacity="0.22"/>
</radialGradient>
<radialGradient id="paint2_radial_552_3647" cx="0" cy="0" r="1" gradientUnits="userSpaceOnUse" gradientTransform="translate(1.77806 1.86393) rotate(70.2011) scale(11.4812)">
<stop stop-color="white" stop-opacity="0.75"/>
<stop offset="1" stop-color="white" stop-opacity="0.28"/>
</radialGradient>
<radialGradient id="paint3_radial_552_3647" cx="0" cy="0" r="1" gradientUnits="userSpaceOnUse" gradientTransform="translate(-0.166504 -0.166799) rotate(70.2011) scale(10.333)">
<stop stop-color="white" stop-opacity="0.75"/>
<stop offset="1" stop-color="white" stop-opacity="0.59"/>
</radialGradient>
<linearGradient id="paint4_linear_552_3647" x1="12.6665" y1="12.2778" x2="10.3332" y2="10.3333" gradientUnits="userSpaceOnUse">
<stop offset="0.15625" stop-color="white"/>
<stop offset="1" stop-color="white" stop-opacity="0"/>
</linearGradient>
<linearGradient id="paint5_linear_552_3647" x1="3.47522" y1="4.24257" x2="6.06413" y2="6.04334" gradientUnits="userSpaceOnUse">
<stop stop-color="white"/>
<stop offset="0.886158" stop-color="white" stop-opacity="0"/>
</linearGradient>
</defs>
</svg>
