<svg width="16" height="16" viewBox="0 0 16 16" fill="none" xmlns="http://www.w3.org/2000/svg"><path fill-rule="evenodd" clip-rule="evenodd" d="M8.66564 1.67269L13.3562 4.30171C13.764 4.53028 13.9999 4.9419 13.9999 5.37098V10.629C13.9999 11.0581 13.764 11.4697 13.3562 11.6983L8.99987 14.14V15.2789C9.05219 15.2545 9.1038 15.2281 9.15457 15.1996L13.8452 12.5706C14.5597 12.1701 14.9999 11.43 14.9999 10.629V5.37098C14.9999 4.57 14.5597 3.82987 13.8452 3.42939L9.15457 0.800365C8.44003 0.399878 7.5597 0.399878 6.84516 0.800365L2.15457 3.42939C2.14186 3.43651 2.12923 3.44374 2.1167 3.45108L3.11424 4.03787L7.33409 1.67269C7.7449 1.44244 8.25483 1.44244 8.66564 1.67269Z" fill="currentColor"></path><path opacity="0.6" fill-rule="evenodd" clip-rule="evenodd" d="M8.53564 7.22671L8.7537 7.35497C8.90641 7.44481 9.00018 7.60876 9.00018 7.78594V8.1132L14.3619 5.01764L13.8619 4.15161L8.53564 7.22671Z" fill="currentColor"></path><path d="M7.75254 7.95166L1.75254 4.44039C1.41921 4.24533 1 4.48572 1 4.87193V10.7307C1 11.4553 1.39193 12.1232 2.02451 12.4767L7.25613 15.3996C7.58941 15.5858 8 15.3449 8 14.9631V8.38319C8 8.20561 7.90581 8.04135 7.75254 7.95166Z" fill="currentColor"></path></svg>