<svg width="16" height="16" viewBox="0 0 16 16" fill="none" xmlns="http://www.w3.org/2000/svg"><path opacity="0.6" fill-rule="evenodd" clip-rule="evenodd" d="M1.70068 4.98175L2.20068 4.11572L6.54747 6.62534C6.31815 6.86761 6.14878 7.16721 6.0631 7.50039L1.70068 4.98175ZM9.95242 7.56345L14.3619 5.01765L13.8619 4.15162L9.49597 6.67228C9.71736 6.92151 9.8774 7.22646 9.95242 7.56345Z" fill="currentColor"></path><path fill-rule="evenodd" clip-rule="evenodd" d="M8.66577 1.67269L13.3564 4.30171C13.7642 4.53028 14 4.9419 14 5.37098V10.629C14 11.0581 13.7642 11.4697 13.3564 11.6983L10 13.5795V14.5C10 14.579 9.99543 14.6568 9.98653 14.7334L13.8453 12.5706C14.5598 12.1701 15 11.43 15 10.629V5.37098C15 4.57 14.5598 3.82987 13.8453 3.42939L9.1547 0.800365C8.44017 0.399878 7.55983 0.399878 6.8453 0.800365L2.1547 3.42939C1.44017 3.82987 1 4.57 1 5.37098V10.629C1 11.43 1.44017 12.1701 2.1547 12.5706L6.01347 14.7334C6.00457 14.6568 6 14.579 6 14.5V13.5795L2.64363 11.6983C2.23583 11.4697 2 11.0581 2 10.629V5.37098C2 4.9419 2.23583 4.53028 2.64363 4.30171L7.33423 1.67269C7.74503 1.44244 8.25497 1.44244 8.66577 1.67269Z" fill="currentColor"></path><path d="M8 8V14.5" stroke="currentColor" stroke-width="2" stroke-linecap="round"></path></svg>