<svg width="16" height="16" viewBox="0 0 16 16" fill="none" xmlns="http://www.w3.org/2000/svg"><path d="M8.91024 1.23653L13.6008 3.86555C14.162 4.18008 14.5 4.75595 14.5 5.37098V10.629C14.5 11.244 14.162 11.8199 13.6008 12.1344L8.91024 14.7635C8.34757 15.0788 7.65243 15.0788 7.08976 14.7635L2.39916 12.1344C1.838 11.8199 1.5 11.244 1.5 10.629V5.37098C1.5 4.75595 1.838 4.18008 2.39916 3.86555L7.08976 1.23653C7.65243 0.921158 8.34757 0.921158 8.91024 1.23653Z" stroke="currentColor"></path><path opacity="0.6" fill-rule="evenodd" clip-rule="evenodd" d="M1.70068 4.98175L2.20068 4.11572L6.10478 6.36975C5.88765 6.62197 5.72001 6.91801 5.61692 7.24279L1.70068 4.98175ZM7.50019 10.45V14.8542H8.50019V10.45C8.33864 10.4828 8.17143 10.5 8.0002 10.5C7.82896 10.5 7.66175 10.4828 7.50019 10.45ZM10.402 7.30388L14.3619 5.01765L13.8619 4.15162L9.9362 6.41811C10.1468 6.67559 10.3071 6.97585 10.402 7.30388Z" fill="currentColor"></path><path d="M9.5 8C9.5 8.82843 8.82843 9.5 8 9.5C7.17157 9.5 6.5 8.82843 6.5 8C6.5 7.17157 7.17157 6.5 8 6.5C8.82843 6.5 9.5 7.17157 9.5 8Z" fill="currentColor"></path></svg>