<svg width="16" height="16" viewBox="0 0 16 16" fill="none" xmlns="http://www.w3.org/2000/svg">
<path d="M14.5998 11.6478C14.3966 11.9742 13.959 12.1382 13.287 12.1382C12.6886 12.0926 12.5054 12.5261 12.739 13.4381C12.7678 14.0221 12.231 14.0877 11.1278 13.6373C10.5719 13.4325 9.70387 13.5221 8.52549 13.9061C7.03431 14.2053 5.38393 13.7893 3.57356 12.6581C3.25197 12.4853 2.82157 12.5717 2.28158 12.9181C1.81679 13.2645 1.38959 13.4061 1 13.3421V9.62699C1.1408 4.97666 2.90077 2.4407 6.27992 2.0175C10.7983 1.73191 13.5718 4.94146 14.5998 11.6478ZM9.94547 7.37982C9.92635 7.39271 9.91003 7.40932 9.89749 7.42866C9.88495 7.448 9.87644 7.46968 9.87248 7.49239C9.86852 7.5151 9.86919 7.53838 9.87445 7.56083C9.8797 7.58327 9.88944 7.60443 9.90307 7.62302C10.6679 8.6654 11.0551 10.3222 11.0551 12.5933C11.0551 12.6893 11.1358 12.7677 11.235 12.7677C11.282 12.7684 11.3273 12.7504 11.3611 12.7177C11.3948 12.685 11.4142 12.6403 11.415 12.5933C11.415 10.2566 11.0119 8.53261 10.1959 7.42062C10.1675 7.38282 10.1255 7.35747 10.0789 7.34987C10.0322 7.34226 9.9844 7.353 9.94547 7.37982ZM9.94547 3.55028C9.92623 3.56316 9.90981 3.57981 9.8972 3.59922C9.88458 3.61863 9.87603 3.6404 9.87207 3.66321C9.86811 3.68602 9.86881 3.70939 9.87414 3.73192C9.87947 3.75445 9.88931 3.77566 9.90307 3.79428C11.3742 5.78945 12.283 8.36781 12.6294 11.5326C12.6398 11.6286 12.7286 11.6982 12.827 11.6878C12.8502 11.6858 12.8727 11.6792 12.8933 11.6684C12.9139 11.6577 12.9321 11.6429 12.947 11.6251C12.9619 11.6072 12.9731 11.5866 12.98 11.5644C12.9868 11.5422 12.9892 11.5189 12.987 11.4958C12.635 8.27421 11.7054 5.63905 10.1951 3.59108C10.1665 3.55341 10.1246 3.52821 10.0779 3.52076C10.0312 3.5133 9.98351 3.52417 9.94467 3.55108L9.94547 3.55028ZM6.12712 3.18629C5.53113 3.44468 4.98714 3.75908 4.32555 4.85026C3.24717 6.65903 2.51518 8.815 2.12958 11.3166C2.49438 10.4382 3.16077 10.3566 4.12875 11.075C4.34475 8.04061 4.91674 5.52705 5.84553 3.53268L6.12712 3.18629Z" fill="currentColor"/>
</svg>
