<svg width="16" height="16" viewBox="0 0 16 16" fill="none" xmlns="http://www.w3.org/2000/svg">
<path d="M3.27871 1.75725C3.47076 1.42199 3.95429 1.42196 4.14639 1.7572L5.75673 4.56745C5.87133 4.76745 5.72694 5.01661 5.49644 5.01661H4.255V11.6722H10.7657V10.3874C10.7657 10.1578 11.013 10.0133 11.213 10.1261L14.2162 11.819C14.5579 12.0116 14.5548 12.5047 14.2108 12.6931L11.2098 14.3368C11.0099 14.4463 10.7657 14.3016 10.7657 14.0736V12.7824H4.2557V14.4572C4.2557 14.757 4.01266 15 3.71285 15V15C3.41304 15 3.17 14.757 3.17 14.4572V12.781H1.5544C1.24821 12.781 1 12.5328 1 12.2266V12.2266C1 11.9204 1.24821 11.6722 1.55439 11.6722H3.17V5.01661H1.9292C1.69871 5.01661 1.55431 4.76748 1.66888 4.56749L3.27871 1.75725Z" fill="currentColor"/>
<path fill-rule="evenodd" clip-rule="evenodd" d="M6.93034 5.1839C7.09602 5.1839 7.23034 5.31821 7.23034 5.4839V6.1H9.46962V5.4839C9.46962 5.31821 9.60393 5.1839 9.76962 5.1839C9.9353 5.1839 10.0696 5.31821 10.0696 5.4839V6.1H10.716C10.8817 6.1 11.016 6.23431 11.016 6.4C11.016 6.56569 10.8817 6.7 10.716 6.7H10.0696V8.49639H10.716C10.8817 8.49639 11.016 8.63071 11.016 8.79639C11.016 8.96208 10.8817 9.09639 10.716 9.09639H10.0696V9.74282C10.0696 9.9085 9.9353 10.0428 9.76962 10.0428C9.60393 10.0428 9.46962 9.9085 9.46962 9.74282V9.09639H7.23034V9.74282C7.23034 9.9085 7.09602 10.0428 6.93034 10.0428C6.76465 10.0428 6.63034 9.9085 6.63034 9.74282V9.09639H5.98391C5.81823 9.09639 5.68391 8.96208 5.68391 8.79639C5.68391 8.63071 5.81823 8.49639 5.98391 8.49639H6.63034V6.7H5.9839C5.81821 6.7 5.6839 6.56569 5.6839 6.4C5.6839 6.23431 5.81821 6.1 5.9839 6.1H6.63034V5.4839C6.63034 5.31821 6.76465 5.1839 6.93034 5.1839ZM9.46962 8.49639V6.7H7.23034V8.49639H9.46962Z" fill="currentColor"/>
</svg>
