<svg width="16" height="16" viewBox="0 0 16 16" fill="none" xmlns="http://www.w3.org/2000/svg">
<path d="M7.42833 8.56076H11.2616C11.393 8.2594 11.6239 8.01253 11.9155 7.86165C12.2071 7.71077 12.5417 7.66508 12.863 7.73225C13.1843 7.79943 13.4727 7.97538 13.6798 8.23053C13.8868 8.48568 13.9999 8.80448 14 9.13333C14.0002 9.46235 13.8873 9.7814 13.6803 10.0368C13.4732 10.2922 13.1847 10.4683 12.8632 10.5355C12.5418 10.6027 12.207 10.5569 11.9153 10.4058C11.6236 10.2547 11.3928 10.0075 11.2616 9.7059H7.09346L4.75852 12.0457C4.87842 12.3518 4.88945 12.69 4.78977 13.0033C4.69008 13.3166 4.48576 13.586 4.21115 13.7662C3.93655 13.9463 3.60842 14.0262 3.28193 13.9924C2.95545 13.9587 2.65052 13.8133 2.41844 13.5807C2.18635 13.3482 2.04126 13.0427 2.00755 12.7156C1.97385 12.3884 2.0536 12.0597 2.23338 11.7845C2.41316 11.5094 2.68202 11.3047 2.99473 11.2048C3.30745 11.1049 3.64495 11.116 3.95049 11.2361L6.28543 8.896V4.11134L4.57109 5.72169V4.14713L6.85688 2L9.14268 4.14713V5.72169L7.42833 4.11134V8.56076Z" fill="currentColor"/>
</svg>
