<svg width="16" height="16" viewBox="0 0 16 16" fill="none" xmlns="http://www.w3.org/2000/svg">
<path fill-rule="evenodd" clip-rule="evenodd" d="M13.293 4.793C13.1784 4.90756 13.0342 5 12.8722 5H8.26472C8.07153 5 7.90777 4.86596 7.828 4.69V4.69C7.78333 4.58867 7.73067 4.492 7.67 4.4C7.61 4.308 7.54267 4.22167 7.468 4.141C7.39267 4.06033 7.31167 3.98633 7.225 3.919C7.13833 3.85167 7.04633 3.79167 6.949 3.739C6.85167 3.687 6.751 3.64333 6.647 3.608C6.543 3.572 6.43667 3.54533 6.328 3.528C6.21933 3.50933 6.11 3.5 6 3.5C5.89 3.5 5.78067 3.509 5.672 3.527C5.56333 3.545 5.45667 3.57167 5.352 3.607C5.24867 3.643 5.14867 3.687 5.052 3.739C4.95467 3.79167 4.86233 3.85167 4.775 3.919C4.68833 3.98633 4.60767 4.06033 4.533 4.141C4.45767 4.22167 4.38967 4.30833 4.329 4.401C4.269 4.49233 4.21667 4.58833 4.172 4.689V4.689C4.09334 4.86629 3.92836 5 3.7344 5H3.12776C2.96575 5 2.82156 4.90756 2.707 4.793V4.793C2.645 4.731 2.576 4.678 2.5 4.634C2.424 4.59 2.34367 4.55667 2.259 4.534C2.17433 4.51133 2.088 4.5 2 4.5C1.93467 4.5 1.86967 4.50667 1.805 4.52C1.74033 4.532 1.67767 4.55067 1.617 4.576C1.557 4.60133 1.49933 4.63233 1.444 4.669C1.39 4.705 1.33967 4.74633 1.293 4.793C1.24633 4.83967 1.205 4.89 1.169 4.944C1.13233 4.99867 1.10133 5.05633 1.076 5.117C1.05067 5.17767 1.03167 5.24033 1.019 5.305C1.00633 5.36967 1 5.43467 1 5.5C1 5.56533 1.00667 5.63033 1.02 5.695C1.032 5.75967 1.05067 5.82233 1.076 5.883C1.10133 5.943 1.13233 6.00067 1.169 6.056C1.205 6.11 1.24633 6.16033 1.293 6.207C1.33967 6.25367 1.39 6.295 1.444 6.331C1.49867 6.36767 1.55633 6.39867 1.617 6.424C1.67767 6.44933 1.74033 6.46833 1.805 6.481C1.86967 6.49367 1.93467 6.5 2 6.5C2.088 6.5 2.17433 6.48867 2.259 6.466C2.34367 6.44333 2.424 6.41 2.5 6.366C2.576 6.322 2.645 6.269 2.707 6.207C2.73223 6.18177 2.75597 6.15538 2.77821 6.12784C2.83858 6.0531 2.92516 6 3.02123 6V6C3.2726 6 3.39584 6.32462 3.22208 6.50625C2.08802 7.69167 1.15152 9.47747 1.01667 11.5003C0.998302 11.7758 1.22386 12 1.5 12V12C1.77614 12 1.99805 11.7758 2.01717 11.5003C2.11394 10.1057 2.61988 8.82895 3.535 7.67C3.7169 7.43976 3.90407 7.23069 4.09649 7.04278C4.27364 6.8698 4.55587 6.90606 4.749 7.061V7.061C4.86633 7.15433 4.993 7.23433 5.129 7.301C5.265 7.36633 5.40633 7.41567 5.553 7.449C5.69967 7.483 5.84867 7.5 6 7.5C6.10533 7.5 6.21033 7.49167 6.315 7.475C6.419 7.45833 6.52133 7.43367 6.622 7.401C6.722 7.36767 6.819 7.327 6.913 7.279C7.00633 7.231 7.096 7.176 7.182 7.114C7.26667 7.05133 7.34633 6.98267 7.421 6.908C7.495 6.83267 7.563 6.752 7.625 6.666C7.68633 6.58067 7.74067 6.49067 7.788 6.396V6.396C7.86961 6.23161 8.03846 6.11865 8.2202 6.14423C9.94769 6.38746 11.3 6.93972 12.277 7.801C13.3164 8.7167 13.8855 9.94979 13.9844 11.5003C14.002 11.7759 14.2239 12 14.5 12V12C14.7761 12 15.0017 11.7759 14.9857 11.5002C14.8789 9.65922 14.169 8.01456 12.6858 6.84016C12.3842 6.60137 12.5416 6 12.9263 6V6C13.0548 6 13.1699 6.07215 13.2558 6.16778C13.2678 6.18115 13.2802 6.19423 13.293 6.207C13.355 6.269 13.424 6.322 13.5 6.366C13.576 6.41 13.6563 6.44333 13.741 6.466C13.8257 6.48867 13.912 6.5 14 6.5C14.0653 6.5 14.1303 6.49333 14.195 6.48C14.2597 6.468 14.3223 6.44933 14.383 6.424C14.443 6.39867 14.5007 6.36767 14.556 6.331C14.6107 6.295 14.661 6.25367 14.707 6.207C14.7537 6.16033 14.795 6.11 14.831 6.056C14.8677 6.00133 14.8987 5.94367 14.924 5.883C14.9493 5.82233 14.9683 5.75967 14.981 5.695C14.9937 5.63033 15 5.56533 15 5.5C15 5.43467 14.9933 5.36967 14.98 5.305C14.968 5.24033 14.9493 5.17767 14.924 5.117C14.8987 5.057 14.868 4.99933 14.832 4.944C14.7953 4.89 14.7537 4.83967 14.707 4.793C14.6603 4.74633 14.61 4.705 14.556 4.669C14.5013 4.63233 14.4437 4.60133 14.383 4.576C14.3223 4.55067 14.2597 4.53167 14.195 4.519C14.1303 4.50633 14.0653 4.5 14 4.5C13.912 4.5 13.8257 4.51133 13.741 4.534C13.6563 4.55667 13.576 4.59 13.5 4.634C13.424 4.678 13.355 4.731 13.293 4.793V4.793ZM6 6.5C6.06533 6.5 6.13033 6.49333 6.195 6.48C6.25967 6.468 6.32233 6.44933 6.383 6.424C6.443 6.39867 6.50067 6.36767 6.556 6.331C6.61 6.295 6.66033 6.25367 6.707 6.207C6.75367 6.16033 6.795 6.11 6.831 6.056C6.86767 6.00133 6.89867 5.94367 6.924 5.883C6.94933 5.82233 6.96833 5.75967 6.981 5.695C6.99367 5.63033 7 5.56533 7 5.5C7 5.43467 6.99333 5.36967 6.98 5.305C6.968 5.24033 6.94933 5.17767 6.924 5.117C6.89867 5.057 6.86767 4.99933 6.831 4.944C6.795 4.89 6.75367 4.83967 6.707 4.793C6.66033 4.74633 6.61 4.705 6.556 4.669C6.50133 4.63233 6.44367 4.60133 6.383 4.576C6.32233 4.55067 6.25967 4.53167 6.195 4.519C6.13033 4.50633 6.06533 4.5 6 4.5C5.93467 4.5 5.86967 4.50667 5.805 4.52C5.74033 4.532 5.67767 4.55067 5.617 4.576C5.557 4.60133 5.49933 4.63233 5.444 4.669C5.39 4.705 5.33967 4.74633 5.293 4.793C5.24633 4.83967 5.205 4.89 5.169 4.944C5.13233 4.99867 5.10133 5.05633 5.076 5.117C5.05067 5.17767 5.03167 5.24033 5.019 5.305C5.00633 5.36967 5 5.43467 5 5.5C5 5.56533 5.00667 5.63033 5.02 5.695C5.032 5.75967 5.05067 5.82233 5.076 5.883C5.10133 5.943 5.13233 6.00067 5.169 6.056C5.205 6.11 5.24633 6.16033 5.293 6.207C5.33967 6.25367 5.39 6.295 5.444 6.331C5.49867 6.36767 5.55633 6.39867 5.617 6.424C5.67767 6.44933 5.74033 6.46833 5.805 6.481C5.86967 6.49367 5.93467 6.5 6 6.5Z" fill="currentColor"/>
</svg>
