<svg width="16" height="16" viewBox="0 0 16 16" fill="none" xmlns="http://www.w3.org/2000/svg">
<path fill-rule="evenodd" clip-rule="evenodd" d="M12.5161 5.96774C12.5974 5.96774 12.6787 5.96383 12.76 5.956C12.8407 5.94817 12.9211 5.93613 13.0012 5.91987C13.0806 5.90421 13.1592 5.88464 13.2369 5.86116C13.3152 5.83708 13.3917 5.80968 13.4663 5.77897C13.5416 5.74766 13.6151 5.71273 13.6867 5.67419C13.759 5.63626 13.8288 5.59471 13.8963 5.54955C13.9637 5.50378 14.029 5.45531 14.0923 5.40413C14.1549 5.35234 14.2151 5.29785 14.2729 5.24065C14.3301 5.18284 14.3843 5.12262 14.4355 5.06C14.4873 4.99677 14.536 4.93144 14.5818 4.864C14.627 4.79596 14.6685 4.72611 14.7065 4.65445C14.745 4.5828 14.7799 4.50933 14.8112 4.43406C14.8419 4.3594 14.869 4.28292 14.8925 4.20465C14.9166 4.12697 14.9365 4.04839 14.9521 3.9689C14.9684 3.88882 14.9804 3.80843 14.9883 3.72774C14.9961 3.64645 15 3.56516 15 3.48387C15 3.40258 14.9961 3.32129 14.9883 3.24C14.9798 3.15931 14.9678 3.07892 14.9521 2.99884C14.9365 2.91935 14.9169 2.84077 14.8934 2.7631C14.8693 2.68482 14.8419 2.60834 14.8112 2.53368C14.7799 2.45841 14.745 2.38495 14.7065 2.31329C14.6685 2.24103 14.6267 2.17118 14.5809 2.10374C14.5357 2.0363 14.4876 1.97097 14.4364 1.90774C14.3846 1.84512 14.3301 1.7849 14.2729 1.7271C14.2151 1.66989 14.1549 1.6157 14.0923 1.56452C14.029 1.51273 13.9637 1.46396 13.8963 1.41819C13.8282 1.37303 13.7584 1.33148 13.6867 1.29355C13.6151 1.25501 13.5416 1.22009 13.4663 1.18877C13.3917 1.15806 13.3152 1.13097 13.2369 1.10748C13.1592 1.0834 13.0806 1.06353 13.0012 1.04787C12.9211 1.03161 12.8404 1.01957 12.7591 1.01174C12.679 1.00391 12.598 1 12.5161 1C12.4409 1 12.3656 1.00331 12.2903 1.00994C12.2157 1.01716 12.141 1.0274 12.0663 1.04065C11.9923 1.05449 11.9191 1.07166 11.8468 1.09213C11.7746 1.1126 11.7026 1.13609 11.631 1.16258C11.5605 1.18968 11.4913 1.21978 11.4232 1.2529C11.3558 1.28602 11.2898 1.32215 11.2254 1.36129C11.1616 1.40043 11.0993 1.44228 11.0385 1.48684C10.9782 1.5314 10.9198 1.57897 10.8632 1.62955C10.8066 1.67953 10.7524 1.73191 10.7006 1.78671C10.6495 1.84211 10.6007 1.89931 10.5543 1.95832C10.5086 2.01854 10.4652 2.08026 10.4243 2.14348C10.3833 2.20671 10.3457 2.27174 10.3114 2.33858C10.2764 2.40542 10.2448 2.47376 10.2165 2.54361C10.1876 2.61346 10.1623 2.68452 10.1406 2.75677C10.1184 2.82903 10.0994 2.90189 10.0837 2.97535C10.0687 3.04882 10.0566 3.12318 10.0476 3.19845C9.38404 3.30082 8.73884 3.48447 8.112 3.74942C7.12568 4.16671 6.25256 4.75531 5.49265 5.51523C4.73273 6.27514 4.14443 7.14826 3.72774 8.13458C3.4646 8.7548 3.28155 9.39368 3.17858 10.0512C3.10452 10.0603 3.03075 10.0726 2.95729 10.0883C2.88383 10.1045 2.81157 10.1238 2.74052 10.1461C2.66826 10.1683 2.59781 10.1939 2.52916 10.2228C2.45991 10.2517 2.39217 10.2837 2.32594 10.3186C2.2597 10.3535 2.19497 10.3914 2.13174 10.4324C2.06852 10.4727 2.0074 10.5161 1.94839 10.5625C1.88998 10.6088 1.83338 10.6579 1.77858 10.7097C1.72439 10.7609 1.6723 10.8145 1.62232 10.8705C1.57234 10.9271 1.52538 10.9855 1.48142 11.0457C1.43686 11.1059 1.39531 11.1682 1.35677 11.2326C1.31763 11.2971 1.28151 11.363 1.24839 11.4305C1.21587 11.4979 1.18637 11.5665 1.15987 11.6364C1.13338 11.7068 1.11019 11.7779 1.09032 11.8495C1.06985 11.9218 1.05299 11.995 1.03974 12.069C1.02649 12.1425 1.01626 12.2166 1.00903 12.2912C1.00301 12.3671 1 12.4421 1 12.5161C1 12.5974 1.00391 12.6787 1.01174 12.76C1.01957 12.8407 1.03161 12.9211 1.04787 13.0012C1.06353 13.0806 1.0831 13.1592 1.10658 13.2369C1.13067 13.3152 1.15806 13.3917 1.18877 13.4663C1.22009 13.5416 1.25501 13.6151 1.29355 13.6867C1.33148 13.759 1.37303 13.8288 1.41819 13.8963C1.46396 13.9637 1.51243 14.029 1.56361 14.0923C1.6154 14.1549 1.66989 14.2151 1.7271 14.2729C1.7849 14.3301 1.84512 14.3843 1.90774 14.4355C1.97097 14.4873 2.0363 14.536 2.10374 14.5818C2.17178 14.627 2.24163 14.6685 2.31329 14.7065C2.38495 14.745 2.45841 14.7799 2.53368 14.8112C2.60834 14.8419 2.68482 14.869 2.7631 14.8925C2.84077 14.9166 2.91935 14.9365 2.99884 14.9521C3.07892 14.9684 3.15931 14.9804 3.24 14.9883C3.32129 14.9961 3.40258 15 3.48387 15C3.56516 15 3.64645 14.9961 3.72774 14.9883C3.80843 14.9798 3.88882 14.9678 3.9689 14.9521C4.04839 14.9365 4.12697 14.9169 4.20465 14.8934C4.28292 14.8693 4.3594 14.8419 4.43406 14.8112C4.50933 14.7799 4.5828 14.745 4.65445 14.7065C4.72671 14.6685 4.79656 14.6267 4.864 14.5809C4.93144 14.5357 4.99677 14.4876 5.06 14.4364C5.12262 14.3846 5.18284 14.3301 5.24065 14.2729C5.29785 14.2151 5.35204 14.1549 5.40323 14.0923C5.45501 14.029 5.50378 13.9637 5.54955 13.8963C5.59471 13.8282 5.63626 13.7584 5.67419 13.6867C5.71273 13.6151 5.74766 13.5416 5.77897 13.4663C5.80968 13.3917 5.83677 13.3152 5.86026 13.2369C5.88434 13.1592 5.90421 13.0806 5.91987 13.0012C5.93613 12.9211 5.94817 12.8404 5.956 12.7591C5.96383 12.6784 5.96774 12.5974 5.96774 12.5161C5.96774 12.3975 5.95931 12.2795 5.94245 12.1621C5.92559 12.0446 5.9003 11.929 5.86658 11.8152C5.83346 11.702 5.79221 11.5912 5.74284 11.4828C5.69346 11.3751 5.63656 11.2715 5.57213 11.1721C5.5083 11.0722 5.43755 10.9773 5.35987 10.8876C5.28159 10.7985 5.19789 10.7151 5.10877 10.6374C5.01845 10.5597 4.92361 10.489 4.82426 10.4252C4.7243 10.3613 4.62043 10.3047 4.51265 10.2554C4.7246 8.81441 5.37101 7.55351 6.45187 6.47265C7.53996 5.38456 8.81049 4.73695 10.2635 4.52981C10.3129 4.63639 10.3698 4.73905 10.4342 4.83781C10.498 4.93656 10.5688 5.03049 10.6465 5.11961C10.7241 5.20813 10.8075 5.29062 10.8966 5.3671C10.9864 5.44417 11.0806 5.51432 11.1794 5.57755C11.2787 5.64077 11.3823 5.69677 11.4901 5.74555C11.5972 5.79432 11.7071 5.83527 11.8197 5.86839C11.9329 5.90151 12.048 5.92619 12.1648 5.94245C12.281 5.95931 12.3981 5.96774 12.5161 5.96774ZM11.3952 3.61935C11.4037 3.6868 11.4178 3.75333 11.4377 3.81897C11.4582 3.884 11.4843 3.94723 11.5163 4.00865C11.5476 4.06886 11.5846 4.12606 11.6274 4.18026C11.6695 4.23385 11.7162 4.28323 11.7674 4.32839C11.8185 4.37415 11.8733 4.4148 11.9317 4.45032C11.9901 4.48525 12.0516 4.51505 12.116 4.53974C12.1798 4.56383 12.2452 4.58189 12.312 4.59394C12.3794 4.60658 12.4475 4.6129 12.5161 4.6129C12.5529 4.6129 12.5899 4.6111 12.6272 4.60748C12.6634 4.60387 12.6995 4.59845 12.7356 4.59123C12.7723 4.584 12.8085 4.57497 12.844 4.56413C12.8795 4.55329 12.9141 4.54095 12.9479 4.5271C12.9822 4.51265 13.0156 4.49669 13.0481 4.47923C13.0806 4.46176 13.1123 4.4428 13.143 4.42232C13.1737 4.40185 13.2035 4.37987 13.2324 4.35639C13.2613 4.3329 13.2884 4.30822 13.3137 4.28232C13.3402 4.25583 13.3652 4.22843 13.3886 4.20013C13.4127 4.17183 13.4347 4.14202 13.4546 4.11071C13.4751 4.0806 13.494 4.04899 13.5115 4.01587C13.5295 3.98335 13.5455 3.95024 13.5594 3.91652C13.5732 3.88219 13.5855 3.84727 13.5964 3.81174C13.6072 3.77621 13.6163 3.74009 13.6235 3.70335C13.6307 3.66723 13.6361 3.6311 13.6397 3.59497C13.6434 3.55763 13.6452 3.5206 13.6452 3.48387C13.6452 3.44714 13.6434 3.41011 13.6397 3.37277C13.6361 3.33665 13.6307 3.30052 13.6235 3.26439C13.6163 3.22766 13.6072 3.19153 13.5964 3.156C13.5855 3.12047 13.5732 3.08585 13.5594 3.05213C13.5449 3.01781 13.5289 2.98439 13.5115 2.95187C13.494 2.91935 13.4751 2.88774 13.4546 2.85703C13.4341 2.82572 13.4121 2.79591 13.3886 2.76761C13.3652 2.73931 13.3405 2.71222 13.3146 2.68632C13.2887 2.65983 13.2613 2.63484 13.2324 2.61135C13.2041 2.58727 13.1746 2.56529 13.1439 2.54542C13.1126 2.52495 13.0806 2.50598 13.0481 2.48852C13.0156 2.47045 12.9825 2.45449 12.9488 2.44065C12.9145 2.4268 12.8795 2.41445 12.844 2.40361C12.8085 2.39277 12.7723 2.38374 12.7356 2.37652C12.6995 2.36929 12.6634 2.36387 12.6272 2.36026C12.5893 2.35665 12.5523 2.35484 12.5161 2.35484C12.4475 2.35484 12.3794 2.36086 12.312 2.3729C12.2452 2.38555 12.1798 2.40391 12.116 2.428C12.0516 2.45209 11.9901 2.48219 11.9317 2.51832C11.8733 2.55325 11.8185 2.59359 11.7674 2.63935C11.7162 2.68452 11.6695 2.73419 11.6274 2.78839C11.5852 2.84258 11.5482 2.89978 11.5163 2.96C11.4843 3.02022 11.4582 3.08314 11.4377 3.14877C11.4178 3.21441 11.4037 3.28095 11.3952 3.34839V3.61935ZM3.48387 11.3871C3.5206 11.3871 3.55763 11.3889 3.59497 11.3925C3.6311 11.3961 3.66723 11.4015 3.70335 11.4088C3.74009 11.416 3.77621 11.425 3.81174 11.4359C3.84727 11.4467 3.88189 11.4591 3.91561 11.4729C3.94994 11.4874 3.98335 11.5033 4.01587 11.5208C4.04839 11.5382 4.08 11.5572 4.11071 11.5777C4.14202 11.5982 4.17183 11.6201 4.20013 11.6436C4.22843 11.6671 4.25553 11.6918 4.28142 11.7177C4.30791 11.7436 4.3329 11.771 4.35639 11.7999C4.38047 11.8282 4.40245 11.8577 4.42232 11.8884C4.4428 11.9197 4.46176 11.9516 4.47923 11.9841C4.49729 12.0166 4.51325 12.0498 4.5271 12.0835C4.54095 12.1178 4.55329 12.1527 4.56413 12.1883C4.57497 12.2238 4.584 12.2599 4.59123 12.2966C4.59845 12.3328 4.60387 12.3689 4.60748 12.405C4.6111 12.4424 4.6129 12.4794 4.6129 12.5161C4.6129 12.5529 4.6111 12.5899 4.60748 12.6272C4.60387 12.6634 4.59845 12.6995 4.59123 12.7356C4.584 12.7723 4.57497 12.8085 4.56413 12.844C4.55329 12.8795 4.54095 12.9141 4.5271 12.9479C4.51265 12.9822 4.49669 13.0156 4.47923 13.0481C4.46176 13.0806 4.4428 13.1123 4.42232 13.143C4.40185 13.1737 4.37987 13.2035 4.35639 13.2324C4.3329 13.2613 4.30822 13.2884 4.28232 13.3137C4.25583 13.3402 4.22843 13.3652 4.20013 13.3886C4.17183 13.4127 4.14202 13.4347 4.11071 13.4546C4.0806 13.4751 4.04899 13.494 4.01587 13.5115C3.98335 13.5295 3.95024 13.5455 3.91652 13.5594C3.88219 13.5732 3.84727 13.5855 3.81174 13.5964C3.77621 13.6072 3.74009 13.6163 3.70335 13.6235C3.66723 13.6307 3.6311 13.6361 3.59497 13.6397C3.55763 13.6434 3.5206 13.6452 3.48387 13.6452C3.44714 13.6452 3.41011 13.6434 3.37277 13.6397C3.33665 13.6361 3.30052 13.6307 3.26439 13.6235C3.22766 13.6163 3.19153 13.6072 3.156 13.5964C3.12047 13.5855 3.08585 13.5732 3.05213 13.5594C3.01781 13.5449 2.98439 13.5289 2.95187 13.5115C2.91935 13.494 2.88774 13.4751 2.85703 13.4546C2.82572 13.4341 2.79591 13.4121 2.76761 13.3886C2.73931 13.3652 2.71222 13.3405 2.68632 13.3146C2.65983 13.2887 2.63484 13.2613 2.61135 13.2324C2.58727 13.2041 2.56529 13.1746 2.54542 13.1439C2.52495 13.1126 2.50598 13.0806 2.48852 13.0481C2.47045 13.0156 2.45449 12.9825 2.44065 12.9488C2.4268 12.9145 2.41445 12.8795 2.40361 12.844C2.39277 12.8085 2.38374 12.7723 2.37652 12.7356C2.36929 12.6995 2.36387 12.6634 2.36026 12.6272C2.35665 12.5893 2.35484 12.5523 2.35484 12.5161C2.35484 12.48 2.35665 12.443 2.36026 12.405C2.36387 12.3689 2.36929 12.3328 2.37652 12.2966C2.38374 12.2599 2.39277 12.2238 2.40361 12.1883C2.41445 12.1527 2.4268 12.1181 2.44065 12.0844C2.4551 12.0501 2.47105 12.0166 2.48852 11.9841C2.50598 11.9516 2.52495 11.92 2.54542 11.8893C2.56589 11.8586 2.58787 11.8288 2.61135 11.7999C2.63484 11.771 2.65953 11.7439 2.68542 11.7186C2.71191 11.6921 2.73931 11.6671 2.76761 11.6436C2.79591 11.6195 2.82572 11.5975 2.85703 11.5777C2.88714 11.5572 2.91875 11.5382 2.95187 11.5208C2.98439 11.5027 3.01751 11.4868 3.05123 11.4729C3.08555 11.4591 3.12047 11.4467 3.156 11.4359C3.19153 11.425 3.22766 11.416 3.26439 11.4088C3.30052 11.4015 3.33665 11.3961 3.37277 11.3925C3.41011 11.3889 3.44714 11.3871 3.48387 11.3871Z" fill="currentColor"/>
</svg>
