<svg width="16" height="16" viewBox="0 0 16 16" fill="none" xmlns="http://www.w3.org/2000/svg">
<path fill-rule="evenodd" clip-rule="evenodd" d="M4.324 12.9659L4.33788 12.984C4.82408 13.6187 5.42998 14.1133 6.15558 14.468C6.8818 14.8227 7.65059 15 8.46196 15H9.74842C11.0608 15 12.1807 14.5472 13.108 13.6415C14.036 12.7365 14.5 11.6436 14.5 10.3628V4.94529C14.5 4.45755 14.3235 4.04146 13.9706 3.69703C13.6177 3.3526 13.1913 3.18039 12.6915 3.18039V3.18039C12.4349 3.18039 12.187 3.02408 12.0613 2.8003C11.9789 2.65355 11.8725 2.5165 11.742 2.38916C11.389 2.04473 10.963 1.87252 10.4638 1.87252C10.4471 1.87252 10.4305 1.87271 10.414 1.87309C10.0868 1.88072 9.74898 1.74562 9.51427 1.51755V1.51755C9.16134 1.17252 8.73499 1 8.23521 1C7.73605 1 7.31001 1.17222 6.95708 1.51665C6.82649 1.64409 6.72006 1.78133 6.63779 1.92837C6.51253 2.15226 6.26497 2.30877 6.00843 2.30877V2.30877C5.50865 2.30877 5.0823 2.48099 4.72937 2.82542C4.37582 3.16985 4.19905 3.58563 4.19905 4.07277V6.24231C4.19905 6.53478 3.87795 6.73468 3.58821 6.69484V6.69484C3.08782 6.62499 2.63555 6.73849 2.23141 7.03535C1.83838 7.32378 1.60299 7.70495 1.52525 8.17884C1.4475 8.65333 1.54931 9.08748 1.83067 9.48129L4.324 12.9659ZM7.81595 4.07277V6.65193C7.81595 7.03529 7.50518 7.34606 7.12182 7.34606V7.34606C6.73846 7.34606 6.42768 7.03529 6.42768 6.65193V4.07277C6.42768 3.95957 6.38665 3.86323 6.30459 3.78374C6.22253 3.70305 6.12381 3.66271 6.00843 3.66271C5.89181 3.66271 5.79247 3.70275 5.71041 3.78284C5.62835 3.86292 5.58732 3.95957 5.58732 4.07277V7.98831C5.58732 8.38524 5.3318 8.73706 4.95434 8.85985V8.85985C4.5849 8.98003 4.17983 8.85423 3.94347 8.54591L3.68076 8.20323C3.60857 8.10869 3.51232 8.05299 3.392 8.03613C3.27169 8.01927 3.16309 8.04637 3.06622 8.11742C2.9712 8.18727 2.91444 8.2791 2.89593 8.3929C2.87742 8.50731 2.9021 8.61148 2.96997 8.70542L5.4559 12.181C5.81006 12.6405 6.2506 12.9988 6.77753 13.2559C7.30815 13.5154 7.86963 13.6452 8.46196 13.6452H9.74842C10.677 13.6452 11.4699 13.3248 12.127 12.6841C12.7835 12.0428 13.1117 11.2691 13.1117 10.3628V4.94529C13.1117 4.83209 13.0707 4.73544 12.9886 4.65535C12.9066 4.57527 12.8079 4.53523 12.6925 4.53523C12.5759 4.53523 12.4765 4.57527 12.3945 4.65535C12.313 4.73544 12.2723 4.83178 12.2723 4.94439V6.65193C12.2723 7.03529 11.9615 7.34606 11.5782 7.34606V7.34606C11.1948 7.34606 10.884 7.03529 10.884 6.65193V3.63652C10.884 3.52331 10.843 3.42697 10.7609 3.34748C10.6789 3.2674 10.5798 3.22735 10.4638 3.22735C10.3478 3.22735 10.2491 3.2671 10.1677 3.34658C10.085 3.42667 10.0437 3.52331 10.0437 3.63652V6.65193C10.0437 7.03529 9.73289 7.34606 9.34953 7.34606V7.34606C8.96617 7.34606 8.65539 7.03529 8.65539 6.65193V2.7649C8.65539 2.6517 8.61436 2.55505 8.5323 2.47497C8.45024 2.39488 8.35152 2.35484 8.23614 2.35484C8.12014 2.35484 8.02111 2.39488 7.93905 2.47497C7.85698 2.55505 7.81595 2.6514 7.81595 2.764V4.07277Z" fill="currentColor"/>
</svg>
