<svg width="16" height="16" viewBox="0 0 16 16" fill="none" xmlns="http://www.w3.org/2000/svg">
    <path fill-rule="evenodd" clip-rule="evenodd" d="M10 6.00001V6.00001C10 6.62702 10.0333 7.32631 10.4767 7.76967L13.9995 11.2925C14.1948 11.4878 14.1949 11.8044 13.9997 11.9998V11.9998C13.8044 12.1954 13.4875 12.1955 13.292 12L9.76941 8.47743C9.32591 8.03392 8.62721 8.00156 8 8.00001V8.00001V8.00001C7.37276 8.00102 6.67391 8.0331 6.23039 8.47662L2.7075 11.9995C2.51222 12.1948 2.19566 12.1949 2.00025 11.9998V11.9998C1.80464 11.8044 1.80453 11.4875 2 11.292L5.62686 7.66515C6.00909 7.28291 6.04446 6.68637 6.00526 6.14723V6.14723C5.98297 5.84068 6.03164 5.53312 6.14748 5.24843C6.26332 4.96373 6.44321 4.70957 6.6732 4.50567C6.90318 4.30177 7.17707 4.15362 7.47359 4.07272C7.77011 3.99182 8.08128 3.98035 8.38296 4.0392C8.68463 4.09806 8.96867 4.22565 9.21304 4.41207C9.45741 4.59849 9.65553 4.83872 9.79201 5.11411C9.92849 5.38951 9.99966 5.69265 10 6.00001ZM9 6.00001C9 6.09094 8.98942 6.17725 8.96828 6.25893C8.96813 6.25949 8.96751 6.25977 8.96699 6.25951V6.25951C8.96648 6.25925 8.96586 6.25953 8.96571 6.26009C8.94305 6.34436 8.90981 6.42433 8.866 6.50001C8.822 6.57601 8.769 6.64501 8.707 6.70701C8.645 6.76901 8.576 6.82201 8.5 6.86601C8.4244 6.90978 8.34452 6.94299 8.26036 6.96565C8.25975 6.96581 8.25955 6.96656 8.25999 6.96701V6.96701C8.26044 6.96745 8.26023 6.96821 8.25962 6.96837C8.17736 6.98946 8.09082 7.00001 8 7.00001C7.90907 7.00001 7.82276 6.98944 7.74108 6.96829C7.74052 6.96815 7.74024 6.96752 7.7405 6.96701V6.96701C7.74076 6.96649 7.74048 6.96587 7.73992 6.96572C7.65565 6.94306 7.57567 6.90983 7.5 6.86601C7.424 6.82201 7.355 6.76901 7.293 6.70701C7.231 6.64501 7.178 6.57601 7.134 6.50001C7.09023 6.42442 7.05702 6.34454 7.03436 6.26037C7.0342 6.25977 7.03344 6.25956 7.033 6.26001V6.26001C7.03256 6.26045 7.0318 6.26024 7.03164 6.25964C7.01054 6.17738 7 6.09084 7 6.00001C7 5.72468 7.09666 5.48968 7.29 5.29501L7.295 5.29101C7.48966 5.09701 7.72466 5.00001 8 5.00001C8.27533 5.00001 8.51033 5.09668 8.705 5.29001L8.709 5.29501C8.903 5.48968 9 5.72468 9 6.00001Z" fill="currentColor" />
</svg>
    