<svg width="16" height="16" viewBox="0 0 16 16" fill="none" xmlns="http://www.w3.org/2000/svg">
    <path fill-rule="evenodd" clip-rule="evenodd" d="M8 5.5V5.5C8 5.65059 8.08157 5.79402 8.22139 5.84994L13.0323 7.77394C13.1533 7.82233 13.2893 7.78395 13.393 7.705V7.705C13.4503 7.661 13.512 7.62367 13.578 7.593C13.6447 7.56233 13.7133 7.539 13.784 7.523C13.8553 7.50767 13.9273 7.5 14 7.5C14.0653 7.5 14.1303 7.50667 14.195 7.52C14.2597 7.532 14.3223 7.55067 14.383 7.576C14.443 7.60133 14.5007 7.63233 14.556 7.669C14.6107 7.705 14.661 7.74633 14.707 7.793C14.7537 7.83967 14.795 7.89 14.831 7.944C14.8677 7.99867 14.8987 8.05633 14.924 8.117C14.9493 8.17767 14.9683 8.24033 14.981 8.305C14.9937 8.36967 15 8.43467 15 8.5C15 8.56533 14.9933 8.63033 14.98 8.695C14.968 8.75967 14.9493 8.82233 14.924 8.883C14.8987 8.943 14.868 9.00067 14.832 9.056C14.7953 9.11 14.7537 9.16033 14.707 9.207C14.6603 9.25367 14.61 9.295 14.556 9.331C14.5013 9.36767 14.4437 9.39867 14.383 9.424C14.3223 9.44933 14.2597 9.46833 14.195 9.481C14.1303 9.49367 14.0653 9.5 14 9.5C13.95 9.5 13.9003 9.49633 13.851 9.489C13.8017 9.48167 13.753 9.47067 13.705 9.456C13.6577 9.44133 13.6113 9.423 13.566 9.401C13.5213 9.37967 13.4783 9.355 13.437 9.327C13.3957 9.29833 13.3567 9.267 13.32 9.233C13.2833 9.19967 13.2497 9.16333 13.219 9.124C13.1877 9.08533 13.1593 9.04433 13.134 9.001V9.001C13.0866 8.91778 13.0182 8.84567 12.9293 8.81011V8.81011C12.5155 8.64458 12.1521 9.2651 12.4936 9.55148C13.1625 10.1126 13.749 10.653 14.253 11.1729C14.5613 11.4907 14.3277 12 13.8849 12V12C13.7413 12 13.6046 11.9408 13.5045 11.8379C12.1623 10.4576 10.1969 8.91415 7.60837 7.20763C7.43215 7.09145 7.20272 7.11262 7.021 7.22V7.22C6.91833 7.28133 6.81133 7.33267 6.7 7.374C6.588 7.416 6.47333 7.44733 6.356 7.468C6.238 7.48933 6.11933 7.5 6 7.5C5.84933 7.5 5.70033 7.48333 5.553 7.45C5.40633 7.416 5.265 7.366 5.129 7.3C4.993 7.23467 4.86633 7.15467 4.749 7.06V7.06C4.55563 6.90596 4.27388 6.86961 4.09698 7.04231C3.90438 7.23033 3.71706 7.43956 3.535 7.67C2.61988 8.82895 2.11394 10.1057 2.01717 11.5003C1.99805 11.7758 1.77614 12 1.5 12V12C1.22386 12 0.998302 11.7758 1.01667 11.5003C1.15152 9.47747 2.08802 7.69167 3.22208 6.50625C3.39584 6.32462 3.2726 6 3.02123 6V6C2.92516 6 2.83858 6.0531 2.77821 6.12784C2.75597 6.15538 2.73223 6.18177 2.707 6.207C2.645 6.269 2.576 6.322 2.5 6.366C2.424 6.41 2.34367 6.44333 2.259 6.466C2.17433 6.48867 2.088 6.5 2 6.5C1.93467 6.5 1.86967 6.49333 1.805 6.48C1.74033 6.468 1.67767 6.44933 1.617 6.424C1.557 6.39867 1.49933 6.36767 1.444 6.331C1.39 6.295 1.33967 6.25367 1.293 6.207C1.24633 6.16033 1.205 6.11 1.169 6.056C1.13233 6.00133 1.10133 5.94367 1.076 5.883C1.05067 5.82233 1.03167 5.75967 1.019 5.695C1.00633 5.63033 1 5.56533 1 5.5C1 5.43467 1.00667 5.36967 1.02 5.305C1.032 5.24033 1.05067 5.17767 1.076 5.117C1.10133 5.057 1.13233 4.99933 1.169 4.944C1.205 4.89 1.24633 4.83967 1.293 4.793C1.33967 4.74633 1.39 4.705 1.444 4.669C1.49867 4.63233 1.55633 4.60133 1.617 4.576C1.67767 4.55067 1.74033 4.53167 1.805 4.519C1.86967 4.50633 1.93467 4.5 2 4.5C2.088 4.5 2.17433 4.51133 2.259 4.534C2.34367 4.55667 2.424 4.59 2.5 4.634C2.576 4.678 2.645 4.731 2.707 4.793V4.793C2.82156 4.90756 2.96575 5 3.12776 5H3.73528C3.92847 5 4.09223 4.86596 4.172 4.69V4.69C4.21667 4.58867 4.269 4.492 4.329 4.4C4.38967 4.308 4.45767 4.22167 4.533 4.141C4.60767 4.06033 4.68833 3.98633 4.775 3.919C4.86167 3.85167 4.95367 3.79167 5.051 3.739C5.14833 3.687 5.249 3.64333 5.353 3.608C5.457 3.572 5.56333 3.54533 5.672 3.528C5.78067 3.50933 5.89 3.5 6 3.5C6.06533 3.5 6.13067 3.50333 6.196 3.51C6.26133 3.51667 6.326 3.526 6.39 3.538C6.45467 3.55133 6.518 3.56733 6.58 3.586C6.64333 3.60533 6.705 3.62733 6.765 3.652C6.82567 3.67733 6.885 3.70533 6.943 3.736C7.00033 3.76667 7.05633 3.80033 7.111 3.837C7.16567 3.87367 7.21833 3.91267 7.269 3.954C7.31967 3.99533 7.368 4.03933 7.414 4.086C7.46067 4.13267 7.50467 4.181 7.546 4.231C7.58733 4.28167 7.62633 4.33433 7.663 4.389C7.69967 4.44367 7.733 4.49967 7.763 4.557C7.79433 4.615 7.82267 4.67433 7.848 4.735C7.87267 4.795 7.89467 4.85633 7.914 4.919C7.93267 4.98167 7.94867 5.045 7.962 5.109C7.97467 5.17367 7.984 5.23867 7.99 5.304C7.99667 5.36933 8 5.43467 8 5.5ZM6 6.5C6.06533 6.5 6.13033 6.49333 6.195 6.48C6.25967 6.468 6.32233 6.44933 6.383 6.424C6.443 6.39867 6.50067 6.36767 6.556 6.331C6.61 6.295 6.66033 6.25367 6.707 6.207C6.75367 6.16033 6.795 6.11 6.831 6.056C6.86767 6.00133 6.89867 5.94367 6.924 5.883C6.94933 5.82233 6.96833 5.75967 6.981 5.695C6.99367 5.63033 7 5.56533 7 5.5C7 5.43467 6.99333 5.36967 6.98 5.305C6.968 5.24033 6.94933 5.17767 6.924 5.117C6.89867 5.057 6.86767 4.99933 6.831 4.944C6.795 4.89 6.75367 4.83967 6.707 4.793C6.66033 4.74633 6.61 4.705 6.556 4.669C6.50133 4.63233 6.44367 4.60133 6.383 4.576C6.32233 4.55067 6.25967 4.53167 6.195 4.519C6.13033 4.50633 6.06533 4.5 6 4.5C5.93467 4.5 5.86967 4.50667 5.805 4.52C5.74033 4.532 5.67767 4.55067 5.617 4.576C5.557 4.60133 5.49933 4.63233 5.444 4.669C5.39 4.705 5.33967 4.74633 5.293 4.793C5.24633 4.83967 5.205 4.89 5.169 4.944C5.13233 4.99867 5.10133 5.05633 5.076 5.117C5.05067 5.17767 5.03167 5.24033 5.019 5.305C5.00633 5.36967 5 5.43467 5 5.5C5 5.56533 5.00667 5.63033 5.02 5.695C5.032 5.75967 5.05067 5.82233 5.076 5.883C5.10133 5.943 5.13233 6.00067 5.169 6.056C5.205 6.11 5.24633 6.16033 5.293 6.207C5.33967 6.25367 5.39 6.295 5.444 6.331C5.49867 6.36767 5.55633 6.39867 5.617 6.424C5.67767 6.44933 5.74033 6.46833 5.805 6.481C5.86967 6.49367 5.93467 6.5 6 6.5Z" fill="currentColor"/>
</svg>
