<svg width="16" height="16" viewBox="0 0 16 16" fill="none" xmlns="http://www.w3.org/2000/svg">
<path d="M2.99993 12.5C1.34081 6.39084 5.64226 1.01844 12.4999 3" stroke="currentColor" stroke-opacity="0.3" stroke-width="1.4" stroke-linecap="round"/>
<path d="M13 5C14.1046 5 15 4.10457 15 3C15 1.89543 14.1046 1 13 1C11.8954 1 11 1.89543 11 3C11 4.10457 11.8954 5 13 5Z" fill="currentColor"/>
<path d="M3 15C4.1046 15 5 14.1046 5 13C5 11.8954 4.1046 11 3 11C1.8954 11 1 11.8954 1 13C1 14.1046 1.8954 15 3 15Z" fill="currentColor"/>
</svg>
