<svg width="16" height="16" viewBox="0 0 16 16" fill="none" xmlns="http://www.w3.org/2000/svg">
    <path fill-rule="evenodd" clip-rule="evenodd" d="M13.293 4.793C13.1784 4.90756 13.0342 5 12.8722 5H10.2647C10.0715 5 9.90777 4.86596 9.828 4.69V4.69C9.78333 4.58867 9.731 4.492 9.671 4.4C9.61033 4.308 9.54267 4.22167 9.468 4.141C9.39267 4.06033 9.31167 3.98633 9.225 3.919C9.13833 3.85167 9.04633 3.79167 8.949 3.739C8.85167 3.687 8.751 3.64333 8.647 3.608C8.543 3.572 8.43667 3.54533 8.328 3.528C8.21933 3.50933 8.11 3.5 8 3.5C7.89 3.5 7.78067 3.509 7.672 3.527C7.56333 3.545 7.45667 3.57167 7.352 3.607C7.24867 3.643 7.14867 3.687 7.052 3.739C6.95467 3.79167 6.86233 3.85167 6.775 3.919C6.68833 3.98633 6.60733 4.06033 6.532 4.141C6.45733 4.22167 6.39 4.30833 6.33 4.401C6.26933 4.49233 6.21667 4.58833 6.172 4.689V4.689C6.09334 4.86629 5.92836 5 5.7344 5H3.12776C2.96575 5 2.82156 4.90756 2.707 4.793V4.793C2.645 4.731 2.576 4.678 2.5 4.634C2.424 4.59 2.34367 4.55667 2.259 4.534C2.17433 4.51133 2.088 4.5 2 4.5C1.93467 4.5 1.86967 4.50667 1.805 4.52C1.74033 4.532 1.67767 4.55067 1.617 4.576C1.557 4.60133 1.49933 4.63233 1.444 4.669C1.39 4.705 1.33967 4.74633 1.293 4.793C1.24633 4.83967 1.205 4.89 1.169 4.944C1.13233 4.99867 1.10133 5.05633 1.076 5.117C1.05067 5.17767 1.03167 5.24033 1.019 5.305C1.00633 5.36967 1 5.43467 1 5.5C1 5.56533 1.00667 5.63033 1.02 5.695C1.032 5.75967 1.05067 5.82233 1.076 5.883C1.10133 5.943 1.13233 6.00067 1.169 6.056C1.205 6.11 1.24633 6.16033 1.293 6.207C1.33967 6.25367 1.39 6.295 1.444 6.331C1.49867 6.36767 1.55633 6.39867 1.617 6.424C1.67767 6.44933 1.74033 6.46833 1.805 6.481C1.86967 6.49367 1.93467 6.5 2 6.5C2.088 6.5 2.17433 6.48867 2.259 6.466C2.34367 6.44333 2.424 6.41 2.5 6.366C2.576 6.322 2.645 6.269 2.707 6.207C2.71907 6.19493 2.7308 6.18259 2.74219 6.16999C2.82962 6.07324 2.94629 6 3.07668 6H3.94401C4.07056 6 4.12007 6.172 4.016 6.244V6.244C3.89267 6.33 3.772 6.41933 3.654 6.512C3.536 6.60533 3.42133 6.70233 3.31 6.803C3.19867 6.90367 3.09067 7.008 2.986 7.116C2.88067 7.22333 2.77933 7.334 2.682 7.448C2.584 7.562 2.49 7.67933 2.4 7.8C2.31 7.92 2.224 8.04267 2.142 8.168C2.05933 8.29467 1.981 8.423 1.907 8.553C1.83367 8.68367 1.764 8.817 1.698 8.953C1.63267 9.08767 1.57167 9.22433 1.515 9.363C1.459 9.503 1.407 9.644 1.359 9.786C1.31167 9.92867 1.269 10.0727 1.231 10.218C1.19233 10.3633 1.159 10.5097 1.131 10.657C1.10167 10.8043 1.07733 10.9523 1.058 11.101C1.03867 11.2503 1.024 11.4 1.014 11.55V11.55C0.998556 11.7982 1.2016 12 1.45029 12H1.52749C1.78845 12 1.99806 11.7881 2.019 11.528V11.528C2.031 11.3713 2.04933 11.215 2.074 11.059C2.09867 10.9037 2.12967 10.7493 2.167 10.596C2.20367 10.4427 2.24633 10.2913 2.295 10.142C2.34367 9.992 2.39833 9.84433 2.459 9.699C2.519 9.55367 2.585 9.41067 2.657 9.27C2.72833 9.13 2.80533 8.993 2.888 8.859C2.97067 8.72433 3.05833 8.59333 3.151 8.466C3.24367 8.33933 3.34133 8.216 3.444 8.096C3.546 7.976 3.65267 7.86067 3.764 7.75C3.876 7.63867 3.992 7.532 4.112 7.43C4.232 7.328 4.356 7.23067 4.484 7.138C4.61133 7.046 4.74233 6.959 4.877 6.877C5.011 6.795 5.14833 6.71833 5.289 6.647C5.42967 6.57633 5.573 6.511 5.719 6.451C5.77454 6.42807 5.83042 6.40597 5.88665 6.38469C6.04131 6.32617 6.20959 6.40601 6.296 6.547V6.547C6.34667 6.62967 6.40333 6.70833 6.466 6.783C6.52867 6.85767 6.59633 6.92767 6.669 6.993C6.741 7.05767 6.81767 7.11667 6.899 7.17C6.98033 7.22333 7.065 7.27067 7.153 7.312C7.24167 7.35333 7.33233 7.388 7.425 7.416C7.51833 7.444 7.61333 7.465 7.71 7.479C7.806 7.493 7.90267 7.5 8 7.5C8.09733 7.5 8.194 7.493 8.29 7.479C8.38667 7.465 8.48167 7.444 8.575 7.416C8.66833 7.388 8.759 7.35333 8.847 7.312C8.935 7.27067 9.01967 7.22333 9.101 7.17C9.18233 7.11667 9.259 7.05733 9.331 6.992C9.40433 6.92733 9.472 6.85767 9.534 6.783C9.59667 6.70833 9.65333 6.62967 9.704 6.547V6.547C9.79041 6.40601 9.9587 6.32617 10.1134 6.38469C10.1696 6.40597 10.2255 6.42807 10.281 6.451C10.427 6.511 10.5703 6.57633 10.711 6.647C10.851 6.71833 10.9883 6.795 11.123 6.877C11.2577 6.959 11.3887 7.046 11.516 7.138C11.644 7.23067 11.768 7.328 11.888 7.43C12.008 7.532 12.1237 7.63867 12.235 7.75C12.347 7.86133 12.454 7.97667 12.556 8.096C12.6587 8.216 12.7563 8.33933 12.849 8.466C12.9423 8.59333 13.03 8.72433 13.112 8.859C13.1947 8.993 13.2717 9.13 13.343 9.27C13.415 9.41 13.481 9.553 13.541 9.699C13.601 9.84433 13.6557 9.992 13.705 10.142C13.7537 10.292 13.7967 10.4433 13.834 10.596C13.8707 10.7493 13.9013 10.9037 13.926 11.059C13.9507 11.215 13.969 11.3717 13.981 11.529V11.529C14.002 11.7886 14.2111 12 14.4715 12H14.5497C14.7984 12 15.0014 11.7982 14.986 11.55V11.55C14.976 11.4 14.9613 11.2503 14.942 11.101C14.9227 10.9523 14.8987 10.8043 14.87 10.657C14.8413 10.5097 14.808 10.363 14.77 10.217C14.7313 10.0723 14.688 9.929 14.64 9.787C14.5933 9.64367 14.5417 9.50267 14.485 9.364C14.4283 9.22467 14.3673 9.08733 14.302 8.952C14.2367 8.81667 14.1667 8.68367 14.092 8.553C14.0187 8.42233 13.9407 8.294 13.858 8.168C13.776 8.04267 13.69 7.92 13.6 7.8C13.5093 7.68 13.4153 7.56267 13.318 7.448C13.2207 7.334 13.1193 7.22333 13.014 7.116C12.9093 7.008 12.8013 6.90367 12.69 6.803C12.5787 6.703 12.464 6.60633 12.346 6.513C12.228 6.41967 12.1073 6.33 11.984 6.244V6.244C11.8799 6.172 11.9294 6 12.056 6H12.9233C13.0537 6 13.1704 6.07324 13.2578 6.16999C13.2692 6.18259 13.2809 6.19493 13.293 6.207C13.355 6.269 13.424 6.322 13.5 6.366C13.576 6.41 13.6563 6.44333 13.741 6.466C13.8257 6.48867 13.912 6.5 14 6.5C14.0653 6.5 14.1303 6.49333 14.195 6.48C14.2597 6.468 14.3223 6.44933 14.383 6.424C14.443 6.39867 14.5007 6.36767 14.556 6.331C14.6107 6.295 14.661 6.25367 14.707 6.207C14.7537 6.16033 14.795 6.11 14.831 6.056C14.8677 6.00133 14.8987 5.94367 14.924 5.883C14.9493 5.82233 14.9683 5.75967 14.981 5.695C14.9937 5.63033 15 5.56533 15 5.5C15 5.43467 14.9933 5.36967 14.98 5.305C14.968 5.24033 14.9493 5.17767 14.924 5.117C14.8987 5.057 14.868 4.99933 14.832 4.944C14.7953 4.89 14.7537 4.83967 14.707 4.793C14.6603 4.74633 14.61 4.705 14.556 4.669C14.5013 4.63233 14.4437 4.60133 14.383 4.576C14.3223 4.55067 14.2597 4.53167 14.195 4.519C14.1303 4.50633 14.0653 4.5 14 4.5C13.912 4.5 13.8257 4.51133 13.741 4.534C13.6563 4.55667 13.576 4.59 13.5 4.634C13.424 4.678 13.355 4.731 13.293 4.793V4.793ZM8 6.5C8.06533 6.5 8.13033 6.49333 8.195 6.48C8.25967 6.468 8.32233 6.44933 8.383 6.424C8.443 6.39867 8.50067 6.36767 8.556 6.331C8.61 6.295 8.66033 6.25367 8.707 6.207C8.75367 6.16033 8.795 6.11 8.831 6.056C8.86767 6.00133 8.89867 5.94367 8.924 5.883C8.94933 5.82233 8.96833 5.75967 8.981 5.695C8.99367 5.63033 9 5.56533 9 5.5C9 5.43467 8.99333 5.36967 8.98 5.305C8.968 5.24033 8.94933 5.17767 8.924 5.117C8.89867 5.057 8.86767 4.99933 8.831 4.944C8.795 4.89 8.75367 4.83967 8.707 4.793C8.66033 4.74633 8.61 4.705 8.556 4.669C8.50133 4.63233 8.44367 4.60133 8.383 4.576C8.32233 4.55067 8.25967 4.53167 8.195 4.519C8.13033 4.50633 8.06533 4.5 8 4.5C7.93467 4.5 7.86967 4.50667 7.805 4.52C7.74033 4.532 7.67767 4.55067 7.617 4.576C7.557 4.60133 7.49933 4.63233 7.444 4.669C7.39 4.705 7.33967 4.74633 7.293 4.793C7.24633 4.83967 7.205 4.89 7.169 4.944C7.13233 4.99867 7.10133 5.05633 7.076 5.117C7.05067 5.17767 7.03167 5.24033 7.019 5.305C7.00633 5.36967 7 5.43467 7 5.5C7 5.56533 7.00667 5.63033 7.02 5.695C7.032 5.75967 7.05067 5.82233 7.076 5.883C7.10133 5.943 7.13233 6.00067 7.169 6.056C7.205 6.11 7.24633 6.16033 7.293 6.207C7.33967 6.25367 7.39 6.295 7.444 6.331C7.49867 6.36767 7.55633 6.39867 7.617 6.424C7.67767 6.44933 7.74033 6.46833 7.805 6.481C7.86967 6.49367 7.93467 6.5 8 6.5Z" fill="currentColor"/>
</svg>
