<svg xmlns="http://www.w3.org/2000/svg" xmlns:xlink="http://www.w3.org/1999/xlink" fill="none" version="1.1" width="16" height="16" viewBox="0 0 16 16"><g><g><path d="M8.66664298828125,2.0000028764648436C8.66664298828125,1.6318128764648439,8.36818298828125,1.3333358764648438,7.99998298828125,1.3333358764648438C7.63178298828125,1.3333358764648438,7.33331298828125,1.6318128764648439,7.33331298828125,2.0000028764648436L7.33334298828125,2.7079258764648437C4.92083298828125,3.008745876464844,3.00870298828125,4.920885876464844,2.70790298828125,7.333405876464844L1.99997998828125,7.333335876464844C1.63178998828125,7.333335876464844,1.33331298828125,7.631805876464844,1.33331298828125,8.000005876464844C1.33331298828125,8.368205876464843,1.63178998828125,8.666665876464844,1.99997998828125,8.666665876464844L2.70798298828125,8.667265876464842C3.00906298828125,11.079465876464845,4.92105298828125,12.991235876464843,7.33334298828125,13.292035876464844L7.33331298828125,14.000035876464844C7.33331298828125,14.368235876464844,7.63178298828125,14.666635876464843,7.99998298828125,14.666635876464843C8.36818298828125,14.666635876464843,8.66664298828125,14.368235876464844,8.66664298828125,14.000035876464844L8.66731298828125,13.292035876464844C11.07931298828125,12.990935876464844,12.99101298828125,11.079205876464844,13.29201298828125,8.667205876464845L14.00001298828125,8.666665876464844C14.36821298828125,8.666665876464844,14.66661298828125,8.368205876464843,14.66661298828125,8.000005876464844C14.66661298828125,7.631805876464844,14.36821298828125,7.333335876464844,14.00001298828125,7.333335876464844L13.29201298828125,7.333455876464844C12.99131298828125,4.921135876464843,11.07951298828125,3.0091058764648437,8.66731298828125,2.708005876464844L8.66664298828125,2.0000028764648436ZM8.00000298828125,3.9999958764648436C5.79086298828125,3.9999958764648436,4.00000298828125,5.7908558764648435,4.00000298828125,7.999995876464844C4.00000298828125,10.209135876464844,5.79086298828125,12.000035876464844,8.00000298828125,12.000035876464844C10.20914298828125,12.000035876464844,12.00001298828125,10.209135876464844,12.00001298828125,7.999995876464844C12.00001298828125,5.7908558764648435,10.20914298828125,3.9999958764648436,8.00000298828125,3.9999958764648436ZM7.99998298828125,5.333335876464844C9.47274298828125,5.333335876464844,10.66664298828125,6.5272458764648436,10.66664298828125,8.000005876464844C10.66664298828125,9.472765876464845,9.47274298828125,10.666665876464844,7.99998298828125,10.666665876464844C6.52722298828125,10.666665876464844,5.33331298828125,9.472765876464845,5.33331298828125,8.000005876464844C5.33331298828125,6.5272458764648436,6.52722298828125,5.333335876464844,7.99998298828125,5.333335876464844Z" fill-rule="evenodd" fill="#FFFFFF" fill-opacity="1"/></g></g></svg>