<svg width="16" height="16" viewBox="0 0 16 16" fill="none" xmlns="http://www.w3.org/2000/svg">
<path d="M7.59971 4C4.97744 3.99925 3.57091 6.17688 2.50909 7.32969C2.36793 7.48286 2.36793 7.71871 2.50909 7.87188C3.57109 9.02487 4.97783 11.1998 7.59971 11.2016C10.2221 11.2032 11.6286 9.02462 12.6903 7.87188C12.8315 7.71871 12.8315 7.48286 12.6903 7.32969C11.6284 6.17677 10.2218 4.00075 7.59971 4ZM7.59971 4.8C7.96741 4.8 8.33151 4.87242 8.67122 5.01313C9.01093 5.15385 9.31961 5.36009 9.57962 5.62009C9.83962 5.8801 10.0459 6.18878 10.1866 6.52849C10.3273 6.8682 10.3997 7.2323 10.3997 7.6C10.3997 7.9677 10.3273 8.3318 10.1866 8.67151C10.0459 9.01122 9.83962 9.3199 9.57962 9.57991C9.31961 9.83991 9.01093 10.0462 8.67122 10.1869C8.33151 10.3276 7.96741 10.4 7.59971 10.4C7.23201 10.4 6.86791 10.3276 6.5282 10.1869C6.18849 10.0462 5.87981 9.83991 5.6198 9.57991C5.3598 9.3199 5.15356 9.01122 5.01284 8.67151C4.87213 8.3318 4.79971 7.9677 4.79971 7.6C4.79971 7.2323 4.87213 6.8682 5.01284 6.52849C5.15356 6.18878 5.3598 5.8801 5.6198 5.62009C5.87981 5.36009 6.18849 5.15385 6.5282 5.01313C6.86791 4.87242 7.23201 4.8 7.59971 4.8ZM7.59971 6.4C7.44212 6.4 7.2861 6.43103 7.14051 6.49133C6.99492 6.55164 6.86261 6.64003 6.75117 6.75147C6.63974 6.8629 6.55137 6.99518 6.49107 7.14077C6.43076 7.28636 6.39971 7.44241 6.39971 7.6C6.39971 7.75759 6.43076 7.91364 6.49107 8.05923C6.55137 8.20482 6.63974 8.33711 6.75117 8.44854C6.86261 8.55997 6.99492 8.64836 7.14051 8.70867C7.2861 8.76897 7.44212 8.8 7.59971 8.8C7.7573 8.8 7.91335 8.76897 8.05894 8.70867C8.20453 8.64836 8.33681 8.55997 8.44825 8.44854C8.55968 8.33711 8.64807 8.20482 8.70838 8.05923C8.76868 7.91364 8.79971 7.75759 8.79971 7.6C8.79971 7.44241 8.76868 7.28636 8.70838 7.14077C8.64807 6.99518 8.55968 6.8629 8.44825 6.75147C8.33681 6.64003 8.20453 6.55164 8.05894 6.49133C7.91335 6.43103 7.7573 6.4 7.59971 6.4Z" fill="white"/>
</svg>
