<svg width="16" height="16" viewBox="0 0 16 16" fill="none" xmlns="http://www.w3.org/2000/svg">
<path opacity="0.6" d="M2.80137 7.20001C2.72531 7.20463 2.65216 7.23088 2.59051 7.27567C2.52886 7.32046 2.48128 7.38191 2.45337 7.45282C2.42547 7.52373 2.41839 7.60115 2.43299 7.67594C2.44758 7.75073 2.48323 7.8198 2.53575 7.87501C3.59487 9.02555 5.00167 11.2016 7.61231 11.2016C10.223 11.2016 11.6313 9.02555 12.6904 7.87501C12.726 7.83633 12.7537 7.79102 12.7718 7.74166C12.7898 7.69231 12.798 7.63986 12.7959 7.58734C12.7937 7.53482 12.7812 7.48325 12.7591 7.43556C12.737 7.38787 12.7057 7.34499 12.667 7.30939C12.6283 7.27379 12.583 7.24615 12.5336 7.22806C12.4843 7.20998 12.4318 7.20179 12.3793 7.20397C12.3268 7.20614 12.2752 7.21865 12.2275 7.24076C12.1799 7.26287 12.137 7.29415 12.1014 7.33283C10.9529 8.58039 9.77652 10.4016 7.61231 10.4016C5.44811 10.4016 4.27169 8.58039 3.12325 7.33283C3.08307 7.28786 3.03326 7.25255 2.97752 7.22955C2.92178 7.20655 2.86156 7.19646 2.80137 7.20001Z" fill="white"/>
</svg>
