<svg width="16" height="16" viewBox="0 0 16 16" fill="none" xmlns="http://www.w3.org/2000/svg" class="_typeIcon_1cg0d_32" color="white"><path fill-rule="evenodd" clip-rule="evenodd" d="M1.68098 9.18098C1.5651 9.0651 1.5 8.90793 1.5 8.74406V8.74406C1.5 8.2863 1.75303 7.86604 2.15759 7.65187L10 3.5L12.5 6L8.43084 13.6862C8.16578 14.1869 7.64569 14.5 7.07919 14.5V14.5C7.02848 14.5 6.97986 14.4799 6.94401 14.444L1.68098 9.18098Z" stroke="currentColor" stroke-linejoin="round"></path><path d="M12.5 6L14.1464 4.35355C14.3728 4.12718 14.5 3.82014 14.5 3.5V3.5C14.5 3.17986 14.3728 2.87282 14.1464 2.64645L13.3536 1.85355C13.1272 1.62718 12.8201 1.5 12.5 1.5V1.5C12.1799 1.5 11.8728 1.62718 11.6464 1.85355L10 3.5" stroke="currentColor" stroke-linejoin="round"></path></svg>