<svg width="16" height="16" viewBox="0 0 16 16" fill="none" xmlns="http://www.w3.org/2000/svg" class="_typeIcon_1cg0d_32" color="white"><path fill-rule="evenodd" clip-rule="evenodd" d="M5.5 11.5V11.0186C5.5 10.0396 5.14466 9.0939 4.5 8.35714V8.35714C3.85534 7.62038 3.5 6.67468 3.5 5.69569V5.42857C3.5 3.25888 5.29086 1.5 7.5 1.5C9.70914 1.5 11.5 3.25888 11.5 5.42857V5.69569C11.5 6.67468 11.1447 7.62038 10.5 8.35714V8.35714C9.85534 9.0939 9.5 10.0396 9.5 11.0186V11.5H5.5Z" stroke="currentColor" stroke-linecap="round" stroke-linejoin="round"></path><path d="M5.5 11.5L5.5 13.5C5.5 14.0523 5.94772 14.5 6.5 14.5H8.5C9.05228 14.5 9.5 14.0523 9.5 13.5V11.5" stroke="currentColor" stroke-linecap="square"></path></svg>