<svg width="16" height="16" viewBox="0 0 16 16" fill="none" xmlns="http://www.w3.org/2000/svg" class="_typeIcon_1cg0d_32" color="white"><path d="M1.50022 6.5C1.50022 6.5 5.17294 -3.49999 8.00022 8C10.8275 19.5 14.5 9.49998 14.5 9.49998" stroke="currentColor" stroke-linecap="round"></path><path d="M3 6.5C3 7.32843 2.32843 8 1.5 8C0.671573 8 0 7.32843 0 6.5C0 5.67157 0.671573 5 1.5 5C2.32843 5 3 5.67157 3 6.5Z" fill="currentColor"></path><path d="M16 9.5C16 10.3284 15.3284 11 14.5 11C13.6716 11 13 10.3284 13 9.5C13 8.67157 13.6716 8 14.5 8C15.3284 8 16 8.67157 16 9.5Z" fill="currentColor"></path></svg>