<svg width="16" height="16" viewBox="0 0 16 16" fill="none" xmlns="http://www.w3.org/2000/svg">
<path d="M10.7953 6.59067C11.1688 6.59179 11.5266 6.74064 11.7906 7.0047C12.0547 7.26875 12.2035 7.62657 12.2047 8C12.2035 8.37343 12.0547 8.73125 11.7906 8.9953C11.5266 9.25936 11.1688 9.4082 10.7953 9.40933C10.4219 9.4082 10.0641 9.25936 9.80003 8.9953C9.53597 8.73125 9.38713 8.37343 9.386 8C9.38713 7.62657 9.53597 7.26875 9.80003 7.0047C10.0641 6.74064 10.4219 6.59179 10.7953 6.59067ZM10.7953 8.46978C11.0536 8.46978 11.2651 8.25822 11.2651 8C11.2651 7.74178 11.0536 7.53022 10.7953 7.53022C10.5367 7.53022 10.3256 7.74178 10.3256 8C10.3256 8.25822 10.5367 8.46978 10.7953 8.46978ZM8 12.2047C7.62657 12.2035 7.26875 12.0547 7.0047 11.7906C6.74064 11.5266 6.59179 11.1688 6.59067 10.7953C6.59067 10.0203 7.22456 9.40933 8 9.40933C8.77506 9.40933 9.40933 10.0436 9.40933 10.7953C9.4082 11.1688 9.25936 11.5266 8.9953 11.7906C8.73125 12.0547 8.37343 12.2035 8 12.2047ZM8 10.3256C7.74178 10.3256 7.53022 10.5367 7.53022 10.7953C7.53022 11.0536 7.74178 11.2651 8 11.2651C8.25822 11.2651 8.46978 11.0536 8.46978 10.7953C8.46978 10.5367 8.25822 10.3256 8 10.3256ZM5.20467 9.40933C4.83124 9.4082 4.47342 9.25936 4.20936 8.9953C3.94531 8.73125 3.79646 8.37343 3.79533 8C3.79646 7.62657 3.94531 7.26875 4.20936 7.0047C4.47342 6.74064 4.83124 6.59179 5.20467 6.59067C5.5781 6.59179 5.93591 6.74064 6.19997 7.0047C6.46403 7.26875 6.61287 7.62657 6.614 8C6.61287 8.37343 6.46403 8.73125 6.19997 8.9953C5.93591 9.25936 5.5781 9.4082 5.20467 9.40933ZM5.20467 7.53022C4.94644 7.53022 4.73489 7.74178 4.73489 8C4.73489 8.25822 4.94644 8.46978 5.20467 8.46978C5.46328 8.46978 5.67444 8.25822 5.67444 8C5.67444 7.74178 5.46328 7.53022 5.20467 7.53022ZM8 3.79533C8.37343 3.79646 8.73125 3.94531 8.9953 4.20936C9.25936 4.47342 9.4082 4.83124 9.40933 5.20467C9.40933 5.97972 8.77544 6.59067 8 6.59067C7.22494 6.59067 6.59067 5.95639 6.59067 5.20467C6.59179 4.83124 6.74064 4.47342 7.0047 4.20936C7.26875 3.94531 7.62657 3.79646 8 3.79533ZM8 5.67444C8.25822 5.67444 8.46978 5.46328 8.46978 5.20467C8.46978 4.94644 8.25822 4.73489 8 4.73489C7.74178 4.73489 7.53022 4.94644 7.53022 5.20467C7.53022 5.46328 7.74178 5.67444 8 5.67444ZM13.1209 12.2047V11.2184C13.7081 10.2785 14.0604 9.19817 14.0604 8C14.0604 4.6645 11.3355 1.93956 8 1.93956C4.6645 1.93956 1.93956 4.6645 1.93956 8C1.93956 11.3355 4.64078 14.0604 8 14.0604C8.1645 14.0604 8.30528 14.0371 8.46978 14.0138V14.0604H14.5302C14.7884 14.0604 15 14.272 15 14.5302C15 14.7884 14.7884 15 14.5302 15H8C4.14767 14.9767 1 11.8523 1 8C1 4.14767 4.14767 1 8 1C11.8523 1 15 4.12433 15 8C15 9.57383 14.4832 11.0302 13.5907 12.2047H13.1209Z" fill="currentColor"/>
</svg>
