<svg xmlns="http://www.w3.org/2000/svg" xmlns:xlink="http://www.w3.org/1999/xlink" fill="none" version="1.1" width="16" height="16" viewBox="0 0 16 16"><defs><clipPath id="master_svg0_0_1929"><rect x="0" y="0" width="16" height="16" rx="0"/></clipPath></defs><g><g clip-path="url(#master_svg0_0_1929)"><g><path d="M5.604178247070313,2.593733C5.604178247070313,2.593733,4.666658247070313,4,4.666658247070313,4C4.666658247070313,4,3.9999982470703124,4,3.9999982470703124,4C2.5272382470703123,4,1.3333282470703125,5.19391,1.3333282470703125,6.66667C1.3333282470703125,6.66667,1.3333282470703125,11.33333,1.3333282470703125,11.33333C1.3333282470703125,12.8061,2.5272382470703123,14,3.9999982470703124,14C3.9999982470703124,14,12.000028247070313,14,12.000028247070313,14C13.472728247070313,14,14.666628247070312,12.8061,14.666628247070312,11.33333C14.666628247070312,11.33333,14.666628247070312,6.66667,14.666628247070312,6.66667C14.666628247070312,5.19391,13.472728247070313,4,12.000028247070313,4C12.000028247070313,4,11.333328247070312,4,11.333328247070312,4C11.333328247070312,4,10.395798247070312,2.593733,10.395798247070312,2.593733C10.148528247070313,2.222801,9.732198247070313,2,9.286398247070313,2C9.286398247070313,2,6.713578247070313,2,6.713578247070313,2C6.267768247070313,2,5.851458247070313,2.222801,5.604178247070313,2.593733C5.604178247070313,2.593733,5.604178247070313,2.593733,5.604178247070313,2.593733ZM9.999998247070312,9C9.999998247070312,10.1046,9.104598247070314,11,7.999998247070312,11C6.8954282470703125,11,5.999998247070312,10.1046,5.999998247070312,9C5.999998247070312,7.89543,6.8954282470703125,7,7.999998247070312,7C9.104598247070314,7,9.999998247070312,7.89543,9.999998247070312,9C9.999998247070312,9,9.999998247070312,9,9.999998247070312,9ZM7.999998247070312,4.66667C8.368198247070312,4.66667,8.666658247070313,4.36819,8.666658247070313,4C8.666658247070313,3.6318099999999998,8.368198247070312,3.33333,7.999998247070312,3.33333C7.6317982470703125,3.33333,7.3333282470703125,3.6318099999999998,7.3333282470703125,4C7.3333282470703125,4.36819,7.6317982470703125,4.66667,7.999998247070312,4.66667C7.999998247070312,4.66667,7.999998247070312,4.66667,7.999998247070312,4.66667Z" fill-rule="evenodd" fill="currentColor" fill-opacity="1"/></g></g></g></svg>