<svg width="16" height="16" viewBox="0 0 16 16" xmlns="http://www.w3.org/2000/svg" class="_typeIcon_12syx_29" color="white"><g fill="none" fill-rule="evenodd"><rect stroke="currentColor" x="1.5" y="1.5" width="13" height="13" rx="6.5"></rect><path d="M14.506 8.182c-1.674 1.15-4.04 1.844-6.627 1.844-.56 0-1.111-.032-1.646-.095.466 2.002 1.597 3.62 3.038 4.453a6.54 6.54 0 01-1.532.12c-1.264-1.123-2.193-2.796-2.563-4.74-1.393-.278-2.65-.766-3.675-1.418a6.614 6.614 0 01.045-1.19c.906.695 2.108 1.237 3.488 1.555A10.249 10.249 0 015 7.879c0-2.58.962-4.878 2.463-6.365a6.596 6.596 0 011.506.05C7.22 2.743 6 5.11 6 7.878c0 .347.02.688.056 1.021a13.05 13.05 0 001.823.126c2.689 0 5.072-.804 6.55-2.043a6.557 6.557 0 01.077 1.199z" fill-opacity="0.6" fill="currentColor" fill-rule="nonzero"></path></g></svg>