<svg width="16" height="16" viewBox="0 0 16 16" fill="none" xmlns="http://www.w3.org/2000/svg">
    <path d="M1.58333 7.25007C1.83996 7.71597 1.95811 7.88181 2.23093 8.35458C2.40523 8.5089 2.55667 8.66443 2.72339 8.80188C3.20861 9.20191 3.69995 9.59471 4.20528 9.99785C4.24431 10.0884 4.30802 10.1878 4.28201 10.2513C4.20026 10.451 4.08476 10.6372 3.9791 10.85C3.91756 11.4878 3.85926 12.104 3.80668 12.7396C3.86349 13.1315 4.12108 13.3627 4.423 13.5192C5.16937 13.906 5.98843 13.9888 6.83786 14C6.99339 13.9794 7.12806 13.9516 7.26237 13.9532C7.51797 13.9562 7.6672 13.8371 7.69686 13.5939C7.71752 13.4245 7.70461 13.2512 7.70144 13.059C7.58958 12.4715 7.48298 11.9047 7.36019 11.3246C7.32633 11.2046 7.31209 11.0972 7.29036 10.9913C7.19953 10.5487 7.50899 10.1861 7.97941 10.203C9.12175 10.0968 9.81702 9.23551 10.6946 8.72447C10.8885 8.76568 11.0942 8.87515 11.2617 8.83369C12.0039 8.64997 12.7788 8.56629 13.4742 8.17711C13.7659 8.02085 14.0428 7.86843 14.3312 7.74138C14.6759 7.58953 14.8438 7.35206 14.9405 6.97794C15.0535 6.54058 15.0033 6.18945 14.8088 5.78556C14.6277 5.40923 14.4767 5.27301 14.0094 5.30086C13.2391 5.34677 12.5226 5.47026 11.8508 5.88693C11.8353 5.64241 11.8303 5.40535 11.8015 5.17117C11.7837 5.0267 11.7515 4.87582 11.6869 4.74689C11.5671 4.50806 11.4187 4.28323 11.2665 4.04408C10.9565 3.75112 10.6726 3.45508 10.3642 3.18653C10.1812 3.02718 9.97132 2.88774 9.75285 2.78042C9.2573 2.53697 8.75163 2.31284 8.24402 2.09462C8.10784 2.03607 7.94948 1.99807 7.80199 2.00008C7.04477 2.01037 6.28768 2.03445 5.5308 2.0607C5.4404 2.06383 5.34016 2.09139 5.26366 2.13821C4.49793 2.60681 3.73622 3.08182 2.98245 3.54941C2.69564 3.41366 2.37403 3.27928 2.07147 3.11139C1.89758 3.0149 1.7466 2.98395 1.56763 3.10008C1.43302 3.29658 1.31272 3.48347 1.17552 3.65733C1.05772 3.80662 1.03744 3.94704 1.09915 4.13126C1.22295 4.50087 1.31707 4.88018 1.43981 5.26346C1.60867 5.46003 1.76116 5.64861 1.94348 5.87409L1 6.09703C1.13459 6.36373 1.25962 6.61147 1.3987 6.86997C1.50223 7.06238 1.58333 7.25007 1.58333 7.25007Z" fill="currentColor"/>
</svg>
    