<svg width="16" height="16" viewBox="0 0 16 16" fill="none" xmlns="http://www.w3.org/2000/svg" color="white"><path d="M8.91024 1.23653L13.6008 3.86555C14.162 4.18008 14.5 4.75595 14.5 5.37098V10.629C14.5 11.244 14.162 11.8199 13.6008 12.1344L8.91024 14.7635C8.34757 15.0788 7.65243 15.0788 7.08976 14.7635L2.39916 12.1344C1.838 11.8199 1.5 11.244 1.5 10.629V5.37098C1.5 4.75595 1.838 4.18008 2.39916 3.86555L7.08976 1.23653C7.65243 0.921158 8.34757 0.921158 8.91024 1.23653Z" stroke="currentColor"></path><path opacity="0.6" fill-rule="evenodd" clip-rule="evenodd" d="M2.2005 4.11572L1.7005 4.98175L7.50001 8.3301V14.8542H8.50001V8.40189L14.3617 5.01765L13.8617 4.15162L8.06219 7.49997L2.2005 4.11572Z" fill="currentColor"></path></svg>