<svg width="16" height="16" viewBox="0 0 16 16" fill="none" xmlns="http://www.w3.org/2000/svg" color="white"><path d="M13.5 11.5C13.5 12.2148 12.9996 12.9544 11.9907 13.543C10.9941 14.1244 9.58424 14.5 8 14.5C6.41576 14.5 5.00595 14.1244 4.00929 13.543C3.00037 12.9544 2.5 12.2148 2.5 11.5V4.5C2.5 3.78516 3.00037 3.04556 4.00929 2.45702C5.00595 1.87563 6.41576 1.5 8 1.5C9.58424 1.5 10.9941 1.87563 11.9907 2.45702C12.9996 3.04556 13.5 3.78516 13.5 4.5V11.5Z" stroke="currentColor"></path><path opacity="0.5" fill-rule="evenodd" clip-rule="evenodd" d="M2 4.5C2 6.433 4.68629 8 8 8C11.3137 8 14 6.433 14 4.5H13C13 5.73661 10.8342 7 8 7C5.1658 7 3 5.73661 3 4.5H2Z" fill="currentColor"></path></svg>