<svg width="16" height="16" viewBox="0 0 16 16" fill="none" xmlns="http://www.w3.org/2000/svg" color="white"><path d="M9.72245 1.56305C10.6071 1.56755 11.4235 2.03927 11.8692 2.80345L14.1932 6.78777C14.6441 7.56099 14.6473 8.51634 14.2015 9.29254L11.9362 13.2363C11.4881 14.0164 10.6553 14.4956 9.75564 14.491L6.15749 14.4727C5.27084 14.4682 4.45291 13.9944 4.00789 13.2275L1.67949 9.21503C1.2302 8.44078 1.22917 7.48541 1.67678 6.7102L3.93762 2.7946C4.38649 2.01721 5.21769 1.54015 6.11536 1.54471L9.72245 1.56305Z" stroke="currentColor"></path><path opacity="0.6" d="M3 4L8 6M8 6V10M8 6L13 4M8 10L3 12M8 10L13 12" stroke="currentColor"></path></svg>