<svg width="16" height="16" viewBox="0 0 16 16" fill="none" xmlns="http://www.w3.org/2000/svg" color="white"><path d="M6.75718 1.58879C7.21762 1.32634 7.78238 1.32634 8.24282 1.58879L12.7428 4.15384C13.211 4.42069 13.5 4.91814 13.5 5.457V10.543C13.5 11.0819 13.211 11.5793 12.7428 11.8462L8.24282 14.4112C7.78238 14.6737 7.21762 14.6737 6.75718 14.4112L2.25718 11.8462C1.78904 11.5793 1.5 11.0819 1.5 10.543V5.457C1.5 4.91814 1.78904 4.42069 2.25718 4.15384L6.75718 1.58879Z" stroke="currentColor"></path><path opacity="0.6" d="M12.7511 11.0607L7.5 11.4983L2.24892 11.0607L4.43608 6.24892L7.5 1.8719L10.5639 6.24892L12.7511 11.0607Z" stroke="currentColor" stroke-linejoin="round"></path></svg>