<svg width="16" height="16" viewBox="0 0 16 16" fill="none" xmlns="http://www.w3.org/2000/svg">
<path fill-rule="evenodd" clip-rule="evenodd" d="M2 4C2 2.89543 2.89543 2 4 2H10.5V5.5H6V5C6 4.72386 5.77614 4.5 5.5 4.5C5.22386 4.5 5 4.72386 5 5V5.5H4C3.72386 5.5 3.5 5.72386 3.5 6C3.5 6.27614 3.72386 6.5 4 6.5H5V9.5H3C2.72386 9.5 2.5 9.72386 2.5 10C2.5 10.2761 2.72386 10.5 3 10.5H5V14H4C2.89543 14 2 13.1046 2 12V4ZM6 15H5H4C2.34315 15 1 13.6569 1 12V4C1 2.34315 2.34315 1 4 1H10.5H11.5H12C13.6569 1 15 2.34315 15 4V12C15 13.6569 13.6569 15 12 15H6ZM11.5 2H12C13.1046 2 14 2.89543 14 4V12C14 13.1046 13.1046 14 12 14H6V10.5H10.5V12C10.5 12.2761 10.7239 12.5 11 12.5C11.2761 12.5 11.5 12.2761 11.5 12V10.5H13C13.2761 10.5 13.5 10.2761 13.5 10C13.5 9.72386 13.2761 9.5 13 9.5H11.5V6.5H13C13.2761 6.5 13.5 6.27614 13.5 6C13.5 5.72386 13.2761 5.5 13 5.5H11.5V2ZM6 9.5V6.5H10.5V9.5H6Z" fill="currentColor"/>
</svg>
