<svg width="16" height="16" viewBox="0 0 16 16" fill="none" xmlns="http://www.w3.org/2000/svg">
    <path fill-rule="evenodd" clip-rule="evenodd" d="M1.60407 5.39039C1.53536 5.22451 1.5 5.04673 1.5 4.86719C1.5 4.50459 1.64404 4.15684 1.90044 3.90044C2.15684 3.64404 2.50459 3.5 2.86719 3.5C3.22979 3.5 3.57754 3.64404 3.83394 3.90044C3.9795 4.046 4.08884 4.221 4.15618 4.41145H6.97312C7.14298 4.02772 7.5271 3.75999 7.97375 3.75999H8.02625C8.4729 3.75999 8.85702 4.02772 9.02688 4.41145H11.6043C11.6716 4.221 11.7809 4.046 11.9265 3.90044C12.1829 3.64404 12.5306 3.5 12.8932 3.5C13.2558 3.5 13.6036 3.64404 13.86 3.90044C14.1164 4.15684 14.2604 4.50459 14.2604 4.86719C14.2604 5.22979 14.1164 5.57754 13.86 5.83394C13.6036 6.09033 13.2558 6.23438 12.8932 6.23438C12.5306 6.23438 12.1829 6.09033 11.9265 5.83394C11.7809 5.68837 11.6716 5.51336 11.6042 5.32291H9.01455C8.97159 5.41324 8.91661 5.49675 8.85168 5.57137C11.2604 5.90053 13.2295 7.68428 13.9265 10.0491C14.5212 10.0599 15 10.5454 15 11.1427C15 11.7467 14.5103 12.2364 13.9062 12.2364H13.8537C13.2497 12.2364 12.76 11.7467 12.76 11.1427C12.76 10.8085 12.9099 10.5093 13.1461 10.3086C12.4791 8.01989 10.4465 6.35671 8.04536 6.35671C5.62084 6.35671 3.57245 8.05245 2.92603 10.3757C3.12021 10.5731 3.24 10.8439 3.24 11.1427C3.24 11.7467 2.75031 12.2364 2.14625 12.2364H2.09375C1.48969 12.2364 1 11.7467 1 11.1427C1 10.5386 1.48969 10.0489 2.09375 10.0489H2.14625C2.15225 10.0489 2.15824 10.049 2.16422 10.0491C2.85346 7.71066 4.78651 5.94043 7.15853 5.58294C7.08914 5.50542 7.03064 5.41794 6.98545 5.32291H4.15619C4.14816 5.3456 4.13953 5.3681 4.1303 5.39039C4.0616 5.55626 3.96089 5.70698 3.83394 5.83394C3.70698 5.96089 3.55626 6.0616 3.39039 6.1303C3.22451 6.19901 3.04673 6.23438 2.86719 6.23438C2.68765 6.23438 2.50986 6.19901 2.34399 6.1303C2.17811 6.0616 2.0274 5.96089 1.90044 5.83394C1.77348 5.70698 1.67278 5.55626 1.60407 5.39039Z" fill="currentColor"/>
</svg>
    