<svg width="16" height="16" viewBox="0 0 16 16" fill="none" xmlns="http://www.w3.org/2000/svg">
<path d="M7.65939 8C7.65939 6.70938 8.70939 5.65938 10 5.65938C11.2906 5.65938 12.3406 6.70938 12.3406 8C12.3406 9.29063 11.2906 10.3406 10 10.3406C8.70939 10.3406 7.65939 9.29063 7.65939 8Z" fill="#1ABCFE"/>
<path d="M3 12.6594C3 11.3687 4.05 10.3187 5.34063 10.3187H7.65938V12.6594C7.65938 13.95 6.60938 15 5.31875 15C4.02813 15 3 13.95 3 12.6594Z" fill="#0ACF83"/>
<path d="M7.65939 1V5.65938H10C11.2906 5.65938 12.3406 4.60938 12.3406 3.31875C12.3406 2.02813 11.2906 1 10 1H7.65939Z" fill="#FF7262"/>
<path d="M3 3.34063C3 4.63125 4.05 5.68125 5.34063 5.68125H7.65938V1H5.31875C4.02813 1 3 2.05 3 3.34063Z" fill="#F24E1E"/>
<path d="M3 8C3 9.29063 4.05 10.3406 5.34063 10.3406H7.65938V5.65938H5.31875C4.02813 5.65938 3 6.70938 3 8Z" fill="#A259FF"/>
</svg>
