<svg width="16" height="16" viewBox="0 0 16 16" fill="none" xmlns="http://www.w3.org/2000/svg">
<path d="M8.03356 1C6.36382 0.99827 4.74805 1.60396 3.47581 2.70852C2.20357 3.81308 1.35801 5.34432 1.09066 7.02782C0.823319 8.71133 1.15166 10.4371 2.01686 11.8958C2.88205 13.3544 4.22754 14.4507 5.8122 14.9882C6.16589 15.0543 6.29097 14.8296 6.29097 14.6402C6.29097 14.4507 6.29097 14.0189 6.29097 13.4198C4.32841 13.8559 3.91433 12.4549 3.91433 12.4549C3.78414 12.0207 3.50754 11.6476 3.13362 11.4019C2.49957 10.9614 3.18538 10.9614 3.18538 10.9614C3.40765 10.9934 3.61985 11.0767 3.80593 11.205C3.99201 11.3332 4.14708 11.503 4.2594 11.7015C4.35484 11.8783 4.48351 12.0341 4.63802 12.1599C4.79254 12.2857 4.96987 12.3792 5.15982 12.4348C5.34978 12.4905 5.54863 12.5073 5.74496 12.4843C5.9413 12.4613 6.13125 12.3989 6.30391 12.3007C6.33098 11.9383 6.48396 11.5976 6.73525 11.3403C5.17382 11.1596 3.53476 10.5428 3.53476 7.81567C3.52404 7.10326 3.78195 6.41391 4.25509 5.89037C4.04436 5.27093 4.06899 4.59327 4.3241 3.9915C4.3241 3.9915 4.91503 3.79764 6.25647 4.72725C7.40838 4.40421 8.62423 4.40421 9.77614 4.72725C11.1176 3.79764 11.7042 3.9915 11.7042 3.9915C11.9629 4.5869 11.9936 5.2597 11.7905 5.87715C12.2636 6.4007 12.5215 7.09004 12.5108 7.80245C12.5108 10.5604 10.8674 11.164 9.30167 11.327C9.46956 11.4994 9.5992 11.7067 9.68181 11.9347C9.76442 12.1628 9.79806 12.4063 9.78045 12.6488C9.78045 13.6092 9.78045 14.3846 9.78045 14.6181C9.78045 14.8516 9.90554 15.0323 10.2635 14.9618C11.8302 14.4101 13.1555 13.3107 14.0054 11.8577C14.8553 10.4047 15.1751 8.6916 14.9083 7.02109C14.6415 5.35058 13.8052 3.83014 12.5473 2.72838C11.2893 1.62663 9.69059 1.01445 8.03356 1Z" fill="white"/>
</svg>
