<svg width="16" height="16" viewBox="0 0 16 16" fill="none" xmlns="http://www.w3.org/2000/svg">
<path d="M15 8.15558C15 7.58003 14.9523 7.16004 14.8492 6.72449H8.14282V9.32222H12.0793C12 9.9678 11.5714 10.94 10.619 11.5933L10.6057 11.6803L12.7261 13.2901L12.873 13.3045C14.2222 12.0833 15 10.2867 15 8.15558Z" fill="#4285F4"/>
<path d="M8.14297 15C10.0715 15 11.6906 14.3778 12.8731 13.3045L10.6192 11.5934C10.016 12.0056 9.20644 12.2934 8.14297 12.2934C6.25408 12.2934 4.65091 11.0723 4.07942 9.38452L3.99566 9.39149L1.7908 11.0637L1.76196 11.1423C2.93656 13.4289 5.34928 15 8.14297 15Z" fill="#34A853"/>
<path d="M4.07935 9.38446C3.92856 8.94891 3.84129 8.48221 3.84129 8.00002C3.84129 7.51777 3.92856 7.05112 4.07142 6.61557L4.06742 6.52281L1.83493 4.82373L1.76189 4.85778C1.27778 5.80668 1 6.87225 1 8.00002C1 9.12779 1.27778 10.1933 1.76189 11.1422L4.07935 9.38446Z" fill="#FBBC05"/>
<path d="M8.14297 3.70664C9.48422 3.70664 10.389 4.27441 10.9049 4.74889L12.9207 2.81999C11.6827 1.69222 10.0715 1 8.14297 1C5.34928 1 2.93656 2.57109 1.76196 4.85773L4.07149 6.61553C4.65091 4.92776 6.25408 3.70664 8.14297 3.70664Z" fill="#EB4335"/>
</svg>
