<svg width="16" height="16" viewBox="0 0 16 16" fill="none" xmlns="http://www.w3.org/2000/svg">
<path d="M4.76923 4H11.2308C13.7436 4 15 5.33333 15 8C15 10.6667 13.7436 12 11.2308 12H4.76923C2.25641 12 1 10.6667 1 8C1 5.33333 2.25641 4 4.76923 4Z" fill="#FF2742"/>
<path d="M6.53537 8.83343C6.51611 8.8359 6.49731 8.84149 6.47964 8.85C6.46155 8.85777 6.4462 8.87136 6.43576 8.88886C6.36872 8.99057 6.30491 9.09457 6.23087 9.21429L6.22603 9.22114C6.19237 9.27743 6.15683 9.33657 6.11699 9.40029L6.08037 9.46029H7.13441C7.17319 9.45455 7.20863 9.43391 7.23403 9.40229C7.2701 9.34172 7.30672 9.28229 7.34522 9.222L7.36837 9.18514C7.4276 9.088 7.49464 8.98229 7.56168 8.86629H7.03668C6.94191 8.86629 6.84472 8.85543 6.75991 8.84886H6.75399C6.6813 8.842 6.60833 8.83686 6.53537 8.83343ZM11.9711 8.94857C11.9881 9.27714 12.2186 9.45429 12.6361 9.45972H12.6558C13.0906 9.45972 13.3539 9.27543 13.3757 8.954C13.3876 8.67486 13.3876 8.40372 13.3757 8.12457C13.368 8.0467 13.3458 7.97124 13.3103 7.90257C13.2748 7.834 13.2268 7.774 13.1695 7.72629C13.0553 7.62897 12.9132 7.57604 12.7667 7.57629H12.7352C12.6959 7.57081 12.6564 7.56794 12.6168 7.56772C12.5782 7.28777 12.5021 7.01511 12.3909 6.758C12.2196 6.47657 11.8193 6.47657 11.4986 6.47657C11.4967 6.46849 11.4951 6.46028 11.4941 6.452C11.4927 6.44111 11.4906 6.43032 11.4879 6.41972C11.4822 6.37649 11.475 6.33351 11.4663 6.29086H10.7871C10.7799 6.32668 10.7741 6.36281 10.7698 6.39914L10.7663 6.41343L10.7545 6.48486H10.3019V7.07629L10.7545 7.09572V7.57372H10.0636V8.168H10.7744V9.45H11.4887V8.16772H12.4278C12.5748 8.16772 12.6606 8.23914 12.6647 8.36114C12.669 8.48286 12.6682 8.61886 12.6647 8.73543V8.94172H11.9714L11.9709 8.94857H11.9711ZM3.78141 8.96572C3.74372 8.96572 3.70872 8.96572 3.67103 8.96943H3.66295C3.62687 8.96943 3.59133 8.97314 3.55203 8.97314C3.56495 9.11086 3.6258 9.23772 3.72245 9.32743C3.81807 9.41721 3.94307 9.46358 4.07056 9.45657C4.09318 9.45771 4.11606 9.45771 4.13868 9.45657C4.52099 9.45657 4.7396 9.25657 4.7396 8.90943V6.38086C4.73719 6.35175 4.73177 6.323 4.72345 6.29514H4.0221V6.57943C4.0221 7.57886 4.0221 8.948 4.01241 8.96343L3.78141 8.96543V8.96572ZM7.92541 8.858L7.85245 8.98172L7.76468 9.128C7.70545 9.23029 7.64083 9.33457 7.57514 9.44686H10.0469V8.86686H9.36849V7.07629H9.8006V6.49629H8.18495V7.08486H8.61679V8.85857L7.92541 8.858ZM2.82995 7.09514H2.82618C2.76695 7.53057 2.69883 7.96743 2.61645 8.51229C2.61297 8.5372 2.61742 8.56264 2.6291 8.58457C2.74756 8.78572 2.86953 8.98029 3.00764 9.198C3.33074 8.78517 3.5011 8.26159 3.48687 7.72514V7.71172C3.49926 7.50457 3.52349 7.29857 3.55956 7.09486H2.82995V7.09514ZM5.19649 7.09514C5.22799 7.29514 5.24872 7.49686 5.25841 7.69943C5.23856 8.23799 5.40037 8.76641 5.71476 9.18972C5.75245 9.13057 5.79041 9.07172 5.82918 9.01314C5.99906 8.75543 6.15899 8.51 6.01441 8.20057C6.00858 8.18261 6.00858 8.1631 6.01441 8.14514L5.9148 7.09514H5.19622H5.19649ZM7.26983 6.28572H7.08487C7.05888 6.28595 7.03309 6.29048 7.00841 6.29914C6.98456 6.30753 6.9629 6.32171 6.94514 6.34057L6.89533 6.42686C6.70095 6.76572 6.52487 7.07114 6.35364 7.38229C6.33905 7.40496 6.32988 7.43107 6.32693 7.45835C6.32397 7.48563 6.32732 7.51326 6.33668 7.53886C6.35867 7.5736 6.38822 7.60221 6.42283 7.62229C6.4573 7.642 6.49553 7.65257 6.53456 7.65286C6.67779 7.674 6.82237 7.68686 6.96695 7.69172C6.9403 7.738 6.91364 7.78257 6.88699 7.82629L6.86276 7.86743C6.76906 8.028 6.67833 8.18 6.59676 8.338C6.57728 8.36737 6.56497 8.4014 6.56093 8.43705C6.55689 8.4727 6.56124 8.50886 6.5736 8.54229C6.60591 8.60657 6.69206 8.64857 6.82372 8.65886C6.91849 8.66572 7.01918 8.66972 7.13172 8.66972H7.48441C7.5046 8.66972 7.52479 8.66514 7.54364 8.65629C7.56137 8.6482 7.57774 8.63711 7.5921 8.62343C7.68203 8.48743 7.76979 8.34343 7.8581 8.184C7.77195 8.17629 7.69656 8.17286 7.61526 8.16914H7.60691C7.5536 8.16914 7.48845 8.164 7.4136 8.15943C7.52803 7.966 7.63949 7.77286 7.74745 7.59057L7.76576 7.55943L7.90306 7.32372C7.94937 7.24457 8.00026 7.15629 8.05114 7.07057C7.98784 7.0778 7.9242 7.08124 7.86053 7.08086H7.73426C7.69279 7.08086 7.64649 7.07686 7.59964 7.07686C7.47149 7.06943 7.34414 7.10257 7.23295 7.17229L7.18799 7.13886C7.23779 7.05314 7.28491 6.968 7.33149 6.88886L7.6726 6.29086H7.27333L7.2701 6.28572H7.26983ZM12.9931 6.48229C12.9236 6.48181 12.8553 6.50265 12.7966 6.54229C12.7313 6.58656 12.6845 6.65567 12.6658 6.73543C12.6588 6.84686 12.6588 6.95829 12.6658 7.06972H13.065C13.1054 7.06972 13.1458 7.06114 13.1835 7.04486C13.219 7.028 13.2516 7.00486 13.2796 6.97572C13.3079 6.94859 13.3297 6.91457 13.3429 6.87657C13.3583 6.84019 13.3654 6.80044 13.3636 6.76057C13.347 6.68432 13.3067 6.6162 13.2492 6.56714C13.186 6.51648 13.1097 6.48756 13.0306 6.48429C13.0171 6.48286 13.0036 6.48229 12.9902 6.48229H12.9931ZM11.8255 7.56457H11.4876V7.106C11.5544 7.09343 11.6217 7.086 11.6893 7.084C11.7116 7.08089 11.7343 7.08309 11.7557 7.09046C11.7771 7.09782 11.7967 7.11016 11.8131 7.12657C11.8605 7.18514 11.8556 7.30314 11.8266 7.564L11.8255 7.56457Z" fill="white"/>
</svg>
