<svg width="16" height="16" viewBox="0 0 16 16" fill="none" xmlns="http://www.w3.org/2000/svg">
<path d="M15 4.18378C14.4849 4.38457 13.9313 4.52027 13.3503 4.5813C13.9434 4.26885 14.3988 3.77411 14.6132 3.18463C14.0583 3.4739 13.4436 3.684 12.7893 3.79724C12.2653 3.3066 11.5189 3 10.6928 3C9.10647 3 7.82041 4.13031 7.82041 5.52446C7.82041 5.72232 7.84586 5.91501 7.89482 6.09977C5.50766 5.99449 3.39125 4.98944 1.97461 3.46211C1.72737 3.83496 1.58573 4.26862 1.58573 4.73127C1.58573 5.6071 2.09285 6.37981 2.86354 6.83251C2.39268 6.81942 1.94982 6.70586 1.56253 6.51677C1.56232 6.52731 1.56232 6.53788 1.56232 6.54851C1.56232 7.77167 2.5524 8.79202 3.86637 9.02391C3.62533 9.08161 3.37159 9.11244 3.1096 9.11244C2.92453 9.11244 2.74458 9.09664 2.56925 9.06716C2.93472 10.0701 3.99546 10.8 5.25234 10.8204C4.26933 11.4975 3.03084 11.9011 1.68518 11.9011C1.45335 11.9011 1.2247 11.8891 1 11.8658C2.27111 12.5821 3.7809 13 5.40294 13C10.6861 13 13.5751 9.15322 13.5751 5.8172C13.5751 5.70774 13.5723 5.59886 13.5668 5.49062C14.1279 5.13468 14.6149 4.69004 15 4.18378Z" fill="#55ACEE"/>
</svg>
