<svg width="16" height="16" viewBox="0 0 16 16" fill="none" xmlns="http://www.w3.org/2000/svg">
<path d="M5.90737 10.858C5.32453 10.8326 4.74589 10.7431 4.1811 10.591L2.46227 11.4812L2.9833 9.91044C1.73079 9.01147 1 7.8443 1 6.4041C1 3.93459 3.23962 2 5.95394 2C8.41146 2 10.5191 3.53049 10.9542 5.64395C10.7831 5.64395 10.6511 5.59541 10.4788 5.59541C8.23499 5.50294 6.34412 7.32419 6.25496 9.66337L6.25426 9.68473C6.25107 10.0517 6.30994 10.4164 6.42817 10.7621C6.2652 10.8402 6.08594 10.8737 5.90691 10.8592L5.90737 10.858Z" fill="#07C160"/>
<path d="M13.2329 12.6962L13.6217 14L12.284 13.1901C11.7941 13.3457 11.2871 13.4354 10.7754 13.4571C8.40306 13.4571 6.5506 11.7975 6.5506 9.72478C6.5506 7.65209 8.39887 5.95146 10.7751 5.95146C13.0148 5.95146 14.9999 7.61155 14.9999 9.72478C15.0078 10.8582 14.2689 11.8865 13.2345 12.6974L13.2329 12.6962Z" fill="#07C160"/>
<path d="M3.52806 4.85492C3.52792 4.99932 3.56886 5.14052 3.64571 5.26066C3.72255 5.3808 3.83185 5.47449 3.95977 5.52987C4.08769 5.58525 4.22849 5.59984 4.36437 5.5718C4.50025 5.54375 4.62509 5.47432 4.72312 5.3723C4.82114 5.27028 4.88794 5.14024 4.91507 4.99864C4.9422 4.85704 4.92844 4.71022 4.87553 4.57677C4.82262 4.44332 4.73294 4.32923 4.61782 4.24892C4.5027 4.16861 4.36733 4.12569 4.22882 4.1256H4.22812C4.13591 4.12442 4.04441 4.14249 3.959 4.17872C3.87359 4.21495 3.79599 4.26862 3.73076 4.33657C3.66554 4.40452 3.61401 4.48538 3.5792 4.5744C3.54438 4.66342 3.527 4.7588 3.52806 4.85492ZM8.93085 8.68478C8.93094 8.8015 8.96423 8.91558 9.0265 9.01258C9.08877 9.10958 9.17723 9.18516 9.28069 9.22976C9.38416 9.27436 9.49799 9.28598 9.60779 9.26315C9.71759 9.24032 9.81843 9.18407 9.89756 9.1015C9.9767 9.01893 10.0306 8.91376 10.0524 8.79927C10.0742 8.68479 10.063 8.56613 10.0201 8.4583C9.97722 8.35048 9.90465 8.25832 9.81155 8.19349C9.71845 8.12865 9.609 8.09404 9.49704 8.09404C9.42089 8.08663 9.34412 8.09681 9.27217 8.12387C9.20023 8.15092 9.1349 8.19419 9.08083 8.25058C9.02677 8.30697 8.98529 8.37509 8.95937 8.4501C8.93344 8.52511 8.92371 8.60516 8.93085 8.68454V8.68478ZM7.05907 4.85492C7.05893 4.99932 7.09987 5.14052 7.17672 5.26066C7.25356 5.3808 7.36286 5.47449 7.49078 5.52987C7.6187 5.58525 7.7595 5.59984 7.89538 5.5718C8.03125 5.54375 8.1561 5.47432 8.25413 5.3723C8.35215 5.27028 8.41895 5.14024 8.44608 4.99864C8.47321 4.85704 8.45945 4.71022 8.40654 4.57677C8.35363 4.44332 8.26394 4.32923 8.14883 4.24892C8.03371 4.16861 7.89834 4.12569 7.75982 4.1256H7.75843C7.57512 4.12352 7.39851 4.19737 7.26739 4.33093C7.13626 4.46449 7.06134 4.64683 7.05907 4.83793L7.0593 4.85492H7.05907ZM11.7229 8.68478C11.723 8.8015 11.7563 8.91558 11.8186 9.01258C11.8808 9.10958 11.9693 9.18516 12.0728 9.22976C12.1762 9.27436 12.2901 9.28598 12.3999 9.26315C12.5097 9.24032 12.6105 9.18407 12.6896 9.1015C12.7688 9.01893 12.8227 8.91376 12.8445 8.79927C12.8663 8.68479 12.855 8.56613 12.8122 8.4583C12.7693 8.35048 12.6967 8.25832 12.6036 8.19349C12.5105 8.12865 12.4011 8.09404 12.2891 8.09404C12.213 8.08654 12.1361 8.09666 12.0642 8.12369C11.9922 8.15071 11.9268 8.19397 11.8727 8.25038C11.8186 8.30679 11.7772 8.37495 11.7513 8.45C11.7254 8.52505 11.7157 8.60514 11.7229 8.68454V8.68478Z" fill="#F9FFFC"/>
</svg>
